<?xml version="1.0" standalone="no"?>
<!DOCTYPE svg PUBLIC "-//W3C//DTD SVG 1.1//EN" "http://www.w3.org/Graphics/SVG/1.1/DTD/svg11.dtd" >
<svg xmlns="http://www.w3.org/2000/svg">
<metadata>
This is a custom SVG webfont generated by Font Squirrel.
Copyright   :  19992001 WolfBainX  Apostrophic Labs All rights reserved Visit wwwapsotrophiclabcom or email infoapostrophiclabcom for more info
Designer    : WolfBainX  Apostrophe
Foundry URL : wwwapostrophiclabcom
</metadata>
<defs>
<font id="webfontawcBbHlT" horiz-adv-x="1421" >
<font-face units-per-em="2048" ascent="1638" descent="-410" />
<missing-glyph horiz-adv-x="739" />
<glyph unicode=" "  horiz-adv-x="739" />
<glyph unicode="&#x09;" horiz-adv-x="739" />
<glyph unicode="&#xa0;" horiz-adv-x="739" />
<glyph unicode="!" horiz-adv-x="819" d="M-90 131q-4 -98 63.5 -151.5t163.5 -51.5q45 0 81 15.5t61.5 37t43 47t23.5 44.5q8 25 7 57.5t-17.5 65t-51 60.5t-89.5 42q-66 18 -118 11t-89 -32.5t-56.5 -63.5t-21.5 -81zM10 571q-10 -59 5.5 -88.5t62.5 -54.5q45 -23 93 -38t105 -25q47 -12 69 -2t32 53 q31 123 70.5 265t88.5 296l100 311l105 311q18 55 5 93.5t-68 76.5q-53 37 -126 68t-134 47q-66 23 -97.5 8.5t-48.5 -77.5q-35 -131 -73 -297l-76 -336q-37 -170 -67 -331t-46 -280z" />
<glyph unicode="&#x22;" horiz-adv-x="1148" d="M49 1354q-18 -78 72 -90q41 -6 83 -3t72 11q37 4 68 26.5t53 57.5q23 39 50.5 93t50.5 116q20 45 37.5 95t28.5 97t16.5 86t1.5 62q-6 45 -50 84q-37 35 -77.5 60.5t-87.5 47.5q-51 29 -85 24t-44 -65q-16 -78 -40 -174t-52 -194l-53 -187zM541 1315q-41 -78 61 -96 l78 -9q39 -4 80 2q76 4 131 68q29 33 65.5 84t71.5 110.5t66.5 120t52.5 113.5l13 56q5 22 5 32q2 31 -32 86q-29 31 -64 60.5t-82 58.5q-96 70 -137 -29l-69 -161l-83 -183l-85 -176q-41 -84 -72 -137z" />
<glyph unicode="#" horiz-adv-x="1468" d="M-113 545.5q-4 -15.5 25 -53.5q49 -57 97 -86t124 -19v-29q-6 -47 1 -81.5t25.5 -61.5t46 -45t62.5 -33q41 -16 58.5 -13t27.5 40q16 61 31 130l31 148q66 14 129 21.5t129 23.5q-6 -27 -8 -47t-13 -41q-2 -27 -4 -48t2 -38q6 -51 37 -83.5t84 -55.5q37 -16 57.5 -13 t34.5 40q16 68 40 147l52 178l108 12q50 5 103 9q47 6 56.5 22.5t-15.5 51.5q-16 27 -32.5 45t-37 30.5t-49 18.5t-71.5 8q18 66 40 133l44 137q66 6 125 9.5t116 9.5q51 4 62.5 18t-12.5 55q-18 29 -35 51.5t-40.5 37t-57 22.5t-84.5 8q18 43 30.5 80t26.5 72 q35 92 2 159.5t-111 122.5q-88 63 -120 -26q-35 -92 -71 -199.5t-69 -222.5q-61 -6 -126.5 -11t-135.5 -12q25 74 41 136q29 94 -11 159.5t-122 118.5q-84 57 -115 -29q-29 -92 -56 -199l-56 -227q-90 -16 -166 -26t-135 -27q-53 -12 -59.5 -28.5t26.5 -57.5 q27 -35 51.5 -60.5t54 -41t67.5 -19.5t91 6h10q-16 -68 -25.5 -129t-23.5 -120q-66 -16 -123 -24.5t-112 -25.5q-48 -12 -52 -27.5zM471 670l31 125q14 59 33 129q59 12 124.5 18t135.5 16l-37 -131t-31 -125q-61 -8 -125.5 -15t-130.5 -17z" />
<glyph unicode="$" horiz-adv-x="1132" d="M-109 457q0 -27 66 -92q49 -51 102.5 -84t108.5 -60q-8 -25 -10 -48t-4 -52q-4 -74 22.5 -143.5t97.5 -104.5q41 -20 60.5 -15t27.5 40q10 53 27 123.5t35 136.5q2 -2 25 -2h26q84 0 145.5 21.5t105.5 54t72.5 71.5t47.5 72q31 82 -4 142.5t-104.5 112.5t-156.5 101 t-159 109q-43 39 -52.5 86t3 93t40 88t60.5 71.5t64.5 46t52.5 8.5q14 -8 14 -33q8 -43 -1 -101.5t-17 -101.5q-4 -43 8 -76.5t37.5 -60t61.5 -48t79 -38.5q61 -23 96 31q14 31 28.5 73t25 89t17.5 94t9 84q2 47 -11 102.5t-79 114.5q-51 43 -94 68q14 47 26 96l21 90 q23 96 -13 165.5t-106 116.5q-88 61 -127 -26q-25 -63 -53 -160l-57 -188q-41 -2 -76 -12.5t-64 -26.5q-123 -72 -204.5 -185.5t-120.5 -224.5q-29 -123 17 -219t134 -164q63 -49 141 -92l140 -78q63 -35 97 -62.5t9 -47.5q-18 -16 -54 -18.5t-86 8t-109.5 34t-122.5 58.5 q-25 16 -55.5 26t-62.5 12.5t-63.5 -4t-56.5 -20.5q-29 -20 -27 -51z" />
<glyph unicode="%" horiz-adv-x="1820" d="M-38 1129.5q9 -101.5 54 -177.5q23 -35 53.5 -66.5t61.5 -51.5q39 -23 86 -36.5t90 -23.5q125 -14 219 51q49 37 83 92.5t55.5 119t31 132t9.5 134.5q86 -29 177 -20t175 54l-244 -300l-239 -307l-205 -276l-146 -208q-49 -82 -29.5 -133.5t78.5 -96.5q35 -20 52.5 -23 t44.5 23q47 70 128 177l180 230l211 259l219 262l205 240l169 192q66 74 56.5 146.5t-67.5 142.5q-59 82 -120 10q-57 -61 -126 -107t-136.5 -76t-131 -42t-112.5 -8q-119 10 -182 94q-53 72 -87 109q-37 29 -88 52t-116 38q-41 8 -93.5 -3.5t-89.5 -37.5 q-80 -63 -134 -158.5t-77.5 -200t-14.5 -206zM219 1046.5q-6 92.5 23 225.5q12 47 33.5 97t47 90t50 62.5t41.5 14.5q23 -8 30 -43t7 -82q2 -47 -4.5 -104.5t-16.5 -116.5q-29 -139 -74 -202.5t-88 -47.5q-43 14 -49 106.5zM867.5 245.5q9.5 -67.5 40 -121.5t83.5 -83 q35 -20 77 -31.5t87 -17.5q111 -18 205 41q49 33 86 80t62.5 101t40 112.5t18.5 117.5q4 41 3 79t-5 73q-4 41 -24.5 80t-59.5 72q-29 23 -79 44t-102 33q-41 6 -92 -3t-88 -31q-70 -45 -121 -111t-82.5 -139.5t-45 -150.5t-4 -144.5zM1090 223q2 43 13 92.5t34 106.5 q14 43 37.5 87t51 79t53.5 54.5t42 10.5q14 -6 20.5 -36.5t3 -74.5t-14.5 -96.5t-30 -97.5q-39 -117 -87 -174t-85 -43q-42 14 -38 92z" />
<glyph unicode="&#x26;" horiz-adv-x="1593" d="M-117.5 337.5q11.5 -65.5 60.5 -131t141 -130.5q86 -55 163 -80t147.5 -30t134 6.5t118.5 27.5q162 37 299 115q35 -25 53 -43q31 -23 53.5 -36t42 -21.5t39 -10.5t42.5 0q47 8 75.5 21.5t63.5 35.5q37 23 39 42.5t-41 54.5q-33 29 -63.5 59.5t-69.5 65.5 q16 16 29.5 32.5t31.5 32.5q27 35 47.5 71t30.5 72.5t7 73.5t-23 74q-18 31 -52 31q-33 0 -84 -37l-98 -75l-94 -69l-106 119q-52 59 -99 123l215 126q109 67 178 144q137 137 130 302t-167 331q-68 72 -129 110t-121.5 53t-123 11t-131.5 -18q-74 -16 -146 -46t-134 -72 t-111.5 -95t-79.5 -115q-33 -66 -45.5 -127t-5.5 -123.5t35 -129t75 -142.5q12 -20 31 -47l41 -62q-94 -53 -173 -109t-135 -122q-53 -66 -77.5 -131.5t-13 -131zM276 293q-2 51 47.5 119.5t170.5 154.5l108 -122q51 -56 107 -109q-152 -74 -263.5 -98.5t-150.5 12.5 q-19 14 -19 43zM555 1278q18 33 52 66.5t77 62.5t91 50.5t95 31.5q39 -43 47.5 -91t-4 -94.5t-39 -86t-59.5 -64.5q-43 -41 -103.5 -80t-129.5 -74l-9 17q-84 147 -18 262z" />
<glyph unicode="'" horiz-adv-x="651" d="M51 1315q-37 -78 62 -96l78 -9q38 -4 77 2q78 4 133 68q29 33 64 84t69.5 110.5t64.5 120t48 113.5l13 56q5 22 6 32q0 33 -37 86q-29 31 -64 60.5t-82 58.5q-98 70 -137 -29l-67 -162l-81 -181l-81 -175z" />
<glyph unicode="(" horiz-adv-x="745" d="M15.5 968.5q-31.5 -243.5 9.5 -474t157 -416.5q63 -92 140 -120t153 -24q45 6 53.5 14.5t-12.5 43.5q-90 152 -118.5 338t-6 381.5t90 390t169.5 360.5q127 205 -63 434q-84 102 -156 11q-176 -209 -280.5 -452t-136 -486.5z" />
<glyph unicode=")" horiz-adv-x="831" d="M-152 -4q-43 -59 46 -68q180 -14 286 72q129 111 227.5 286t156 381.5t67.5 430t-37 432.5q-35 133 -133.5 231.5t-272.5 128.5q-43 8 -65.5 4t-30.5 -18t-4 -37.5t14 -54.5q51 -158 76 -328t24 -340t-24.5 -334t-70 -309t-112 -268t-147.5 -209z" />
<glyph unicode="*" horiz-adv-x="1458" d="M-46 1010.5q-1 -19.5 34 -54.5q31 -33 62.5 -58.5t67.5 -39.5t77 -14t88 16.5t92 28.5t92 26q-8 -27 -10 -53t-8 -59q-8 -51 -1 -89t25.5 -65.5t47 -46t63.5 -33.5q47 -23 63.5 -18.5t26.5 45.5l36 149l31 146l75 -56q38 -30 85 -59q102 -72 170 -71q70 0 133 32 q39 27 42 41.5t-38 46.5l-146 113q-69 51 -134 106l171 39q83 18 173 33q86 16 35 86q-45 66 -111 95.5t-186 13.5l-82 -11.5t-82 -13.5q10 45 25 92l34 101q31 92 -7 161.5t-122 124.5q-84 61 -114 -28q-35 -104 -62 -197.5t-47 -183.5q-39 31 -71.5 63.5t-78.5 69.5 q-86 78 -168.5 87t-162.5 -28q-82 -39 -11 -106l167 -149l151 -126q-109 -29 -202 -60l-171 -60q-51 -17 -52 -36.5z" />
<glyph unicode="+" horiz-adv-x="1499" d="M-125 801q18 -41 54 -91.5t69 -82.5q18 -16 33.5 -26.5t31 -14.5t32 -3t40.5 5q47 8 99.5 15t105.5 13q-10 -61 -14 -112t-9 -90q-6 -72 66 -107q45 -25 80 -40l74 -31q45 -18 60 -12.5t26 46.5l36 176q20 98 50 205q123 12 242.5 15.5t238.5 7.5q45 0 59.5 14t-2.5 55 l-26 67q-12 32 -39 73q-41 68 -129 71q-104 4 -262 0q14 47 30.5 91.5t28.5 84.5q20 43 14 69t-45 61q-33 35 -86 66.5t-106 51.5q-41 16 -71 -3t-44 -54q-29 -76 -55 -175l-56 -214q-131 -6 -249.5 -19.5t-204.5 -29.5q-37 -6 -64.5 -24.5t-7.5 -57.5z" />
<glyph unicode="," horiz-adv-x="641" d="M-211 -182q-33 -57 41 -78q39 -14 83 -21.5t89 -5.5q33 4 58.5 13.5t54.5 37.5l51 54q31 33 61 69l60 75q29 38 47 73q23 35 21.5 60.5t-36.5 54.5q-39 35 -84 60.5t-92 47.5q-47 20 -75.5 16t-49.5 -41q-47 -113 -111.5 -216t-117.5 -199z" />
<glyph unicode="-" horiz-adv-x="1212" d="M-242 956q29 -47 60.5 -91t77.5 -91q43 -47 79.5 -61.5t79.5 -1.5q156 41 339.5 60.5t361.5 31.5q51 2 65.5 18.5t-6.5 67.5q-20 41 -39.5 86t-50.5 98q-33 45 -68.5 67.5t-83.5 22.5q-102 0 -211.5 -7t-216 -17.5t-199.5 -24.5t-161 -29q-101 -18 -27 -129z" />
<glyph unicode="." horiz-adv-x="677" d="M-61 150q-2 -47 14 -85t47 -64t73 -40t89 -12q45 0 82 15.5t63.5 37t43 46t22.5 42.5q10 31 10 60q2 47 -36 95t-122 74q-63 16 -114.5 8t-88 -33.5t-59 -63t-24.5 -80.5z" />
<glyph unicode="/" horiz-adv-x="1087" d="M-127 74q4 -16 14.5 -31.5t32.5 -28.5l60.5 -36.5t76.5 -40.5q47 -23 71 -16t40 42l112 197l152 263l176 295l179 297l164 266l130 204q31 47 31 78q0 33 -47 77q-45 41 -92 77t-99 67q-98 74 -157 -29q-57 -84 -133 -217l-159 -290l-167 -322l-157 -317l-129 -270 l-85 -183q-20 -47 -14 -82z" />
<glyph unicode="0" horiz-adv-x="1402" d="M-84 687q-2 -130 20.5 -249t65.5 -213q33 -57 87 -102t101 -70q74 -35 154 -53t154 -25q117 -10 205 8.5t171 88.5q119 102 202 254.5t130 324.5t59.5 347.5t-10.5 322.5q-16 84 -51 153.5t-114 135.5q-68 53 -171.5 89t-220.5 54q-86 14 -185 -11.5t-173 -82.5 q-109 -88 -187.5 -202t-131 -242t-78 -263t-27.5 -265zM339 452q-7 85 4 187t38 205q29 106 77 211.5t103 186.5t110.5 126t98.5 33q41 -12 57.5 -84t12.5 -176q-2 -102 -17.5 -210t-40.5 -206q-27 -117 -67.5 -213t-86.5 -162.5t-94.5 -97.5t-91.5 -19q-45 14 -70.5 74 t-32.5 145z" />
<glyph unicode="1" horiz-adv-x="792" d="M-27 172q-4 -53 8.5 -84t51.5 -53q49 -25 97 -36l97 -24q53 -14 70.5 -3.5t28.5 44.5q16 90 39.5 207t53.5 248l63 269l68 272l67 254l63 217q20 53 6 81.5t-70 65.5q-59 41 -117.5 68.5t-119.5 44.5q-31 8 -53.5 10t-40 -4t-32.5 -20.5t-36 -38.5q-41 -55 -88 -130 t-82 -147q-14 -31 -16 -50.5t9 -35.5t37.5 -31.5t67.5 -35.5q-31 -137 -60.5 -296t-53 -309.5t-39 -278.5t-19.5 -204z" />
<glyph unicode="2" horiz-adv-x="1267" d="M-160 209.5q4 -19.5 15.5 -37.5t25.5 -33q16 -18 38 -40l44 -42l45.5 -38.5t40.5 -30.5q14 -12 28.5 -20.5t34 -12.5t48 -3t73.5 9q59 12 149.5 26.5t189 27t195.5 22.5t171 14q47 6 60.5 18.5t-3.5 49.5q-10 31 -31.5 69.5t-45.5 69.5q-27 37 -58 52.5t-78 13.5 q-66 -2 -155.5 -8.5t-173.5 -20.5q94 68 190 149.5t183 169.5t161 176.5t123 167.5q45 70 77 136.5t44 133t0 134.5t-55 141q-33 49 -89.5 101.5t-131 90.5t-164 55t-189.5 -1q-170 -31 -313.5 -142.5t-241.5 -275.5q-27 -51 -37 -86t-5 -58.5t22.5 -37.5t44.5 -23 q45 -16 96 -23t101 -5t97.5 16t86.5 43q51 49 104 95t100.5 77t86 42t63.5 -7q27 -18 -1 -81.5t-95.5 -157t-166 -206t-211 -226t-231 -221t-227.5 -187.5q-25 -18 -32 -37t-3 -38.5z" />
<glyph unicode="3" horiz-adv-x="1329" d="M-167 260.5q3 -18.5 24.5 -44.5t66.5 -60q145 -119 286.5 -162t270.5 -43q170 0 307.5 47t247.5 176q47 57 72 125t19.5 137.5t-43 139t-115.5 135.5q-41 35 -87 54t-100 36q100 41 181 86t141 98q49 43 83 107.5t40 142.5t-21.5 164t-99.5 176q-72 84 -143.5 127 t-141 58.5t-133 10t-119.5 -15.5q-74 -16 -144.5 -49t-132 -74t-112.5 -88t-84 -90q-53 -68 21 -133q37 -29 90 -49.5t110.5 -26.5t112.5 3t96 40l63 36q32 17 64.5 32.5t61 25t53.5 9.5q37 0 51 -23q25 -31 -1.5 -79t-108.5 -106.5t-220.5 -125t-341.5 -129.5 q-82 -29 -24 -115q63 -98 154.5 -147.5t187.5 -36.5q76 10 122 6t87 -37q18 -16 29.5 -45t8.5 -65.5t-21.5 -77.5t-57.5 -82q-41 -41 -88 -64.5t-105.5 -27t-129 14t-158.5 60.5q-61 29 -140.5 36t-142.5 -32q-18 -10 -28.5 -23t-7.5 -31.5z" />
<glyph unicode="4" horiz-adv-x="1456" d="M-140 703.5q3 -37.5 31 -78.5q41 -47 88.5 -95.5t96.5 -85.5q43 -39 81 -41t83 7q84 12 172 22l180 21q-39 -190 -55 -293q-10 -53 4 -81t57 -56q45 -23 93 -40.5t89 -27.5q51 -10 70.5 -1t30.5 48q23 98 55 220l74 265l95 5l97 4q51 6 66.5 21t5.5 56q-16 39 -24.5 71 t-30.5 73q-33 72 -123 76l106 344q51 164 96 293q23 53 10.5 82.5t-65.5 66.5q-31 18 -84 46l-109 56q-56 29 -109.5 52.5t-84.5 35.5q-59 16 -94 10.5t-84 -44.5q-63 -57 -135 -131l-148 -157l-149 -171l-142 -174q-68 -86 -124 -166t-95 -148q-28 -47 -25 -84.5zM270 743 l123 145l136 153l147 152t151 142q-43 -135 -78.5 -277.5t-76.5 -281.5l-209 -15.5t-193 -17.5z" />
<glyph unicode="5" horiz-adv-x="1206" d="M-125 272q2 -35 86 -110q90 -104 212 -144.5t251 -37.5q117 2 205 30.5t151.5 70.5t104.5 90t61 89q100 195 62.5 346.5t-183.5 235.5q-168 90 -354 90q29 86 65.5 179t81.5 192l277 32l254 31q61 8 77.5 24.5t0.5 69.5q-10 47 -18.5 98.5t-32.5 100.5q-37 92 -158 86 q-154 -6 -310.5 -16.5t-326.5 -36.5q-117 -23 -156 -117q-80 -209 -134 -377t-83 -299q-14 -59 0.5 -93t44.5 -56q49 -33 78 -50.5t68 -44.5q14 -12 26.5 -19t26.5 -8t34.5 2t53.5 13q29 8 67.5 14.5t77.5 6.5t70 -4.5t45 -12.5q10 -14 21.5 -49t9.5 -82q0 -45 -17.5 -94 t-46.5 -90q-23 -31 -53.5 -55.5t-74.5 -31.5t-102 9t-136 65q-29 18 -67 28.5t-78 11.5t-79.5 -7t-70.5 -26q-41 -23 -31 -54z" />
<glyph unicode="6" horiz-adv-x="1253" d="M-98 428q2 -78 21.5 -140.5t59.5 -113.5t103.5 -92t153.5 -74q92 -29 165.5 -39t132 -6t103.5 20.5t84 39.5q59 37 117.5 98t103.5 141t71.5 172t20.5 191q0 51 -12 98t-43 88t-83 78t-132 67q-51 20 -104.5 30.5t-110.5 6.5q96 147 219 283.5t272 259.5q51 47 41 78 t-61 61q-25 12 -59.5 26.5t-73.5 28t-79 24.5t-73 18q-35 6 -58.5 7t-41.5 -5.5t-36.5 -19.5t-43.5 -34q-207 -176 -337 -361t-202.5 -357.5t-97 -321t-20.5 -252.5zM285 342q0 86 43 219q29 43 64.5 76t72.5 52.5t71.5 24.5t63.5 -5q61 -27 56 -107t-54 -180 q-57 -117 -128 -168t-136 -21q-53 23 -53 109z" />
<glyph unicode="7" horiz-adv-x="1316" d="M-39 1634.5q-10 -18.5 23 -63.5q12 -23 30.5 -49.5t38.5 -52.5l40 -49l34 -42q47 -43 96 -54t96 -1q39 4 96 11l117 16q61 8 125 15t119 11q-102 -141 -198.5 -289.5t-184.5 -298t-163.5 -296t-133.5 -281.5q-16 -49 -13 -78t40 -63q39 -35 86 -64t94 -51 q47 -18 69.5 -14t39.5 39q80 154 181 324l213 343l228 337l230 310q43 53 42 99.5t-36 95.5l-64 89q-35 50 -82 103q-39 53 -81 68.5t-105 15.5q-109 -4 -236 -12t-251.5 -20.5t-239.5 -28.5t-201 -41q-39 -10 -49 -28.5z" />
<glyph unicode="8" horiz-adv-x="1339" d="M-106 391q-10 -129 78.5 -234.5t269.5 -156.5q94 -29 193.5 -36t193.5 10.5t180 62.5t156 125q61 76 97 151.5t29.5 153.5t-64.5 158t-183 159q123 68 219 135.5t149 149.5q53 74 67.5 148.5t-5 146.5t-68.5 138.5t-121 125.5q-121 94 -248.5 128t-263.5 -17 q-160 -61 -281.5 -159.5t-193.5 -227.5q-84 -150 -38 -281t208 -240q-72 -45 -137 -93t-116.5 -102t-83 -115.5t-37.5 -129.5zM291 309q0 29 16 64q35 70 100.5 135t163.5 121q45 -33 64.5 -68t20.5 -71.5t-13 -74.5t-39 -77q-55 -82 -123.5 -113.5t-120.5 -15.5 q-18 6 -34.5 19.5t-25.5 33.5t-9 47zM484.5 1070q-7.5 52 22.5 112.5t95.5 126t169.5 131.5q129 -98 62.5 -207t-302.5 -254q-40 39 -47.5 91z" />
<glyph unicode="9" horiz-adv-x="1247" d="M-77 1094.5q-9 -115.5 20 -222.5q25 -119 101.5 -196.5t234.5 -126.5q29 -10 57.5 -13.5t56.5 -9.5q-160 -203 -368 -366q-23 -16 -29 -29.5t-2 -26t15 -23.5t28 -24q47 -31 85 -46l87 -36q53 -23 89 -12.5t79 37.5q166 102 311.5 256t255 324t171 341t59.5 310 q-4 92 -32 162.5t-80 129t-128 105.5t-174 90q-100 39 -182 48.5t-147.5 -2t-119 -37t-94.5 -54.5q-78 -59 -141.5 -152.5t-103.5 -202t-49 -224zM342 903q-4 45 5 100.5t28 112.5q25 63 58.5 121.5t72.5 101.5t78 63.5t73 8.5q39 -16 52.5 -67.5t2 -128t-44 -175 t-85.5 -206.5q-82 -78 -164 -50q-35 10 -53.5 42t-22.5 77z" />
<glyph unicode=":" horiz-adv-x="755" d="M-94 172q-6 -47 5 -84t37.5 -64.5t63.5 -46t82 -24.5q92 -16 158.5 18.5t85.5 100.5q6 27 5 63.5t-16.5 72.5t-49 66.5t-93.5 47.5q-61 14 -110 8t-85 -27.5t-56.5 -55.5t-26.5 -75zM41 831q-4 -53 14.5 -95t52 -72.5t78.5 -46t95 -15.5q49 0 87 17.5t66.5 43t46 53 t25.5 50.5q8 27 8 65q2 55 -36 109.5t-128 81.5q-66 18 -121 9t-96 -36.5t-65.5 -71t-26.5 -92.5z" />
<glyph unicode=";" horiz-adv-x="798" d="M-154 -221q-25 -68 64 -92q90 -35 172 -33q35 4 58.5 16.5t43.5 46.5q18 23 41 61t45.5 83t43 92t32.5 88q29 53 -9 104.5t-130 106.5q-41 27 -78 48.5t-66.5 28.5t-49 -3.5t-25.5 -44.5q-29 -137 -68 -264zM-129 1014q12 -66 40 -118t67.5 -89t87 -56.5t98.5 -19.5 q53 0 89 21.5t58.5 52.5t33.5 64.5t15 60.5q4 37 -3 83t-31.5 91t-69.5 84t-115 61q-68 25 -121 12.5t-88.5 -48t-52 -89t-8.5 -110.5z" />
<glyph unicode="&#x3c;" horiz-adv-x="1069" d="M-55 731q0 -14 4 -37q6 -23 37 -39l328 -125q163 -63 307 -135q45 -23 64.5 -16.5t37.5 43.5q20 45 33 127q4 39 -13.5 61.5t-56.5 44.5q-59 33 -139 69l-178 77l229 96q113 47 227 88q47 14 53.5 34.5t-22.5 55.5q-49 61 -119 125q-29 25 -52 33t-53 5t-69 -17.5 t-96 -32.5q-53 -20 -111 -45l-112 -49l-107 -50l-90 -45q-35 -14 -53.5 -41.5t-26.5 -61.5t-10 -69.5t-8 -68.5q-4 -11 -4 -27z" />
<glyph unicode="=" horiz-adv-x="1339" d="M-43 645.5q-18 -22.5 4 -63.5l45 -69q25 -38 51 -69q29 -33 58.5 -43t81.5 0q203 33 412.5 52.5t428.5 25.5q47 2 61.5 14.5t0.5 51.5q-10 33 -23.5 63.5t-40.5 65.5q-37 63 -123 63q-100 2 -214.5 -1t-233.5 -11t-233.5 -21.5t-215.5 -29.5q-41 -6 -59 -28.5zM-23 1071 q16 -37 41 -78l48 -75q29 -41 58.5 -50.5t80.5 -5.5q219 27 438 32t453 1q47 -4 63.5 9.5t5.5 53.5q-10 35 -22.5 68t-30.5 74q-33 68 -131 76q-98 10 -219 13t-246 2t-247 -8t-222 -20q-41 -6 -64.5 -26.5t-5.5 -65.5z" />
<glyph unicode="&#x3e;" horiz-adv-x="1136" d="M-42 633.5q-13 -19.5 15 -51.5l78 -73q39 -36 74 -60q39 -27 62.5 -29t58.5 16q123 51 252 92t293 88q23 8 39 15.5t28 16.5t20.5 22.5t18.5 34.5q16 33 29.5 71.5t25.5 83.5q16 51 0 70.5t-55 40.5q-88 43 -185 85l-194 81q-96 39 -186 71.5t-160 55.5q-39 12 -66.5 5 t-35.5 -42q-4 -43 -2 -96.5t12 -88.5q8 -23 15 -36t17.5 -23t26 -17.5t39.5 -13.5l156 -56q78 -28 155 -62q-141 -39 -270 -83t-219 -83q-29 -15 -42 -34.5z" />
<glyph unicode="?" horiz-adv-x="1390" d="M-36 1284.5q5 -22.5 22.5 -38t44.5 -25.5q102 -43 209.5 -36t179.5 66l97 79q48 40 94 72t92.5 52.5t93.5 20.5q33 0 61.5 -17.5t34.5 -58.5q8 -59 -47 -141t-209 -175l-134 -88q-75 -49 -140.5 -112.5t-112.5 -145.5t-53 -188q-6 -53 6 -82t57 -53l94 -39 q51 -20 94.5 -28.5t71 0.5t25.5 48q12 86 48 148.5t86 109.5t109 84l120 73q60 36 116.5 74t101.5 87t83 116.5t47.5 148.5t-18.5 173t-110 193q-39 51 -97 97t-133 76.5t-163 41t-184 -8.5q-160 -29 -296 -129t-239 -256q-33 -49 -45 -82.5t-7 -56zM92 133q-4 -47 11.5 -82 t45 -60.5t69.5 -39.5t85 -21q102 -14 165.5 23t80.5 94q4 6 4 25v30q0 25 -7 48.5t-25.5 46t-50.5 42t-81 33.5q-66 18 -120 14.5t-93 -25t-60.5 -55.5t-23.5 -73z" />
<glyph unicode="@" horiz-adv-x="1826" d="M-70 1024q-33 -219 11.5 -386t134.5 -288t210 -196.5t238 -108.5q139 -43 243.5 -44t178.5 22q25 8 28 24t-13 37q-31 31 -79 52.5t-96 31.5q-33 6 -61 7l-59 2q-31 1 -65 5t-77 15q-39 10 -84 34.5t-89 64.5t-81 98.5t-58.5 134t-22.5 171t28 211.5q45 190 143.5 323.5 t221.5 207.5t259 89t257 -28q92 -35 152.5 -89t95 -120.5t48 -140.5t12.5 -146.5t-13.5 -140t-28.5 -121.5q-31 -96 -67.5 -166.5t-72.5 -113.5t-69 -56.5t-55 3.5q-14 10 -15 45q2 41 16.5 108.5t34.5 137.5l36 132l26 89q6 27 8 48t-6 39.5t-29.5 37t-60.5 38.5 q-16 59 -57 103.5t-101 64.5q-82 25 -168 1.5t-160.5 -85t-134 -155.5t-90.5 -209q-33 -109 -22.5 -187.5t47.5 -133t90 -88t109 -48.5q86 -23 159.5 -13.5t130.5 54.5q57 -86 168 -110q68 -20 140.5 -18.5t143.5 39.5t135.5 119t115.5 218q53 139 58 289.5t-47 288 t-165.5 251t-296.5 181.5q-125 47 -257 62t-260 -4t-246.5 -71.5t-214 -137.5t-163 -203.5t-94.5 -270.5zM632 551q-5 33 1 84t29 125q23 76 62.5 142.5t82.5 113.5t80 72.5t53 21.5q37 -16 47 -63q-35 -127 -74 -234.5t-77.5 -184.5t-77.5 -117t-72 -30q-18 4 -33.5 20.5 t-20.5 49.5z" />
<glyph unicode="A" horiz-adv-x="1470" d="M-158 88q10 -16 29 -28l43 -27l64 -30l59 -23q34 -12 56 -12q8 0 15 1q24 6 39 41l60 134q31 69 72 149q117 31 269 52l306 42q6 -84 12 -154.5t15 -130.5q8 -57 27.5 -79.5t68.5 -36.5q47 -16 92 -19.5t98 -3.5t68.5 14.5t15.5 51.5q-1 117 -1 248v134q1 206 5.5 410.5 t12.5 393t20 333.5q2 15 2 30q0 40 -13 67q-17 37 -81 59q-47 12 -93 26.5t-100.5 26.5t-120 21.5t-149.5 13.5q-18 2 -35 2q-71 0 -110 -29q-49 -35 -80 -90q-86 -154 -181 -351l-187 -400l-170 -394q-79 -190 -128 -331q-11 -40 -11 -65q0 -28 11 -46zM463 674l191 376 l177 330q-3 -109 -2 -219v-111q2 -167 7 -335q-94 -6 -187.5 -16.5t-185.5 -24.5z" />
<glyph unicode="B" d="M-80 236q4 -25 14.5 -44.5t27.5 -36.5l40 -42q61 -47 107.5 -77t107.5 -56q33 -18 57.5 -26.5t50.5 -10.5q9 -1 17 -1q18 0 36 3q28 4 66 14q74 18 156 46t163 62.5t153.5 77.5t125.5 91q78 61 113 125q27 50 27 117q0 20 -2 40q-16 78 -66.5 151.5t-130.5 114.5 q70 35 121 73l100 75q45 39 84 83t65.5 95t38.5 107q6 29 6 59q0 27 -5 55q-23 109 -71 191t-120 153q-55 53 -141 81t-190 34q-34 2 -70 2q-71 0 -148 -8q-115 -12 -226.5 -39t-213.5 -63.5t-180 -79.5q-4 -158 -19.5 -333t-35 -348t-36 -334t-22.5 -288q-2 -19 -2 -35 t2 -28zM299 264q14 82 31.5 161t34.5 165q82 27 149 36q41 6 75 5q23 0 44 -2q51 -6 81.5 -22.5t41.5 -37.5q2 -8 1 -15q0 -29 -23 -61q-30 -42 -91 -84t-149.5 -80t-194.5 -65zM442 930q29 109 49.5 205t49.5 184q88 41 163.5 61.5t134.5 23.5q11 1 21 0q44 0 74 -10 q37 -13 45 -40q2 -7 2 -14q0 -30 -27 -73q-33 -54 -103.5 -114.5t-174 -120t-234.5 -102.5z" />
<glyph unicode="C" horiz-adv-x="1314" d="M-127 650q-1 -30 -1 -59q0 -103 16 -197q22 -120 75 -208q31 -57 86 -100t111 -66l139 -43.5t174 -29.5q23 -2 46 -2t47 2q48 4 92 14t84 26.5t69 35.5q57 41 114.5 102t94.5 135q32 58 32 99q0 49 -81 71q-60 17 -114 17q-118 0 -202 -85q-145 -149 -226 -148 q-13 0 -23 3q-43 12 -66 69.5t-27 140.5q-1 20 -1 40q0 67 11 144q13 101 39 204q29 98 79.5 213t107.5 210t113 155q46 49 81 49q7 0 15 -2q41 -16 49 -70q7 -43 6 -93v-26q0 -37 6 -80q8 -51 26.5 -90t49.5 -68.5t78 -51t112 -33.5q35 -6 55.5 -4t32 10t17.5 22.5l12 30.5 q12 37 22.5 83t16.5 96.5t9 101.5q2 31 2 60q0 19 -1 38q-2 41 -8 77t-21.5 68.5t-41 64.5t-64.5 64q-41 27 -92 52.5t-108.5 47t-119 37t-118.5 21.5q-17 1 -34 1q-63 0 -132 -17q-88 -23 -174 -96q-106 -92 -189 -214t-142.5 -259.5t-93.5 -282t-40 -280.5z" />
<glyph unicode="D" horiz-adv-x="1501" d="M-88 238q4 -33 17.5 -55.5t31.5 -40.5l39 -36q55 -41 98 -68.5t101 -55.5q69 -33 134 -34q43 0 85 15q205 57 366.5 153.5t279.5 217.5t191.5 258t103.5 275q20 93 20 184q0 43 -5 86q-14 131 -71 241q-68 139 -166.5 223.5t-214 126t-239.5 47.5q-26 1 -51 1 q-97 0 -192 -16q-119 -19 -224 -57t-183 -81l-119 -1300q-4 -31 -4 -55q0 -16 2 -29zM307 285q51 266 106.5 527t127.5 529q74 24 134 24q49 0 91 -15q92 -35 129 -105q30 -57 30 -151q0 -21 -1 -43q-6 -90 -43 -194.5t-111 -209t-188.5 -199.5t-274.5 -163z" />
<glyph unicode="E" horiz-adv-x="1181" d="M-111 272q-1 -10 0 -18q0 -43 16 -76q19 -39 54 -67q43 -37 75 -60.5l66 -46.5q31 -20 73 -32q15 -4 35 -4q36 0 89 14l258 49l266 51q55 10 65.5 25.5t0.5 56.5q-16 37 -29.5 72.5t-38.5 76.5q-23 37 -54 49q-24 9 -62 10q-13 0 -27 -1q-102 -6 -189.5 -16.5 t-183.5 -26.5l31 115l31 124q119 25 246.5 45.5t250.5 42.5q57 12 71 29q6 7 6 21q0 17 -9 43q-10 41 -23.5 80.5t-38.5 80.5q-23 41 -55 54q-28 11 -74 10h-16q-70 -2 -131.5 -6t-122.5 -13q33 109 59.5 208.5t57.5 191.5q145 20 276 35l254 28q59 8 76 27q11 12 11 40 q0 14 -3 32q-10 47 -20.5 86.5t-36.5 89.5q-32 90 -145 90h-5q-123 -4 -246.5 -19.5t-241.5 -36t-225.5 -45t-195.5 -47.5z" />
<glyph unicode="F" horiz-adv-x="1167" d="M-117 172q0 -53 10.5 -82t61.5 -53q39 -16 91 -34.5t99 -26.5q24 -4 44 -3.5t36 3.5q33 7 35 44l54 253q30 142 69 300q117 25 235.5 47.5t235.5 41.5q55 6 71 23q7 8 7 24t-8 41q-10 41 -23.5 80.5t-38.5 80.5q-41 64 -129 64h-16q-63 -2 -124 -7t-120 -12 q35 111 56.5 211.5t50.5 184.5q145 20 277 34.5t255 30.5q61 8 76 26q9 11 9 36q0 15 -3 34q-8 88 -64 181q-18 29 -34.5 46t-34 26.5t-39 12.5t-51.5 3q-123 -4 -249 -14.5t-247 -26t-230.5 -34.5t-197.5 -44q3 -43 3 -92q0 -65 -5 -141q-8 -133 -25.5 -279.5t-39.5 -296.5 l-43 -282l-36 -237q-16 -106 -18 -163z" />
<glyph unicode="G" horiz-adv-x="1357" d="M-137 700q-3 -46 -4 -91q0 -89 14 -172q20 -124 74 -216q29 -57 79 -105t103 -77q150 -66 307 -86q43 -6 85 -6q45 0 87 7q82 13 156 54q115 68 213 193t174 309q17 50 17 86q0 39 -35 88l-40 53q-22 29 -46 56q-37 41 -80 52q-23 6 -53 6q-27 0 -60 -5 q-59 -10 -141 -19.5t-158 -25.5l-74 -11q-33 -5 -55.5 -14.5t-31.5 -25t-1 -41.5q39 -117 106 -166q59 -44 163 -44q13 0 26 1q-33 -68 -69.5 -126.5t-75.5 -99.5t-79 -59q-24 -11 -47 -11q-15 0 -30 5q-43 14 -67.5 76.5t-28.5 150.5q-1 19 -1 38q0 72 12 154 q15 103 50 201q39 123 94.5 237t113.5 200t115 132q44 36 79 36q9 0 18 -2q20 -6 27.5 -33t15.5 -66l4 -41q2 -20 2 -43q-2 -23 -1 -42t5 -40q10 -104 77 -167.5t210 -84.5q12 -1 22 -1q33 0 49 11q19 13 34 54q8 33 15 82t12 102.5t6 106.5q0 18 1 34q0 33 -2 62 q-10 82 -38.5 147.5t-98.5 120.5q-37 31 -83 56.5t-98 45t-107.5 34t-108.5 20.5q-37 6 -80 6t-87 -6t-87 -22.5t-80 -45.5q-115 -84 -206 -202.5t-157.5 -255t-105.5 -281t-49 -283.5z" />
<glyph unicode="H" horiz-adv-x="1388" d="M-106 170q-5 -20 -5 -37q0 -28 13 -46q20 -30 67 -52q39 -23 93 -37l106 -29q29 -7 47 -6q15 0 24 4q17 10 25 45l37 222q20 124 53 266q86 14 169 25l169 24q-23 -119 -39 -215t-24 -170q-5 -21 -5 -39q0 -45 33 -71q47 -36 131 -60l77 -20q36 -9 63 -10h5q23 0 37 8 q15 9 15 38l93 369l109 399l113 391l107 344q10 32 10 55q0 16 -5 27q-11 29 -64 68q-57 37 -121 66.5t-123 46.5q-42 12 -72 12q-15 0 -25 -3q-34 -9 -53 -75q-47 -174 -95 -388l-99 -431l-161 -12q-83 -6 -169 -17l77 338q36 158 68 275q6 27 8.5 47t-5 36.5t-24.5 33 t-48 34.5q-55 37 -130 68.5t-140 50.5q-38 15 -65 14q-14 0 -26 -4q-31 -12 -47 -78q-25 -172 -48 -375l-48 -409q-25 -205 -51 -393.5t-57 -329.5z" />
<glyph unicode="I" horiz-adv-x="638" d="M-127 170q-2 -15 -2 -29q0 -33 11 -54q15 -30 63 -52q43 -23 91 -37l101 -29q29 -7 48 -6q15 0 23 4q17 10 28 45l44 210l56 250l63 270l67 271q34 132 68 251l62 211q8 31 8 53q0 18 -5 31q-11 29 -69 67q-55 37 -128.5 70t-137.5 49q-37 11 -63 11q-19 0 -32 -6 q-32 -13 -50 -73q-23 -96 -49.5 -224t-52.5 -271l-50 -293q-25 -150 -44 -285t-32.5 -248.5t-17.5 -185.5z" />
<glyph unicode="J" horiz-adv-x="1284" d="M-117 396q6 -73 39 -140q20 -47 49 -90t72 -80t101.5 -65.5t138.5 -47.5q99 -22 174 -22q43 0 79 7q99 19 171 62q90 57 167.5 184.5t144 316t124 436t108.5 548.5q7 32 8 51q0 17 -7 31q-7 16 -23.5 31.5t-46.5 36.5q-59 37 -134 65.5t-137 44.5q-35 9 -61 9 q-21 0 -36 -6q-34 -13 -46 -74q-18 -129 -44 -289t-56.5 -325t-65.5 -321.5t-74 -278.5t-79 -195q-40 -72 -82 -72h-2q-49 6 -61.5 52t-20.5 149q-6 160 -246 256q-35 16 -61 16t-43 -17q-32 -34 -44 -106q-8 -63 -8 -116q0 -27 2 -51z" />
<glyph unicode="K" horiz-adv-x="1359" d="M-139 170q0 -7 -1 -13q0 -66 38 -100q41 -37 133 -61l83 -24q38 -11 64 -12h5q23 0 36 10q14 11 14 42l37 205l47 248q43 -61 94 -124l96 -118l85 -98l61 -68q55 -59 111 -67q20 -3 40 -3q35 0 68 9q35 4 71 14t63 25q45 20 52 42q1 4 1 8q0 20 -29 48q-33 37 -76 92 l-90 121l-95 136q-48 71 -89 139l190 184l194 197q93 99 172 194.5t126 173.5q39 63 44 107q1 10 1 20q0 33 -12 68q-27 55 -56.5 102t-74.5 86q-43 37 -78 37q-31 0 -66 -45l-136 -160l-178 -199l-196 -211l-186 -202l65 294q31 134 62 238q8 27 10 46.5t-6 36t-26.5 31.5 t-49.5 36q-55 37 -130 69.5t-140 49.5q-34 11 -60 10q-18 0 -32 -5q-33 -13 -49 -71q-20 -96 -43 -227t-45.5 -277.5t-43 -299t-37 -292t-26.5 -255t-12 -187.5z" />
<glyph unicode="L" horiz-adv-x="1089" d="M-139 262q-3 -16 -3 -30q0 -32 13 -57q18 -36 53 -64l76 -61q29 -24 63 -46q14 -10 30 -18.5t38 -13.5q16 -4 36 -3h17q31 2 76 15l259 50l265 50q63 12 71 27q2 5 2 12q0 16 -9 45q-8 35 -23.5 73t-40.5 74q-25 39 -54 51q-22 8 -58 8q-13 0 -29 -1q-96 -6 -178 -14.5 t-176 -24.5l70 296q38 155 80 310l84 303q42 147 83 270q11 31 11 54q0 16 -6 28q-13 29 -66 68q-55 37 -129 66.5t-137 46.5q-39 11 -67 11q-17 0 -29 -4q-32 -11 -52 -71q-29 -104 -58.5 -229t-58 -260.5t-53 -271.5t-45 -263t-35 -236.5t-20.5 -189.5z" />
<glyph unicode="M" horiz-adv-x="1892" d="M-135 160q-1 -10 -1 -19q0 -40 15 -63q18 -29 70 -53q41 -20 89 -36t95 -26q23 -5 40 -5q18 0 28 6q18 11 26 48q8 88 23.5 201t36 242t45.5 268l51 278q31 -205 68.5 -397t78.5 -340q10 -35 19.5 -57.5t22 -37.5t28.5 -24.5t39 -17.5q61 -20 143 -37q27 -6 43.5 -5 t26.5 7t17.5 19.5t17.5 35.5q33 72 87 180l119 228l133 246l130 231q-35 -121 -64.5 -250l-54.5 -246.5t-43 -215t-27 -158.5q-4 -20 -4 -38q0 -26 9 -44q15 -31 63 -53q37 -20 86 -35t96 -25q23 -5 39 -5q22 0 33 9q18 16 33 54q16 72 45 180l64 237l76 271l80 278l79 262 l69 222q13 40 14 69q0 20 -6 36q-15 38 -75 67q-90 41 -183.5 71.5t-177.5 53.5q-60 17 -101 17q-8 0 -16 -1q-46 -4 -83 -36t-72 -92.5t-82 -154.5l-97 -174l-98 -184l-91 -180q-44 -88 -76 -162l-52 332l-27.5 186.5t-12.5 91t-3 43.5q-8 39 -15 70t-23.5 56.5t-45 47 t-77.5 39.5q-78 29 -155 49.5t-187 36.5q-27 4 -48 4q-36 0 -58 -11q-34 -17 -52 -87q-18 -96 -38 -222t-39 -267.5t-35.5 -287t-30 -280.5t-20.5 -250.5t-7 -195.5z" />
<glyph unicode="N" horiz-adv-x="1437" d="M-133 180q-1 -11 -1 -21q0 -38 12 -62q15 -30 61 -52q47 -29 97 -42l99 -26q32 -9 52 -8q13 0 20 3q18 9 26 44q10 74 28 173l39 215l45 243l46 254q27 -106 58 -212l61 -203l60.5 -181t58.5 -147q37 -88 127 -123q98 -35 192 -53q27 -6 48 -6q66 0 75 59l79 333l96 388 l102 391q51 193 98 344q11 37 11 67q0 13 -2 24q-7 38 -66 75q-35 23 -62 37t-50.5 24.5t-47.5 16.5l-55 14q-35 9 -61 9q-23 0 -39 -7q-34 -14 -50 -74q-59 -219 -119.5 -479t-101.5 -528l-45 218l-43 221l-37 200l-27 151q-12 78 -38.5 118t-90.5 67q-78 37 -149 59 l-148 45q-33 8 -58 8q-24 0 -42 -7q-37 -15 -51 -77q-23 -106 -46.5 -243.5t-46 -285t-42 -296t-35 -278.5t-24.5 -232.5t-13 -157.5z" />
<glyph unicode="O" d="M-88 686v-20q0 -120 22 -230q25 -119 74 -213q31 -57 84 -102t109 -74q68 -35 149.5 -52.5t159.5 -25.5q42 -4 81 -4q68 0 126 13q90 22 172 85q121 106 204 260t131 327t60 348q4 62 4 121q0 107 -14 204q-16 90 -52 160.5t-114 134.5q-70 55 -175.5 94t-221.5 57 q-30 5 -61 5q-62 0 -129 -19q-99 -29 -171 -84q-106 -92 -187 -207.5t-136.5 -244.5t-84 -265.5t-30.5 -267.5zM352 454q-1 22 -1 45q0 70 9 147q12 103 41 200q29 98 75 203.5t99.5 191.5t106.5 136q41 39 77 39q10 0 19 -3q41 -12 60.5 -85t19.5 -175q0 -100 -16.5 -216 t-42.5 -212q-31 -117 -73 -216t-89 -167t-94 -100q-33 -23 -64 -23q-13 0 -26 4q-47 14 -72 78t-29 153z" />
<glyph unicode="P" horiz-adv-x="1449" d="M-63 162q-5 -21 -5 -38q0 -28 12 -48q19 -33 58 -54.5t89 -34.5l104 -28q27 -5 44.5 -5t26.5 5q18 10 29 43q16 104 38 213l46 225q123 33 249 79t240.5 103.5t212 123t166.5 135.5q43 43 79 88t59.5 94t30.5 104q2 18 3 38q0 39 -10 81q-33 129 -91 218t-128 167 q-59 57 -140 81q-74 22 -161 22h-15q-94 -2 -195 -26t-201.5 -59.5t-195 -79.5t-171.5 -85q-20 -10 -36 -101.5t-28 -226.5t-24 -295l-25 -308q-12 -148 -27.5 -265t-33.5 -166zM467 825l60 248q30 119 63 230q76 33 148.5 49t130.5 18h16q48 0 81 -11q38 -13 44 -38 q6 -16 6 -36q0 -33 -19 -75q-29 -66 -98.5 -136t-178 -137t-253.5 -112z" />
<glyph unicode="Q" horiz-adv-x="1419" d="M-87 686v-29q0 -115 21 -221q25 -119 74 -213q31 -57 84 -102t109 -74q68 -35 147.5 -53.5t161.5 -24.5q37 -2 72 -2t69 2q68 4 125 31q10 -6 18.5 -12t18.5 -17q52 -42 120 -42q18 0 38 3q37 8 73.5 19.5t73.5 32.5q43 21 44 43q0 20 -32 51q-29 31 -52 63.5t-56 67.5 q84 113 140.5 254t87 290.5t35.5 297.5q1 29 1 58q0 114 -16 214q-16 90 -50 160.5t-112 134.5q-70 55 -175.5 94t-221.5 57q-30 5 -61 5q-62 0 -129 -19q-99 -29 -169 -84q-109 -92 -189.5 -207.5t-136 -244.5t-83 -265.5t-30.5 -267.5zM351 496v15q0 63 7 132 q27 154 79 307.5t134 286.5q41 66 83 112t79 61q16 7 31 7q19 0 35 -11q29 -19 41 -81q12 -53 15 -127q1 -22 1 -45q0 -53 -5 -111q-7 -82 -21.5 -164.5t-34.5 -152.5q-33 -158 -97 -274q-57 -10 -103 -23.5t-81 -32.5q-45 -20 -44 -48q0 -20 22 -44l23 -31q11 -14 28 -28 q-34 -26 -64 -26q-13 0 -26 5q-35 14 -57.5 52t-33 94.5t-11.5 126.5z" />
<glyph unicode="R" horiz-adv-x="1488" d="M-63 162q-1 -12 -1 -23q0 -38 11 -62q14 -32 53 -54q39 -20 82 -28.5t98 -23.5q24 -5 40 -5t25 5q17 10 27 43l46 226q24 115 53 239q53 -66 118 -130l132 -124q66 -59 127 -108t108 -82q72 -43 126 -48q16 -2 31 -2q36 0 68 9q37 6 62.5 11t62.5 34q35 26 35 47 q0 20 -37 51q-51 41 -109 96l-118 115l-116 119l-103 113q229 102 394 221t237 260q30 56 30 132q0 43 -10 93q-33 129 -91 218t-130 167q-90 88 -210 108q-54 9 -111 8q-69 0 -143 -12q-134 -24 -272.5 -79.5t-265.5 -112.5q-27 -14 -51 -72.5t-44.5 -147.5t-39 -200.5 t-34 -230.5t-29 -238t-23.5 -222t-17 -185t-11 -125zM457 834q39 135 69.5 253.5t63.5 223.5q80 39 151.5 53t130.5 14q121 0 146 -57q3 -9 3 -21q0 -31 -24 -77q-33 -63 -106.5 -134t-183 -139.5t-250.5 -115.5z" />
<glyph unicode="S" horiz-adv-x="1230" d="M-209 346q4 -37 92 -113q166 -154 322 -216q146 -59 299 -58h20q123 2 211 30.5t149.5 70.5t98.5 91.5t57 92.5q24 44 25 84q0 14 -3 27q-11 52 -53 100.5t-106.5 93.5t-137.5 91l-145 95q-73 49 -133 105q-47 41 -59 94q-7 29 -7 59q0 25 5 49q10 55 40 110.5t67.5 103 t78.5 84t74 55.5q39 27 55.5 22.5t19.5 -31.5q1 -7 1 -15q0 -22 -6 -53q-8 -42 -20 -88l-22 -92q-11 -46 -14 -81q-1 -12 -1 -23q0 -154 259 -246q30 -12 53 -11q12 0 21 3q27 10 49 51q23 45 45.5 106.5t41 128.5t32.5 132.5t21 120.5q0 31 -1 64.5t-10.5 70.5t-31 75 t-62.5 75q-61 59 -153.5 106t-184.5 80q-61 18 -118 21q-15 1 -30 1q-39 0 -74 -6q-48 -8 -87 -25.5t-66 -35.5q-74 -45 -145.5 -110.5t-130.5 -141.5t-103 -156t-63 -149q-25 -76 -25 -147q0 -5 1 -11q2 -76 26.5 -142.5t68.5 -122.5t99 -101q51 -43 114 -84l125 -80 l118 -75q56 -36 94.5 -65.5t51.5 -54t-9 -39.5q-34 -27 -94 -27q-40 0 -92 13q-128 31 -300 135q-31 20 -68.5 31.5t-79.5 14.5q-13 1 -25 1q-29 0 -58 -5q-41 -7 -78 -21q-39 -23 -39 -62z" />
<glyph unicode="T" horiz-adv-x="1359" d="M-80 1633q-4 -5 -4 -13q0 -17 16 -49l59 -110.5t79 -108.5q41 -43 73 -53q14 -4 32 -3q23 0 52 7q37 10 92.5 17t114.5 17q-31 -139 -61.5 -302t-56 -322.5t-44 -303t-24.5 -241.5q-4 -17 -4 -32q0 -19 6 -35q10 -28 33.5 -48t58.5 -34.5t78 -26.5l78 -23q35 -10 61 -11 h5q23 0 37 8q15 9 20 38q29 150 66 322l81 353l89 365l89 357l195 19l174 18q63 4 75 21q5 8 5 24t-6 41q-14 53 -41 108.5t-68 102.5q-20 27 -48 38t-91 11q-121 -4 -273.5 -15.5t-311.5 -28t-311.5 -37t-273.5 -44.5q-39 -11 -51 -26z" />
<glyph unicode="U" horiz-adv-x="1384" d="M-92 598q0 -119 19.5 -218t62.5 -171q33 -57 78 -96t96 -68q119 -66 303 -78q29 -2 56 -2q59 0 108 9q72 13 143 49q100 57 182 184t152 315.5t132.5 433t123.5 537.5q9 38 9 56q0 14 -5 26q-6 16 -21.5 31.5t-43.5 33.5q-55 33 -122 67t-125 49q-32 9 -60 9 q-22 0 -40 -6q-41 -12 -45 -73l-55 -289q-31 -162 -68.5 -329t-81.5 -324.5t-92.5 -277.5t-101.5 -187q-44 -56 -89 -56q-10 0 -20 2q-45 12 -60 76q-12 48 -11 114q0 22 1 46q5 96 26.5 217t52 248t66.5 251l69 230q8 30 8 57q0 87 -84 148q-53 39 -109.5 67.5t-117.5 46.5 q-42 15 -71 15q-15 0 -27 -4q-32 -12 -48 -72q-37 -131 -70.5 -269.5t-60 -275.5t-43 -270t-16.5 -252z" />
<glyph unicode="V" horiz-adv-x="1431" d="M-55 1649q45 -420 101 -771.5t128 -631.5q12 -49 52 -107.5t116 -93.5q68 -33 129 -53.5t133 -40.5q42 -11 72 -11q22 0 39 6q39 13 67 62l103 201l121 250l127 274l120 276l105 253q47 119 76 208q17 43 17 77q0 37 -19 67q-18 29 -51 52.5t-74 45.5q-39 25 -77 42.5 t-72 22.5q-9 1 -18 1q-23 0 -42 -10q-27 -13 -43 -50l-257 -653q-128 -330 -263 -627q-23 150 -42.5 302.5t-35.5 293.5l-32 269l-28 227q-18 131 -153 180q-55 23 -105.5 31t-109.5 8q-61 0 -75 -23q-10 -17 -10 -53q0 -11 1 -24z" />
<glyph unicode="W" horiz-adv-x="1968" d="M-88 1657q0 -117 2 -253t8 -278.5t14.5 -286t18.5 -274.5q10 -125 23.5 -234.5t29.5 -193.5q6 -57 27.5 -84.5t70.5 -44.5q53 -16 111.5 -31.5t122.5 -25.5q22 -3 39 -3q21 0 36 4q28 7 52 48l59 130l81 171l93 189l97 188q0 -72 7 -147.5t15 -148.5t18 -134l15 -105 q8 -43 32.5 -78.5t82.5 -56.5q29 -6 52 -13t47 -13l50 -14q27 -7 64 -13q33 -5 58 -5t42 5q35 10 55 49l88 197l110 240l123 265l128 267l125 252l112 215q27 58 27 108q0 49 -45 92q-43 35 -89 63t-93 50q-52 21 -82 21q-8 0 -15 -1q-31 -7 -61 -71l-60 -122l-80 -169 l-95 -202l-101 -220l-101 -224l-93 -212l17 248l17 239l15 197q6 84 6 119q0 31 -1 53.5t-8.5 38.5t-22.5 28.5t-46 24.5q-55 23 -95 37t-100 27q-32 8 -55 7q-20 0 -34 -5q-30 -12 -54 -58q-33 -53 -85 -166l-113 -249l-122 -285l-116 -272q0 123 3 259t8 262t10 228.5 t8 155.5q2 27 -0.5 58.5t-11.5 61t-27.5 56.5t-49.5 45q-53 31 -114.5 48.5t-136.5 33.5q-29 6 -50 6q-26 0 -38 -10q-23 -18 -25 -84z" />
<glyph unicode="X" horiz-adv-x="1449" d="M-170 158q2 -18 22.5 -45t50 -54.5t62.5 -52t62 -41.5q36 -23 66 -23q36 0 63 33q72 86 161 204t199 251l114 -234q48 -95 72 -130q35 -49 66 -71t86 -28q55 -5 108.5 -5t104.5 5q59 8 59 42q0 18 -16 42l-134 315l-161 382l296 345l253 293q37 43 47 91q2 11 2 21 q0 38 -27 81q-29 45 -73.5 97.5t-91.5 88.5q-23 14 -45.5 22.5t-45.5 8.5q-43 0 -83 -47q-86 -96 -194 -233l-232 -302l-83 200l-73 179q-29 59 -68 95t-110 47q-35 2 -68 3t-63 1h-60h-30q-14 0 -31 -2q-59 -8 -72 -32q-4 -8 -4 -20q0 -25 16 -69l65 -152l82 -184l93 -204 l98 -210q-145 -184 -265 -351t-191 -282q-16 -25 -21.5 -43t-5.5 -32z" />
<glyph unicode="Y" horiz-adv-x="1333" d="M-101 1740q-4 -6 -4 -17q0 -21 15 -58l83 -247l95 -270l98 -276l93 -260q-25 -141 -37.5 -256.5t-26.5 -203.5q-1 -12 -1 -23q0 -37 11 -58q14 -28 60 -57q45 -18 98 -35.5t102 -29.5q32 -7 52 -8q13 0 20 4q18 8 29 49l47 228q25 118 59 255l187 271l182 274l154 248 q69 115 104 192q14 33 22 57q7 21 8 39q0 23 -12 45q-10 19 -28 42q-33 31 -79 69.5t-93 62.5q-42 21 -79 20h-9q-41 -3 -60 -54l-213 -375l-217 -360l-106 333q-51 158 -99 281q-33 66 -60.5 97.5t-88.5 45.5q-51 12 -99 12h-21q-58 -3 -122 -8q-53 -10 -64 -29z" />
<glyph unicode="Z" horiz-adv-x="1150" d="M-161 154q9 -18 25 -35l30 -31l77 -61q31 -25 66 -50l36 -19q17 -9 40 -13q18 -3 40 -4q5 0 11 1q29 1 69 11q123 29 269 54l276 50q53 6 69.5 22.5t0.5 57.5q-8 35 -25.5 72t-42.5 76q-35 57 -120 57q-16 0 -33 -2q-84 -10 -159 -21.5t-151 -29.5l411 520l431 528 q41 47 46 89q1 10 1 21q0 33 -12 69q-12 37 -23.5 78.5t-37.5 97.5q-23 47 -52 64q-26 16 -77 16h-13q-113 -6 -239.5 -15.5t-251.5 -23t-241 -32t-208 -38.5q-41 -14 -52 -31q-4 -6 -4 -17q0 -17 11 -46q12 -25 28 -52l32 -57l31 -53l28 -43q41 -47 86 -59q25 -7 52 -7 q23 0 46 5q72 16 146.5 25t167.5 26l-238 -308l-224 -313l-189 -280q-83 -129 -130 -213q-13 -23 -13 -44t10 -42z" />
<glyph unicode="[" horiz-adv-x="933" d="M-49 229q-8 -59 8 -94t45 -65l57 -45q29 -23 58 -41q35 -23 76 -32t96 1l147 24l140 23q53 0 67 16.5t-2 55.5q-16 35 -25.5 67.5t-35.5 67.5q-39 68 -138 57l-66 -4l-67 -4l56.5 266.5t68.5 291.5l77 296l79 281q72 6 139 13l127 13q53 8 72.5 25.5t3.5 66.5 q-10 47 -24.5 86t-41.5 86q-23 47 -57.5 70t-87.5 21q-86 -2 -186.5 -7.5t-196.5 -19.5q-104 -12 -123 -96q-43 -158 -84 -349.5t-77 -384t-63.5 -372t-41.5 -314.5z" />
<glyph unicode="\" horiz-adv-x="1099" d="M-25 1690q25 -100 66 -242l91 -301l106 -326l108 -315l99 -270q46 -121 77 -191q25 -49 49.5 -73.5t73.5 -28.5q76 -12 166 -2q53 4 66.5 19t-3.5 50l-66 220l-79 281l-85 312l-83 316l-72 288q-33 135 -53 236q-10 31 -19 51.5t-22.5 34.5t-35 23.5t-54.5 15.5 q-66 14 -121 16t-118 0q-122 -5 -91 -114z" />
<glyph unicode="]" horiz-adv-x="976" d="M-119 125l44 -67q22 -32 44 -56q25 -25 53.5 -36t81.5 -3q66 10 133.5 18.5t139.5 18.5q68 2 87 21.5t28 48.5l73 302l91 359q48 186 100.5 368.5t101.5 330.5q12 47 8 77.5t-39 75.5q-29 39 -54 68.5t-54 58.5q-35 39 -69 51.5t-93 7.5q-117 -10 -220.5 -20t-186.5 -27 q-51 -8 -65.5 -35.5t-6.5 -66.5t31.5 -83t48.5 -85q23 -47 54.5 -60.5t92.5 -7.5q29 2 55.5 6.5t55.5 6.5l-70 -283l-73 -301q-36 -152 -66.5 -295t-50.5 -260q-59 -8 -124 -21l-112 -24q-88 -22 -39 -88z" />
<glyph unicode="^" horiz-adv-x="1372" d="M12 1145q-43 -61 8 -129q33 -41 61 -68.5t62 -56.5q31 -31 56 -31q31 0 51 31l169 200q91 108 202 220l69 -249q33 -114 62 -190q31 -76 110 -94q49 -10 92 -14t82 -6q47 -2 61.5 12t4.5 55l-40 154l-45 185q-24 97 -44.5 199.5t-34.5 199.5q-4 31 -9 52t-13.5 37.5 t-20.5 32t-29 33.5q-35 29 -74 56l-83 57q-41 23 -74 21.5t-76 -48.5q-82 -78 -163 -169l-153 -180q-73 -89 -132 -171z" />
<glyph unicode="_" horiz-adv-x="1320" d="M-37 -365q-16 -63 70 -63h1321q35 -4 57.5 7t35.5 29.5t21 40.5l17 42l16 44q8 22 6 38t-18 25t-57 7h-1348q-45 0 -66.5 -13t-31.5 -48q-10 -29 -15 -55z" />
<glyph unicode="`" horiz-adv-x="1212" d="M182 2359q61 -41 146.5 -90t181.5 -98t200.5 -94t202.5 -80q43 -18 93.5 -7t111.5 46q0 -2 14.5 9t24.5 30.5t6 43t-41 46.5l-168 82l-171 89q-85 46 -163.5 96t-146.5 103q-39 29 -87 28t-122 -42q-43 -20 -58.5 -60.5t-23.5 -101.5z" />
<glyph unicode="a" horiz-adv-x="1470" d="M-158 88q10 -16 29 -28l43 -27l64 -30l59 -23q34 -12 56 -12q8 0 15 1q24 6 39 41l60 134q31 69 72 149q117 31 269 52l306 42q6 -84 12 -154.5t15 -130.5q8 -57 27.5 -79.5t68.5 -36.5q47 -16 92 -19.5t98 -3.5t68.5 14.5t15.5 51.5q-1 117 -1 248v134q1 206 5.5 410.5 t12.5 393t20 333.5q2 15 2 30q0 40 -13 67q-17 37 -81 59q-47 12 -93 26.5t-100.5 26.5t-120 21.5t-149.5 13.5q-18 2 -35 2q-71 0 -110 -29q-49 -35 -80 -90q-86 -154 -181 -351l-187 -400l-170 -394q-79 -190 -128 -331q-11 -40 -11 -65q0 -28 11 -46zM463 674l191 376 l177 330q-3 -109 -2 -219v-111q2 -167 7 -335q-94 -6 -187.5 -16.5t-185.5 -24.5z" />
<glyph unicode="b" d="M-80 236q4 -25 14.5 -44.5t27.5 -36.5l40 -42q61 -47 107.5 -77t107.5 -56q33 -18 57.5 -26.5t50.5 -10.5q9 -1 17 -1q18 0 36 3q28 4 66 14q74 18 156 46t163 62.5t153.5 77.5t125.5 91q78 61 113 125q27 50 27 117q0 20 -2 40q-16 78 -66.5 151.5t-130.5 114.5 q70 35 121 73l100 75q45 39 84 83t65.5 95t38.5 107q6 29 6 59q0 27 -5 55q-23 109 -71 191t-120 153q-55 53 -141 81t-190 34q-34 2 -70 2q-71 0 -148 -8q-115 -12 -226.5 -39t-213.5 -63.5t-180 -79.5q-4 -158 -19.5 -333t-35 -348t-36 -334t-22.5 -288q-2 -19 -2 -35 t2 -28zM299 264q14 82 31.5 161t34.5 165q82 27 149 36q41 6 75 5q23 0 44 -2q51 -6 81.5 -22.5t41.5 -37.5q2 -8 1 -15q0 -29 -23 -61q-30 -42 -91 -84t-149.5 -80t-194.5 -65zM442 930q29 109 49.5 205t49.5 184q88 41 163.5 61.5t134.5 23.5q11 1 21 0q44 0 74 -10 q37 -13 45 -40q2 -7 2 -14q0 -30 -27 -73q-33 -54 -103.5 -114.5t-174 -120t-234.5 -102.5z" />
<glyph unicode="c" horiz-adv-x="1314" d="M-127 650q-1 -30 -1 -59q0 -103 16 -197q22 -120 75 -208q31 -57 86 -100t111 -66l139 -43.5t174 -29.5q23 -2 46 -2t47 2q48 4 92 14t84 26.5t69 35.5q57 41 114.5 102t94.5 135q32 58 32 99q0 49 -81 71q-60 17 -114 17q-118 0 -202 -85q-145 -149 -226 -148 q-13 0 -23 3q-43 12 -66 69.5t-27 140.5q-1 20 -1 40q0 67 11 144q13 101 39 204q29 98 79.5 213t107.5 210t113 155q46 49 81 49q7 0 15 -2q41 -16 49 -70q7 -43 6 -93v-26q0 -37 6 -80q8 -51 26.5 -90t49.5 -68.5t78 -51t112 -33.5q35 -6 55.5 -4t32 10t17.5 22.5l12 30.5 q12 37 22.5 83t16.5 96.5t9 101.5q2 31 2 60q0 19 -1 38q-2 41 -8 77t-21.5 68.5t-41 64.5t-64.5 64q-41 27 -92 52.5t-108.5 47t-119 37t-118.5 21.5q-17 1 -34 1q-63 0 -132 -17q-88 -23 -174 -96q-106 -92 -189 -214t-142.5 -259.5t-93.5 -282t-40 -280.5z" />
<glyph unicode="d" horiz-adv-x="1501" d="M-88 238q4 -33 17.5 -55.5t31.5 -40.5l39 -36q55 -41 98 -68.5t101 -55.5q69 -33 134 -34q43 0 85 15q205 57 366.5 153.5t279.5 217.5t191.5 258t103.5 275q20 93 20 184q0 43 -5 86q-14 131 -71 241q-68 139 -166.5 223.5t-214 126t-239.5 47.5q-26 1 -51 1 q-97 0 -192 -16q-119 -19 -224 -57t-183 -81l-119 -1300q-4 -31 -4 -55q0 -16 2 -29zM307 285q51 266 106.5 527t127.5 529q74 24 134 24q49 0 91 -15q92 -35 129 -105q30 -57 30 -151q0 -21 -1 -43q-6 -90 -43 -194.5t-111 -209t-188.5 -199.5t-274.5 -163z" />
<glyph unicode="e" horiz-adv-x="1181" d="M-111 272q-1 -10 0 -18q0 -43 16 -76q19 -39 54 -67q43 -37 75 -60.5l66 -46.5q31 -20 73 -32q15 -4 35 -4q36 0 89 14l258 49l266 51q55 10 65.5 25.5t0.5 56.5q-16 37 -29.5 72.5t-38.5 76.5q-23 37 -54 49q-24 9 -62 10q-13 0 -27 -1q-102 -6 -189.5 -16.5 t-183.5 -26.5l31 115l31 124q119 25 246.5 45.5t250.5 42.5q57 12 71 29q6 7 6 21q0 17 -9 43q-10 41 -23.5 80.5t-38.5 80.5q-23 41 -55 54q-28 11 -74 10h-16q-70 -2 -131.5 -6t-122.5 -13q33 109 59.5 208.5t57.5 191.5q145 20 276 35l254 28q59 8 76 27q11 12 11 40 q0 14 -3 32q-10 47 -20.5 86.5t-36.5 89.5q-32 90 -145 90h-5q-123 -4 -246.5 -19.5t-241.5 -36t-225.5 -45t-195.5 -47.5z" />
<glyph unicode="f" horiz-adv-x="1167" d="M-117 172q0 -53 10.5 -82t61.5 -53q39 -16 91 -34.5t99 -26.5q24 -4 44 -3.5t36 3.5q33 7 35 44l54 253q30 142 69 300q117 25 235.5 47.5t235.5 41.5q55 6 71 23q7 8 7 24t-8 41q-10 41 -23.5 80.5t-38.5 80.5q-41 64 -129 64h-16q-63 -2 -124 -7t-120 -12 q35 111 56.5 211.5t50.5 184.5q145 20 277 34.5t255 30.5q61 8 76 26q9 11 9 36q0 15 -3 34q-8 88 -64 181q-18 29 -34.5 46t-34 26.5t-39 12.5t-51.5 3q-123 -4 -249 -14.5t-247 -26t-230.5 -34.5t-197.5 -44q3 -43 3 -92q0 -65 -5 -141q-8 -133 -25.5 -279.5t-39.5 -296.5 l-43 -282l-36 -237q-16 -106 -18 -163z" />
<glyph unicode="g" horiz-adv-x="1357" d="M-137 700q-3 -46 -4 -91q0 -89 14 -172q20 -124 74 -216q29 -57 79 -105t103 -77q150 -66 307 -86q43 -6 85 -6q45 0 87 7q82 13 156 54q115 68 213 193t174 309q17 50 17 86q0 39 -35 88l-40 53q-22 29 -46 56q-37 41 -80 52q-23 6 -53 6q-27 0 -60 -5 q-59 -10 -141 -19.5t-158 -25.5l-74 -11q-33 -5 -55.5 -14.5t-31.5 -25t-1 -41.5q39 -117 106 -166q59 -44 163 -44q13 0 26 1q-33 -68 -69.5 -126.5t-75.5 -99.5t-79 -59q-24 -11 -47 -11q-15 0 -30 5q-43 14 -67.5 76.5t-28.5 150.5q-1 19 -1 38q0 72 12 154 q15 103 50 201q39 123 94.5 237t113.5 200t115 132q44 36 79 36q9 0 18 -2q20 -6 27.5 -33t15.5 -66l4 -41q2 -20 2 -43q-2 -23 -1 -42t5 -40q10 -104 77 -167.5t210 -84.5q12 -1 22 -1q33 0 49 11q19 13 34 54q8 33 15 82t12 102.5t6 106.5q0 18 1 34q0 33 -2 62 q-10 82 -38.5 147.5t-98.5 120.5q-37 31 -83 56.5t-98 45t-107.5 34t-108.5 20.5q-37 6 -80 6t-87 -6t-87 -22.5t-80 -45.5q-115 -84 -206 -202.5t-157.5 -255t-105.5 -281t-49 -283.5z" />
<glyph unicode="h" horiz-adv-x="1388" d="M-106 170q-5 -20 -5 -37q0 -28 13 -46q20 -30 67 -52q39 -23 93 -37l106 -29q29 -7 47 -6q15 0 24 4q17 10 25 45l37 222q20 124 53 266q86 14 169 25l169 24q-23 -119 -39 -215t-24 -170q-5 -21 -5 -39q0 -45 33 -71q47 -36 131 -60l77 -20q36 -9 63 -10h5q23 0 37 8 q15 9 15 38l93 369l109 399l113 391l107 344q10 32 10 55q0 16 -5 27q-11 29 -64 68q-57 37 -121 66.5t-123 46.5q-42 12 -72 12q-15 0 -25 -3q-34 -9 -53 -75q-47 -174 -95 -388l-99 -431l-161 -12q-83 -6 -169 -17l77 338q36 158 68 275q6 27 8.5 47t-5 36.5t-24.5 33 t-48 34.5q-55 37 -130 68.5t-140 50.5q-38 15 -65 14q-14 0 -26 -4q-31 -12 -47 -78q-25 -172 -48 -375l-48 -409q-25 -205 -51 -393.5t-57 -329.5z" />
<glyph unicode="i" horiz-adv-x="638" d="M-127 170q-2 -15 -2 -29q0 -33 11 -54q15 -30 63 -52q43 -23 91 -37l101 -29q29 -7 48 -6q15 0 23 4q17 10 28 45l44 210l56 250l63 270l67 271q34 132 68 251l62 211q8 31 8 53q0 18 -5 31q-11 29 -69 67q-55 37 -128.5 70t-137.5 49q-37 11 -63 11q-19 0 -32 -6 q-32 -13 -50 -73q-23 -96 -49.5 -224t-52.5 -271l-50 -293q-25 -150 -44 -285t-32.5 -248.5t-17.5 -185.5z" />
<glyph unicode="j" horiz-adv-x="1284" d="M-117 396q6 -73 39 -140q20 -47 49 -90t72 -80t101.5 -65.5t138.5 -47.5q99 -22 174 -22q43 0 79 7q99 19 171 62q90 57 167.5 184.5t144 316t124 436t108.5 548.5q7 32 8 51q0 17 -7 31q-7 16 -23.5 31.5t-46.5 36.5q-59 37 -134 65.5t-137 44.5q-35 9 -61 9 q-21 0 -36 -6q-34 -13 -46 -74q-18 -129 -44 -289t-56.5 -325t-65.5 -321.5t-74 -278.5t-79 -195q-40 -72 -82 -72h-2q-49 6 -61.5 52t-20.5 149q-6 160 -246 256q-35 16 -61 16t-43 -17q-32 -34 -44 -106q-8 -63 -8 -116q0 -27 2 -51z" />
<glyph unicode="k" horiz-adv-x="1359" d="M-139 170q0 -7 -1 -13q0 -66 38 -100q41 -37 133 -61l83 -24q38 -11 64 -12h5q23 0 36 10q14 11 14 42l37 205l47 248q43 -61 94 -124l96 -118l85 -98l61 -68q55 -59 111 -67q20 -3 40 -3q35 0 68 9q35 4 71 14t63 25q45 20 52 42q1 4 1 8q0 20 -29 48q-33 37 -76 92 l-90 121l-95 136q-48 71 -89 139l190 184l194 197q93 99 172 194.5t126 173.5q39 63 44 107q1 10 1 20q0 33 -12 68q-27 55 -56.5 102t-74.5 86q-43 37 -78 37q-31 0 -66 -45l-136 -160l-178 -199l-196 -211l-186 -202l65 294q31 134 62 238q8 27 10 46.5t-6 36t-26.5 31.5 t-49.5 36q-55 37 -130 69.5t-140 49.5q-34 11 -60 10q-18 0 -32 -5q-33 -13 -49 -71q-20 -96 -43 -227t-45.5 -277.5t-43 -299t-37 -292t-26.5 -255t-12 -187.5z" />
<glyph unicode="l" horiz-adv-x="1089" d="M-139 262q-3 -16 -3 -30q0 -32 13 -57q18 -36 53 -64l76 -61q29 -24 63 -46q14 -10 30 -18.5t38 -13.5q16 -4 36 -3h17q31 2 76 15l259 50l265 50q63 12 71 27q2 5 2 12q0 16 -9 45q-8 35 -23.5 73t-40.5 74q-25 39 -54 51q-22 8 -58 8q-13 0 -29 -1q-96 -6 -178 -14.5 t-176 -24.5l70 296q38 155 80 310l84 303q42 147 83 270q11 31 11 54q0 16 -6 28q-13 29 -66 68q-55 37 -129 66.5t-137 46.5q-39 11 -67 11q-17 0 -29 -4q-32 -11 -52 -71q-29 -104 -58.5 -229t-58 -260.5t-53 -271.5t-45 -263t-35 -236.5t-20.5 -189.5z" />
<glyph unicode="m" horiz-adv-x="1892" d="M-135 160q-1 -10 -1 -19q0 -40 15 -63q18 -29 70 -53q41 -20 89 -36t95 -26q23 -5 40 -5q18 0 28 6q18 11 26 48q8 88 23.5 201t36 242t45.5 268l51 278q31 -205 68.5 -397t78.5 -340q10 -35 19.5 -57.5t22 -37.5t28.5 -24.5t39 -17.5q61 -20 143 -37q27 -6 43.5 -5 t26.5 7t17.5 19.5t17.5 35.5q33 72 87 180l119 228l133 246l130 231q-35 -121 -64.5 -250l-54.5 -246.5t-43 -215t-27 -158.5q-4 -20 -4 -38q0 -26 9 -44q15 -31 63 -53q37 -20 86 -35t96 -25q23 -5 39 -5q22 0 33 9q18 16 33 54q16 72 45 180l64 237l76 271l80 278l79 262 l69 222q13 40 14 69q0 20 -6 36q-15 38 -75 67q-90 41 -183.5 71.5t-177.5 53.5q-60 17 -101 17q-8 0 -16 -1q-46 -4 -83 -36t-72 -92.5t-82 -154.5l-97 -174l-98 -184l-91 -180q-44 -88 -76 -162l-52 332l-27.5 186.5t-12.5 91t-3 43.5q-8 39 -15 70t-23.5 56.5t-45 47 t-77.5 39.5q-78 29 -155 49.5t-187 36.5q-27 4 -48 4q-36 0 -58 -11q-34 -17 -52 -87q-18 -96 -38 -222t-39 -267.5t-35.5 -287t-30 -280.5t-20.5 -250.5t-7 -195.5z" />
<glyph unicode="n" horiz-adv-x="1437" d="M-133 180q-1 -11 -1 -21q0 -38 12 -62q15 -30 61 -52q47 -29 97 -42l99 -26q32 -9 52 -8q13 0 20 3q18 9 26 44q10 74 28 173l39 215l45 243l46 254q27 -106 58 -212l61 -203l60.5 -181t58.5 -147q37 -88 127 -123q98 -35 192 -53q27 -6 48 -6q66 0 75 59l79 333l96 388 l102 391q51 193 98 344q11 37 11 67q0 13 -2 24q-7 38 -66 75q-35 23 -62 37t-50.5 24.5t-47.5 16.5l-55 14q-35 9 -61 9q-23 0 -39 -7q-34 -14 -50 -74q-59 -219 -119.5 -479t-101.5 -528l-45 218l-43 221l-37 200l-27 151q-12 78 -38.5 118t-90.5 67q-78 37 -149 59 l-148 45q-33 8 -58 8q-24 0 -42 -7q-37 -15 -51 -77q-23 -106 -46.5 -243.5t-46 -285t-42 -296t-35 -278.5t-24.5 -232.5t-13 -157.5z" />
<glyph unicode="o" d="M-88 686v-20q0 -120 22 -230q25 -119 74 -213q31 -57 84 -102t109 -74q68 -35 149.5 -52.5t159.5 -25.5q42 -4 81 -4q68 0 126 13q90 22 172 85q121 106 204 260t131 327t60 348q4 62 4 121q0 107 -14 204q-16 90 -52 160.5t-114 134.5q-70 55 -175.5 94t-221.5 57 q-30 5 -61 5q-62 0 -129 -19q-99 -29 -171 -84q-106 -92 -187 -207.5t-136.5 -244.5t-84 -265.5t-30.5 -267.5zM352 454q-1 22 -1 45q0 70 9 147q12 103 41 200q29 98 75 203.5t99.5 191.5t106.5 136q41 39 77 39q10 0 19 -3q41 -12 60.5 -85t19.5 -175q0 -100 -16.5 -216 t-42.5 -212q-31 -117 -73 -216t-89 -167t-94 -100q-33 -23 -64 -23q-13 0 -26 4q-47 14 -72 78t-29 153z" />
<glyph unicode="p" horiz-adv-x="1449" d="M-63 162q-5 -21 -5 -38q0 -28 12 -48q19 -33 58 -54.5t89 -34.5l104 -28q27 -5 44.5 -5t26.5 5q18 10 29 43q16 104 38 213l46 225q123 33 249 79t240.5 103.5t212 123t166.5 135.5q43 43 79 88t59.5 94t30.5 104q2 18 3 38q0 39 -10 81q-33 129 -91 218t-128 167 q-59 57 -140 81q-74 22 -161 22h-15q-94 -2 -195 -26t-201.5 -59.5t-195 -79.5t-171.5 -85q-20 -10 -36 -101.5t-28 -226.5t-24 -295l-25 -308q-12 -148 -27.5 -265t-33.5 -166zM467 825l60 248q30 119 63 230q76 33 148.5 49t130.5 18h16q48 0 81 -11q38 -13 44 -38 q6 -16 6 -36q0 -33 -19 -75q-29 -66 -98.5 -136t-178 -137t-253.5 -112z" />
<glyph unicode="q" horiz-adv-x="1419" d="M-87 686v-29q0 -115 21 -221q25 -119 74 -213q31 -57 84 -102t109 -74q68 -35 147.5 -53.5t161.5 -24.5q37 -2 72 -2t69 2q68 4 125 31q10 -6 18.5 -12t18.5 -17q52 -42 120 -42q18 0 38 3q37 8 73.5 19.5t73.5 32.5q43 21 44 43q0 20 -32 51q-29 31 -52 63.5t-56 67.5 q84 113 140.5 254t87 290.5t35.5 297.5q1 29 1 58q0 114 -16 214q-16 90 -50 160.5t-112 134.5q-70 55 -175.5 94t-221.5 57q-30 5 -61 5q-62 0 -129 -19q-99 -29 -169 -84q-109 -92 -189.5 -207.5t-136 -244.5t-83 -265.5t-30.5 -267.5zM351 496v15q0 63 7 132 q27 154 79 307.5t134 286.5q41 66 83 112t79 61q16 7 31 7q19 0 35 -11q29 -19 41 -81q12 -53 15 -127q1 -22 1 -45q0 -53 -5 -111q-7 -82 -21.5 -164.5t-34.5 -152.5q-33 -158 -97 -274q-57 -10 -103 -23.5t-81 -32.5q-45 -20 -44 -48q0 -20 22 -44l23 -31q11 -14 28 -28 q-34 -26 -64 -26q-13 0 -26 5q-35 14 -57.5 52t-33 94.5t-11.5 126.5z" />
<glyph unicode="r" horiz-adv-x="1488" d="M-63 162q-1 -12 -1 -23q0 -38 11 -62q14 -32 53 -54q39 -20 82 -28.5t98 -23.5q24 -5 40 -5t25 5q17 10 27 43l46 226q24 115 53 239q53 -66 118 -130l132 -124q66 -59 127 -108t108 -82q72 -43 126 -48q16 -2 31 -2q36 0 68 9q37 6 62.5 11t62.5 34q35 26 35 47 q0 20 -37 51q-51 41 -109 96l-118 115l-116 119l-103 113q229 102 394 221t237 260q30 56 30 132q0 43 -10 93q-33 129 -91 218t-130 167q-90 88 -210 108q-54 9 -111 8q-69 0 -143 -12q-134 -24 -272.5 -79.5t-265.5 -112.5q-27 -14 -51 -72.5t-44.5 -147.5t-39 -200.5 t-34 -230.5t-29 -238t-23.5 -222t-17 -185t-11 -125zM457 834q39 135 69.5 253.5t63.5 223.5q80 39 151.5 53t130.5 14q121 0 146 -57q3 -9 3 -21q0 -31 -24 -77q-33 -63 -106.5 -134t-183 -139.5t-250.5 -115.5z" />
<glyph unicode="s" horiz-adv-x="1230" d="M-115 238q166 -156 323 -220q147 -60 302 -59h20q123 2 211 30.5t149.5 71.5t98.5 93.5t58 93.5q24 46 24 87q0 14 -3 27q-11 53 -53 101.5t-106.5 94.5t-137.5 93l-146 98q-74 50 -133 107q-47 43 -60 97q-7 30 -7 60q0 25 5 51q10 56 39 111.5t66.5 103.5t79.5 86 t77 56q39 29 56.5 24t20.5 -31q1 -7 1 -15q0 -22 -6 -53q-8 -43 -20 -92l-22 -95q-11 -47 -15 -84q-2 -13 -2 -26q0 -157 260 -244q34 -15 56 -15q11 0 20 4q26 11 51 52q23 43 44 106.5t40.5 133t34 137t22.5 120.5q0 31 -1 67t-10.5 73t-32 75.5t-63.5 77.5 q-63 57 -156 106.5t-186 82.5q-61 18 -118 21q-16 1 -31 1q-40 0 -76 -6q-49 -8 -88 -25.5t-63 -35.5q-76 -47 -149 -114t-133 -143.5t-104.5 -158.5t-62.5 -156q-25 -78 -25 -149v-10q2 -76 27 -143.5t69 -126t101 -103.5q51 -43 115 -85l127 -81l120 -76q56 -37 94 -67.5 t51 -54t-11 -40.5q-35 -29 -96 -28q-40 0 -91 12q-129 31 -303 139q-31 20 -68.5 31.5t-78.5 13.5q-10 1 -21 1l-61 -5q-41 -6 -78 -22q-39 -19 -39 -53q-1 -43 94 -123z" />
<glyph unicode="t" horiz-adv-x="1359" d="M-80 1633q-4 -5 -4 -13q0 -17 16 -49l59 -110.5t79 -108.5q41 -43 73 -53q14 -4 32 -3q23 0 52 7q37 10 92.5 17t114.5 17q-31 -139 -61.5 -302t-56 -322.5t-44 -303t-24.5 -241.5q-4 -17 -4 -32q0 -19 6 -35q10 -28 33.5 -48t58.5 -34.5t78 -26.5l78 -23q35 -10 61 -11 h5q23 0 37 8q15 9 20 38q29 150 66 322l81 353l89 365l89 357l195 19l174 18q63 4 75 21q5 8 5 24t-6 41q-14 53 -41 108.5t-68 102.5q-20 27 -48 38t-91 11q-121 -4 -273.5 -15.5t-311.5 -28t-311.5 -37t-273.5 -44.5q-39 -11 -51 -26z" />
<glyph unicode="u" horiz-adv-x="1384" d="M-92 598q0 -119 19.5 -218t62.5 -171q33 -57 78 -96t96 -68q119 -66 303 -78q29 -2 56 -2q59 0 108 9q72 13 143 49q100 57 182 184t152 315.5t132.5 433t123.5 537.5q9 38 9 56q0 14 -5 26q-6 16 -21.5 31.5t-43.5 33.5q-55 33 -122 67t-125 49q-32 9 -60 9 q-22 0 -40 -6q-41 -12 -45 -73l-55 -289q-31 -162 -68.5 -329t-81.5 -324.5t-92.5 -277.5t-101.5 -187q-44 -56 -89 -56q-10 0 -20 2q-45 12 -60 76q-12 48 -11 114q0 22 1 46q5 96 26.5 217t52 248t66.5 251l69 230q8 30 8 57q0 87 -84 148q-53 39 -109.5 67.5t-117.5 46.5 q-42 15 -71 15q-15 0 -27 -4q-32 -12 -48 -72q-37 -131 -70.5 -269.5t-60 -275.5t-43 -270t-16.5 -252z" />
<glyph unicode="v" horiz-adv-x="1431" d="M-55 1649q45 -420 101 -771.5t128 -631.5q12 -49 52 -107.5t116 -93.5q68 -33 129 -53.5t133 -40.5q42 -11 72 -11q22 0 39 6q39 13 67 62l103 201l121 250l127 274l120 276l105 253q47 119 76 208q17 43 17 77q0 37 -19 67q-18 29 -51 52.5t-74 45.5q-39 25 -77 42.5 t-72 22.5q-9 1 -18 1q-23 0 -42 -10q-27 -13 -43 -50l-257 -653q-128 -330 -263 -627q-23 150 -42.5 302.5t-35.5 293.5l-32 269l-28 227q-18 131 -153 180q-55 23 -105.5 31t-109.5 8q-61 0 -75 -23q-10 -17 -10 -53q0 -11 1 -24z" />
<glyph unicode="w" horiz-adv-x="1968" d="M-88 1657q0 -117 2 -253t8 -278.5t14.5 -286t18.5 -274.5q10 -125 23.5 -234.5t29.5 -193.5q6 -57 27.5 -84.5t70.5 -44.5q53 -16 111.5 -31.5t122.5 -25.5q22 -3 39 -3q21 0 36 4q28 7 52 48l59 130l81 171l93 189l97 188q0 -72 7 -147.5t15 -148.5t18 -134l15 -105 q8 -43 32.5 -78.5t82.5 -56.5q29 -6 52 -13t47 -13l50 -14q27 -7 64 -13q33 -5 58 -5t42 5q35 10 55 49l88 197l110 240l123 265l128 267l125 252l112 215q27 58 27 108q0 49 -45 92q-43 35 -89 63t-93 50q-52 21 -82 21q-8 0 -15 -1q-31 -7 -61 -71l-60 -122l-80 -169 l-95 -202l-101 -220l-101 -224l-93 -212l17 248l17 239l15 197q6 84 6 119q0 31 -1 53.5t-8.5 38.5t-22.5 28.5t-46 24.5q-55 23 -95 37t-100 27q-32 8 -55 7q-20 0 -34 -5q-30 -12 -54 -58q-33 -53 -85 -166l-113 -249l-122 -285l-116 -272q0 123 3 259t8 262t10 228.5 t8 155.5q2 27 -0.5 58.5t-11.5 61t-27.5 56.5t-49.5 45q-53 31 -114.5 48.5t-136.5 33.5q-29 6 -50 6q-26 0 -38 -10q-23 -18 -25 -84z" />
<glyph unicode="x" horiz-adv-x="1449" d="M-170 158q2 -18 22.5 -45t50 -54.5t62.5 -52t62 -41.5q36 -23 66 -23q36 0 63 33q72 86 161 204t199 251l114 -234q48 -95 72 -130q35 -49 66 -71t86 -28q55 -5 108.5 -5t104.5 5q59 8 59 42q0 18 -16 42l-134 315l-161 382l296 345l253 293q37 43 47 91q2 11 2 21 q0 38 -27 81q-29 45 -73.5 97.5t-91.5 88.5q-23 14 -45.5 22.5t-45.5 8.5q-43 0 -83 -47q-86 -96 -194 -233l-232 -302l-83 200l-73 179q-29 59 -68 95t-110 47q-35 2 -68 3t-63 1h-60h-30q-14 0 -31 -2q-59 -8 -72 -32q-4 -8 -4 -20q0 -25 16 -69l65 -152l82 -184l93 -204 l98 -210q-145 -184 -265 -351t-191 -282q-16 -25 -21.5 -43t-5.5 -32z" />
<glyph unicode="y" horiz-adv-x="1333" d="M-101 1740q-4 -6 -4 -17q0 -21 15 -58l83 -247l95 -270l98 -276l93 -260q-25 -141 -37.5 -256.5t-26.5 -203.5q-1 -12 -1 -23q0 -37 11 -58q14 -28 60 -57q45 -18 98 -35.5t102 -29.5q32 -7 52 -8q13 0 20 4q18 8 29 49l47 228q25 118 59 255l187 271l182 274l154 248 q69 115 104 192q14 33 22 57q7 21 8 39q0 23 -12 45q-10 19 -28 42q-33 31 -79 69.5t-93 62.5q-42 21 -79 20h-9q-41 -3 -60 -54l-213 -375l-217 -360l-106 333q-51 158 -99 281q-33 66 -60.5 97.5t-88.5 45.5q-51 12 -99 12h-21q-58 -3 -122 -8q-53 -10 -64 -29z" />
<glyph unicode="z" horiz-adv-x="1150" d="M-161 154q9 -18 25 -35l30 -31l77 -61q31 -25 66 -50l36 -19q17 -9 40 -13q18 -3 40 -4q5 0 11 1q29 1 69 11q123 29 269 54l276 50q53 6 69.5 22.5t0.5 57.5q-8 35 -25.5 72t-42.5 76q-35 57 -120 57q-16 0 -33 -2q-84 -10 -159 -21.5t-151 -29.5l411 520l431 528 q41 47 46 89q1 10 1 21q0 33 -12 69q-12 37 -23.5 78.5t-37.5 97.5q-23 47 -52 64q-26 16 -77 16h-13q-113 -6 -239.5 -15.5t-251.5 -23t-241 -32t-208 -38.5q-41 -14 -52 -31q-4 -6 -4 -17q0 -17 11 -46q12 -25 28 -52l32 -57l31 -53l28 -43q41 -47 86 -59q25 -7 52 -7 q23 0 46 5q72 16 146.5 25t167.5 26l-238 -308l-224 -313l-189 -280q-83 -129 -130 -213q-13 -23 -13 -44t10 -42z" />
<glyph unicode="{" horiz-adv-x="1040" d="M-80 846q18 -41 44 -93.5t61 -90.5q29 -29 43 -39.5t43 -14.5l-33 -205q-14 -92 -29 -174q-8 -59 6.5 -94t55.5 -65l59 -45q29 -23 57 -41q35 -23 72 -33t102 2l147 24l140 23q53 0 67.5 16.5t-1.5 55.5q-10 35 -23.5 67.5t-38.5 67.5q-43 68 -135 57l-68 -4l-67 -4 q25 123 57 266l70 293l77 297q40 147 81 279q72 6 139 13l127 13q59 8 75.5 25.5t0.5 66.5q-10 47 -22.5 86t-39.5 86q-47 92 -149 91q-86 -2 -186.5 -7.5t-192.5 -19.5q-61 -6 -88 -30.5t-37 -65.5q-39 -147 -77 -320l-77 -356q-68 -10 -123 -16.5t-96 -18.5 q-72 -18 -41 -92z" />
<glyph unicode="|" horiz-adv-x="1099" d="M74 49q-4 -49 9 -76.5t60 -50.5q37 -16 76 -30.5t86 -26.5q53 -12 69.5 -1t26.5 48q14 86 45 221l69 297l81 336l85 339l79 306l63 238q20 55 8 85.5t-71 69.5q-55 39 -111.5 59.5t-109.5 43.5q-63 23 -96 8.5t-54 -74.5q-25 -100 -54 -251l-63 -326l-64 -361l-60 -350 q-28 -166 -47 -299t-27 -205z" />
<glyph unicode="}" horiz-adv-x="1157" d="M-135 180q-4 -12 7 -36.5t28.5 -51t37.5 -51.5l31 -39q25 -25 52.5 -36t78.5 -3q66 10 134.5 18.5t140.5 18.5q66 2 87 21.5t30 48.5l54 235l70 285q55 12 116 15t107 10.5t68.5 25.5t1.5 64q-16 41 -28.5 83.5t-34.5 83.5q-41 80 -137 80q43 129 77 250l66 228 q12 47 9 77.5t-40 75.5q-29 39 -54.5 68.5t-53.5 58.5q-35 39 -69 51.5t-93 7.5q-117 -10 -220.5 -20t-187.5 -27q-41 -8 -69.5 -30.5t-7.5 -69.5l35 -85q17 -40 46 -85q31 -47 62 -60.5t92 -7.5q29 2 55.5 6.5t55.5 6.5l-70 -283l-72 -301q-35 -152 -64.5 -295t-49.5 -260 q-49 -6 -98.5 -13t-90.5 -16.5t-68.5 -22t-33.5 -26.5z" />
<glyph unicode="~" horiz-adv-x="1519" d="M-109 1237q6 -98 156 -98q80 0 139 37q6 0 28 17l51.5 38.5t62 39t59.5 17.5q33 0 80 -7t96 -19.5t92 -27.5t66 -32q51 -37 129 -54.5t182 -17.5q70 0 149 33t175 99q197 129 203 229q2 49 -64 82q-51 27 -113 26q-72 0 -141 -51l-35 -34q-25 -24 -52.5 -47t-53 -40.5 t-37.5 -15.5q-45 4 -90 19.5t-89 34.5l-87 39q-43 19 -84 32q-72 27 -138.5 40t-132.5 13q-55 0 -137 -27.5t-160.5 -67.5t-142 -86t-84.5 -83q-29 -49 -27 -88z" />
<glyph unicode="&#xa1;" horiz-adv-x="819" d="M-86 81q14 -30 63 -58q49 -29 112 -52.5t116 -33.5q59 -16 84.5 -6t42.5 57l70 243q40 141 78 295l73 307q35 153 57 277q14 63 1 96t-64 62q-49 27 -101.5 46t-109.5 29q-53 14 -76.5 3t-34.5 -62q-29 -133 -66 -278l-79 -292l-83 -289l-81 -271q-16 -43 -2 -73z M246 1631q2 -42 21.5 -82t57 -74.5t99.5 -53.5q70 -23 128 -12.5t99 41.5t66.5 78t32.5 100q6 63 -12.5 113.5t-52.5 85.5t-81 52t-102 17q-53 0 -96.5 -20.5t-74 -50t-50 -63t-27.5 -58.5q-10 -31 -8 -73z" />
<glyph unicode="&#xa2;" horiz-adv-x="1142" d="M24.5 606.5q6.5 -147.5 63.5 -246.5q20 -39 54 -68.5t69 -47.5l-4 -33q-2 -16 0 -33q-4 -74 23.5 -144.5t99.5 -105.5q41 -20 60.5 -15t27.5 40q6 45 19.5 103.5t29.5 117.5h6q66 -4 137.5 13.5t114.5 48.5q43 29 86 75.5t70 102.5q27 49 23.5 81.5t-60.5 49.5 q-150 39 -236 -53q-123 -129 -188 -109q-31 8 -47.5 51t-19.5 106.5t6.5 139.5t31.5 151q20 72 58 156t80 153.5t83 112.5t70 35q29 -10 34 -50t5 -87q0 -16 2 -28.5t4 -26.5q14 -78 56 -120t139 -63q53 -10 65 5.5t23 39.5q8 27 14 61t10 70.5t6 73.5t0 70q-2 59 -21.5 105 t-80.5 94l-39 22q14 45 23.5 89t19.5 79q23 96 -12 167t-107 118q-88 61 -127 -27q-25 -61 -51.5 -152.5t-56.5 -183.5q-49 0 -104.5 -17.5t-110.5 -62.5q-117 -98 -197 -245.5t-119 -306t-32.5 -306z" />
<glyph unicode="&#xa3;" horiz-adv-x="1351" d="M-125.5 747.5q-19.5 -22.5 4.5 -63.5q18 -33 43 -72t53 -69q29 -35 60 -44.5t80 -0.5l39 8l-18 -133l-13 -111q-8 -51 10.5 -87t54.5 -64l75 -60.5t63 -46.5q14 -10 29.5 -18.5t37 -13.5t53 -3t76.5 15l259 50l268 50q31 6 47 12t22 14.5t3 21.5t-11 36q-8 35 -22.5 73 t-38.5 74q-23 39 -54.5 50.5t-85.5 7.5q-96 -6 -179 -14.5t-175 -24.5q10 53 25 109l28 114q88 8 177 12l180 9q47 2 61 15t-2 52q-10 33 -23.5 64.5t-37.5 66.5q-35 66 -127 66q-37 0 -74 1t-78 -1l41 162h145q74 0 150 -3q90 -12 70 64q-10 35 -23.5 68.5t-32.5 74.5 q-29 68 -129 78q-23 2 -46 3t-48 5l36 112l34 107q20 53 8 82t-68 68q-53 37 -128 66.5t-138 46.5q-59 18 -93 7t-54 -71q-27 -90 -53 -194l-54 -220q-90 -4 -177 -9t-163 -15q-41 -6 -64.5 -26.5t-2.5 -67.5q14 -37 38.5 -79t49.5 -77q29 -41 59.5 -51t83.5 -4q29 4 56.5 5 t56.5 5l-17 -84q-8 -43 -14 -84q-74 -6 -141.5 -15.5l-133.5 -19.5q-38 -6 -57.5 -28.5z" />
<glyph unicode="&#xa4;" horiz-adv-x="1572" d="M-127 643.5q-18 -22.5 6 -63.5q18 -31 44 -69t54 -69q29 -33 59 -43t81 0q10 2 16 2t14 2q18 -121 76 -217q29 -57 84 -100t111 -66l139 -43.5t174 -29.5q45 -4 93 0t92.5 14t84 26.5t68.5 35.5q59 41 116.5 102t96.5 135q35 63 32 106.5t-81 63.5q-195 55 -315 -68 q-170 -172 -252 -145q-47 14 -67.5 78.5t-23.5 159.5q96 8 189.5 13t191.5 9q47 2 61.5 14.5t0.5 51.5l-26 62q-13 32 -42 67q-37 63 -125 63q-53 2 -106 1t-113 -3q4 20 9.5 41t15.5 41q4 20 10 39l14 41q86 2 174.5 1t178.5 -3q47 -6 62 8t5 55q-10 35 -23.5 68l-31.5 74 q-37 68 -131 73l-103 9q33 57 67 108t65.5 87t60.5 53.5t51 11.5q41 -16 49 -69.5t6 -119.5q-2 -20 -1 -38.5t6 -41.5q8 -51 25.5 -90t48 -68.5t77.5 -51t113 -33.5q33 -6 53 -4t32.5 10t19.5 22.5l14 30.5q12 37 22 83t16.5 96.5t9.5 101.5t3 98q-2 82 -26.5 145.5 t-104.5 128.5q-41 27 -92.5 52.5t-108.5 47t-117.5 37t-118.5 21.5q-78 6 -167 -16.5t-177 -95.5q-113 -96 -199.5 -225.5t-148.5 -276.5q-86 -4 -163 -10l-148 -13q-41 -6 -63.5 -26.5t-2.5 -65.5q16 -37 41 -78l47 -76q31 -41 61 -50t81 -5q14 2 24 2q12 0 27 2l-15.5 -83 t-11.5 -83q-53 -4 -105 -11l-106 -15q-39 -6 -57 -28.5z" />
<glyph unicode="&#xa5;" horiz-adv-x="1333" d="M-97.5 1739.5q-11.5 -19.5 11.5 -74.5l57 -176l65 -191l68 -198l70 -199l-94 -8l-86 -8q-39 -4 -61.5 -23.5t-4.5 -64.5q16 -35 40 -74l46 -72q29 -39 58.5 -48t79.5 -5l127 14l-13 -82l-12 -77q-78 -6 -148.5 -15.5l-138.5 -19.5q-37 -6 -55 -27.5t4 -60.5 q18 -31 43 -67t51 -66q29 -31 58.5 -40.5t78.5 -0.5q16 4 34 6l36 4q-2 -4 -1 -7t1 -7q-6 -53 8.5 -81t59.5 -57q45 -18 98 -35.5t102 -29.5q53 -12 71.5 -4t29.5 49l21 107l22 110q86 6 170 10l174 8q43 4 58.5 16.5t-1.5 47.5q-10 31 -23.5 60.5t-39.5 64.5 q-37 61 -121 61q-37 0 -75 1t-77 -1q29 37 55 74l54 78q53 0 108.5 -1t112.5 -1q45 -4 61.5 9t6.5 52q-10 33 -24 64l-32 71q-12 18 -26.5 33.5t-36.5 24.5l111 170l100 158l81 139q36 63 58 112q14 33 22.5 56.5t7.5 44t-10.5 40t-27.5 42.5q-33 31 -80 69.5t-94 62 t-87 20.5t-61 -54l-214 -375l-216 -360l-107 333q-52 158 -98 281q-16 33 -29.5 56.5t-29.5 41t-37.5 28.5t-52.5 17q-59 14 -118.5 11.5t-121.5 -7.5q-55 -10 -66.5 -29.5z" />
<glyph unicode="&#xa6;" horiz-adv-x="878" d="M68 59q-4 -49 9 -76.5t60 -50.5q37 -16 76 -30.5t86 -26.5q53 -12 69.5 -1t26.5 48l38 119l27 87l20 72l21 75l26 98l38 135q16 47 6 71.5t-67 57.5q-51 31 -102.5 48t-102.5 38q-57 18 -87 6t-46 -61l-34 -153q-13 -60 -21.5 -103t-13.5 -77t-9 -72l-9 -85 q-5 -47 -11 -119zM262 1114q-8 -59 6.5 -91t65.5 -60l82 -35t94 -33q57 -14 74.5 -1t31.5 58l46 142l32 103l27 86q12 40 25 89l32 115l45 162q20 55 9 85.5t-72 69.5q-53 39 -109.5 59.5t-111.5 43.5q-63 23 -95 8.5t-53 -74.5l-41 -182l-27 -124q-11 -52 -18.5 -92 t-13.5 -84l-13.5 -101.5t-15.5 -143.5z" />
<glyph unicode="&#xa7;" horiz-adv-x="1851" d="M-152 297q2 -31 95 -113q168 -152 325.5 -213t319.5 -57q102 2 180 22.5t134 52t95 70.5t64 78q61 -10 129 -6q125 2 215 32t152.5 73t101.5 93t61 93q35 61 24 115.5t-52 103.5t-104.5 96t-136.5 94l-145 98q-73 50 -130 107q-47 43 -58.5 98.5t0.5 113t44 113.5 t71 105.5t81 87t77 56.5q39 29 56 24.5t19 -32t-7 -70.5t-21 -91l-25 -96q-12 -48 -16 -83q-27 -178 254 -277q49 -20 76.5 -9t50.5 54q25 47 48 109.5t44.5 131t38 136.5t24.5 125v67q0 35 -8 73t-29.5 77t-62.5 78q-59 59 -152.5 108.5t-187.5 83.5q-59 20 -115.5 22.5 t-106.5 -5.5t-90 -25.5t-65 -38.5q-78 -45 -150.5 -112.5t-138.5 -143.5q-8 4 -17 6t-17 7q-59 18 -115.5 21t-105 -5t-87.5 -25.5t-63 -36.5q-72 -45 -141.5 -110.5t-128 -140t-100.5 -153.5t-58 -149q-25 -82 -19.5 -156.5t31 -140t70.5 -122t102 -99.5q78 -61 178 -123 l184 -113q83 -52 128 -94t12 -65q-57 -43 -185 -13.5t-302 134.5q-31 18 -70 29.5t-80 14.5t-82 -3t-76 -21q-41 -22 -37 -61zM386 1076.5q-3 72.5 22.5 131t74.5 86.5q49 37 88 52.5t60 5.5q0 -29 1 -73t4 -90t9 -88t19 -67q35 -84 108.5 -156.5t163.5 -119.5l150.5 -99.5 t133 -89.5t81 -72.5t-4.5 -50.5q-45 -35 -130 -25.5t-201 62.5q-47 37 -104 72l-115 72l-114.5 76.5t-103.5 82.5q-72 63 -105.5 140.5t-36.5 150z" />
<glyph unicode="&#xa8;" horiz-adv-x="1290" d="M123 2165q-2 -47 14.5 -85t44 -65.5t64.5 -41t78 -11.5q41 0 72.5 15.5t55 38t36 47t16.5 42.5q12 27 12 60q0 53 -35 101t-112 75q-53 18 -98.5 9t-77 -34.5t-50 -65.5t-20.5 -85zM760 2165q-4 -49 9 -88t40 -65.5t63.5 -41t77.5 -12.5q41 0 74 15.5t56.5 38t39 48 t21.5 43.5q2 16 5 29.5t5 32.5q2 49 -31 98t-104 76q-55 16 -100.5 7t-79 -34.5t-54 -64.5t-22.5 -82z" />
<glyph unicode="&#xa9;" horiz-adv-x="2557" d="M-48 634q9 -204 122 -376q53 -86 129 -149.5t192 -108.5q164 -63 362.5 -87t408.5 -10.5t419 63.5t394.5 135t335 205t239.5 274q63 111 99 242.5t37 261.5t-36 249t-119 203q-74 121 -207 224.5t-288.5 180t-317 120.5t-295.5 44q-236 0 -459 -89t-411 -236.5 t-329.5 -339t-213 -397t-62.5 -409.5zM288.5 527.5q-20.5 134.5 21.5 289t130 306t214 288.5t271.5 236.5t303 148.5t309.5 23q125 -20 247 -81t227.5 -148t187 -192.5t127 -218t46.5 -225t-55 -211.5q-53 -72 -112.5 -144.5t-128 -138t-146.5 -121.5t-164 -95 q-127 -57 -242.5 -97.5t-241.5 -55.5t-274.5 -3t-338.5 62q-178 43 -269.5 143t-112 234.5zM755 649.5q7 -147.5 64 -246.5q23 -45 64 -77.5t82 -49.5l104 -34q57 -18 129 -23q72 -6 140.5 11.5t115.5 45.5q41 33 82 79t70 104q25 47 22.5 79.5t-61.5 49.5 q-72 23 -130.5 8.5t-101.5 -59.5q-123 -133 -186 -111q-31 8 -47.5 51t-19.5 106.5t6.5 139.5t29.5 151q20 72 56 155t77 152.5t81 112.5t69 35q31 -12 38 -51t7 -86q0 -16 1 -28.5t1 -26.5q14 -76 57 -118t140 -63q51 -10 64 3.5t24 39.5q16 53 24 132t6 145 q-4 59 -24.5 104t-79.5 93q-57 39 -143 70.5t-170 39.5q-57 4 -122 -11.5t-126 -68.5q-115 -98 -194 -244.5t-117.5 -304t-31.5 -305z" />
<glyph unicode="&#xaa;" horiz-adv-x="841" d="M-144 1096.5q1 -25.5 17 -52.5q27 -33 57.5 -63.5t59.5 -54.5q29 -27 53.5 -28t52.5 3q55 10 114 17l118 12q-16 -66 -25.5 -114t-13.5 -83q-6 -37 2 -55.5t37 -38.5q29 -16 60.5 -27.5t55.5 -17.5q37 -10 49.5 -2t20.5 33q12 68 33 150l45 179q63 2 123 7q35 2 43 12 t4 39q-10 25 -16.5 46t-18.5 48q-25 49 -82 49l65 223q30 106 56 187q12 35 6 53t-41 41q-20 12 -53 30l-69 34l-67 32q-32 14 -50 21q-41 12 -61.5 9t-53.5 -30q-59 -53 -131 -130t-141.5 -160t-130 -164.5t-99.5 -147.5q-20 -31 -19 -56.5zM119 1124l166 193 q90 104 188 188q-27 -86 -49 -177l-47 -183q-68 -4 -134.5 -9.5t-123.5 -11.5z" />
<glyph unicode="&#xab;" horiz-adv-x="1916" d="M-82 803q-10 -51 8.5 -70.5t59.5 -38.5l184 -79q96 -40 190 -74l180 -65q85 -30 152 -50q35 -10 61.5 -4t34.5 37q6 39 4.5 86t-10.5 82q-8 20 -15 33.5t-16.5 22.5t-23.5 16.5t-39 13.5q-156 51 -311 114q139 41 271 86t224 86q29 14 43.5 35t-12.5 56l-79 80 q-40 40 -79 69q-41 29 -66.5 32t-62.5 -18q-129 -57 -261 -104t-302 -94q-45 -16 -64.5 -35t-35.5 -59q-12 -35 -20.5 -74t-14.5 -84zM899 754q-12 -49 3.5 -68.5t53.5 -38.5l181 -79l184 -74l173 -65q83 -30 146 -48q37 -10 63 -4t36 37q10 37 12 85t-2 81q-8 20 -14 33.5 t-15.5 22.5t-23 16t-37.5 14l-148.5 52t-152.5 60q143 41 277 85t231 85q33 16 48 36t-11 54q-35 43 -71 82t-73 68q-41 29 -64.5 32t-64.5 -18q-131 -57 -266 -103t-307 -95q-49 -16 -70.5 -34t-38.5 -59q-14 -35 -26.5 -73.5t-22.5 -83.5z" />
<glyph unicode="&#xac;" horiz-adv-x="2914" d="M-49 1716q-8 -8 6 -33q23 -23 49.5 -56.5t61.5 -55.5q33 -23 56 -28t64 5q27 4 68 8l84 9q-18 -74 -35.5 -161t-33 -173t-25.5 -165t-13 -134q-10 -45 33 -65.5t105 -35.5q70 -14 113.5 -20t47.5 29q16 84 39 179l49 193l53 197l54 188q70 4 139 10l127 9q47 4 53.5 12 t0.5 31q-16 29 -38 56.5t-51 49.5q-20 14 -42.5 20.5t-69.5 6.5l-200 -9q-112 -5 -228.5 -13.5t-229 -18.5t-202.5 -22q-27 -5 -35 -13zM33 100q-2 -25 12 -42t41 -33l58 -30q22 -11 51 -24q20 -10 48.5 -15t94.5 5l187 26l196 25q45 6 48 12.5t-5 28.5l-25 37 q-12 18 -28 35q-29 18 -48.5 24.5t-60.5 4.5q-70 -4 -131 -8.5t-131 -10.5l40 138l44 144l46.5 137.5t47.5 121.5q10 23 -1 35t-48 28q-41 16 -93 28.5t-100 20.5q-41 10 -62 4t-34 -32q-25 -68 -49.5 -158t-44.5 -182t-34.5 -177.5t-18.5 -142.5zM623 489q-20 -35 43 -43 l56 -4q28 -2 50 2q29 0 51.5 7.5t44.5 23.5q39 29 84 83t70 101q6 25 6 35q0 14 -24 37q-20 12 -44 24.5t-53 22.5q-37 16 -58.5 13t-35.5 -23l-44 -68l-53 -77l-52 -74zM814 14.5q15 -12.5 48 -28.5l51 -15q23 -6 41 -12q37 -8 51.5 -5t26.5 21l44 67q22 34 57 73 q86 16 195.5 25.5l215.5 19.5l14.5 -75t10.5 -65q10 -29 24.5 -40t48.5 -17q37 -10 70 -11t74 -1q37 0 47 7t12 26q-6 86 -12 183t-8 192.5t0 181.5t8 149q0 29 -13.5 43.5t-60.5 24.5l-130 21q-71 11 -181 16q-68 4 -101.5 -11.5t-54.5 -38.5q-59 -68 -128 -156l-133 -181 l-122 -182q-57 -89 -94 -156q-16 -43 -1 -55.5zM950 932q-10 -31 5.5 -47.5t50.5 -28.5q33 -14 75.5 -22.5t79.5 -14.5q43 -8 57.5 -3t18.5 26q20 55 34.5 125.5t43.5 148.5q66 8 131 13.5t131 13.5q-20 -66 -31.5 -119t-15.5 -96q-16 -41 21.5 -61.5t103.5 -35.5l60 -11 q28 -5 49.5 -6t33.5 5t12 23q27 96 65 205l79 217l81 210l72 181q8 27 1 41t-48 33q-41 20 -89 34.5t-93 24.5q-47 8 -70.5 4t-35.5 -39q-37 -88 -72 -199l-72 -225l-121 -8q-61 -4 -133 -8q35 96 61.5 179t55.5 142q6 29 -2 43.5t-49 32.5q-47 20 -98.5 35.5t-98.5 26.5 q-49 10 -72.5 5t-31.5 -40q-23 -88 -44 -196l-45 -216l-49 -212q-24 -103 -51 -181zM1262 295l135 174q63 82 123 149q0 -74 2 -149.5t12 -153.5l-139 -8q-67 -4 -133 -12zM1892 131q-12 -37 1.5 -52.5t45.5 -39.5q39 -23 71 -38t79 -28q45 -18 78 -19t94 9q51 8 111.5 22.5 t121 32t114.5 38t95 44.5q55 29 84 61t19 77q-2 35 -39 68.5t-88 53.5q45 16 84 34t69 34q68 37 112 82t26 98q-10 49 -43 85t-82 67q-53 35 -153.5 45t-217.5 2t-234.5 -29.5t-203.5 -48.5q-10 -70 -28.5 -149.5t-40.5 -159.5l-42 -155q-21 -75 -33 -134zM2017 983 q-8 -31 4.5 -53.5t34.5 -38.5q29 -23 55.5 -35t49.5 -27q23 -10 55.5 -16t101.5 6q96 10 204 26l210 29q43 6 53.5 15.5t-2.5 32.5l-16 41q-8 20 -25 43q-16 20 -40.5 27t-73.5 3l-146 -8q-70 -4 -143 -14q16 33 29.5 64.5t31.5 66.5q92 16 191 27l194 22q45 8 57.5 15.5 t0.5 33.5q-8 23 -17.5 44.5t-25.5 43.5q-16 20 -41 27.5t-70 5.5q-53 0 -98 -2t-92 -8l53 109q25 52 53 100q106 12 204.5 19t190.5 15q43 4 55.5 12.5t6.5 37.5q-2 23 -10.5 43t-22.5 47q-25 45 -109 45q-90 -4 -183 -11.5t-181 -17.5t-169 -21.5t-149 -23.5zM2159 115 q20 39 34 75l31 78q123 29 196.5 21t84.5 -29q8 -35 -87 -76.5t-259 -68.5zM2298 428l41 92q18 43 43 84q125 35 209 37t96 -20q6 -16 -18.5 -40t-75.5 -51.5t-126 -54.5t-169 -47z" />
<glyph unicode="&#xad;" horiz-adv-x="1212" d="M-242 956q29 -47 60.5 -91t77.5 -91q43 -47 79.5 -61.5t79.5 -1.5q156 41 339.5 60.5t361.5 31.5q51 2 65.5 18.5t-6.5 67.5q-20 41 -39.5 86t-50.5 98q-33 45 -68.5 67.5t-83.5 22.5q-102 0 -211.5 -7t-216 -17.5t-199.5 -24.5t-161 -29q-101 -18 -27 -129z" />
<glyph unicode="&#xae;" horiz-adv-x="2557" d="M-48 634q9 -204 122 -376q53 -86 129 -149.5t192 -108.5q164 -63 362.5 -87t408.5 -10.5t419 63.5t394.5 135t335 205t239.5 274q63 111 99 242.5t37 261.5t-36 249t-119 203q-74 121 -207 224.5t-288.5 180t-317 120.5t-295.5 44q-236 0 -459 -89t-411 -236.5 t-329.5 -339t-213 -397t-62.5 -409.5zM288.5 527.5q-20.5 134.5 21.5 289t130 306t214 288.5t271.5 236.5t303 148.5t309.5 23q125 -20 247 -81t227.5 -148t187 -192.5t127 -218t46.5 -225t-55 -211.5q-53 -72 -112.5 -144.5t-128 -138t-146.5 -121.5t-164 -95 q-127 -57 -242.5 -97.5t-241.5 -55.5t-274.5 -3t-338.5 62q-178 43 -269.5 143t-112 234.5zM807 444q-4 -43 7 -66.5t40 -39.5t59.5 -22.5t69.5 -18.5q37 -8 50.5 0t19.5 33l39 171q18 85 36 181q39 -49 88.5 -98l98.5 -94l94 -81q45 -38 80 -63q53 -33 93 -37t75 6 q29 4 46 7.5t44 25.5q20 18 25.5 32.5t-23.5 41.5q-41 33 -84 74l-87 86l-85 90l-78 86q166 76 287 163t174 191q33 61 8 162q-23 92 -64.5 155.5t-95.5 118.5q-66 63 -151.5 76.5t-181 -2.5t-194.5 -55t-191 -82q-27 -14 -49.5 -84t-43 -170.5t-36.5 -219.5l-31 -231 q-14 -111 -23.5 -202t-15.5 -134zM1192 944l53 185l47 161q121 51 205 51q41 0 68.5 -11t33.5 -32q12 -27 -11 -71.5t-76.5 -96t-134.5 -101.5t-185 -85z" />
<glyph unicode="&#xaf;" horiz-adv-x="1212" d="M43 2208q16 -29 24.5 -36t15.5 -10t19.5 -10.5t36.5 -35.5q47 -59 88 -77t88 -3q174 49 377 72.5t400 39.5q57 4 72.5 23.5t-7.5 83.5q-10 27 -13 33t-5 9t-7.5 12l-23.5 40q-63 109 -166 109q-113 0 -234.5 -8.5t-237.5 -21.5t-219.5 -29.5t-176.5 -35.5 q-105 -22 -31 -155z" />
<glyph unicode="&#xb0;" horiz-adv-x="763" d="M-93 1377.5q5 -66.5 48 -117.5q16 -23 47 -40.5t61 -27.5q41 -16 90.5 -21.5t96.5 -7.5q72 -6 125 2.5t102 30.5q70 39 117 95.5t71.5 117.5t28.5 122.5t-12 113.5q-10 29 -31.5 51t-66.5 43q-41 16 -97.5 29.5t-121.5 19.5q-47 4 -102.5 -5t-94.5 -28 q-90 -45 -150.5 -108.5t-88 -133t-22.5 -136zM160 1340.5q-2 31.5 6 68.5t24 72q16 33 43 68.5t56.5 64t59.5 46t52 13.5q25 -4 36.5 -28.5t12.5 -58.5t-7.5 -73.5t-22.5 -72.5q-18 -43 -43 -79t-52.5 -60.5t-56 -36t-53.5 -4.5q-27 4 -40 26.5t-15 54z" />
<glyph unicode="&#xb1;" horiz-adv-x="1499" d="M-146.5 1113q-3.5 -15 7.5 -36q18 -41 54 -94t71 -86q39 -35 64.5 -43t74.5 2l102 16q53 8 109 13q-10 -63 -14.5 -116.5t-10.5 -94.5q-2 -72 68 -111q45 -27 81 -42t75 -34q47 -18 62 -11t26 48l37 185q22 102 51 215q127 12 248.5 15t242.5 7q47 0 61.5 15.5t-1.5 56.5 q-14 35 -26.5 70.5t-39.5 76.5q-39 70 -133 74q-106 4 -266 0q12 51 29.5 96t31.5 88q20 45 14 72t-47 64q-33 37 -88 69.5t-108 54.5q-43 16 -73 -3t-44 -58q-31 -78 -58 -182l-57 -223q-135 -8 -254.5 -21.5t-210.5 -30.5q-18 -4 -35.5 -10t-28.5 -16.5t-14.5 -25.5z M-80 252q20 -37 53 -83t66 -75q35 -31 59.5 -38t71.5 1q133 23 214 39l138 28l104.5 19.5t113 13.5t162.5 7t255 4q45 0 58.5 13.5t-3.5 47.5q-14 33 -25 64t-36 67q-41 63 -125 64q-143 -2 -239.5 -4t-169 -6t-133 -11.5t-128 -17.5t-153.5 -24.5t-213 -32.5 q-35 -4 -60.5 -22.5t-9.5 -53.5z" />
<glyph unicode="&#xb2;" horiz-adv-x="727" d="M-186.5 760.5q8.5 -25.5 26.5 -47.5q23 -27 54.5 -57.5t56.5 -47.5q8 -8 17 -13t22.5 -8t33 -2t48.5 7q39 8 97 17l122.5 18.5t128 15.5t112.5 8q29 6 39.5 14.5t-0.5 32.5q-8 23 -22 49.5t-33 47.5q-31 47 -86 45q-43 -2 -102.5 -6.5t-112.5 -12.5q61 45 123.5 99.5 t118 113t101.5 117.5t77 113q27 45 47 88t27.5 85t-1 85t-36.5 90q-23 31 -58.5 63.5t-83 57t-103.5 37t-118 -0.5q-106 -20 -197.5 -90.5t-150.5 -175.5q-35 -66 -28.5 -92.5t40.5 -40.5q57 -18 125 -17t119 38l66 62q33 30 62.5 50.5t54 26.5t40.5 -6q16 -10 -1 -52 t-60 -102.5t-106.5 -134.5t-136.5 -149.5t-149.5 -146.5t-148.5 -126q-33 -27 -24.5 -52.5z" />
<glyph unicode="&#xb3;" horiz-adv-x="743" d="M-191.5 815q3.5 -12 16.5 -29.5t42 -40.5q92 -80 182 -109.5t174 -29.5q106 0 195.5 33t156.5 119q31 39 46.5 84t12.5 91t-28.5 92t-75.5 89q-27 23 -55.5 34t-62.5 21q61 29 111 57.5t87 63.5q31 27 51.5 68t23.5 90t-14.5 104.5t-62.5 110.5q-45 51 -89 76.5t-86 35 t-82 6.5t-72 -9q-47 -10 -90.5 -30t-81 -45.5t-69.5 -54t-54 -55.5q-16 -25 -12.5 -44t26.5 -40q20 -18 54 -30.5t69 -16.5t69.5 2t59.5 25q37 23 78 44t71 21q20 0 31 -16q14 -18 -1 -49t-65.5 -68t-136.5 -79t-211 -83q-53 -16 -20 -73q41 -63 99.5 -96t117.5 -23 q47 6 75.5 3t53.5 -26q12 -10 19.5 -28.5t6.5 -43t-12.5 -52t-36.5 -54.5q-53 -53 -123.5 -60t-183.5 50q-41 20 -91 23.5t-91 -19.5q-10 -8 -17.5 -17.5t-4 -21.5z" />
<glyph unicode="&#xb4;" horiz-adv-x="1212" d="M196 2118.5q-3 -23.5 6 -43t23.5 -30.5t12.5 -9q66 -35 114.5 -46.5t91.5 7.5q98 35 202 80t201 94t182 98t145 90q-6 61 -22.5 101.5t-57.5 60.5q-76 41 -124 42t-85 -28q-68 -53 -147 -103t-164 -96l-172 -89l-169 -82q-34 -23 -37 -46.5z" />
<glyph unicode="&#xb5;" horiz-adv-x="1560" d="M-57 -328q-4 -49 11 -75.5t60 -49.5q43 -20 90 -32l99 -25q53 -12 68.5 -3t23.5 40q16 98 41 225l53 268q53 -23 115.5 -36t136.5 -17q92 -6 164 7.5t143 48.5q102 57 185.5 184t155 315.5t135 433t126.5 537.5q14 53 6 82t-65 65q-55 33 -120.5 67t-124 49.5t-99.5 3 t-47 -73.5l-58 -289q-33 -162 -71.5 -329t-83.5 -324.5t-94.5 -277.5t-102.5 -187.5t-108 -53.5q-35 10 -53.5 50t-21.5 102.5t6 142.5t28 170q14 78 41 182l55 208l54 193l40 134q41 125 -72 205q-106 78 -225 114q-66 23 -97.5 10.5t-47.5 -71.5q-45 -152 -87 -323 t-79 -350t-67.5 -359t-53 -351t-38 -327t-21.5 -283z" />
<glyph unicode="&#xb6;" horiz-adv-x="1449" d="M-18.5 890q6.5 -48 27 -92t46.5 -85q35 -53 87.5 -103.5t117.5 -97.5q-14 -31 -16 -77t-8 -118l-21 -220q-10 -105 -31 -210q2 -31 16.5 -41t71.5 0l110 28q54 13 99 33.5t75 52.5t36 85q0 12 21 94l55 201l70 259l74 267l62 226q27 98 35 135q49 16 78 -7.5t39 -74.5 q-6 -43 -32 -146l-61 -234l-76 -278l-76 -274l-62 -226q-27 -97 -35 -130q0 -31 14.5 -41.5t69.5 0.5l113 27q55 13 100 34t74.5 52.5t38.5 82.5q4 37 21.5 111t43.5 172l58 211l61 226l58 219q28 105 46.5 189.5t24.5 136.5t-6 60q-63 41 -141 83t-165 77t-179.5 58.5 t-183.5 25.5t-179 -20.5t-166 -79.5q-98 -76 -186 -162t-164 -213q-39 -61 -50.5 -114.5t-5 -101.5z" />
<glyph unicode="&#xb7;" horiz-adv-x="677" d="M100 928q-4 -53 13.5 -96.5t50.5 -73t78 -45t96 -11.5q49 0 88 16.5t66.5 41t46 52.5t24.5 48q4 16 6 31.5t4 36.5q0 55 -39.5 109.5t-127.5 82.5q-68 18 -123.5 9t-95.5 -37.5t-62.5 -71.5t-24.5 -92z" />
<glyph unicode="&#x2219;" horiz-adv-x="677" d="M100 928q-4 -53 13.5 -96.5t50.5 -73t78 -45t96 -11.5q49 0 88 16.5t66.5 41t46 52.5t24.5 48q4 16 6 31.5t4 36.5q0 55 -39.5 109.5t-127.5 82.5q-68 18 -123.5 9t-95.5 -37.5t-62.5 -71.5t-24.5 -92z" />
<glyph unicode="&#xb8;" horiz-adv-x="616" d="M-133 -326q-37 -57 51 -73l68.5 -7.5t66.5 0.5q70 4 117 54q25 25 55.5 63.5t60 83.5t55.5 91t42 85q16 55 16 68q2 23 -32 65q-25 23 -55.5 45.5t-69.5 43.5q-88 51 -119 -21l-60 -122l-70 -137l-70 -132z" />
<glyph unicode="&#xb9;" horiz-adv-x="462" d="M-39 766q-4 -39 4 -58.5t31 -35.5q31 -16 82 -31.5t86 -24.5q31 -10 43 -2.5t16 29.5q14 88 40 211l56 254l63 254q32 123 58 211q12 35 3 52t-42 40q-18 12 -44 25l-51 24q-26 12 -51.5 22.5t-43.5 16.5q-37 10 -54.5 4t-41.5 -37l-54 -80q-31 -45 -51 -88 q-16 -37 -4 -52t62 -42q-18 -86 -37 -186.5t-33 -196.5t-24.5 -178t-12.5 -131z" />
<glyph unicode="&#xba;" horiz-adv-x="2463" d="M-139 180q-4 -53 12 -82.5t64 -52.5q47 -29 98 -42l102 -26q53 -14 71.5 -4.5t22.5 43.5q8 74 21.5 173.5t31.5 214.5l35 243l37 254q31 -106 66 -212l68 -203q34 -97 68 -181t65 -147q39 -88 133 -123q98 -35 192 -53q111 -25 121 53l67 333l81 388l86 391 q43 193 83 344q14 53 6 91t-69 75q-37 23 -63.5 37t-51 24.5t-49.5 16.5l-55 14q-66 16 -98.5 2t-47.5 -74q-51 -219 -101 -479t-81 -528l-54 218l-52 221l-44 200l-32 151q-16 78 -44 118t-91 67q-80 37 -154 59l-149 45q-63 16 -99.5 1t-50.5 -77q-18 -106 -35.5 -243.5 t-34 -285t-29.5 -296l-23.5 -278.5t-16.5 -232.5t-6 -157.5zM1325 449q12 -23 13 -30t2 -10t6.5 -10.5t25.5 -27.5q39 -45 94.5 -58.5t96.5 -1.5q154 37 334 55.5t350 28.5q51 4 65.5 19.5t-2.5 62.5q-10 18 -14 24.5t-8 10.5l-10.5 11t-18.5 32q-53 84 -139 84 q-98 0 -205 -6t-208 -16.5t-192.5 -23.5t-156.5 -26q-96 -18 -33 -118zM1538 970.5q2 -63.5 39 -110.5q14 -23 44 -38t58 -25q39 -14 86 -19.5t93 -7.5q68 -4 121 3t102 30q70 37 119 89t76.5 109.5t34.5 115t-5 104.5q-10 29 -28.5 50t-59.5 40q-39 16 -93 27.5t-116 17.5 q-47 4 -101.5 -5.5t-92.5 -25.5q-90 -41 -153 -101.5t-94.5 -125t-29.5 -128zM1839 979q0 23 7 47.5t22 46.5q12 23 31.5 46.5t41 42t42 30.5t36.5 10q16 -4 23.5 -20.5t6.5 -39t-8 -49t-20 -49.5q-29 -57 -70.5 -94t-76.5 -26q-18 2 -26.5 18.5t-8.5 36.5z" />
<glyph unicode="&#xbb;" horiz-adv-x="1916" d="M-66.5 633.5q-11.5 -19.5 17.5 -51.5l80 -73q39 -36 75 -60q41 -27 65 -29t58 16q121 51 247 92t290 88q23 8 39 15.5t27.5 16.5t19.5 22.5t18 34.5q29 68 48 155q14 51 -2.5 70.5t-57.5 40.5q-90 43 -188 85l-197 81l-189 71q-91 33 -163 56q-39 12 -66.5 5t-31.5 -42 q-4 -43 1 -96.5t15 -88.5q10 -23 17 -36t17.5 -23t26 -17.5t39.5 -13.5l159 -56q79 -28 159 -62q-139 -39 -267.5 -83t-216.5 -83q-28 -15 -39.5 -34.5zM901 586.5q-14 -19.5 14 -49.5q35 -39 73 -74t73 -60q39 -27 61.5 -28.5t59.5 14.5q123 51 252 93t297 87 q47 16 68.5 31.5t39.5 54.5q16 33 32.5 72t31.5 84q16 51 1.5 70.5t-53.5 40.5l-182 84q-96 43 -191 80l-183 71q-87 33 -154 55q-41 12 -69 5t-34 -41q-10 -43 -8 -96.5t8 -88.5q16 -43 31.5 -59.5t65.5 -30.5l151 -54q76 -28 154 -61q-141 -41 -272.5 -84t-223.5 -81 q-29 -15 -43 -34.5z" />
<glyph unicode="&#xbc;" horiz-adv-x="1646" d="M-145 782q-4 -39 5 -58t34 -36q33 -16 84 -32l88 -25q31 -8 42 -2t15 30q10 88 29.5 212t44.5 254l50 254q26 124 48 212q10 35 0 52.5t-45 39.5q-18 12 -45 26l-53 26q-27 12 -53 21l-44 16q-39 10 -55 3.5t-39 -36.5l-51 -80q-29 -45 -45 -88q-16 -37 -3 -53.5 t64 -42.5q-16 -86 -28.5 -186.5t-22.5 -197t-15 -178.5t-5 -131zM-131 209q-2 -16 1 -32.5t21 -33.5q10 -12 11.5 -9t1.5 7t4 4t22 -14q35 -29 60.5 -28t58.5 36l187 171l251 226l286 254l289 253l261 227l205 172q47 39 60.5 69.5t-15.5 85.5q-12 23 -17.5 28t-9.5 5 q-2 0 -8 3t-25 24q-66 88 -165 6q-88 -70 -213 -182l-267 -247l-287 -278l-277 -274l-232 -236l-156 -161q-41 -41 -47 -76zM700 389q0 -23 15 -47q23 -29 50.5 -55.5t55.5 -48.5q27 -25 49.5 -26t51.5 3q53 8 106 14l111 13q-16 -59 -26.5 -102.5t-14.5 -73.5 q-8 -35 -1 -51.5t36 -34.5q27 -14 56.5 -23.5t51.5 -15.5q35 -8 45 -2t21 28q14 61 35 135l49 160q31 2 59.5 3t56.5 3q31 2 40 11.5t5 33.5q-8 23 -14 42.5t-16 43.5q-20 43 -76 43l67 199q33 94 62 166q10 29 5 45t-38 39q-18 10 -49 25l-63 31l-63 27.5t-46 18.5 q-39 10 -58.5 7t-50.5 -25q-57 -47 -126.5 -114.5t-138 -141.5t-129 -147.5t-99.5 -131.5q-19 -28 -19 -51zM948 414l163 171q89 93 185 169q-29 -78 -53 -159l-49 -163l-129 -8q-64 -4 -117 -10z" />
<glyph unicode="&#xbd;" horiz-adv-x="1728" d="M-150 782q-2 -39 7.5 -58t31.5 -36q16 -8 39 -16l47 -16l48 -14q23 -7 40 -11q31 -8 41.5 -2t14.5 30q10 88 29.5 212t43 254t49 254t48.5 212q10 35 0 52.5t-45 39.5q-18 12 -45 26l-54 26q-27 12 -52 21l-44 16q-39 10 -56.5 3.5t-39.5 -36.5l-49 -80q-29 -45 -45 -88 q-16 -37 -2 -52.5t63 -43.5q-14 -86 -27.5 -186.5t-22.5 -197t-14.5 -178.5t-5.5 -131zM-133 209q-2 -16 2 -32.5t22 -33.5q10 -12 11.5 -9t1.5 7t4 4t22 -14q35 -29 60.5 -28t58.5 36l185 171l250 226l285 254l289 253l261 227l205 172q45 39 58 69.5t-15 85.5 q-12 23 -17.5 28t-9.5 5q-2 0 -8 3t-25 24q-66 88 -166 6q-88 -70 -212 -182l-265 -247l-286 -278l-276 -274l-232 -236l-156 -161q-39 -41 -47 -76zM806 107.5q7 -23.5 23 -44.5q18 -23 48 -50t53 -44q16 -16 36.5 -21t75.5 5q37 8 94 16l117 17q61 8 122 14t108 8 q29 4 38 12.5t1 30.5q-8 18 -20.5 43t-28.5 43q-27 41 -80 39q-41 -2 -96.5 -5t-108.5 -11q59 41 119.5 90t116 101t101.5 104.5t77 99.5q27 41 47 79t27 76t1 76.5t-30 79.5q-18 29 -51 58.5t-77 51t-96.5 31t-111.5 -0.5q-102 -16 -189.5 -80t-148.5 -156 q-35 -59 -30 -82.5t36 -36.5q53 -16 117 -16q66 0 114 35q31 29 64 55.5t61.5 44.5t52 24.5t37.5 -6.5q16 -10 -2 -46.5t-61 -91t-105.5 -121t-133 -133t-146.5 -130t-146 -112.5q-32 -23 -25 -46.5z" />
<glyph unicode="&#xbe;" horiz-adv-x="1941" d="M-196 886.5q1 -24.5 63 -71.5q96 -80 188 -109.5t176 -29.5q109 0 197 32.5t152 120.5q59 78 50 176.5t-114 184.5q-27 23 -57.5 34t-65.5 21q61 29 110.5 58.5t84.5 64.5q31 27 49 69t19 91t-19.5 104.5t-69.5 112.5q-47 51 -93 77.5t-89 36t-83 6.5t-73 -10 q-92 -23 -167.5 -77t-118.5 -111q-29 -43 18 -84q23 -18 56.5 -30.5t70.5 -16.5t71 2t56 25q35 23 76 44t74 21q18 0 30 -16q16 -18 2 -49t-63 -69t-134 -80t-208 -83q-29 -10 -31 -28.5t14 -47.5q47 -66 105.5 -97.5t120.5 -20.5q47 4 75.5 2t55 -24.5t30 -75t-44.5 -107.5 q-51 -53 -122.5 -60.5t-186.5 52.5q-41 18 -91 22t-91 -20q-23 -15 -22 -39.5zM166 209q-2 -16 1 -32.5t21 -33.5q10 -12 11.5 -9t1.5 7t4 4t22 -14q35 -29 60.5 -28t58.5 36l188 171l253 226l289 254l293 253l265 227l207 172q47 39 61.5 69.5t-14.5 85.5q-12 23 -17 28 t-9 5q-2 0 -8.5 3t-22.5 24q-66 88 -166 6q-88 -70 -215 -182l-270 -247l-292 -278l-280 -274l-235 -236l-158 -161q-43 -43 -49 -76zM999 389q0 -23 15 -47q23 -29 50.5 -55.5t55.5 -48.5q27 -25 48.5 -26t50.5 3q53 8 107 14l112 13l-29 -103q-12 -43 -16 -73 q-8 -35 -1 -51.5t35 -34.5q27 -14 55.5 -23.5t51.5 -15.5q35 -8 46 -2t22 28q16 61 37.5 135t50.5 160q31 2 59.5 3t56.5 3q31 2 40 11.5t5 33.5q-8 23 -13 42.5t-15 43.5q-20 43 -76 43l71 199l62 166q12 29 6 45t-37 39q-18 10 -49 25l-63 31l-62.5 27.5t-46.5 18.5 q-39 10 -57.5 7t-50.5 -25q-59 -47 -129 -115l-140 -141q-70 -74 -131 -147.5t-100 -131.5q-21 -28 -21 -51zM1249 414l164 171q90 93 186 169q-29 -78 -53 -159t-53 -163l-127 -8q-64 -4 -117 -10z" />
<glyph unicode="&#xbf;" horiz-adv-x="1390" d="M7 401.5q-3 -69.5 30 -147.5t115 -160q37 -39 90 -73.5t119.5 -58t143.5 -32t159 6.5q139 23 262 99.5t223 201.5q35 41 49 69.5t13 48t-16 31.5t-40 23q-94 39 -194.5 32.5t-172.5 -59.5l-90 -68q-43 -33 -86 -60.5t-85 -43.5t-85 -16q-29 0 -54.5 14t-35.5 49 q-4 25 5.5 55.5t36 65.5t72.5 74t118 82l132 80q75 46 143.5 109.5t119.5 146.5t65 194q8 59 -2 91t-59 61q-43 23 -97.5 45t-100.5 32.5t-76.5 -1t-26.5 -56.5q-14 -92 -50 -159.5t-86 -118t-110 -89.5l-119 -74q-59 -36 -113 -73t-95 -84t-70 -107.5t-32 -130zM678 1591 q0 -31 7 -60.5t26.5 -57t54.5 -51t90 -42.5q70 -23 128 -16.5t103.5 32t73 66.5t33.5 90q8 59 -6 105.5t-45 79t-76 53t-96 27.5q-59 8 -107.5 -0.5t-86.5 -31t-62.5 -54t-34.5 -68.5q-2 -8 -2 -33v-39z" />
<glyph unicode="&#xc0;" horiz-adv-x="1470" d="M-169 130q1 -26 11.5 -42t28.5 -28l43 -27l64 -30l59 -23q47 -16 70.5 -10.5t39.5 40.5l60 134q31 69 72 149q117 31 269 52l306 42q6 -84 12 -154.5t15 -130.5q8 -57 27.5 -79.5t68.5 -36.5q47 -16 92 -19.5t98 -3.5t68.5 14.5t15.5 51.5q-2 176 -1 381.5t5.5 410.5 t12.5 393.5t20 333.5q6 59 -11 96t-81 60q-47 12 -93 26.5t-100.5 26.5t-120 21.5t-149.5 13.5q-96 8 -145 -26.5t-80 -90.5q-86 -154 -181 -351l-187 -400l-170 -394q-79 -190 -128 -331q-12 -43 -11 -69zM373 2374q59 -41 143 -90.5t180.5 -98.5t198.5 -94t201 -80 q41 -18 91 -7t113 46q0 -2 14.5 9.5t25 29.5t8.5 43t-39 47q-164 78 -336 171t-305 202q-39 29 -87.5 26.5t-123.5 -43.5q-43 -20 -59.5 -60t-24.5 -101zM463 674l191 376l177 330q-4 -164 -2 -330.5t7 -334.5q-94 -6 -187.5 -16.5t-185.5 -24.5z" />
<glyph unicode="&#xc1;" horiz-adv-x="1470" d="M-169 130q1 -26 11.5 -42t28.5 -28l43 -27l64 -30l59 -23q47 -16 70.5 -10.5t39.5 40.5q27 66 58 134.5t74 148.5q117 31 269 52l306 42q4 -84 11 -154.5t16 -130.5q8 -57 27.5 -79.5t68.5 -36.5q47 -16 92 -19.5t98 -3.5t68.5 14.5t15.5 51.5q-2 176 -1 381.5t5.5 410.5 t11.5 393.5t19 333.5q6 59 -10 96t-82 60q-47 12 -93 26.5t-99.5 26.5t-119 21.5t-149.5 13.5q-49 4 -84 -3t-61.5 -23.5t-46 -40t-35.5 -50.5q-57 -102 -119 -226l-124 -256l-124 -269l-115 -267l-102 -246q-47 -118 -80 -212q-12 -43 -11 -69zM431 2118.5q-5 -23.5 5 -43 t23.5 -30.5t13.5 -9q61 -35 111.5 -46.5t93.5 7.5q100 35 204.5 80t203 94t184.5 98t147 90q-6 61 -20.5 101.5t-57.5 60.5q-72 41 -120 42t-89 -28q-68 -53 -148.5 -103t-165.5 -96t-173 -89l-170 -82q-37 -23 -42 -46.5zM463 674l190 376l176 330q-4 -164 -1 -330.5 t8 -334.5q-96 -6 -188.5 -16.5t-184.5 -24.5z" />
<glyph unicode="&#xc2;" horiz-adv-x="1470" d="M-169 130q1 -26 11.5 -42t28.5 -28l43 -27l64 -30l59 -23q47 -16 70.5 -10.5t39.5 40.5l60 134q31 69 72 149q117 31 269 52l306 42q6 -84 12 -154.5t15 -130.5q8 -57 27.5 -79.5t68.5 -36.5q47 -16 92 -19.5t98 -3.5t68.5 14.5t15.5 51.5q-2 176 -1 381.5t5.5 410.5 t12.5 393.5t20 333.5q6 59 -11 96t-81 60q-47 12 -93 26.5t-100.5 26.5t-120 21.5t-149.5 13.5q-96 8 -145 -26.5t-80 -90.5q-86 -154 -181 -351l-187 -400l-170 -394q-79 -190 -128 -331q-12 -43 -11 -69zM463 674l191 376l177 330q-4 -164 -2 -330.5t7 -334.5 q-94 -6 -187.5 -16.5t-185.5 -24.5zM547 2275q-35 -49 2 -104q23 -33 43 -54l43 -44q25 -25 43 -25t35 25l129 156q70 85 153 175l42 -195q19 -91 40 -153q29 -59 84 -71q35 -10 65.5 -14.5t59.5 -4.5q35 -2 46 10.5t3 42.5q-12 53 -26 123l-30 147l-29.5 157.5t-22.5 156.5 q-2 25 -5 41t-9.5 28.5t-14.5 23.5l-18 26q-25 23 -54 43l-57 43q-29 18 -53.5 17t-54.5 -36q-61 -59 -122 -129.5t-115 -141.5l-100 -134z" />
<glyph unicode="&#xc3;" horiz-adv-x="1470" d="M-169 130q1 -26 11.5 -42t28.5 -28l43 -27l64 -30l59 -23q47 -16 70.5 -10.5t39.5 40.5q27 66 58 134.5t71 148.5q117 31 270 52l306 42q6 -84 13 -154.5t16 -130.5q8 -57 27.5 -79.5t68.5 -36.5q47 -16 92 -19.5t98 -3.5t68.5 14.5t15.5 51.5q-4 176 -3 381.5t4 410.5 t10.5 393.5t17.5 333.5q6 59 -10.5 96t-81.5 60q-47 12 -93 26.5t-100.5 26.5t-120 21.5t-149.5 13.5q-96 8 -145.5 -26.5t-79.5 -90.5l-117 -226l-124 -256l-123 -269l-114 -267l-101 -246q-46 -118 -79 -212q-12 -43 -11 -69zM242 2101q2 -80 116 -80q61 0 107 29 q4 0 21 14l40 32q23 17 48.5 31.5t46.5 14.5q25 0 60.5 -6t72.5 -15.5t69.5 -21.5t48.5 -26q74 -55 236 -56q111 0 246 103q78 53 114.5 100t40.5 86q0 39 -45 68q-41 20 -88 20q-29 0 -53.5 -10t-52.5 -31l-27 -26q-18 -18 -39.5 -37t-41 -33t-29.5 -14q-35 2 -68 15 t-67 29l-65 30q-32 15 -63 26q-53 20 -102 30.5t-98 10.5q-43 0 -105.5 -21.5t-124 -53.5t-110.5 -67.5t-68 -66.5q-20 -39 -20 -74zM459 674l190 376l176 330q-4 -164 0 -330l9 -335q-96 -6 -188.5 -16.5t-186.5 -24.5z" />
<glyph unicode="&#xc4;" horiz-adv-x="1470" d="M-169 130q1 -26 11.5 -42t28.5 -28l43 -27l64 -30l59 -23q47 -16 70.5 -10.5t39.5 40.5q27 66 58 134.5t74 148.5q117 31 269 52l306 42q4 -84 11 -154.5t16 -130.5q8 -57 27.5 -79.5t68.5 -36.5q47 -16 92 -19.5t98 -3.5t68.5 14.5t15.5 51.5q-2 176 -1 381.5t5.5 410.5 t11.5 393.5t17 333.5q8 59 -9.5 96t-82.5 60q-47 12 -93 26.5t-99.5 26.5t-119 21.5t-149.5 13.5q-96 8 -145 -26.5t-82 -90.5q-57 -102 -119 -226l-124 -256l-124 -269l-115 -267l-101 -246q-46 -118 -79 -212q-12 -43 -11 -69zM397 2179q-2 -47 13.5 -86t43 -65.5 t63.5 -41t77 -12.5q41 0 73.5 15.5t55 39t37 48t18.5 43.5q10 25 15 59q0 53 -34 101.5t-110 74.5q-53 18 -98 9t-78 -34.5t-53.5 -65.5t-22.5 -85zM461 674l191 376l177 330q-4 -164 -1 -330.5t8 -334.5q-96 -6 -188.5 -16.5t-186.5 -24.5zM1034 2179q-4 -49 9.5 -88 t39 -66.5t62.5 -41t78 -11.5q39 0 71.5 15.5t57 38t41 48t22.5 44.5l7 29q3 13 5 32q4 49 -27.5 98.5t-103.5 75.5q-55 18 -101 9t-80 -35.5t-55.5 -65.5t-25.5 -82z" />
<glyph unicode="&#xc5;" horiz-adv-x="1470" d="M-169 130q1 -26 11.5 -42t28.5 -28l43 -27l64 -30l59 -23q47 -16 70.5 -10.5t39.5 40.5l59 134q30 69 73 149q117 31 269 52l306 42q6 -84 12 -154.5t15 -130.5q8 -57 27.5 -79.5t68.5 -36.5q47 -16 92 -19.5t98 -3.5t68.5 14.5t15.5 51.5q-2 176 -1 381.5t5.5 410.5 t11.5 393.5t19 333.5q8 59 -9 96t-83 60q-47 12 -93 26.5t-99.5 26.5t-119 21.5t-149.5 13.5q-96 8 -145 -26.5t-82 -90.5q-57 -102 -119 -226l-124 -256l-124 -269l-115 -267l-102 -246q-47 -118 -80 -212q-12 -43 -11 -69zM463 674l190 376l178 330q-4 -164 -2 -330.5 t7 -334.5q-96 -6 -188.5 -16.5t-184.5 -24.5zM564 2141q3 -75 46 -132q16 -27 49 -46t66 -30q43 -16 95 -22t100 -10q76 -6 133 3t110 35q76 45 127 107.5t80 131.5t35 137.5t-8 125.5q-12 33 -34 58.5t-69 48.5q-41 18 -101 32.5t-128 22.5q-51 4 -110.5 -6t-100.5 -31 q-98 -51 -163.5 -122.5t-97.5 -149.5t-29 -153zM830 2100q-1 36 9.5 78t28.5 79q18 39 48 79t62 71.5t64.5 51t57.5 15.5t36 -31.5t11 -66.5t-9.5 -83t-27.5 -81q-20 -49 -48 -89t-57.5 -67.5t-60.5 -41t-57 -5.5q-29 4 -42.5 29.5t-14.5 61.5z" />
<glyph unicode="&#xc6;" horiz-adv-x="2162" d="M-154 132q-4 -26 3.5 -42t23.5 -27.5l37 -27.5q29 -16 59 -30l54 -23q47 -16 70.5 -10.5t47.5 40.5l81 134q42 69 102 149q121 31 278 51l311 41q-10 -68 -20 -113t-18.5 -75.5t-12.5 -52t-4 -44.5q-4 -57 29 -78.5t80 -35.5q14 -8 56 -11.5t91 -3.5q51 0 97 2t67 7 l259 49l269 51q53 10 64.5 25.5t3.5 56.5l-26.5 72.5t-35.5 76.5q-18 37 -50.5 49.5t-88.5 8.5q-104 -6 -191 -16.5t-182 -26.5q0 8 3.5 14t3.5 16q16 47 31 100l32 109q119 25 247 45.5l255 42.5q57 12 71.5 28.5t0.5 64.5q-10 41 -21.5 80.5t-36.5 80.5q-18 41 -50 53.5 t-91 10.5q-68 -2 -129.5 -6t-124.5 -13q39 109 69.5 208.5t63.5 191.5q145 20 278 35l255 28q61 8 78.5 26.5t11.5 72.5q-10 47 -17.5 86.5t-34.5 89.5q-25 94 -141 90q-160 -6 -284.5 -27.5t-241.5 -52.5q-2 2 -6 2t-9 4q-43 12 -86 26.5t-95 27t-116.5 21.5t-146.5 13 q-90 8 -148.5 -26.5t-99.5 -92.5l-162 -226l-174 -256l-176 -269l-168 -267l-148 -246l-120 -212q-23 -43 -27 -69zM580 676l265 376l245 332l-67 -332.5t-56 -334.5q-98 -6 -192.5 -16.5t-194.5 -24.5z" />
<glyph unicode="&#xc7;" horiz-adv-x="1314" d="M-127 650q-6 -136 15.5 -256t74.5 -208q31 -57 86 -100t111 -66q6 -4 14 -6t19 -6l-52 -102l-52 -104l-48 -94l-39 -77q-33 -59 53 -73l70 -7.5t68 0.5q68 4 112 54q25 25 53 63l59 83q30 44 54.5 90t38.5 85q0 4 1 9.5t1 9.5q86 0 167 21.5t132 56.5q57 41 114.5 102 t94.5 135q35 63 32 106.5t-81 63.5q-195 55 -316 -68q-168 -172 -249 -145q-43 12 -66 69.5t-27 140.5t9.5 184.5t39.5 203.5q29 98 79.5 213t107.5 210t112.5 154.5t96.5 47.5q41 -16 49 -69.5t6 -119.5q0 -37 6 -80q8 -51 26.5 -90t49.5 -68.5t78 -51t112 -33.5 q35 -6 55.5 -4t32 10t17.5 22.5l12 30.5q12 37 22.5 83t16.5 96.5t9 101.5t1 98q-2 41 -8 77t-21.5 68.5t-41 64.5t-64.5 64q-41 27 -92 52.5t-108.5 47t-119 37t-118.5 21.5q-78 6 -166 -16.5t-174 -95.5q-106 -92 -189 -214t-142.5 -259.5t-93.5 -282t-40 -280.5z" />
<glyph unicode="&#xc8;" horiz-adv-x="1181" d="M-111 272q-4 -55 15.5 -94t54.5 -67q43 -37 75 -60.5l66 -46.5q31 -20 73 -31.5t124 9.5l258 49l266 51q55 10 65.5 25.5t0.5 56.5q-16 37 -29.5 72.5t-38.5 76.5q-23 37 -54.5 49.5t-88.5 8.5q-102 -6 -189.5 -16.5t-183.5 -26.5l31 115l31 124q119 25 246.5 45.5 t250.5 42.5q57 12 70.5 28.5t-2.5 64.5q-10 41 -23.5 80.5t-38.5 80.5q-23 41 -55.5 53.5t-89.5 10.5q-70 -2 -131.5 -6t-122.5 -13q33 109 59.5 208.5t57.5 191.5q145 20 276 35l254 28q59 8 75.5 26.5t8.5 72.5q-10 47 -20.5 86.5t-36.5 89.5q-33 92 -150 90 q-123 -4 -246.5 -19.5t-241.5 -36t-225.5 -45t-195.5 -47.5zM215 2359q61 -41 145 -90t180.5 -98t200 -94t201.5 -80q41 -18 91 -7t114 46q0 -2 14.5 9t24.5 30.5t7 43t-40 46.5q-164 78 -337 171t-306 199q-39 29 -87 28t-124 -42q-41 -20 -57.5 -60.5t-26.5 -101.5z" />
<glyph unicode="&#xc9;" horiz-adv-x="1181" d="M-111 272q-4 -55 15.5 -94t54.5 -67q43 -37 75 -60.5l66 -46.5q31 -20 73 -31.5t124 9.5l258 49l266 51q55 10 65.5 25.5t0.5 56.5q-16 37 -29.5 72.5t-38.5 76.5q-23 37 -54.5 49.5t-88.5 8.5q-102 -6 -189.5 -16.5t-183.5 -26.5l31 115l31 124q119 25 246.5 45.5 t250.5 42.5q57 12 70.5 28.5t-2.5 64.5q-10 41 -23.5 80.5t-38.5 80.5q-23 41 -55.5 53.5t-89.5 10.5q-70 -2 -131.5 -6t-122.5 -13q33 109 59.5 208.5t57.5 191.5q145 20 276 35l254 28q59 8 75.5 26.5t8.5 72.5q-10 47 -20.5 86.5t-36.5 89.5q-33 92 -150 90 q-123 -4 -246.5 -19.5t-241.5 -36t-225.5 -45t-195.5 -47.5zM224 2118.5q-3 -23.5 6.5 -43t23.5 -30.5t12 -9q63 -35 113.5 -46.5t93.5 7.5q98 35 202.5 80t202 94t182.5 98t146 90q-4 61 -19.5 101.5t-56.5 60.5q-76 41 -125 42t-83 -28q-137 -106 -313.5 -199t-344.5 -171 q-37 -23 -40 -46.5z" />
<glyph unicode="&#xca;" horiz-adv-x="1181" d="M-111 272q-4 -55 15.5 -94t54.5 -67q43 -37 75 -60.5l66 -46.5q31 -20 73 -31.5t124 9.5l258 49l266 51q55 10 65.5 25.5t0.5 56.5q-16 37 -29.5 72.5t-38.5 76.5q-23 37 -54.5 49.5t-88.5 8.5q-102 -6 -189.5 -16.5t-183.5 -26.5l31 115l31 124q119 25 246.5 45.5 t250.5 42.5q57 12 70.5 28.5t-2.5 64.5q-10 41 -23.5 80.5t-38.5 80.5q-23 41 -55.5 53.5t-89.5 10.5q-70 -2 -131.5 -6t-122.5 -13q33 109 59.5 208.5t57.5 191.5q145 20 276 35l254 28q59 8 75.5 26.5t8.5 72.5q-10 47 -20.5 86.5t-36.5 89.5q-33 92 -150 90 q-123 -4 -246.5 -19.5t-241.5 -36t-225.5 -45t-195.5 -47.5zM350 2265q-35 -47 6 -102q23 -33 41.5 -54.5t40.5 -44.5q16 -12 25.5 -18t19.5 -6q23 0 35 24l128 157q69 85 153 175l45 -196q20 -92 41 -152q25 -57 84 -74q35 -10 65.5 -13t59.5 -3q35 -2 45 10t4 43l-29 123 l-33 146q-16 77 -30.5 158t-22.5 155q-2 25 -6 41t-10 28.5t-15 23.5l-18 26q-27 23 -55 43l-58 43q-29 18 -53.5 17t-52.5 -36q-59 -59 -120 -130l-115 -140q-54 -70 -99 -134z" />
<glyph unicode="&#xcb;" horiz-adv-x="1181" d="M-111 272q-4 -55 15.5 -94t54.5 -67q43 -37 75 -60.5l66 -46.5q31 -20 73 -31.5t124 9.5l258 49l266 51q55 10 65.5 25.5t0.5 56.5q-16 37 -29.5 72.5t-38.5 76.5q-23 37 -54.5 49.5t-88.5 8.5q-102 -6 -189.5 -16.5t-183.5 -26.5l31 115l31 124q119 25 246.5 45.5 t250.5 42.5q57 12 70.5 28.5t-2.5 64.5q-10 41 -23.5 80.5t-38.5 80.5q-23 41 -55.5 53.5t-89.5 10.5q-70 -2 -131.5 -6t-122.5 -13q33 109 59.5 208.5t57.5 191.5q145 20 276 35l254 28q59 8 75.5 26.5t8.5 72.5q-10 47 -20.5 86.5t-36.5 89.5q-33 92 -150 90 q-123 -4 -246.5 -19.5t-241.5 -36t-225.5 -45t-195.5 -47.5zM145 2165q-2 -47 13.5 -85t43 -65.5t64.5 -41t78 -11.5q41 0 73 15.5t55.5 38t36.5 47t17 42.5l9 29q4 14 4 31q0 53 -35 101t-111 75q-53 18 -98 9t-77 -34.5t-51.5 -65.5t-21.5 -85zM782 2165q-4 -49 9.5 -88 t39 -65.5t62.5 -41t78 -12.5q41 0 73.5 15.5t56 38t40 48t22.5 43.5q2 16 5 29.5t6 32.5q2 49 -30 98t-104 76q-55 16 -101 7t-80 -34.5t-54.5 -64.5t-22.5 -82z" />
<glyph unicode="&#xcc;" horiz-adv-x="638" d="M-172 2421q61 -41 146 -90.5t182.5 -98.5t201 -95t203.5 -81q43 -18 93.5 -7t113.5 46q-2 -2 12.5 9.5t24.5 30.5t7 43t-40 48l-170 82l-171 89q-85 46 -164 97.5t-146 104.5q-39 29 -88 28t-123 -42q-43 -23 -58.5 -63t-23.5 -101zM-129 170q-6 -53 9.5 -83t62.5 -52 q45 -23 93 -37l101 -29q53 -12 70.5 -2t28.5 45l43 210l54 250l61 270l65 271l64 251q32 119 61 211q14 55 2.5 83.5t-68.5 67.5q-55 37 -129 70t-137 49q-66 18 -96.5 5t-49.5 -73q-23 -96 -48 -224t-50 -271l-48 -293q-24 -150 -42 -285t-30.5 -248.5t-16.5 -185.5z" />
<glyph unicode="&#xcd;" horiz-adv-x="638" d="M-131 170q-4 -53 11.5 -83t62.5 -52q45 -23 93 -37l101 -29q53 -12 70.5 -2t28.5 45l43 210l52 250l59 270l64 271l62 251q31 119 59 211q6 27 8.5 47t-5 36.5t-23.5 33t-47 34.5q-55 37 -129 70t-137 49q-66 18 -96.5 5t-49.5 -73q-23 -96 -47 -224t-48 -271l-46 -293 q-23 -150 -40 -285t-29.5 -248.5t-16.5 -185.5zM-14 2123.5q-4 -24.5 6 -43t23.5 -29.5t13.5 -9q63 -35 112 -46t92 7q100 35 205 80t202 94t181 97t146 89q-6 63 -21.5 103.5t-58.5 60.5q-74 41 -122 42t-87 -27q-68 -53 -147.5 -103.5t-163.5 -96.5t-171 -89l-169 -82 q-37 -23 -41 -47.5z" />
<glyph unicode="&#xce;" horiz-adv-x="638" d="M-129 170q-6 -53 9.5 -83t62.5 -52q45 -23 93 -37l101 -29q53 -12 70.5 -2t28.5 45l43 210l54 250l61 270l65 271l64 251q32 119 61 211q14 55 1.5 83.5t-69.5 67.5q-55 37 -129 70t-137 49q-66 18 -96.5 5t-49.5 -73q-23 -96 -47 -224l-50 -271q-26 -143 -48 -293 l-40.5 -285t-31 -248.5t-16.5 -185.5zM35 2251q-33 -45 4 -103q23 -33 43 -54l43 -44q14 -12 23.5 -18.5t21.5 -6.5q16 0 35 25l125 157l149 175q27 -104 47.5 -195.5t42.5 -152.5q29 -59 84 -72q35 -10 66 -13t61 -3q35 -4 45.5 8t1.5 43l-28 123l-34 146q-17 77 -32.5 158 t-25.5 154q-2 25 -6.5 41.5t-10.5 28.5t-14 24l-19 25q-25 23 -54.5 43.5t-57.5 42.5q-29 18 -53.5 17.5t-53.5 -35.5q-59 -59 -119 -130l-113 -141q-54 -70 -98 -134z" />
<glyph unicode="&#xcf;" horiz-adv-x="638" d="M-133 2165q-2 -47 14.5 -85t44 -65.5t64.5 -41t78 -11.5q39 0 71.5 15.5t55 38t37 47t18.5 42.5q10 23 10 60q0 53 -35 101t-108 75q-55 18 -100.5 9t-77 -34.5t-51 -65.5t-21.5 -85zM-129 170q-6 -53 9.5 -83t62.5 -52q45 -23 93 -37l101 -29q53 -12 70.5 -2t28.5 45 l43 210l53 250l60 270l64 271l63.5 250.5t60.5 211.5q6 27 8 47t-5.5 36.5t-23.5 33t-47 34.5q-55 37 -129 70t-137 49q-66 18 -96.5 5t-49.5 -73q-23 -96 -47 -224t-48 -271l-47 -293q-24 -150 -41 -285t-29.5 -248.5t-16.5 -185.5zM506 2165q-10 -98 47 -154.5t143 -52.5 q41 0 73 15.5t55.5 38t39 48t21.5 43.5q4 16 6 29.5t4 32.5q2 49 -31 98t-104 76q-55 16 -100.5 7t-78 -34.5t-53 -64.5t-22.5 -82z" />
<glyph unicode="&#xd0;" horiz-adv-x="1845" d="M-68 907q47 -70 148 -151q51 -39 101 -50.5t122 -0.5l-41 -383q-6 -51 -2 -84t16.5 -55.5t30.5 -40.5l39 -36q53 -41 96 -68.5t101 -55.5q111 -55 219 -19q207 57 369.5 153.5t281.5 217.5t193.5 258t106.5 275.5t19.5 269.5t-67.5 241q-68 139 -165 223.5t-211.5 126 t-238.5 47t-243 -14t-225.5 -57.5t-184.5 -81l-61 -584q-76 -4 -151.5 -10t-166.5 -14q-156 -17 -86 -107zM655 285l46 230q24 114 51 230q51 2 114.5 3.5t153.5 5.5q76 2 103.5 16t9.5 55q-16 33 -32 72t-50 80q-53 74 -201 74h-27q16 74 37 145l41 145q68 20 124 21.5 t102.5 -13t78 -42t49.5 -62.5q16 -35 23.5 -82t3.5 -112q-6 -90 -45 -194.5t-113.5 -209t-190.5 -199.5t-278 -163z" />
<glyph unicode="&#xd1;" horiz-adv-x="1437" d="M-133 180q-4 -53 11.5 -82.5t60.5 -52.5q47 -29 97 -42l99 -26q53 -14 71.5 -4.5t26.5 43.5q10 74 28 173l39 215l45 243l46 254q27 -106 58 -212l61 -203l60.5 -181t58.5 -147q37 -88 127 -123q98 -35 192 -53q111 -25 123 53l79 333l96 388l102 391q51 193 98 344 q16 53 9 91t-66 75q-35 23 -62 37t-50.5 24.5t-47.5 16.5l-55 14q-66 16 -100 2t-50 -74q-59 -219 -119.5 -479t-101.5 -528l-45 218l-43 221l-37 200l-27 151q-12 78 -38.5 118t-90.5 67q-78 37 -149 59l-148 45q-63 16 -100 1t-51 -77q-23 -106 -46.5 -243.5t-46 -285 t-42 -296t-35 -278.5t-24.5 -232.5t-13 -157.5zM240 2101q2 -80 114 -80q63 0 109 29q2 0 19 14l40 32q23 17 48.5 31.5t45.5 14.5q25 0 62 -6t73.5 -15.5t69.5 -21.5t49 -26q37 -29 96.5 -42.5t137.5 -13.5q111 0 246 103q78 53 114.5 100t40.5 86q2 37 -45 68 q-41 20 -88 20q-29 0 -53.5 -10t-52.5 -31l-27 -26l-38.5 -37t-40 -33t-30.5 -14q-35 2 -68.5 15t-66.5 29l-64 30q-32 15 -63 26q-55 20 -103 30.5t-99 10.5q-43 0 -105.5 -21.5t-124 -53.5t-111 -67.5t-67.5 -66.5q-20 -45 -18 -74z" />
<glyph unicode="&#xd2;" d="M-88 686q-2 -131 22.5 -250t73.5 -213q31 -57 84 -102t109 -74q68 -35 149.5 -52.5t159.5 -25.5q117 -12 207 9.5t172 84.5q121 106 204 260t131 327t60 348.5t-10 324.5q-16 90 -52 160.5t-114 134.5q-70 55 -175.5 94t-221.5 57q-90 14 -189.5 -14.5t-171.5 -83.5 q-106 -92 -187 -207.5t-136.5 -244.5t-84 -265.5t-30.5 -267.5zM201 2359q61 -41 145 -90t180.5 -98t199.5 -94t202 -80q43 -18 93 -7t114 46q0 -2 14 9t24.5 30.5t6.5 43t-41 46.5l-168 82l-170 89q-84 46 -162 96t-145 103q-39 29 -87.5 28t-121.5 -42 q-43 -20 -59.5 -60.5t-24.5 -101.5zM352 454q-4 89 8.5 192.5t40.5 199.5q29 98 75 203.5t99.5 191.5t106.5 136t96 36q41 -12 60.5 -85t19.5 -175q0 -100 -16.5 -216t-42.5 -212q-31 -117 -73 -216t-89 -167t-94 -100.5t-90 -18.5q-47 14 -72 78t-29 153z" />
<glyph unicode="&#xd3;" d="M-88 686q-2 -131 22.5 -250t73.5 -213q31 -57 84 -102t109 -74q68 -35 149.5 -52.5t159.5 -25.5q117 -12 207 9.5t172 84.5q121 106 204 260t131 327t60 348.5t-10 324.5q-16 90 -52 160.5t-114 134.5q-70 55 -175.5 94t-221.5 57q-90 14 -189.5 -14.5t-171.5 -83.5 q-106 -92 -187 -207.5t-136.5 -244.5t-84 -265.5t-30.5 -267.5zM212 2118.5q-3 -23.5 6 -43t23.5 -30.5t12.5 -9q63 -35 113.5 -46.5t93.5 7.5q98 35 201.5 80t201 94t182 98t146.5 90q-4 61 -20.5 101.5t-57.5 60.5q-76 41 -125 42t-84 -28q-137 -106 -312 -199t-343 -171 q-35 -23 -38 -46.5zM352 454q-4 89 8.5 192.5t40.5 199.5q29 98 75 203.5t99.5 191.5t106.5 136t96 36q41 -12 60.5 -85t19.5 -175q0 -100 -16.5 -216t-42.5 -212q-31 -117 -73 -216t-89 -167t-94 -100.5t-90 -18.5q-47 14 -72 78t-29 153z" />
<glyph unicode="&#xd4;" d="M-88 686q-2 -131 22.5 -250t73.5 -213q31 -57 84 -102t109 -74q68 -35 149.5 -52.5t159.5 -25.5q117 -12 207 9.5t172 84.5q121 106 204 260t131 327t60 348.5t-10 324.5q-16 90 -52 160.5t-114 134.5q-70 55 -175.5 94t-221.5 57q-90 14 -189.5 -14.5t-171.5 -83.5 q-106 -92 -187 -207.5t-136.5 -244.5t-84 -265.5t-30.5 -267.5zM352 454q-4 89 8.5 192.5t40.5 199.5q29 98 75 203.5t99.5 191.5t106.5 136t96 36q41 -12 60.5 -85t19.5 -175q0 -100 -16.5 -216t-42.5 -212q-31 -117 -73 -216t-89 -167t-94 -100.5t-90 -18.5q-47 14 -72 78 t-29 153zM461 2216q-33 -47 6 -100q23 -33 41 -55.5t41 -43.5l24 -18q8 -6 19 -6q20 0 37 24l127 156q68 84 151 174q27 -104 46.5 -195.5t39.5 -150.5q25 -59 84 -72q35 -10 64.5 -13t58.5 -3q37 -4 47 8t4 43l-28 121l-33 146q-16 77 -30.5 157t-22.5 154q-2 25 -5.5 41 t-9.5 28t-14 24l-18 25q-27 23 -56 43l-57 43q-29 18 -53.5 17.5t-53.5 -35.5q-59 -59 -119 -130l-115 -140q-54 -70 -99 -134z" />
<glyph unicode="&#xd5;" d="M-90 686q-2 -131 22.5 -250t73.5 -213q31 -57 85 -102t110 -74q68 -35 149.5 -52.5t159.5 -25.5q117 -12 207 9.5t172 84.5q119 106 202 260t130 327t58 348.5t-11 324.5q-16 90 -53 160.5t-115 134.5q-72 55 -177.5 94t-222.5 57q-88 14 -188 -14.5t-170 -83.5 q-106 -92 -186 -207.5t-134.5 -244.5t-82 -265.5t-29.5 -267.5zM233 2101q2 -80 115 -80q63 0 109 29q2 0 19 14l40 32q23 17 48.5 31.5t45.5 14.5q25 0 62 -6t73.5 -15.5t69.5 -21.5t49 -26q37 -29 96.5 -42.5t137.5 -13.5q111 0 245 103q78 53 115 100t41 86q0 37 -47 68 q-41 20 -86 20q-53 0 -106 -41l-27 -26q-18 -18 -40 -37t-41 -33t-30 -14q-35 2 -67.5 15t-66.5 29l-65 30q-32 15 -63 26q-55 20 -103 30.5t-98 10.5q-43 0 -105 -21.5t-123.5 -53.5t-111 -67.5t-67.5 -66.5q-21 -45 -19 -74zM350 454q-6 89 6.5 192.5t40.5 199.5 q27 98 73 203.5t98.5 191.5t105.5 136t96 36q41 -12 60.5 -85t20.5 -174t-14.5 -217t-41.5 -212q-31 -117 -72 -216t-88 -167t-94 -100.5t-90 -18.5q-47 14 -71 78t-30 153z" />
<glyph unicode="&#xd6;" d="M-88 686q-2 -131 22.5 -250t73.5 -213q31 -57 84 -102t109 -74q68 -35 149.5 -52.5t159.5 -25.5q117 -12 207 9.5t172 84.5q121 106 204 260t131 327t60 348.5t-10 324.5q-16 90 -52 160.5t-114 134.5q-70 55 -175.5 94t-221.5 57q-90 14 -189.5 -14.5t-171.5 -83.5 q-106 -92 -187 -207.5t-136.5 -244.5t-84 -265.5t-30.5 -267.5zM254 2165q-2 -47 14.5 -85t44 -65.5t64.5 -41t78 -11.5q39 0 71.5 15.5t55 38t37 47t18.5 42.5l8 29q4 14 4 31q0 53 -34.5 101t-110.5 75q-53 18 -98.5 9t-78 -34.5t-52 -65.5t-21.5 -85zM352 454 q-4 89 8.5 192.5t40.5 199.5q29 98 75 203.5t99.5 191.5t106.5 136t96 36q41 -12 60.5 -85t19.5 -175q0 -100 -16.5 -216t-42.5 -212q-31 -117 -73 -216t-89 -167t-94 -100.5t-90 -18.5q-47 14 -72 78t-29 153zM891 2165q-4 -49 9 -88t40 -65.5t63.5 -41t77.5 -12.5 q39 0 72 15.5t57.5 38t40 48t21.5 43.5l7 30q3 13 3 32q4 49 -27.5 98t-103.5 76q-55 16 -101 7t-80 -34.5t-54.5 -64.5t-24.5 -82z" />
<glyph unicode="&#xd7;" horiz-adv-x="1341" d="M-92 528q10 -39 20 -66l23 -61q12 -35 30.5 -37t65.5 21l208 110l243 123q100 -53 185 -107l171 -108q33 -23 55.5 -19.5t51.5 38.5l46 59.5t44 69.5q43 66 -17 113l-78 56l-98 68q55 29 109.5 50.5t105.5 44.5q53 20 73.5 39.5t31.5 64.5q10 39 6 88t-21 90 q-12 31 -49 33t-84 -16q-94 -37 -213 -92l-254 -121q-100 59 -198.5 110t-178.5 86q-35 14 -73.5 15.5t-67.5 -37.5q-27 -39 -52.5 -93.5t-35.5 -93.5q-6 -45 5 -63.5t54 -36.5q45 -18 90 -39l95 -45q-72 -37 -128.5 -72.5t-101.5 -58.5q-75 -52 -63 -113z" />
<glyph unicode="&#xd8;" d="M-88 686q-2 -131 22.5 -250t73.5 -213q16 -35 46 -66.5t65 -56.5q-20 -37 -33.5 -67.5t-24.5 -50.5q-20 -47 -14 -80q6 -35 45 -58q14 -8 7 -5l-18 8l-16.5 7.5t17.5 -10.5q47 -23 71.5 -14.5t41.5 43.5l34 62l43 79q59 -18 119 -28.5t119 -16.5q117 -12 207 9.5 t172 84.5q121 106 204 260t131 327t60 348.5t-10 324.5q-12 59 -32.5 112.5t-59.5 100.5l74 118l61 91q31 47 31 80q0 35 -50 82q-20 20 -17 23t9 1l6 -2q0 2 -24 19q-98 74 -160 -31q-29 -39 -63 -95l-78 -128q-59 27 -126 45t-136 30q-88 14 -188.5 -14.5t-170.5 -83.5 q-106 -92 -187 -207.5t-136.5 -244.5t-84 -265.5t-30.5 -267.5zM352 557q4 72 15.5 145.5t33.5 143.5q29 98 75 203.5t99.5 191.5t106.5 136t96 36q4 -2 12.5 -5t12.5 -9l-116 -208l-117 -215l-113 -214zM410 252l207 350l227 383q-6 -70 -17.5 -135.5t-27.5 -124.5 q-31 -117 -73 -216t-89 -167t-94 -100.5t-90 -18.5q-14 4 -24.5 11.5t-18.5 17.5z" />
<glyph unicode="&#xd9;" horiz-adv-x="1384" d="M-92 598q0 -119 19.5 -218t62.5 -171q33 -57 78 -96t96 -68q119 -66 303 -78q92 -6 163.5 7.5t143.5 48.5q100 57 182 184t152 315.5t132.5 433t123.5 537.5q6 27 8 46.5t-4 35.5t-21.5 31.5t-43.5 33.5q-55 33 -122 67t-125.5 49.5t-99.5 3t-45 -73.5l-55 -289 q-31 -162 -68.5 -329t-81.5 -324.5t-92.5 -277.5t-101.5 -187.5t-109 -53.5q-45 12 -60 76t-10 160t26.5 217t52 248t66.5 251l69 230q35 125 -76 205q-53 39 -109.5 67.5t-117.5 46.5q-66 23 -97.5 10.5t-48.5 -71.5q-37 -131 -70.5 -269.5t-60 -275.5t-43 -270t-16.5 -252 zM197 2359q61 -41 145 -90t180 -98t200.5 -94t203.5 -80q41 -18 91 -7t113 46q0 -2 14.5 9t25 30.5t6 43t-40.5 46.5l-168 82l-170 89q-84 46 -163 96t-147 103q-37 29 -86 28t-122 -42q-41 -20 -57.5 -60.5t-24.5 -101.5z" />
<glyph unicode="&#xda;" horiz-adv-x="1384" d="M-92 598q0 -119 19.5 -218t62.5 -171q33 -57 78 -96t96 -68q119 -66 303 -78q92 -6 163.5 7.5t143.5 48.5q100 57 182 184t152 315.5t132.5 433t123.5 537.5q6 27 8 46.5t-4 35.5t-21.5 31.5t-43.5 33.5q-55 33 -122 67t-125.5 49.5t-99.5 3t-45 -73.5l-55 -289 q-31 -162 -68.5 -329t-81.5 -324.5t-92.5 -277.5t-101.5 -187.5t-109 -53.5q-45 12 -60 76t-10 160t26.5 217t52 248t66.5 251l69 230q35 125 -76 205q-53 39 -109.5 67.5t-117.5 46.5q-66 23 -97.5 10.5t-48.5 -71.5q-37 -131 -70.5 -269.5t-60 -275.5t-43 -270t-16.5 -252 zM208 2118.5q-3 -23.5 6 -43t23.5 -30.5t12.5 -9q63 -35 113.5 -46.5t93.5 7.5q98 35 201.5 80t200.5 94t182 98t147 90q-6 61 -22.5 101.5t-57.5 60.5q-76 41 -124 42t-85 -28q-68 -53 -146.5 -103t-163.5 -96l-172 -89l-171 -82q-35 -23 -38 -46.5z" />
<glyph unicode="&#xdb;" horiz-adv-x="1384" d="M-92 598q0 -119 19.5 -218t62.5 -171q33 -57 78 -96t96 -68q119 -66 303 -78q92 -6 163.5 7.5t143.5 48.5q100 57 182 184t152 315.5t132.5 433t123.5 537.5q6 27 8 46.5t-4 35.5t-21.5 31.5t-43.5 33.5q-55 33 -122 67t-125.5 49.5t-99.5 3t-45 -73.5l-55 -289 q-31 -162 -68.5 -329t-81.5 -324.5t-92.5 -277.5t-101.5 -187.5t-109 -53.5q-45 12 -60 76t-10 160t26.5 217t52 248t66.5 251l69 230q35 125 -76 205q-53 39 -109.5 67.5t-117.5 46.5q-66 23 -97.5 10.5t-48.5 -71.5q-37 -131 -70.5 -269.5t-60 -275.5t-43 -270t-16.5 -252 zM332 2265q-35 -47 6 -102q23 -33 42 -54.5t42 -44.5l24 -18q8 -6 19 -6q20 0 37 24l127 157q68 85 149 175q27 -104 47.5 -196.5t42.5 -151.5q25 -57 84 -74q35 -10 66 -13t59 -3q35 -2 45.5 10t3.5 43l-29 123q-17 70 -33.5 146.5t-32 157.5t-25.5 155q-2 25 -6.5 41 t-10.5 28.5t-14 23.5l-19 26q-27 23 -55 43l-57 43q-29 18 -53.5 17t-53.5 -36q-59 -59 -119.5 -130t-113.5 -140l-98 -134z" />
<glyph unicode="&#xdc;" horiz-adv-x="1384" d="M-92 598q0 -119 19.5 -218t62.5 -171q33 -57 78 -96t96 -68q119 -66 303 -78q92 -6 163.5 7.5t143.5 48.5q100 57 182 184t152 315.5t132.5 433t123.5 537.5q6 27 8 46.5t-4 35.5t-21.5 31.5t-43.5 33.5q-55 33 -122 67t-125.5 49.5t-99.5 3t-45 -73.5l-55 -289 q-31 -162 -68.5 -329t-81.5 -324.5t-92.5 -277.5t-101.5 -187.5t-109 -53.5q-45 12 -60 76t-10 160t26.5 217t52 248t66.5 251l69 230q35 125 -76 205q-53 39 -109.5 67.5t-117.5 46.5q-66 23 -97.5 10.5t-48.5 -71.5q-37 -131 -70.5 -269.5t-60 -275.5t-43 -270t-16.5 -252 zM231 2165q-2 -47 14.5 -85t44 -65.5t63.5 -41t77 -11.5q41 0 73 15.5t55.5 38t37.5 47t18 42.5q10 23 11 60q0 53 -34 101t-108 75q-55 18 -100 9t-78 -34.5t-52.5 -65.5t-21.5 -85zM870 2165q-10 -98 47.5 -154.5t143.5 -52.5q39 0 71.5 15.5t56 38t39 48t21.5 43.5 q4 16 6 29.5l5 32.5q2 49 -30 98t-104 76q-55 16 -100 7t-79 -34.5t-53.5 -64.5t-23.5 -82z" />
<glyph unicode="&#xdd;" horiz-adv-x="1333" d="M-101.5 1739.5q-11.5 -19.5 11.5 -74.5l83 -247l95 -270l98 -276l93 -260q-25 -141 -37.5 -256.5t-26.5 -203.5q-4 -53 10.5 -81t59.5 -57q45 -18 98 -35.5t102 -29.5q53 -12 71.5 -4t29.5 49l47 228q25 118 59 255l187 271l182 274l154 248q69 115 104 192 q14 33 22.5 56.5t7.5 44t-11.5 40t-28.5 42.5q-33 31 -79 69.5t-93 62t-88 20.5t-60 -54l-213 -375l-217 -360l-106 333q-51 158 -99 281q-33 66 -60.5 97.5t-89 46t-119.5 11.5t-122 -8q-53 -10 -64.5 -29.5zM204 2118.5q-3 -23.5 7 -43t23.5 -30.5t11.5 -9 q66 -35 116 -46.5t93 7.5q98 35 201.5 80t200.5 94t182 98t145 90q-4 61 -20.5 101.5t-57.5 60.5q-76 41 -125 42t-84 -28q-68 -53 -147.5 -103t-163.5 -96t-172 -89l-170 -82q-37 -23 -40 -46.5z" />
<glyph unicode="&#xde;" horiz-adv-x="1345" d="M-133 170q-4 -53 12.5 -83t63.5 -52q45 -23 94 -37l102 -29q53 -12 69.5 -2t27.5 45l12 72q6 37 14 76q119 31 240 76t232.5 99t206.5 116.5t163 128.5q41 41 77 84t58.5 90t29.5 99t-7 112q-31 123 -88.5 207.5t-126.5 158.5q-45 41 -103.5 63.5t-125 29t-140.5 -1 t-150 -23.5q4 18 12.5 37.5t12.5 38.5q12 55 1 83.5t-71 67.5q-57 37 -130.5 70t-137.5 49q-66 18 -96.5 5t-46.5 -73q-20 -96 -43 -224t-44 -271l-42 -293l-37 -285t-27 -248.5t-12 -185.5zM344 526l59 237q29 114 60 220q74 31 145.5 46t129 16.5t94 -10t42.5 -36.5 q14 -43 -13 -105.5t-95 -129t-174.5 -130t-247.5 -108.5z" />
<glyph unicode="&#xdf;" horiz-adv-x="2095" d="M-163 839.5q9 -26.5 28 -48.5q23 -27 57.5 -58t61.5 -47q16 -16 38.5 -23.5t81.5 5.5q39 8 97.5 18t123 18.5t129 15.5t113.5 9q29 4 36 13.5t-3 33.5q-6 23 -23.5 49.5t-33.5 48.5q-18 25 -40 36.5t-52 7.5l-101 -6q-59 -3 -112 -13q57 45 116.5 101.5t112.5 116 t97 118.5t73 113q25 45 42 89t22.5 87t-6 87t-42.5 91q-23 33 -60.5 65.5t-86.5 57t-106.5 36t-120.5 -0.5q-106 -20 -193.5 -92t-142.5 -177q-33 -66 -24 -93.5t44 -39.5q59 -20 127 -19t117 40q31 33 62.5 62.5t61 49t53.5 26.5t40 -5q18 -10 2 -52t-56 -103.5 t-99.5 -136.5t-128 -151.5t-142.5 -148.5t-143 -127q-29 -27 -20 -53.5zM236 209q-2 -16 2 -32.5t20 -33.5q12 -12 12 -10v8q0 4 4 4t21 -14q35 -29 61.5 -28t61.5 36l187 171l253 226l288 254l292 253l264 227l207 172q47 39 60 69.5t-15 85.5q-12 23 -16.5 28t-8.5 5 q-2 0 -9 3t-24 24q-66 86 -163 6q-88 -70 -215 -182l-270 -247l-290 -278l-279 -274l-236 -236l-158 -161q-43 -43 -49 -76zM1191 164.5q-1 -21.5 52 -62.5q82 -72 167 -98.5t163 -26.5q102 0 188 30t156 108q61 70 61 155q0 86 -88 162q-23 20 -50.5 31.5t-59.5 19.5 q59 25 109 51.5t85 57.5q31 25 52.5 60.5t26.5 79.5t-9 93t-55 99q-39 45 -80 68.5t-80 31.5t-76 5t-70 -9q-88 -16 -164.5 -65.5t-121.5 -98.5q-31 -39 8 -74q20 -16 51 -28.5t64.5 -15.5t65.5 2t56 24l76 37.5t70 19.5q18 0 29 -14q12 -16 -4.5 -43t-65.5 -60.5 t-133 -71.5t-205 -75q-29 -8 -32 -24.5t12 -40.5q35 -57 88 -86t110 -21q45 4 72 2t49 -20q23 -20 22 -66.5t-53 -95.5q-53 -47 -119.5 -53.5t-171.5 45.5q-37 16 -84 20t-88 -18q-22 -13 -23 -34.5z" />
<glyph unicode="&#xe0;" horiz-adv-x="1470" d="M-169 130q1 -26 11.5 -42t28.5 -28l43 -27l64 -30l59 -23q47 -16 70.5 -10.5t39.5 40.5l60 134q31 69 72 149q117 31 269 52l306 42q6 -84 12 -154.5t15 -130.5q8 -57 27.5 -79.5t68.5 -36.5q47 -16 92 -19.5t98 -3.5t68.5 14.5t15.5 51.5q-2 176 -1 381.5t5.5 410.5 t12.5 393.5t20 333.5q6 59 -11 96t-81 60q-47 12 -93 26.5t-100.5 26.5t-120 21.5t-149.5 13.5q-96 8 -145 -26.5t-80 -90.5q-86 -154 -181 -351l-187 -400l-170 -394q-79 -190 -128 -331q-12 -43 -11 -69zM373 2374q59 -41 143 -90.5t180.5 -98.5t198.5 -94t201 -80 q41 -18 91 -7t113 46q0 -2 14.5 9.5t25 29.5t8.5 43t-39 47q-164 78 -336 171t-305 202q-39 29 -87.5 26.5t-123.5 -43.5q-43 -20 -59.5 -60t-24.5 -101zM463 674l191 376l177 330q-4 -164 -2 -330.5t7 -334.5q-94 -6 -187.5 -16.5t-185.5 -24.5z" />
<glyph unicode="&#xe1;" horiz-adv-x="1470" d="M-169 130q1 -26 11.5 -42t28.5 -28l43 -27l64 -30l59 -23q47 -16 70.5 -10.5t39.5 40.5q27 66 58 134.5t74 148.5q117 31 269 52l306 42q4 -84 11 -154.5t16 -130.5q8 -57 27.5 -79.5t68.5 -36.5q47 -16 92 -19.5t98 -3.5t68.5 14.5t15.5 51.5q-2 176 -1 381.5t5.5 410.5 t11.5 393.5t19 333.5q6 59 -10 96t-82 60q-47 12 -93 26.5t-99.5 26.5t-119 21.5t-149.5 13.5q-49 4 -84 -3t-61.5 -23.5t-46 -40t-35.5 -50.5q-57 -102 -119 -226l-124 -256l-124 -269l-115 -267l-102 -246q-47 -118 -80 -212q-12 -43 -11 -69zM431 2118.5q-5 -23.5 5 -43 t23.5 -30.5t13.5 -9q61 -35 111.5 -46.5t93.5 7.5q100 35 204.5 80t203 94t184.5 98t147 90q-6 61 -20.5 101.5t-57.5 60.5q-72 41 -120 42t-89 -28q-68 -53 -148.5 -103t-165.5 -96t-173 -89l-170 -82q-37 -23 -42 -46.5zM463 674l190 376l176 330q-4 -164 -1 -330.5 t8 -334.5q-96 -6 -188.5 -16.5t-184.5 -24.5z" />
<glyph unicode="&#xe2;" horiz-adv-x="1470" d="M-169 130q1 -26 11.5 -42t28.5 -28l43 -27l64 -30l59 -23q47 -16 70.5 -10.5t39.5 40.5l60 134q31 69 72 149q117 31 269 52l306 42q6 -84 12 -154.5t15 -130.5q8 -57 27.5 -79.5t68.5 -36.5q47 -16 92 -19.5t98 -3.5t68.5 14.5t15.5 51.5q-2 176 -1 381.5t5.5 410.5 t12.5 393.5t20 333.5q6 59 -11 96t-81 60q-47 12 -93 26.5t-100.5 26.5t-120 21.5t-149.5 13.5q-96 8 -145 -26.5t-80 -90.5q-86 -154 -181 -351l-187 -400l-170 -394q-79 -190 -128 -331q-12 -43 -11 -69zM463 674l191 376l177 330q-4 -164 -2 -330.5t7 -334.5 q-94 -6 -187.5 -16.5t-185.5 -24.5zM547 2275q-35 -49 2 -104q23 -33 43 -54l43 -44q25 -25 43 -25t35 25l129 156q70 85 153 175l42 -195q19 -91 40 -153q29 -59 84 -71q35 -10 65.5 -14.5t59.5 -4.5q35 -2 46 10.5t3 42.5q-12 53 -26 123l-30 147l-29.5 157.5t-22.5 156.5 q-2 25 -5 41t-9.5 28.5t-14.5 23.5l-18 26q-25 23 -54 43l-57 43q-29 18 -53.5 17t-54.5 -36q-61 -59 -122 -129.5t-115 -141.5l-100 -134z" />
<glyph unicode="&#xe3;" horiz-adv-x="1470" d="M-169 130q1 -26 11.5 -42t28.5 -28l43 -27l64 -30l59 -23q47 -16 70.5 -10.5t39.5 40.5q27 66 58 134.5t71 148.5q117 31 270 52l306 42q6 -84 13 -154.5t16 -130.5q8 -57 27.5 -79.5t68.5 -36.5q47 -16 92 -19.5t98 -3.5t68.5 14.5t15.5 51.5q-4 176 -3 381.5t4 410.5 t10.5 393.5t17.5 333.5q6 59 -10.5 96t-81.5 60q-47 12 -93 26.5t-100.5 26.5t-120 21.5t-149.5 13.5q-96 8 -145.5 -26.5t-79.5 -90.5l-117 -226l-124 -256l-123 -269l-114 -267l-101 -246q-46 -118 -79 -212q-12 -43 -11 -69zM242 2101q2 -80 116 -80q61 0 107 29 q4 0 21 14l40 32q23 17 48.5 31.5t46.5 14.5q25 0 60.5 -6t72.5 -15.5t69.5 -21.5t48.5 -26q74 -55 236 -56q111 0 246 103q78 53 114.5 100t40.5 86q0 39 -45 68q-41 20 -88 20q-29 0 -53.5 -10t-52.5 -31l-27 -26q-18 -18 -39.5 -37t-41 -33t-29.5 -14q-35 2 -68 15 t-67 29l-65 30q-32 15 -63 26q-53 20 -102 30.5t-98 10.5q-43 0 -105.5 -21.5t-124 -53.5t-110.5 -67.5t-68 -66.5q-20 -39 -20 -74zM459 674l190 376l176 330q-4 -164 0 -330l9 -335q-96 -6 -188.5 -16.5t-186.5 -24.5z" />
<glyph unicode="&#xe4;" horiz-adv-x="1470" d="M-169 130q1 -26 11.5 -42t28.5 -28l43 -27l64 -30l59 -23q47 -16 70.5 -10.5t39.5 40.5q27 66 58 134.5t74 148.5q117 31 269 52l306 42q4 -84 11 -154.5t16 -130.5q8 -57 27.5 -79.5t68.5 -36.5q47 -16 92 -19.5t98 -3.5t68.5 14.5t15.5 51.5q-2 176 -1 381.5t5.5 410.5 t11.5 393.5t17 333.5q8 59 -9.5 96t-82.5 60q-47 12 -93 26.5t-99.5 26.5t-119 21.5t-149.5 13.5q-96 8 -145 -26.5t-82 -90.5q-57 -102 -119 -226l-124 -256l-124 -269l-115 -267l-101 -246q-46 -118 -79 -212q-12 -43 -11 -69zM397 2179q-2 -47 13.5 -86t43 -65.5 t63.5 -41t77 -12.5q41 0 73.5 15.5t55 39t37 48t18.5 43.5q10 25 15 59q0 53 -34 101.5t-110 74.5q-53 18 -98 9t-78 -34.5t-53.5 -65.5t-22.5 -85zM461 674l191 376l177 330q-4 -164 -1 -330.5t8 -334.5q-96 -6 -188.5 -16.5t-186.5 -24.5zM1034 2179q-4 -49 9.5 -88 t39 -66.5t62.5 -41t78 -11.5q39 0 71.5 15.5t57 38t41 48t22.5 44.5l7 29q3 13 5 32q4 49 -27.5 98.5t-103.5 75.5q-55 18 -101 9t-80 -35.5t-55.5 -65.5t-25.5 -82z" />
<glyph unicode="&#xe5;" horiz-adv-x="1470" d="M-169 130q1 -26 11.5 -42t28.5 -28l43 -27l64 -30l59 -23q47 -16 70.5 -10.5t39.5 40.5l59 134q30 69 73 149q117 31 269 52l306 42q6 -84 12 -154.5t15 -130.5q8 -57 27.5 -79.5t68.5 -36.5q47 -16 92 -19.5t98 -3.5t68.5 14.5t15.5 51.5q-2 176 -1 381.5t5.5 410.5 t11.5 393.5t19 333.5q8 59 -9 96t-83 60q-47 12 -93 26.5t-99.5 26.5t-119 21.5t-149.5 13.5q-96 8 -145 -26.5t-82 -90.5q-57 -102 -119 -226l-124 -256l-124 -269l-115 -267l-102 -246q-47 -118 -80 -212q-12 -43 -11 -69zM463 674l190 376l178 330q-4 -164 -2 -330.5 t7 -334.5q-96 -6 -188.5 -16.5t-184.5 -24.5zM564 2141q3 -75 46 -132q16 -27 49 -46t66 -30q43 -16 95 -22t100 -10q76 -6 133 3t110 35q76 45 127 107.5t80 131.5t35 137.5t-8 125.5q-12 33 -34 58.5t-69 48.5q-41 18 -101 32.5t-128 22.5q-51 4 -110.5 -6t-100.5 -31 q-98 -51 -163.5 -122.5t-97.5 -149.5t-29 -153zM830 2100q-1 36 9.5 78t28.5 79q18 39 48 79t62 71.5t64.5 51t57.5 15.5t36 -31.5t11 -66.5t-9.5 -83t-27.5 -81q-20 -49 -48 -89t-57.5 -67.5t-60.5 -41t-57 -5.5q-29 4 -42.5 29.5t-14.5 61.5z" />
<glyph unicode="&#xe6;" horiz-adv-x="2162" d="M-154 132q-4 -26 3.5 -42t23.5 -27.5l37 -27.5q29 -16 59 -30l54 -23q47 -16 70.5 -10.5t47.5 40.5l81 134q42 69 102 149q121 31 278 51l311 41q-10 -68 -20 -113t-18.5 -75.5t-12.5 -52t-4 -44.5q-4 -57 29 -78.5t80 -35.5q14 -8 56 -11.5t91 -3.5q51 0 97 2t67 7 l259 49l269 51q53 10 64.5 25.5t3.5 56.5l-26.5 72.5t-35.5 76.5q-18 37 -50.5 49.5t-88.5 8.5q-104 -6 -191 -16.5t-182 -26.5q0 8 3.5 14t3.5 16q16 47 31 100l32 109q119 25 247 45.5l255 42.5q57 12 71.5 28.5t0.5 64.5q-10 41 -21.5 80.5t-36.5 80.5q-18 41 -50 53.5 t-91 10.5q-68 -2 -129.5 -6t-124.5 -13q39 109 69.5 208.5t63.5 191.5q145 20 278 35l255 28q61 8 78.5 26.5t11.5 72.5q-10 47 -17.5 86.5t-34.5 89.5q-25 94 -141 90q-160 -6 -284.5 -27.5t-241.5 -52.5q-2 2 -6 2t-9 4q-43 12 -86 26.5t-95 27t-116.5 21.5t-146.5 13 q-90 8 -148.5 -26.5t-99.5 -92.5l-162 -226l-174 -256l-176 -269l-168 -267l-148 -246l-120 -212q-23 -43 -27 -69zM580 676l265 376l245 332l-67 -332.5t-56 -334.5q-98 -6 -192.5 -16.5t-194.5 -24.5z" />
<glyph unicode="&#xe7;" horiz-adv-x="1314" d="M-127 650q-6 -136 15.5 -256t74.5 -208q31 -57 86 -100t111 -66q6 -4 14 -6t19 -6l-52 -102l-52 -104l-48 -94l-39 -77q-33 -59 53 -73l70 -7.5t68 0.5q68 4 112 54q25 25 53 63l59 83q30 44 54.5 90t38.5 85q0 4 1 9.5t1 9.5q86 0 167 21.5t132 56.5q57 41 114.5 102 t94.5 135q35 63 32 106.5t-81 63.5q-195 55 -316 -68q-168 -172 -249 -145q-43 12 -66 69.5t-27 140.5t9.5 184.5t39.5 203.5q29 98 79.5 213t107.5 210t112.5 154.5t96.5 47.5q41 -16 49 -69.5t6 -119.5q0 -37 6 -80q8 -51 26.5 -90t49.5 -68.5t78 -51t112 -33.5 q35 -6 55.5 -4t32 10t17.5 22.5l12 30.5q12 37 22.5 83t16.5 96.5t9 101.5t1 98q-2 41 -8 77t-21.5 68.5t-41 64.5t-64.5 64q-41 27 -92 52.5t-108.5 47t-119 37t-118.5 21.5q-78 6 -166 -16.5t-174 -95.5q-106 -92 -189 -214t-142.5 -259.5t-93.5 -282t-40 -280.5z" />
<glyph unicode="&#xe8;" horiz-adv-x="1181" d="M-111 272q-4 -55 15.5 -94t54.5 -67q43 -37 75 -60.5l66 -46.5q31 -20 73 -31.5t124 9.5l258 49l266 51q55 10 65.5 25.5t0.5 56.5q-16 37 -29.5 72.5t-38.5 76.5q-23 37 -54.5 49.5t-88.5 8.5q-102 -6 -189.5 -16.5t-183.5 -26.5l31 115l31 124q119 25 246.5 45.5 t250.5 42.5q57 12 70.5 28.5t-2.5 64.5q-10 41 -23.5 80.5t-38.5 80.5q-23 41 -55.5 53.5t-89.5 10.5q-70 -2 -131.5 -6t-122.5 -13q33 109 59.5 208.5t57.5 191.5q145 20 276 35l254 28q59 8 75.5 26.5t8.5 72.5q-10 47 -20.5 86.5t-36.5 89.5q-33 92 -150 90 q-123 -4 -246.5 -19.5t-241.5 -36t-225.5 -45t-195.5 -47.5zM215 2359q61 -41 145 -90t180.5 -98t200 -94t201.5 -80q41 -18 91 -7t114 46q0 -2 14.5 9t24.5 30.5t7 43t-40 46.5q-164 78 -337 171t-306 199q-39 29 -87 28t-124 -42q-41 -20 -57.5 -60.5t-26.5 -101.5z" />
<glyph unicode="&#xe9;" horiz-adv-x="1181" d="M-111 272q-4 -55 15.5 -94t54.5 -67q43 -37 75 -60.5l66 -46.5q31 -20 73 -31.5t124 9.5l258 49l266 51q55 10 65.5 25.5t0.5 56.5q-16 37 -29.5 72.5t-38.5 76.5q-23 37 -54.5 49.5t-88.5 8.5q-102 -6 -189.5 -16.5t-183.5 -26.5l31 115l31 124q119 25 246.5 45.5 t250.5 42.5q57 12 70.5 28.5t-2.5 64.5q-10 41 -23.5 80.5t-38.5 80.5q-23 41 -55.5 53.5t-89.5 10.5q-70 -2 -131.5 -6t-122.5 -13q33 109 59.5 208.5t57.5 191.5q145 20 276 35l254 28q59 8 75.5 26.5t8.5 72.5q-10 47 -20.5 86.5t-36.5 89.5q-33 92 -150 90 q-123 -4 -246.5 -19.5t-241.5 -36t-225.5 -45t-195.5 -47.5zM224 2118.5q-3 -23.5 6.5 -43t23.5 -30.5t12 -9q63 -35 113.5 -46.5t93.5 7.5q98 35 202.5 80t202 94t182.5 98t146 90q-4 61 -19.5 101.5t-56.5 60.5q-76 41 -125 42t-83 -28q-137 -106 -313.5 -199t-344.5 -171 q-37 -23 -40 -46.5z" />
<glyph unicode="&#xea;" horiz-adv-x="1181" d="M-111 272q-4 -55 15.5 -94t54.5 -67q43 -37 75 -60.5l66 -46.5q31 -20 73 -31.5t124 9.5l258 49l266 51q55 10 65.5 25.5t0.5 56.5q-16 37 -29.5 72.5t-38.5 76.5q-23 37 -54.5 49.5t-88.5 8.5q-102 -6 -189.5 -16.5t-183.5 -26.5l31 115l31 124q119 25 246.5 45.5 t250.5 42.5q57 12 70.5 28.5t-2.5 64.5q-10 41 -23.5 80.5t-38.5 80.5q-23 41 -55.5 53.5t-89.5 10.5q-70 -2 -131.5 -6t-122.5 -13q33 109 59.5 208.5t57.5 191.5q145 20 276 35l254 28q59 8 75.5 26.5t8.5 72.5q-10 47 -20.5 86.5t-36.5 89.5q-33 92 -150 90 q-123 -4 -246.5 -19.5t-241.5 -36t-225.5 -45t-195.5 -47.5zM350 2265q-35 -47 6 -102q23 -33 41.5 -54.5t40.5 -44.5q16 -12 25.5 -18t19.5 -6q23 0 35 24l128 157q69 85 153 175l45 -196q20 -92 41 -152q25 -57 84 -74q35 -10 65.5 -13t59.5 -3q35 -2 45 10t4 43l-29 123 l-33 146q-16 77 -30.5 158t-22.5 155q-2 25 -6 41t-10 28.5t-15 23.5l-18 26q-27 23 -55 43l-58 43q-29 18 -53.5 17t-52.5 -36q-59 -59 -120 -130l-115 -140q-54 -70 -99 -134z" />
<glyph unicode="&#xeb;" horiz-adv-x="1181" d="M-111 272q-4 -55 15.5 -94t54.5 -67q43 -37 75 -60.5l66 -46.5q31 -20 73 -31.5t124 9.5l258 49l266 51q55 10 65.5 25.5t0.5 56.5q-16 37 -29.5 72.5t-38.5 76.5q-23 37 -54.5 49.5t-88.5 8.5q-102 -6 -189.5 -16.5t-183.5 -26.5l31 115l31 124q119 25 246.5 45.5 t250.5 42.5q57 12 70.5 28.5t-2.5 64.5q-10 41 -23.5 80.5t-38.5 80.5q-23 41 -55.5 53.5t-89.5 10.5q-70 -2 -131.5 -6t-122.5 -13q33 109 59.5 208.5t57.5 191.5q145 20 276 35l254 28q59 8 75.5 26.5t8.5 72.5q-10 47 -20.5 86.5t-36.5 89.5q-33 92 -150 90 q-123 -4 -246.5 -19.5t-241.5 -36t-225.5 -45t-195.5 -47.5zM145 2165q-2 -47 13.5 -85t43 -65.5t64.5 -41t78 -11.5q41 0 73 15.5t55.5 38t36.5 47t17 42.5l9 29q4 14 4 31q0 53 -35 101t-111 75q-53 18 -98 9t-77 -34.5t-51.5 -65.5t-21.5 -85zM782 2165q-4 -49 9.5 -88 t39 -65.5t62.5 -41t78 -12.5q41 0 73.5 15.5t56 38t40 48t22.5 43.5q2 16 5 29.5t6 32.5q2 49 -30 98t-104 76q-55 16 -101 7t-80 -34.5t-54.5 -64.5t-22.5 -82z" />
<glyph unicode="&#xec;" horiz-adv-x="638" d="M-172 2421q61 -41 146 -90.5t182.5 -98.5t201 -95t203.5 -81q43 -18 93.5 -7t113.5 46q-2 -2 12.5 9.5t24.5 30.5t7 43t-40 48l-170 82l-171 89q-85 46 -164 97.5t-146 104.5q-39 29 -88 28t-123 -42q-43 -23 -58.5 -63t-23.5 -101zM-129 170q-6 -53 9.5 -83t62.5 -52 q45 -23 93 -37l101 -29q53 -12 70.5 -2t28.5 45l43 210l54 250l61 270l65 271l64 251q32 119 61 211q14 55 2.5 83.5t-68.5 67.5q-55 37 -129 70t-137 49q-66 18 -96.5 5t-49.5 -73q-23 -96 -48 -224t-50 -271l-48 -293q-24 -150 -42 -285t-30.5 -248.5t-16.5 -185.5z" />
<glyph unicode="&#xed;" horiz-adv-x="638" d="M-131 170q-4 -53 11.5 -83t62.5 -52q45 -23 93 -37l101 -29q53 -12 70.5 -2t28.5 45l43 210l52 250l59 270l64 271l62 251q31 119 59 211q6 27 8.5 47t-5 36.5t-23.5 33t-47 34.5q-55 37 -129 70t-137 49q-66 18 -96.5 5t-49.5 -73q-23 -96 -47 -224t-48 -271l-46 -293 q-23 -150 -40 -285t-29.5 -248.5t-16.5 -185.5zM-14 2123.5q-4 -24.5 6 -43t23.5 -29.5t13.5 -9q63 -35 112 -46t92 7q100 35 205 80t202 94t181 97t146 89q-6 63 -21.5 103.5t-58.5 60.5q-74 41 -122 42t-87 -27q-68 -53 -147.5 -103.5t-163.5 -96.5t-171 -89l-169 -82 q-37 -23 -41 -47.5z" />
<glyph unicode="&#xee;" horiz-adv-x="638" d="M-129 170q-6 -53 9.5 -83t62.5 -52q45 -23 93 -37l101 -29q53 -12 70.5 -2t28.5 45l43 210l54 250l61 270l65 271l64 251q32 119 61 211q14 55 1.5 83.5t-69.5 67.5q-55 37 -129 70t-137 49q-66 18 -96.5 5t-49.5 -73q-23 -96 -47 -224l-50 -271q-26 -143 -48 -293 l-40.5 -285t-31 -248.5t-16.5 -185.5zM35 2251q-33 -45 4 -103q23 -33 43 -54l43 -44q14 -12 23.5 -18.5t21.5 -6.5q16 0 35 25l125 157l149 175q27 -104 47.5 -195.5t42.5 -152.5q29 -59 84 -72q35 -10 66 -13t61 -3q35 -4 45.5 8t1.5 43l-28 123l-34 146q-17 77 -32.5 158 t-25.5 154q-2 25 -6.5 41.5t-10.5 28.5t-14 24l-19 25q-25 23 -54.5 43.5t-57.5 42.5q-29 18 -53.5 17.5t-53.5 -35.5q-59 -59 -119 -130l-113 -141q-54 -70 -98 -134z" />
<glyph unicode="&#xef;" horiz-adv-x="638" d="M-133 2165q-2 -47 14.5 -85t44 -65.5t64.5 -41t78 -11.5q39 0 71.5 15.5t55 38t37 47t18.5 42.5q10 23 10 60q0 53 -35 101t-108 75q-55 18 -100.5 9t-77 -34.5t-51 -65.5t-21.5 -85zM-129 170q-6 -53 9.5 -83t62.5 -52q45 -23 93 -37l101 -29q53 -12 70.5 -2t28.5 45 l43 210l53 250l60 270l64 271l63.5 250.5t60.5 211.5q6 27 8 47t-5.5 36.5t-23.5 33t-47 34.5q-55 37 -129 70t-137 49q-66 18 -96.5 5t-49.5 -73q-23 -96 -47 -224t-48 -271l-47 -293q-24 -150 -41 -285t-29.5 -248.5t-16.5 -185.5zM506 2165q-10 -98 47 -154.5t143 -52.5 q41 0 73 15.5t55.5 38t39 48t21.5 43.5q4 16 6 29.5t4 32.5q2 49 -31 98t-104 76q-55 16 -100.5 7t-78 -34.5t-53 -64.5t-22.5 -82z" />
<glyph unicode="&#xf0;" horiz-adv-x="1253" d="M-203 432q-4 -86 13.5 -159.5t52.5 -122.5q23 -31 56.5 -59t84.5 -48t125 -30.5t178 -10.5q100 6 181 26.5t147.5 56.5t120 88t102.5 120q49 70 98.5 169t86 220t56 262t9.5 295q41 4 82 6t82 6q53 2 67.5 20.5t-4.5 71.5q-10 23 -13 28t-4 8t-6 11.5t-20 36.5 q-63 94 -153 95h-41q-18 0 -41 -2q-12 63 -37 127q-10 27 -19.5 44t-22.5 28.5t-33.5 18.5t-55.5 11q-35 2 -78 5t-86 4t-83 0t-67 -5q-70 -14 -97 -38.5t-5 -84.5q33 -80 53 -155q-57 -10 -108 -17.5t-92 -17.5q-102 -18 -31 -137q14 -25 20.5 -31t13.5 -9t17 -10.5 t33 -31.5q45 -51 84 -65.5t80 -2.5q10 2 22.5 5t24.5 7q4 -45 7 -89t3 -87q-53 18 -106.5 25.5t-112.5 3.5q-94 -4 -165 -21.5t-123 -47t-91 -68.5t-72 -86q-66 -90 -97.5 -183.5t-35.5 -179.5zM217 483q6 53 20.5 99.5t36 81t49 56t62.5 23.5q33 2 63.5 -13t52 -43 t35 -67.5t13.5 -87.5q-41 -133 -90 -210.5t-113 -85.5q-76 -10 -111.5 57t-17.5 190z" />
<glyph unicode="&#xf1;" horiz-adv-x="1437" d="M-133 180q-4 -53 11.5 -82.5t60.5 -52.5q47 -29 97 -42l99 -26q53 -14 71.5 -4.5t26.5 43.5q10 74 28 173l39 215l45 243l46 254q27 -106 58 -212l61 -203l60.5 -181t58.5 -147q37 -88 127 -123q98 -35 192 -53q111 -25 123 53l79 333l96 388l102 391q51 193 98 344 q16 53 9 91t-66 75q-35 23 -62 37t-50.5 24.5t-47.5 16.5l-55 14q-66 16 -100 2t-50 -74q-59 -219 -119.5 -479t-101.5 -528l-45 218l-43 221l-37 200l-27 151q-12 78 -38.5 118t-90.5 67q-78 37 -149 59l-148 45q-63 16 -100 1t-51 -77q-23 -106 -46.5 -243.5t-46 -285 t-42 -296t-35 -278.5t-24.5 -232.5t-13 -157.5zM240 2101q2 -80 114 -80q63 0 109 29q2 0 19 14l40 32q23 17 48.5 31.5t45.5 14.5q25 0 62 -6t73.5 -15.5t69.5 -21.5t49 -26q37 -29 96.5 -42.5t137.5 -13.5q111 0 246 103q78 53 114.5 100t40.5 86q2 37 -45 68 q-41 20 -88 20q-29 0 -53.5 -10t-52.5 -31l-27 -26l-38.5 -37t-40 -33t-30.5 -14q-35 2 -68.5 15t-66.5 29l-64 30q-32 15 -63 26q-55 20 -103 30.5t-99 10.5q-43 0 -105.5 -21.5t-124 -53.5t-111 -67.5t-67.5 -66.5q-20 -45 -18 -74z" />
<glyph unicode="&#xf2;" d="M-88 686q-2 -131 22.5 -250t73.5 -213q31 -57 84 -102t109 -74q68 -35 149.5 -52.5t159.5 -25.5q117 -12 207 9.5t172 84.5q121 106 204 260t131 327t60 348.5t-10 324.5q-16 90 -52 160.5t-114 134.5q-70 55 -175.5 94t-221.5 57q-90 14 -189.5 -14.5t-171.5 -83.5 q-106 -92 -187 -207.5t-136.5 -244.5t-84 -265.5t-30.5 -267.5zM201 2359q61 -41 145 -90t180.5 -98t199.5 -94t202 -80q43 -18 93 -7t114 46q0 -2 14 9t24.5 30.5t6.5 43t-41 46.5l-168 82l-170 89q-84 46 -162 96t-145 103q-39 29 -87.5 28t-121.5 -42 q-43 -20 -59.5 -60.5t-24.5 -101.5zM352 454q-4 89 8.5 192.5t40.5 199.5q29 98 75 203.5t99.5 191.5t106.5 136t96 36q41 -12 60.5 -85t19.5 -175q0 -100 -16.5 -216t-42.5 -212q-31 -117 -73 -216t-89 -167t-94 -100.5t-90 -18.5q-47 14 -72 78t-29 153z" />
<glyph unicode="&#xf3;" d="M-88 686q-2 -131 22.5 -250t73.5 -213q31 -57 84 -102t109 -74q68 -35 149.5 -52.5t159.5 -25.5q117 -12 207 9.5t172 84.5q121 106 204 260t131 327t60 348.5t-10 324.5q-16 90 -52 160.5t-114 134.5q-70 55 -175.5 94t-221.5 57q-90 14 -189.5 -14.5t-171.5 -83.5 q-106 -92 -187 -207.5t-136.5 -244.5t-84 -265.5t-30.5 -267.5zM212 2118.5q-3 -23.5 6 -43t23.5 -30.5t12.5 -9q63 -35 113.5 -46.5t93.5 7.5q98 35 201.5 80t201 94t182 98t146.5 90q-4 61 -20.5 101.5t-57.5 60.5q-76 41 -125 42t-84 -28q-137 -106 -312 -199t-343 -171 q-35 -23 -38 -46.5zM352 454q-4 89 8.5 192.5t40.5 199.5q29 98 75 203.5t99.5 191.5t106.5 136t96 36q41 -12 60.5 -85t19.5 -175q0 -100 -16.5 -216t-42.5 -212q-31 -117 -73 -216t-89 -167t-94 -100.5t-90 -18.5q-47 14 -72 78t-29 153z" />
<glyph unicode="&#xf4;" d="M-88 686q-2 -131 22.5 -250t73.5 -213q31 -57 84 -102t109 -74q68 -35 149.5 -52.5t159.5 -25.5q117 -12 207 9.5t172 84.5q121 106 204 260t131 327t60 348.5t-10 324.5q-16 90 -52 160.5t-114 134.5q-70 55 -175.5 94t-221.5 57q-90 14 -189.5 -14.5t-171.5 -83.5 q-106 -92 -187 -207.5t-136.5 -244.5t-84 -265.5t-30.5 -267.5zM352 454q-4 89 8.5 192.5t40.5 199.5q29 98 75 203.5t99.5 191.5t106.5 136t96 36q41 -12 60.5 -85t19.5 -175q0 -100 -16.5 -216t-42.5 -212q-31 -117 -73 -216t-89 -167t-94 -100.5t-90 -18.5q-47 14 -72 78 t-29 153zM461 2216q-33 -47 6 -100q23 -33 41 -55.5t41 -43.5l24 -18q8 -6 19 -6q20 0 37 24l127 156q68 84 151 174q27 -104 46.5 -195.5t39.5 -150.5q25 -59 84 -72q35 -10 64.5 -13t58.5 -3q37 -4 47 8t4 43l-28 121l-33 146q-16 77 -30.5 157t-22.5 154q-2 25 -5.5 41 t-9.5 28t-14 24l-18 25q-27 23 -56 43l-57 43q-29 18 -53.5 17.5t-53.5 -35.5q-59 -59 -119 -130l-115 -140q-54 -70 -99 -134z" />
<glyph unicode="&#xf5;" d="M-90 686q-2 -131 22.5 -250t73.5 -213q31 -57 85 -102t110 -74q68 -35 149.5 -52.5t159.5 -25.5q117 -12 207 9.5t172 84.5q119 106 202 260t130 327t58 348.5t-11 324.5q-16 90 -53 160.5t-115 134.5q-72 55 -177.5 94t-222.5 57q-88 14 -188 -14.5t-170 -83.5 q-106 -92 -186 -207.5t-134.5 -244.5t-82 -265.5t-29.5 -267.5zM233 2101q2 -80 115 -80q63 0 109 29q2 0 19 14l40 32q23 17 48.5 31.5t45.5 14.5q25 0 62 -6t73.5 -15.5t69.5 -21.5t49 -26q37 -29 96.5 -42.5t137.5 -13.5q111 0 245 103q78 53 115 100t41 86q0 37 -47 68 q-41 20 -86 20q-53 0 -106 -41l-27 -26q-18 -18 -40 -37t-41 -33t-30 -14q-35 2 -67.5 15t-66.5 29l-65 30q-32 15 -63 26q-55 20 -103 30.5t-98 10.5q-43 0 -105 -21.5t-123.5 -53.5t-111 -67.5t-67.5 -66.5q-21 -45 -19 -74zM350 454q-6 89 6.5 192.5t40.5 199.5 q27 98 73 203.5t98.5 191.5t105.5 136t96 36q41 -12 60.5 -85t20.5 -174t-14.5 -217t-41.5 -212q-31 -117 -72 -216t-88 -167t-94 -100.5t-90 -18.5q-47 14 -71 78t-30 153z" />
<glyph unicode="&#xf6;" d="M-88 686q-2 -131 22.5 -250t73.5 -213q31 -57 84 -102t109 -74q68 -35 149.5 -52.5t159.5 -25.5q117 -12 207 9.5t172 84.5q121 106 204 260t131 327t60 348.5t-10 324.5q-16 90 -52 160.5t-114 134.5q-70 55 -175.5 94t-221.5 57q-90 14 -189.5 -14.5t-171.5 -83.5 q-106 -92 -187 -207.5t-136.5 -244.5t-84 -265.5t-30.5 -267.5zM254 2165q-2 -47 14.5 -85t44 -65.5t64.5 -41t78 -11.5q39 0 71.5 15.5t55 38t37 47t18.5 42.5l8 29q4 14 4 31q0 53 -34.5 101t-110.5 75q-53 18 -98.5 9t-78 -34.5t-52 -65.5t-21.5 -85zM352 454 q-4 89 8.5 192.5t40.5 199.5q29 98 75 203.5t99.5 191.5t106.5 136t96 36q41 -12 60.5 -85t19.5 -175q0 -100 -16.5 -216t-42.5 -212q-31 -117 -73 -216t-89 -167t-94 -100.5t-90 -18.5q-47 14 -72 78t-29 153zM891 2165q-4 -49 9 -88t40 -65.5t63.5 -41t77.5 -12.5 q39 0 72 15.5t57.5 38t40 48t21.5 43.5l7 30q3 13 3 32q4 49 -27.5 98t-103.5 76q-55 16 -101 7t-80 -34.5t-54.5 -64.5t-24.5 -82z" />
<glyph unicode="&#xf7;" horiz-adv-x="1499" d="M-10 774q20 -39 55 -89t70 -83q37 -35 62.5 -42t74.5 3q139 25 224 42.5l143.5 30.5t107.5 21.5t117.5 13.5t170 8t267.5 5q45 0 59.5 13.5t-2.5 54.5q-16 35 -27.5 67.5t-37.5 73.5q-41 70 -129 70q-150 -2 -250 -4.5t-177 -7.5t-139.5 -12t-133.5 -18l-160 -27 l-222 -36q-39 -6 -65 -24.5t-8 -59.5zM442 340q-4 -49 13.5 -88t49.5 -65.5t74 -40t91 -11.5q47 0 84 15.5t63.5 37t43 47t22.5 44.5q10 23 10 61q2 51 -37 100t-123 76q-63 18 -115.5 9t-91.5 -35.5t-60.5 -66.5t-23.5 -83zM514 1321q-2 -57 16.5 -102t52 -77t80 -48.5 t97.5 -14.5q49 0 90 18.5t69.5 44t47 55.5t24.5 52q10 31 15 72q2 59 -40 116.5t-135 88.5q-68 20 -125 10t-98 -41t-65.5 -77t-28.5 -97z" />
<glyph unicode="&#xf8;" d="M-88 686q-2 -131 22.5 -250t73.5 -213q16 -35 46 -66.5t65 -56.5q-20 -37 -33.5 -67.5t-24.5 -50.5q-20 -47 -14 -80q6 -35 45 -58q14 -8 7 -5l-18 8l-16.5 7.5t17.5 -10.5q47 -23 71.5 -14.5t41.5 43.5l34 62l43 79q59 -18 119 -28.5t119 -16.5q117 -12 207 9.5 t172 84.5q121 106 204 260t131 327t60 348.5t-10 324.5q-12 59 -32.5 112.5t-59.5 100.5l74 118l61 91q31 47 31 80q0 35 -50 82q-20 20 -17 23t9 1l6 -2q0 2 -24 19q-98 74 -160 -31q-29 -39 -63 -95l-78 -128q-59 27 -126 45t-136 30q-88 14 -188.5 -14.5t-170.5 -83.5 q-106 -92 -187 -207.5t-136.5 -244.5t-84 -265.5t-30.5 -267.5zM352 557q4 72 15.5 145.5t33.5 143.5q29 98 75 203.5t99.5 191.5t106.5 136t96 36q4 -2 12.5 -5t12.5 -9l-116 -208l-117 -215l-113 -214zM410 252l207 350l227 383q-6 -70 -17.5 -135.5t-27.5 -124.5 q-31 -117 -73 -216t-89 -167t-94 -100.5t-90 -18.5q-14 4 -24.5 11.5t-18.5 17.5z" />
<glyph unicode="&#xf9;" horiz-adv-x="1384" d="M-92 598q0 -119 19.5 -218t62.5 -171q33 -57 78 -96t96 -68q119 -66 303 -78q92 -6 163.5 7.5t143.5 48.5q100 57 182 184t152 315.5t132.5 433t123.5 537.5q6 27 8 46.5t-4 35.5t-21.5 31.5t-43.5 33.5q-55 33 -122 67t-125.5 49.5t-99.5 3t-45 -73.5l-55 -289 q-31 -162 -68.5 -329t-81.5 -324.5t-92.5 -277.5t-101.5 -187.5t-109 -53.5q-45 12 -60 76t-10 160t26.5 217t52 248t66.5 251l69 230q35 125 -76 205q-53 39 -109.5 67.5t-117.5 46.5q-66 23 -97.5 10.5t-48.5 -71.5q-37 -131 -70.5 -269.5t-60 -275.5t-43 -270t-16.5 -252 zM197 2359q61 -41 145 -90t180 -98t200.5 -94t203.5 -80q41 -18 91 -7t113 46q0 -2 14.5 9t25 30.5t6 43t-40.5 46.5l-168 82l-170 89q-84 46 -163 96t-147 103q-37 29 -86 28t-122 -42q-41 -20 -57.5 -60.5t-24.5 -101.5z" />
<glyph unicode="&#xfa;" horiz-adv-x="1384" d="M-92 598q0 -119 19.5 -218t62.5 -171q33 -57 78 -96t96 -68q119 -66 303 -78q92 -6 163.5 7.5t143.5 48.5q100 57 182 184t152 315.5t132.5 433t123.5 537.5q6 27 8 46.5t-4 35.5t-21.5 31.5t-43.5 33.5q-55 33 -122 67t-125.5 49.5t-99.5 3t-45 -73.5l-55 -289 q-31 -162 -68.5 -329t-81.5 -324.5t-92.5 -277.5t-101.5 -187.5t-109 -53.5q-45 12 -60 76t-10 160t26.5 217t52 248t66.5 251l69 230q35 125 -76 205q-53 39 -109.5 67.5t-117.5 46.5q-66 23 -97.5 10.5t-48.5 -71.5q-37 -131 -70.5 -269.5t-60 -275.5t-43 -270t-16.5 -252 zM208 2118.5q-3 -23.5 6 -43t23.5 -30.5t12.5 -9q63 -35 113.5 -46.5t93.5 7.5q98 35 201.5 80t200.5 94t182 98t147 90q-6 61 -22.5 101.5t-57.5 60.5q-76 41 -124 42t-85 -28q-68 -53 -146.5 -103t-163.5 -96l-172 -89l-171 -82q-35 -23 -38 -46.5z" />
<glyph unicode="&#xfb;" horiz-adv-x="1384" d="M-92 598q0 -119 19.5 -218t62.5 -171q33 -57 78 -96t96 -68q119 -66 303 -78q92 -6 163.5 7.5t143.5 48.5q100 57 182 184t152 315.5t132.5 433t123.5 537.5q6 27 8 46.5t-4 35.5t-21.5 31.5t-43.5 33.5q-55 33 -122 67t-125.5 49.5t-99.5 3t-45 -73.5l-55 -289 q-31 -162 -68.5 -329t-81.5 -324.5t-92.5 -277.5t-101.5 -187.5t-109 -53.5q-45 12 -60 76t-10 160t26.5 217t52 248t66.5 251l69 230q35 125 -76 205q-53 39 -109.5 67.5t-117.5 46.5q-66 23 -97.5 10.5t-48.5 -71.5q-37 -131 -70.5 -269.5t-60 -275.5t-43 -270t-16.5 -252 zM332 2265q-35 -47 6 -102q23 -33 42 -54.5t42 -44.5l24 -18q8 -6 19 -6q20 0 37 24l127 157q68 85 149 175q27 -104 47.5 -196.5t42.5 -151.5q25 -57 84 -74q35 -10 66 -13t59 -3q35 -2 45.5 10t3.5 43l-29 123q-17 70 -33.5 146.5t-32 157.5t-25.5 155q-2 25 -6.5 41 t-10.5 28.5t-14 23.5l-19 26q-27 23 -55 43l-57 43q-29 18 -53.5 17t-53.5 -36q-59 -59 -119.5 -130t-113.5 -140l-98 -134z" />
<glyph unicode="&#xfc;" horiz-adv-x="1384" d="M-92 598q0 -119 19.5 -218t62.5 -171q33 -57 78 -96t96 -68q119 -66 303 -78q92 -6 163.5 7.5t143.5 48.5q100 57 182 184t152 315.5t132.5 433t123.5 537.5q6 27 8 46.5t-4 35.5t-21.5 31.5t-43.5 33.5q-55 33 -122 67t-125.5 49.5t-99.5 3t-45 -73.5l-55 -289 q-31 -162 -68.5 -329t-81.5 -324.5t-92.5 -277.5t-101.5 -187.5t-109 -53.5q-45 12 -60 76t-10 160t26.5 217t52 248t66.5 251l69 230q35 125 -76 205q-53 39 -109.5 67.5t-117.5 46.5q-66 23 -97.5 10.5t-48.5 -71.5q-37 -131 -70.5 -269.5t-60 -275.5t-43 -270t-16.5 -252 zM231 2165q-2 -47 14.5 -85t44 -65.5t63.5 -41t77 -11.5q41 0 73 15.5t55.5 38t37.5 47t18 42.5q10 23 11 60q0 53 -34 101t-108 75q-55 18 -100 9t-78 -34.5t-52.5 -65.5t-21.5 -85zM870 2165q-10 -98 47.5 -154.5t143.5 -52.5q39 0 71.5 15.5t56 38t39 48t21.5 43.5 q4 16 6 29.5l5 32.5q2 49 -30 98t-104 76q-55 16 -100 7t-79 -34.5t-53.5 -64.5t-23.5 -82z" />
<glyph unicode="&#xfd;" horiz-adv-x="1333" d="M-101.5 1739.5q-11.5 -19.5 11.5 -74.5l83 -247l95 -270l98 -276l93 -260q-25 -141 -37.5 -256.5t-26.5 -203.5q-4 -53 10.5 -81t59.5 -57q45 -18 98 -35.5t102 -29.5q53 -12 71.5 -4t29.5 49l47 228q25 118 59 255l187 271l182 274l154 248q69 115 104 192 q14 33 22.5 56.5t7.5 44t-11.5 40t-28.5 42.5q-33 31 -79 69.5t-93 62t-88 20.5t-60 -54l-213 -375l-217 -360l-106 333q-51 158 -99 281q-33 66 -60.5 97.5t-89 46t-119.5 11.5t-122 -8q-53 -10 -64.5 -29.5zM204 2118.5q-3 -23.5 7 -43t23.5 -30.5t11.5 -9 q66 -35 116 -46.5t93 7.5q98 35 201.5 80t200.5 94t182 98t145 90q-4 61 -20.5 101.5t-57.5 60.5q-76 41 -125 42t-84 -28q-68 -53 -147.5 -103t-163.5 -96t-172 -89l-170 -82q-37 -23 -40 -46.5z" />
<glyph unicode="&#xfe;" horiz-adv-x="1345" d="M-133 170q-4 -53 12.5 -83t63.5 -52q45 -23 94 -37l102 -29q53 -12 69.5 -2t27.5 45l12 72q6 37 14 76q119 31 240 76t232.5 99t206.5 116.5t163 128.5q41 41 77 84t58.5 90t29.5 99t-7 112q-31 123 -88.5 207.5t-126.5 158.5q-45 41 -103.5 63.5t-125 29t-140.5 -1 t-150 -23.5q4 18 12.5 37.5t12.5 38.5q12 55 1 83.5t-71 67.5q-57 37 -130.5 70t-137.5 49q-66 18 -96.5 5t-46.5 -73q-20 -96 -43 -224t-44 -271l-42 -293l-37 -285t-27 -248.5t-12 -185.5zM344 526l59 237q29 114 60 220q74 31 145.5 46t129 16.5t94 -10t42.5 -36.5 q14 -43 -13 -105.5t-95 -129t-174.5 -130t-247.5 -108.5z" />
<glyph unicode="&#xff;" horiz-adv-x="1333" d="M-101.5 1739.5q-11.5 -19.5 11.5 -74.5l83 -247l95 -270l98 -276l93 -260q-25 -141 -37.5 -256.5t-26.5 -203.5q-4 -53 10.5 -81t59.5 -57q45 -18 98 -35.5t102 -29.5q53 -12 71.5 -4t29.5 49l47 228q25 118 59 255l187 271l182 274l154 248q69 115 104 192 q14 33 22.5 56.5t7.5 44t-11.5 40t-28.5 42.5q-33 31 -79 69.5t-93 62t-88 20.5t-60 -54l-213 -375l-217 -360l-106 333q-51 158 -99 281q-33 66 -60.5 97.5t-89 46t-119.5 11.5t-122 -8q-53 -10 -64.5 -29.5zM125 2165q-2 -47 14.5 -85t44 -65.5t64.5 -41t78 -11.5 q39 0 71.5 15.5t55 38t36 47t17.5 42.5q12 27 12 60q0 53 -34.5 101t-112.5 75q-53 18 -98.5 9t-77 -34.5t-50 -65.5t-20.5 -85zM760 2165q-4 -49 10 -88t41 -65.5t63.5 -41t77.5 -12.5q41 0 74 15.5t56.5 38t39 48t21.5 43.5q2 16 5 29.5t3 32.5q4 49 -28.5 98t-104.5 76 q-55 16 -100.5 7t-79 -34.5t-54 -64.5t-24.5 -82z" />
<glyph unicode="&#x152;" horiz-adv-x="1974" d="M-108.5 686q2.5 -131 29 -250t79.5 -213q35 -57 89 -102t112 -74q68 -35 150.5 -52.5t160.5 -25.5q106 -10 188 6.5t160 67.5q10 -8 20.5 -14t22.5 -15q14 -10 31.5 -18t40 -12t53.5 -3t72 11l259 49l269 51q53 10 64.5 25.5t1.5 56.5l-26.5 73t-37.5 77q-18 37 -51 49 t-86 8q-104 -6 -191.5 -15.5t-183.5 -27.5l32 116q15 58 36 124q119 27 247 47t255 43q55 12 69.5 27.5t1.5 62.5q-10 41 -22.5 81t-38.5 83q-18 41 -50 53t-92 10q-68 -2 -129 -6t-124 -14q37 111 66.5 210t60.5 191q147 23 279 36t255 28q61 8 77.5 27.5t10.5 72.5l-18 86 q-8 39 -35 88q-27 94 -144 92q-115 -6 -230.5 -19.5t-226 -32t-214 -41t-193.5 -44.5q-68 41 -154.5 67.5t-179.5 42.5q-45 6 -93 2t-95 -17t-91 -34.5t-77 -48.5q-104 -92 -182 -207.5t-129 -244.5t-76 -265.5t-22.5 -267.5zM338 454q-8 89 2 192.5t35 199.5 q27 98 69.5 203.5t94 191.5t102.5 136t94 36q31 -10 51.5 -55t28.5 -113.5t7 -152.5t-13 -170l-31 -177q0 -6 -1 -11t-1 -9q-27 -117 -65.5 -216t-83.5 -167t-92.5 -100.5t-90.5 -18.5q-47 14 -72.5 78t-33.5 153z" />
<glyph unicode="&#x153;" horiz-adv-x="1974" d="M-108.5 686q2.5 -131 29 -250t79.5 -213q35 -57 89 -102t112 -74q68 -35 150.5 -52.5t160.5 -25.5q106 -10 188 6.5t160 67.5q10 -8 20.5 -14t22.5 -15q14 -10 31.5 -18t40 -12t53.5 -3t72 11l259 49l269 51q53 10 64.5 25.5t1.5 56.5l-26.5 73t-37.5 77q-18 37 -51 49 t-86 8q-104 -6 -191.5 -15.5t-183.5 -27.5l32 116q15 58 36 124q119 27 247 47t255 43q55 12 69.5 27.5t1.5 62.5q-10 41 -22.5 81t-38.5 83q-18 41 -50 53t-92 10q-68 -2 -129 -6t-124 -14q37 111 66.5 210t60.5 191q147 23 279 36t255 28q61 8 77.5 27.5t10.5 72.5l-18 86 q-8 39 -35 88q-27 94 -144 92q-115 -6 -230.5 -19.5t-226 -32t-214 -41t-193.5 -44.5q-68 41 -154.5 67.5t-179.5 42.5q-45 6 -93 2t-95 -17t-91 -34.5t-77 -48.5q-104 -92 -182 -207.5t-129 -244.5t-76 -265.5t-22.5 -267.5zM338 454q-8 89 2 192.5t35 199.5 q27 98 69.5 203.5t94 191.5t102.5 136t94 36q31 -10 51.5 -55t28.5 -113.5t7 -152.5t-13 -170l-31 -177q0 -6 -1 -11t-1 -9q-27 -117 -65.5 -216t-83.5 -167t-92.5 -100.5t-90.5 -18.5q-47 14 -72.5 78t-33.5 153z" />
<glyph unicode="&#x178;" horiz-adv-x="1333" d="M-101.5 1739.5q-11.5 -19.5 11.5 -74.5l83 -247l95 -270l98 -276l93 -260q-25 -141 -37.5 -256.5t-26.5 -203.5q-4 -53 10.5 -81t59.5 -57q45 -18 98 -35.5t102 -29.5q53 -12 71.5 -4t29.5 49l47 228q25 118 59 255l187 271l182 274l154 248q69 115 104 192 q14 33 22.5 56.5t7.5 44t-11.5 40t-28.5 42.5q-33 31 -79 69.5t-93 62t-88 20.5t-60 -54l-213 -375l-217 -360l-106 333q-51 158 -99 281q-33 66 -60.5 97.5t-89 46t-119.5 11.5t-122 -8q-53 -10 -64.5 -29.5zM125 2165q-2 -47 14.5 -85t44 -65.5t64.5 -41t78 -11.5 q39 0 71.5 15.5t55 38t36 47t17.5 42.5q12 27 12 60q0 53 -34.5 101t-112.5 75q-53 18 -98.5 9t-77 -34.5t-50 -65.5t-20.5 -85zM760 2165q-4 -49 10 -88t41 -65.5t63.5 -41t77.5 -12.5q41 0 74 15.5t56.5 38t39 48t21.5 43.5q2 16 5 29.5t3 32.5q4 49 -28.5 98t-104.5 76 q-55 16 -100.5 7t-79 -34.5t-54 -64.5t-24.5 -82z" />
<glyph unicode="&#x2c6;" horiz-adv-x="1372" d="M311 2265q-31 -47 8 -102q23 -33 43 -55l44 -44q27 -25 43 -24q23 0 34 24l126 157q67 85 149 175q29 -104 50 -196.5t42 -151.5q25 -59 86 -74q35 -10 65.5 -13t59.5 -3q35 -2 45 10t4 43l-32 123l-35 146q-17 77 -32.5 158t-25.5 155q-4 25 -8 41t-10 28.5t-15 23.5 l-18 26q-27 23 -55 43l-58 43q-29 18 -54.5 17t-53.5 -36q-59 -59 -119 -130l-113 -140q-53 -70 -97 -134z" />
<glyph unicode="&#x2dc;" horiz-adv-x="1519" d="M201 2101q2 -41 32.5 -60.5t83.5 -19.5q63 0 109 29q2 0 19 14l40 32q23 17 47.5 31.5t45.5 14.5q25 0 61.5 -6t73.5 -15.5t69.5 -21.5t48.5 -26q74 -55 236 -56q111 0 246 103q76 53 111.5 100t37.5 86q2 37 -45 68q-41 20 -88 20q-51 0 -104 -41l-27 -26l-38.5 -37 t-40 -33t-29.5 -14q-35 2 -69 15t-68 29l-65 30q-32 15 -63 26q-55 20 -103 30.5t-99 10.5q-43 0 -105.5 -21.5t-123 -53.5t-109.5 -67.5t-66 -66.5q-18 -41 -18 -74z" />
<glyph unicode="&#x2000;" horiz-adv-x="1411" />
<glyph unicode="&#x2001;" horiz-adv-x="2824" />
<glyph unicode="&#x2002;" horiz-adv-x="1411" />
<glyph unicode="&#x2003;" horiz-adv-x="2824" />
<glyph unicode="&#x2004;" horiz-adv-x="940" />
<glyph unicode="&#x2005;" horiz-adv-x="704" />
<glyph unicode="&#x2006;" horiz-adv-x="468" />
<glyph unicode="&#x2007;" horiz-adv-x="468" />
<glyph unicode="&#x2008;" horiz-adv-x="352" />
<glyph unicode="&#x2009;" horiz-adv-x="563" />
<glyph unicode="&#x200a;" horiz-adv-x="155" />
<glyph unicode="&#x2010;" horiz-adv-x="1212" d="M-242 956q29 -47 60.5 -91t77.5 -91q43 -47 79.5 -61.5t79.5 -1.5q156 41 339.5 60.5t361.5 31.5q51 2 65.5 18.5t-6.5 67.5q-20 41 -39.5 86t-50.5 98q-33 45 -68.5 67.5t-83.5 22.5q-102 0 -211.5 -7t-216 -17.5t-199.5 -24.5t-161 -29q-101 -18 -27 -129z" />
<glyph unicode="&#x2011;" horiz-adv-x="1212" d="M-242 956q29 -47 60.5 -91t77.5 -91q43 -47 79.5 -61.5t79.5 -1.5q156 41 339.5 60.5t361.5 31.5q51 2 65.5 18.5t-6.5 67.5q-20 41 -39.5 86t-50.5 98q-33 45 -68.5 67.5t-83.5 22.5q-102 0 -211.5 -7t-216 -17.5t-199.5 -24.5t-161 -29q-101 -18 -27 -129z" />
<glyph unicode="&#x2012;" horiz-adv-x="1212" d="M-242 956q29 -47 60.5 -91t77.5 -91q43 -47 79.5 -61.5t79.5 -1.5q156 41 339.5 60.5t361.5 31.5q51 2 65.5 18.5t-6.5 67.5q-20 41 -39.5 86t-50.5 98q-33 45 -68.5 67.5t-83.5 22.5q-102 0 -211.5 -7t-216 -17.5t-199.5 -24.5t-161 -29q-101 -18 -27 -129z" />
<glyph unicode="&#x2013;" horiz-adv-x="1703" d="M-80 786q47 -72 146 -147q51 -39 100 -50t119 -1q246 31 523 47t542 27q76 2 103.5 15t10.5 54q-16 33 -28.5 71t-46.5 79q-53 74 -195 73q-150 0 -315.5 -5t-325.5 -14t-302 -20.5t-245 -23.5q-156 -17 -86 -105z" />
<glyph unicode="&#x2014;" horiz-adv-x="2592" d="M-115 786q25 -37 63 -72.5t89 -74.5q53 -39 102 -50t119 -1q61 8 171 14t253 12.5t308 10.5l335 8q170 4 337 7t312.5 6t260 5t180.5 4q76 4 104.5 17.5t11.5 54.5q-12 33 -23 71t-46 79q-45 72 -193 71q-74 0 -202 -1t-287.5 -3t-342 -5t-366.5 -7t-361.5 -9 t-324.5 -10.5t-257 -10.5t-161 -11q-156 -17 -82 -105z" />
<glyph unicode="&#x2018;" horiz-adv-x="804" d="M54 1903.5q5 -31.5 17.5 -73.5t24.5 -104q18 -51 40 -104l44.5 -102.5t46 -92.5t43.5 -71q49 -80 123 -111q35 -12 77 -20t79 -13q100 -12 67 76q-23 61 -52 156l-62 197l-64 207q-31 103 -51 184q-29 96 -135 65l-84 -37q-41 -18 -70 -41q-31 -31 -40 -57.5t-4 -58z" />
<glyph unicode="&#x2019;" horiz-adv-x="712" d="M123 1325q-18 -84 78 -82q94 0 155 19q39 12 62.5 33.5t48.5 66.5q16 37 35.5 95.5t38 124t34 133t23.5 124.5q2 29 2 51q0 23 -6 42.5t-19.5 39t-37.5 39.5q-72 55 -170 94q-55 25 -85 15.5t-38 -68.5q-10 -78 -26 -177l-32 -202q-16 -102 -33 -194z" />
<glyph unicode="&#x201a;" horiz-adv-x="712" d="M152 -225q-18 -66 67 -64q82 0 137 13q33 10 53.5 26.5t43.5 50.5q14 31 31.5 75t34 95.5t29.5 103.5t21 95q2 43 -5 71.5t-50 61.5q-31 20 -69.5 38.5t-79.5 33.5q-47 18 -73 11t-34 -52l-24 -136l-27 -156q-14 -79 -28.5 -149.5t-26.5 -117.5z" />
<glyph unicode="&#x201c;" horiz-adv-x="1191" d="M-70.5 1909q7.5 -37 26.5 -81t48 -97q53 -100 111.5 -196.5t107.5 -156.5q35 -43 65.5 -64.5t73.5 -35.5q39 -10 79 -13t81 -5q92 -6 49 81l-72 154l-92 195l-94 202q-45 100 -75 179q-39 102 -140 53q-84 -43 -137 -92q-25 -27 -32 -56.5t0.5 -66.5zM510 1945.5 q-6 -32.5 14 -90.5q10 -57 32 -127.5t49.5 -140t58 -131t59.5 -100.5q27 -43 53.5 -68.5t67.5 -42.5q31 -12 72.5 -20t80.5 -13q100 -12 68 76l-49 156l-60 197q-31 103 -58 207l-48 184q-23 96 -131 65l-84 -37q-41 -18 -74 -41q-45 -41 -51 -73.5z" />
<glyph unicode="&#x201d;" horiz-adv-x="1179" d="M94 1325q-8 -43 10.5 -63.5t69.5 -18.5q96 0 156 19q37 12 60.5 33.5t45.5 66.5q16 37 34.5 95.5t36 124t32 133t20.5 124.5q2 57 -6 94t-59 78q-76 57 -172 94q-55 25 -85 15.5t-38 -68.5q-8 -78 -22 -177l-27 -202q-14 -102 -29 -194.5t-27 -153.5zM584 1331 q-35 -84 65 -90q88 -16 156 2q41 6 68.5 26.5t56.5 61.5q33 41 70.5 116t70.5 155.5t53.5 154.5t18.5 115t-45 84q-31 31 -71 57l-83 53q-104 66 -133 -38q-18 -76 -49 -174l-64 -194l-63 -184z" />
<glyph unicode="&#x201e;" horiz-adv-x="1179" d="M156 -217q-14 -66 69 -64q41 0 76 2.5t61 10.5q33 10 53.5 26.5t41.5 51.5q14 29 30.5 73.5t32 96t27.5 103.5t18 95q2 45 -5 73t-52 60q-33 20 -72 39t-80 33q-47 18 -73.5 12t-32.5 -53l-20 -136q-11 -77 -24 -156t-26.5 -149.5t-23.5 -117.5zM586 -213q-31 -63 59 -70 q76 -12 137 2q35 4 58.5 20.5t50.5 47.5q29 33 62.5 90t61 119.5t46 119t16.5 87.5q-6 37 -41 65q-27 23 -61 43l-74 43q-43 23 -73.5 15.5t-43.5 -45.5q-16 -59 -42 -134l-54 -149l-56 -143z" />
<glyph unicode="&#x2022;" horiz-adv-x="995" d="M43 809q-2 -92 30.5 -165t90 -124t134.5 -76.5t163 -21.5q84 0 150.5 28.5t115.5 70.5t81 89t44 82q8 29 12 55.5t6 61.5q2 47 -14 96t-52 93t-92.5 83t-133.5 64q-117 35 -214.5 17.5t-167 -68t-109.5 -126t-44 -159.5z" />
<glyph unicode="&#x2026;" horiz-adv-x="2306" d="M-72 150q0 -47 20.5 -85t52.5 -64t75 -40t90 -12q45 0 81 15.5t60.5 37t39.5 46t20 42.5q4 14 6 28.5t0 31.5q-2 47 -43 95t-127 74q-63 16 -114.5 8t-86.5 -33.5t-54.5 -63t-19.5 -80.5zM748 150q-4 -47 14 -85t51 -64t75 -40t89 -12q45 0 82 15.5t62.5 37t43 46 t23.5 42.5q8 25 8 60q2 47 -36 95t-120 74q-61 16 -113.5 8t-91 -33.5t-62 -63t-25.5 -80.5zM1571 150q-6 -47 10 -85t46 -64t71 -40t88 -12q45 0 83 15.5t66.5 37t47 46t24.5 42.5q6 14 10 28.5t4 31.5q4 47 -29.5 95t-115.5 74q-61 16 -113.5 8t-93.5 -33.5t-66.5 -63 t-31.5 -80.5z" />
<glyph unicode="&#x202f;" horiz-adv-x="563" />
<glyph unicode="&#x2039;" horiz-adv-x="1069" d="M-55 731q0 -14 4 -37q6 -23 37 -39l328 -125q163 -63 307 -135q45 -23 64.5 -16.5t37.5 43.5q20 45 33 127q4 39 -13.5 61.5t-56.5 44.5q-59 33 -139 69l-178 77l229 96q113 47 227 88q47 14 53.5 34.5t-22.5 55.5q-49 61 -119 125q-29 25 -52 33t-53 5t-69 -17.5 t-96 -32.5q-53 -20 -111 -45l-112 -49l-107 -50l-90 -45q-35 -14 -53.5 -41.5t-26.5 -61.5t-10 -69.5t-8 -68.5q-4 -11 -4 -27z" />
<glyph unicode="&#x203a;" horiz-adv-x="1136" d="M-42 633.5q-13 -19.5 15 -51.5l78 -73q39 -36 74 -60q39 -27 62.5 -29t58.5 16q123 51 252 92t293 88q23 8 39 15.5t28 16.5t20.5 22.5t18.5 34.5q16 33 29.5 71.5t25.5 83.5q16 51 0 70.5t-55 40.5q-88 43 -185 85l-194 81q-96 39 -186 71.5t-160 55.5q-39 12 -66.5 5 t-35.5 -42q-4 -43 -2 -96.5t12 -88.5q8 -23 15 -36t17.5 -23t26 -17.5t39.5 -13.5l156 -56q78 -28 155 -62q-141 -39 -270 -83t-219 -83q-29 -15 -42 -34.5z" />
<glyph unicode="&#x205f;" horiz-adv-x="704" />
<glyph unicode="&#x2122;" horiz-adv-x="1931" d="M-132 1705q-7 -9 7 -38l38 -68q22 -39 50 -67q27 -25 45.5 -31t46.5 2q25 6 58.5 10.5t70.5 10.5q-16 -86 -31.5 -188.5t-27.5 -204t-20.5 -193.5t-8.5 -156q-8 -53 25 -76.5t88 -39.5q53 -16 86 -22.5t37 30.5q14 98 33 209l38 226l42 231l42 223q63 6 120 12t104 12 q37 2 43 12.5t-2 38.5q-23 66 -72 125q-16 16 -32.5 24.5t-53.5 8.5q-72 -4 -163 -10t-185 -16.5t-185.5 -22.5t-162.5 -27q-23 -6 -30 -15zM692 768q-4 -37 7.5 -55.5t39.5 -34.5q53 -27 113 -39q33 -8 43 0t20 31q6 57 18.5 130.5t29 156.5l35.5 172l40 178 q12 -129 32 -252t42 -217q10 -47 22.5 -64.5t41.5 -28.5q20 -8 41.5 -13t44.5 -9q35 -8 45 0t22 35q20 47 56 116l78 148l86 158l83 145q-23 -78 -42 -159l-37 -156q-17 -76 -29.5 -138.5t-18.5 -101.5q-6 -35 3.5 -55.5t39.5 -36.5q23 -10 53.5 -20.5t59.5 -16.5 q33 -10 44 1t21 36q10 47 28 117l40 152l48 173l50 176l48 164l42 137q14 41 5 63.5t-43 41.5q-53 25 -111 42l-104 32q-41 12 -69 10t-50.5 -21.5t-44 -56.5t-49.5 -92q-31 -49 -62 -107l-61 -113l-59 -112q-28 -55 -48 -102l-25 207l-13.5 116.5t-5.5 56t-1 25.5 q-8 49 -21.5 78t-70.5 51q-45 16 -91 29.5t-110 23.5q-43 4 -64.5 -7t-33.5 -52q-14 -57 -30.5 -135l-33.5 -166l-32 -179q-16 -91 -28.5 -177t-22 -160t-11.5 -125z" />
<glyph unicode="&#xe000;" horiz-adv-x="1795" d="M0 1795h1795v-1795h-1795v1795z" />
<glyph unicode="&#xfb01;" horiz-adv-x="1806" d="M1040 170q-2 -15 -2 -29q0 -33 11 -54q15 -30 63 -52q43 -23 91 -37l101 -29q29 -7 48 -6q15 0 23 4q17 10 28 45l44 210l56 250l63 270l67 271q34 132 68 251l62 211q8 31 8 53q0 18 -5 31q-11 29 -69 67q-55 37 -128.5 70t-137.5 49q-37 11 -63 11q-19 0 -32 -6 q-32 -13 -50 -73q-23 -96 -49.5 -224t-52.5 -271l-50 -293q-25 -150 -44 -285t-32.5 -248.5t-17.5 -185.5zM-117 172q0 -53 10.5 -82t61.5 -53q39 -16 91 -34.5t99 -26.5q24 -4 44 -3.5t36 3.5q33 7 35 44l54 253q30 142 69 300q117 25 235.5 47.5t235.5 41.5q55 6 71 23 q7 8 7 24t-8 41q-10 41 -23.5 80.5t-38.5 80.5q-41 64 -129 64h-16q-63 -2 -124 -7t-120 -12q35 111 56.5 211.5t50.5 184.5q145 20 277 34.5t255 30.5q61 8 76 26q9 11 9 36q0 15 -3 34q-8 88 -64 181q-18 29 -34.5 46t-34 26.5t-39 12.5t-51.5 3q-123 -4 -249 -14.5 t-247 -26t-230.5 -34.5t-197.5 -44q3 -43 3 -92q0 -65 -5 -141q-8 -133 -25.5 -279.5t-39.5 -296.5l-43 -282l-36 -237q-16 -106 -18 -163z" />
<glyph unicode="&#xfb02;" horiz-adv-x="2256" d="M1028 262q-3 -16 -3 -30q0 -32 13 -57q18 -36 53 -64l76 -61q29 -24 63 -46q14 -10 30 -18.5t38 -13.5q16 -4 36 -3h17q31 2 76 15l259 50l265 50q63 12 71 27q2 5 2 12q0 16 -9 45q-8 35 -23.5 73t-40.5 74q-25 39 -54 51q-22 8 -58 8q-13 0 -29 -1q-96 -6 -178 -14.5 t-176 -24.5l70 296q38 155 80 310l84 303q42 147 83 270q11 31 11 54q0 16 -6 28q-13 29 -66 68q-55 37 -129 66.5t-137 46.5q-39 11 -67 11q-17 0 -29 -4q-32 -11 -52 -71q-29 -104 -58.5 -229t-58 -260.5t-53 -271.5t-45 -263t-35 -236.5t-20.5 -189.5zM-117 172 q0 -53 10.5 -82t61.5 -53q39 -16 91 -34.5t99 -26.5q24 -4 44 -3.5t36 3.5q33 7 35 44l54 253q30 142 69 300q117 25 235.5 47.5t235.5 41.5q55 6 71 23q7 8 7 24t-8 41q-10 41 -23.5 80.5t-38.5 80.5q-41 64 -129 64h-16q-63 -2 -124 -7t-120 -12q35 111 56.5 211.5 t50.5 184.5q145 20 277 34.5t255 30.5q61 8 76 26q9 11 9 36q0 15 -3 34q-8 88 -64 181q-18 29 -34.5 46t-34 26.5t-39 12.5t-51.5 3q-123 -4 -249 -14.5t-247 -26t-230.5 -34.5t-197.5 -44q3 -43 3 -92q0 -65 -5 -141q-8 -133 -25.5 -279.5t-39.5 -296.5l-43 -282l-36 -237 q-16 -106 -18 -163z" />
<glyph unicode="&#xfb03;" horiz-adv-x="2973" d="M2208 170q-2 -15 -2 -29q0 -33 11 -54q15 -30 63 -52q43 -23 91 -37l101 -29q29 -7 48 -6q15 0 23 4q17 10 28 45l44 210l56 250l63 270l67 271q34 132 68 251l62 211q8 31 8 53q0 18 -5 31q-11 29 -69 67q-55 37 -128.5 70t-137.5 49q-37 11 -63 11q-19 0 -32 -6 q-32 -13 -50 -73q-23 -96 -49.5 -224t-52.5 -271l-50 -293q-25 -150 -44 -285t-32.5 -248.5t-17.5 -185.5zM1050 172q0 -53 10.5 -82t61.5 -53q39 -16 91 -34.5t99 -26.5q24 -4 44 -3.5t36 3.5q33 7 35 44l54 253q30 142 69 300q117 25 235.5 47.5t235.5 41.5q55 6 71 23 q7 8 7 24t-8 41q-10 41 -23.5 80.5t-38.5 80.5q-41 64 -129 64h-16q-63 -2 -124 -7t-120 -12q35 111 56.5 211.5t50.5 184.5q145 20 277 34.5t255 30.5q61 8 76 26q9 11 9 36q0 15 -3 34q-8 88 -64 181q-18 29 -34.5 46t-34 26.5t-39 12.5t-51.5 3q-123 -4 -249 -14.5 t-247 -26t-230.5 -34.5t-197.5 -44q3 -43 3 -92q0 -65 -5 -141q-8 -133 -25.5 -279.5t-39.5 -296.5l-43 -282l-36 -237q-16 -106 -18 -163zM-117 172q0 -53 10.5 -82t61.5 -53q39 -16 91 -34.5t99 -26.5q24 -4 44 -3.5t36 3.5q33 7 35 44l54 253q30 142 69 300 q117 25 235.5 47.5t235.5 41.5q55 6 71 23q7 8 7 24t-8 41q-10 41 -23.5 80.5t-38.5 80.5q-41 64 -129 64h-16q-63 -2 -124 -7t-120 -12q35 111 56.5 211.5t50.5 184.5q145 20 277 34.5t255 30.5q61 8 76 26q9 11 9 36q0 15 -3 34q-8 88 -64 181q-18 29 -34.5 46t-34 26.5 t-39 12.5t-51.5 3q-123 -4 -249 -14.5t-247 -26t-230.5 -34.5t-197.5 -44q3 -43 3 -92q0 -65 -5 -141q-8 -133 -25.5 -279.5t-39.5 -296.5l-43 -282l-36 -237q-16 -106 -18 -163z" />
<glyph unicode="&#xfb04;" horiz-adv-x="3424" d="M2196 262q-3 -16 -3 -30q0 -32 13 -57q18 -36 53 -64l76 -61q29 -24 63 -46q14 -10 30 -18.5t38 -13.5q16 -4 36 -3h17q31 2 76 15l259 50l265 50q63 12 71 27q2 5 2 12q0 16 -9 45q-8 35 -23.5 73t-40.5 74q-25 39 -54 51q-22 8 -58 8q-13 0 -29 -1q-96 -6 -178 -14.5 t-176 -24.5l70 296q38 155 80 310l84 303q42 147 83 270q11 31 11 54q0 16 -6 28q-13 29 -66 68q-55 37 -129 66.5t-137 46.5q-39 11 -67 11q-17 0 -29 -4q-32 -11 -52 -71q-29 -104 -58.5 -229t-58 -260.5t-53 -271.5t-45 -263t-35 -236.5t-20.5 -189.5zM1050 172 q0 -53 10.5 -82t61.5 -53q39 -16 91 -34.5t99 -26.5q24 -4 44 -3.5t36 3.5q33 7 35 44l54 253q30 142 69 300q117 25 235.5 47.5t235.5 41.5q55 6 71 23q7 8 7 24t-8 41q-10 41 -23.5 80.5t-38.5 80.5q-41 64 -129 64h-16q-63 -2 -124 -7t-120 -12q35 111 56.5 211.5 t50.5 184.5q145 20 277 34.5t255 30.5q61 8 76 26q9 11 9 36q0 15 -3 34q-8 88 -64 181q-18 29 -34.5 46t-34 26.5t-39 12.5t-51.5 3q-123 -4 -249 -14.5t-247 -26t-230.5 -34.5t-197.5 -44q3 -43 3 -92q0 -65 -5 -141q-8 -133 -25.5 -279.5t-39.5 -296.5l-43 -282l-36 -237 q-16 -106 -18 -163zM-117 172q0 -53 10.5 -82t61.5 -53q39 -16 91 -34.5t99 -26.5q24 -4 44 -3.5t36 3.5q33 7 35 44l54 253q30 142 69 300q117 25 235.5 47.5t235.5 41.5q55 6 71 23q7 8 7 24t-8 41q-10 41 -23.5 80.5t-38.5 80.5q-41 64 -129 64h-16q-63 -2 -124 -7 t-120 -12q35 111 56.5 211.5t50.5 184.5q145 20 277 34.5t255 30.5q61 8 76 26q9 11 9 36q0 15 -3 34q-8 88 -64 181q-18 29 -34.5 46t-34 26.5t-39 12.5t-51.5 3q-123 -4 -249 -14.5t-247 -26t-230.5 -34.5t-197.5 -44q3 -43 3 -92q0 -65 -5 -141q-8 -133 -25.5 -279.5 t-39.5 -296.5l-43 -282l-36 -237q-16 -106 -18 -163z" />
</font>
</defs>
</svg>
