<?xml version="1.0" standalone="no"?>
<!DOCTYPE svg PUBLIC "-//W3C//DTD SVG 1.1//EN" "http://www.w3.org/Graphics/SVG/1.1/DTD/svg11.dtd" >
<svg xmlns="http://www.w3.org/2000/svg">
<metadata>
This is a custom SVG webfont generated by Font Squirrel.
Copyright   : Florante at Laura Font  Edgar Tadeo
</metadata>
<defs>
<font id="webfontUdYh0Pqr" horiz-adv-x="1144" >
<font-face units-per-em="2048" ascent="1638" descent="-410" />
<missing-glyph horiz-adv-x="927" />
<glyph unicode=" "  horiz-adv-x="927" />
<glyph unicode="&#x09;" horiz-adv-x="927" />
<glyph unicode="&#xa0;" horiz-adv-x="927" />
<glyph unicode="!" horiz-adv-x="964" d="M150 -29q0 84 159 201q145 109 203 109q39 0 88 -30t47 -30q8 0 41 27q43 33 53 39h27q6 -8 6 -21q0 -72 -149.5 -222t-216.5 -150q-18 0 -78 41.5t-84 41.5q10 0 -82 -24q-14 14 -14 18zM197 1280q0 55 157.5 206.5t206.5 151.5q12 0 53 -48t41 -56v-596q0 -6 -6 -14.5 t-6 -14.5v-231l78 -60q-10 -39 -115 -159q-119 -137 -176 -137q2 0 -90 55v268q0 8 6 16.5t6 16.5v569q0 12 -20.5 35t-30.5 23q-6 0 -40 -19.5t-50 -21.5q-14 14 -14 16z" />
<glyph unicode="&#x22;" horiz-adv-x="1398" d="M147 1272q4 41 127 196q139 176 218 177q59 0 102 -80q37 -66 37 -117q0 -119 -137.5 -287t-262.5 -192q37 74 88 145q14 18 15 105q0 31 -74 104q-8 -4 -41 -27.5t-41 -23.5h-31zM731 1354v37q-2 45 157 190t197 145q49 0 105 -129q47 -109 47 -137q0 -92 -121 -235 q-111 -131 -213 -187l-31 6q4 23 35 72q27 43 27 80q0 51 -23 96q-12 25 -73 113q-68 -51 -76 -51h-31z" />
<glyph unicode="#" horiz-adv-x="1910" d="M137 889q-4 47 123 180q109 111 203 184l-68 41q-43 27 -71 23q-8 6 -9 18q0 55 117 157.5t158 102.5q20 0 90 -32.5t70 -51.5v-340q135 -37 211 -36q76 0 206 36v70l-86 66q-74 61 -73 84q0 39 111.5 149.5t154.5 110.5q45 -29 80 -56q82 -63 98 -106l4 -225 q59 14 164 100q115 96 147 111h31q-6 -37 -37 -80l-53 -68l-125 -119q-115 -115 -115 -137l7 -303q-8 -20 22.5 -30.5t56 -17.5t86.5 -38q51 -25 60 -25q4 0 39 25t41 25h28q-23 -115 -295 -318q27 -66 142 -149q16 -33 -98.5 -157t-163.5 -124q-20 0 -106.5 94t-86.5 103 v303h-276q-55 0 -174 -31v-86q33 -18 192 -115q-6 -37 -106 -153q-109 -125 -160 -125q-12 0 -112.5 67.5t-98.5 71.5v285q-74 -4 -158 -60q-123 -80 -160 -96q-8 6 -8 19q0 55 146 184q104 90 190 147v318q-16 20 -91 58t-83 38q-4 0 -49 -37q-57 -43 -88 -61zM750 664 q295 63 438 75q-2 70 -8 146q-2 55 -2 73q-242 -82 -416 -104q0 -16 -6 -51t-6 -39v-100z" />
<glyph unicode="$" horiz-adv-x="1501" d="M201 305q94 203 248 270q106 49 315 50q98 0 121 -2q57 -6 194 -39q-16 57 -116 114q-88 53 -136 54h-229q-68 0 -135 39q-84 49 -84 129q0 45 41 120.5t139 171.5q82 78 82 105t-4 33q-23 16 -45 34q-27 -16 -80 -43q-6 8 -6 17q0 41 127 160.5t164 119.5q94 0 94 -211 q0 -59 -19 -84q8 -16 82 -38.5t136 -22.5q74 0 210 92l29 -6q-45 -115 -191.5 -220.5t-263.5 -105.5q-59 0 -129 23q-98 31 -118 35q47 -111 200 -111h226q20 0 94 -28q115 -47 164 -132q39 -68 39 -157q0 -49 -2 -56q-8 -27 -150 -188q-158 -180 -209 -180l-51 38 q-51 38 -82 48q-23 -96 -99.5 -194.5t-172.5 -153.5h-23v20q61 172 62 252q0 86 -7 125q-139 4 -202 -4q-113 -14 -187 -74h-26z" />
<glyph unicode="%" horiz-adv-x="1914" d="M94 2q0 25 35 66q61 76 147 151q117 104 179 105h143q78 137 156 251l354 453l182 279q135 188 264 235q76 -70 129 -69q14 0 72 34q66 43 74 45h24q-4 -72 -166.5 -213t-248.5 -141q-6 0 -34 8t-34 8l-432 -567q-70 -92 -144.5 -239.5t-121.5 -208.5q-82 -111 -217 -205 h-25q0 2 -4 18q0 8 -8 8q-6 0 -7 -3t-10 -3l-34 17q-35 16 -93 16q-80 0 -86 -16q-10 -29 -86 -47q-8 6 -8 18zM305 1065q0 111 119 252q102 121 244 219q135 94 192 94q76 0 123 -61q39 -53 39 -121q0 -121 -168 -274q-49 -47 -301 -240q-18 -12 -86 -12q-162 0 -162 143z M580 1341q0 -66 2 -73.5t41 -38.5t53 -31h72v31q0 37 -44.5 81t-85.5 44q-26 -1 -38 -13zM1137 272q0 72 6 93q29 86 168 229q125 129 215 186q31 18 141 19q186 0 186 -162q0 -129 -226 -343t-345 -214q-145 -1 -145 192zM1411 461q0 -35 38 -70t79 -35q35 0 51 17 q4 25 -20 84q-31 66 -64 65h-84v-61z" />
<glyph unicode="&#x26;" horiz-adv-x="1980" d="M139 293q0 92 78 223q68 117 174 227q-252 70 -252 289q0 178 162 383q176 223 377 223q123 0 213 -88t90 -207q0 -96 -109 -223q14 0 50 6.5t41 6.5q131 0 239 -136q98 -125 111 -266l196 230q137 145 252 178q12 -10 2 -29q51 -29 54 -29q-2 0 30 0q23 0 37 4 q49 20 98 37q-16 -82 -151 -195.5t-217 -113.5q-41 0 -61.5 14.5t-30.5 16.5l-305 -395q61 -100 278 -101q74 0 139 41q35 20 90 74q41 41 58 41h28q-47 -135 -233 -279.5t-315 -144.5q-72 0 -164 24q-127 35 -137 91q-258 -207 -426 -207q-96 0 -234 86q-162 102 -162 219z M401 526q0 -96 158 -190q135 -80 213 -80q90 0 172 51q102 63 103 170q0 117 -84 242q-96 145 -234 145q-115 0 -221.5 -112.5t-106.5 -225.5zM401 1270q0 -94 76 -177t170 -83q29 0 49.5 34.5t20.5 61.5q0 80 -68 168q-74 96 -157 96h-89v-57q-2 -25 -2 -43z" />
<glyph unicode="'" horiz-adv-x="849" d="M145 1272q4 41 127 196q139 176 217 177q59 0 103 -80q37 -66 37 -117q0 -119 -137.5 -287t-262.5 -192q37 74 88 145q14 18 15 105q0 31 -74 104q-8 -4 -41 -27.5t-41 -23.5h-31z" />
<glyph unicode="(" horiz-adv-x="1032" d="M104 602q0 133 101 381q104 260 241 438q160 211 293 211q63 -59 144 -59q27 0 78 16v-30q2 -6 -55.5 -80t-129.5 -127q-82 -61 -139 -62q-25 0 -107 27q-66 -88 -107.5 -223.5t-41.5 -243.5q0 -145 79 -305t181 -211l68 -43q59 -31 90 -31q4 0 32.5 15.5t53.5 21.5v-25 q2 -63 -138.5 -179t-189.5 -116q-33 0 -102 37l-78 43q-129 59 -209 250q-64 156 -64 295z" />
<glyph unicode=")" horiz-adv-x="1253" d="M170 45q23 88 151 197.5t214 109.5q51 0 111.5 -22.5t90.5 -50.5q117 133 117 452q0 176 -61 328q-90 215 -287 303q-43 -33 -105 -57q-18 12 -18 22q0 59 146.5 185t197.5 126q6 0 121 -71q150 -94 221 -281q57 -147 57 -313q0 -233 -114.5 -466t-309.5 -401l-77 -69 q-61 -49 -93 -49q-6 0 -80.5 47t-146.5 47q-29 0 -69.5 -18.5t-38.5 -18.5h-27z" />
<glyph unicode="*" horiz-adv-x="1695" d="M119 492q135 254 315 253q80 0 101 -24l124 125q-80 70 -294 239q-4 -2 -58 -41q-41 -33 -71 -34q6 66 143 192.5t186 126.5q100 -100 168 -160q2 57 17 168q-72 55 -72 82t89 120t120 93q8 0 37 -30q39 -43 49 -52q0 -29 -10 -86l4 -354q6 4 190 184q123 117 209 168h27 q0 -2 -3.5 -13t-3.5 -19q35 -16 68 -17q29 0 94 43h27q-29 -80 -133.5 -174t-177.5 -94q-8 0 -41 6t-39 6q-14 0 -215 -184q139 -68 205 -86q57 -14 153 -15q104 0 146 37q63 55 126 78q-53 -139 -208 -242q-145 -98 -271 -98q-106 0 -147 19l-94 -275q-82 -180 -244 -258 q115 313 115 461q0 4 -17 170q-59 -33 -185 -175.5t-196 -176.5h-26q0 2 3 8t3 16q0 45 -94 41q-49 0 -91 -28h-28z" />
<glyph unicode="+" horiz-adv-x="1449" d="M209 471q0 61 158 191q150 123 190 122q20 0 43 -26q2 2 2 131q-10 6 -63 43q-39 25 -47 24q-6 0 -17.5 -8t-17.5 -6h-27v23q0 31 130 153.5t183 126.5q8 -27 58 -55q57 -33 69 -47v-215l21 -209q6 -4 39 -4q100 0 192 57q111 68 140 74q6 0 6 -12q0 -43 -111 -150 q-80 -76 -121 -102q-63 -45 -145 -90q16 -123 -107 -279q-113 -145 -247 -211q-12 12 -13 16q0 14 49.5 84t49.5 107v229q-113 8 -213 21q-12 2 -45 24.5t-37 22.5q-8 0 -46 -26.5t-44 -26.5h-23q-6 8 -6 18z" />
<glyph unicode="," horiz-adv-x="901" d="M270 31q0 43 112 146.5t157 103.5q72 0 71 -119q0 -129 -83 -252t-228 -203l-4 17l55 92q33 63 33 141q0 47 -10 66q-4 8 -33 26q-43 -29 -68 -29q-2 5 -2 11z" />
<glyph unicode="-" d="M129 598v23q0 45 142.5 178t185.5 133q6 0 162.5 -45t162.5 -45q82 0 152 42t67 42h27q-43 -127 -200.5 -241t-288.5 -114l-285 82l-96 -55h-29z" />
<glyph unicode="." horiz-adv-x="823" d="M238 35q0 43 91 117.5t132 74.5q10 0 78 -67q23 18 51 35h20q2 -31 -90 -127.5t-131 -96.5q-16 0 -46 35t-44 35q2 0 -49 -21q-12 9 -12 15z" />
<glyph unicode="/" horiz-adv-x="1449" d="M186 6q0 14 260 397q285 422 336 512q96 147 213 357q23 61 135 190q123 139 197 170h25v-26q2 -6 -70 -142q-80 -147 -123 -211q-2 -4 -346 -536q-229 -352 -393 -561q-29 -37 -88 -90q-74 -66 -119 -84h-27v24z" />
<glyph unicode="0" horiz-adv-x="1503" d="M178 457v483q0 98 164 279q141 154 323.5 288.5t235.5 126.5q256 -172 338 -385q53 -135 53 -387q0 -133 -6 -180q-6 -57 -8 -78q-2 -129 -262 -375q-266 -250 -416 -249q-45 0 -63 6q-27 8 -48 10q-55 27 -131 108q-86 98 -131 207q-49 117 -49 146zM524 803 q0 -94 127 -281q137 -197 240 -196h37q2 27 10 114q8 82 8 111q0 127 -16 186q2 33 -2 76q-16 31 -37 100q-16 57 -60 123q-37 59 -118 140q-100 96 -148 96q-10 0 -25.5 -18.5t-15.5 -26.5v-424z" />
<glyph unicode="1" horiz-adv-x="937" d="M96 1059v37q0 51 216 289.5t292 252.5h25v-886q0 -6 9 -15.5t9 -17.5v-256q113 -84 168 -119q-51 -111 -176 -229q-137 -133 -221 -123q-16 29 -66 61l-71 47v258q-4 18 -11 37q-10 35 -6 60l-4 700l-61 -49q-63 -47 -78 -47h-25z" />
<glyph unicode="2" horiz-adv-x="1581" d="M53 -6q72 252 633 711q43 49 133 135q82 66 107 94q37 45 37 98q0 98 -93 176q-86 72 -172 72h-145q-6 -82 -135 -215q-121 -125 -221 -168q-10 20 -47 64v143q0 80 267 306t359 226h80q59 2 64 2q184 0 278 -51q123 -66 123 -227q0 -145 -152 -338q-113 -143 -331 -338 l-334 -287q2 -2 16 -2q6 0 59.5 16.5t59.5 16.5h215q4 0 38 8t91 8q8 0 147.5 -8t145.5 -8q145 0 176 7t98 40q61 29 68 29h29v-31q0 -70 -185 -215q-147 -117 -202 -141q-98 -43 -144 -47q-4 -2 -168 -2q-127 0 -209 8t-84 8q-6 0 -75.5 -10.5t-73.5 -10.5q-6 0 -46 2.5 t-48 2.5q-82 0 -183 -31q-68 -27 -137 -51z" />
<glyph unicode="3" horiz-adv-x="1740" d="M86 49q219 383 528 383q57 0 302 -58.5t243 -58.5q82 0 82 195q0 111 -104 205q-98 88 -199 88q-35 0 -179.5 -33t-164.5 -43l-148 -84l-26 8q31 111 155 234q305 305 355 358l-459 4q-51 14 -59 15q-8 0 -82 -55.5t-80 -55.5h-33q-6 8 -6 18q0 61 187.5 265t252.5 204 q6 0 56 -16q63 -20 104 -31l565 -8q-33 -109 -211 -262q-199 -170 -237 -240q51 18 157 41q117 25 166 25q80 0 183 -60q117 -68 149 -159q2 -6 2 -107q0 -16 2 -38.5t2 -34.5q0 -51 -43 -156q-74 -170 -289 -385q-246 -246 -413 -246q2 0 -226.5 63.5t-322.5 63.5 q-47 0 -76 -10q-53 -25 -102 -37z" />
<glyph unicode="4" horiz-adv-x="1521" d="M104 332q76 332 570 932q-41 29 -82 28q-74 0 -217 -88q-160 -102 -191 -110q55 168 316 358q254 186 407 186q53 0 88 -20q57 -31 70 -35v-33l-236 -278q-244 -285 -272 -379q-35 -74 -84 -213q25 4 86 20l59 15h216q-2 0 106 16q2 4 2 21q0 31 -10 98l-10 68 q0 82 126 215t218 155q10 -47 22 -151q6 -109 6 -191q0 -2 -10 -82t-12 -133h135q4 0 14.5 8.5t18.5 8.5h49v-31q0 -35 -111 -148l-116 -112q-6 -14 -7 -49q0 -41 2 -43q10 -14 48 -43q27 -18 26 -48q0 -76 -155 -206q-143 -121 -183 -121q-6 8 -57 57q-41 37 -41 45 q0 6 7 21.5t7 21.5q10 59 19 160v135h-289q-6 0 -35 -8t-35 -8h-211q4 0 -202 -47z" />
<glyph unicode="5" horiz-adv-x="1622" d="M20 53q0 61 136 193q113 111 153 131q33 16 86 39q168 23 191 22q-6 0 123 -51t213 -51q78 0 106 14q12 180 -123 309q-125 121 -287 121q-111 0 -217 -49l-36 8q-4 20 104 176q123 176 149 259q57 162 193 307q147 156 270 155q-14 0 88.5 -41t216.5 -41q119 0 168 37 q109 82 170 111q14 -14 15 -19q0 -61 -154 -219q-143 -150 -197 -174l-106 -49q-102 -43 -154 -43q29 0 -163 4q-92 2 -113 33q-20 -29 -43 -55q-25 -37 -27 -64q41 16 154 17q186 0 315 -125t129 -301q0 -147 -147 -328q-121 -150 -299 -275q-160 -117 -229.5 -122 t-180.5 -5q-16 0 -142 51.5t-124 51.5q-6 0 -47 -10.5t-47 -10.5t-17.5 3.5t-17.5 3.5q-8 0 -41 -13q-39 -16 -61 -20q-7 8 -7 20z" />
<glyph unicode="6" horiz-adv-x="1665" d="M154 467q0 154 14 203l53 164q47 176 277 438q236 272 403 325q4 2 30.5 19.5t43.5 17.5q-6 0 53 -31.5t113 -31.5q70 0 106 16q70 33 125 47q6 -6 6 -20q0 -90 -180 -232q-158 -125 -209 -133q-23 -12 -71 -28q-45 -6 -148 -7q-33 0 -67.5 27t-38.5 27q-68 0 -158 -369 l2 -166q133 184 317 299q174 106 324 107q115 0 229 -84q131 -96 131 -230q0 -90 -63 -184q-43 -66 -170 -203q-23 -43 -88 -129q-162 -168 -264 -241q-154 -111 -285 -111q-92 0 -174 39l-98 55q-106 53 -152 117q-31 43 -59 141q-2 6 -2 158zM532 604q18 -109 179 -207 q145 -90 247 -90q51 0 80 12q20 10 69.5 88t49.5 103q0 113 -133 199q-113 74 -203 73q-84 0 -143 -45z" />
<glyph unicode="7" horiz-adv-x="1566" d="M8 1020q-6 57 252 325.5t336 268.5q4 0 76 -35q88 -43 168 -66q117 -35 231 -34q201 0 557 184l51 -8q4 -47 -118 -170q-10 -10 -183 -170q-94 -88 -391 -461l83 -33q42 -16 106 -16q72 0 98 22q51 41 96 62l39 -8q-51 -147 -235.5 -294t-327.5 -147q-76 0 -174 29 q-66 -141 -178 -276q-131 -160 -244 -207l-39 10q45 186 338 516q-29 37 -90 45q-10 2 -88 2q-82 0 -90 -2q-35 -8 -138 -65l-34 8q31 113 190.5 256t269.5 166q10 2 131 2q127 0 166 -19l256 289l-213 -76q-16 -4 -172 -4q-139 0 -243 29q-70 20 -129 53q-49 31 -54 31 l-96 -90q-109 -96 -172 -123z" />
<glyph unicode="8" horiz-adv-x="1548" d="M76 895q0 236 235 494q227 250 412 249q84 0 199 -75q109 -72 127 -127l32 -70q6 -14 6 -94q0 -86 -20 -121l125 -78q92 -68 147 -170q33 -57 33 -100q0 -94 -131 -297t-291 -352q-184 -172 -307 -172q-164 0 -307 96q-156 106 -156 260q0 72 25 113l110 141 q-23 2 -69 20q-106 59 -144 133q-26 54 -26 150zM399 1188q0 -98 72 -180q78 -88 191 -88q39 0 100 20q10 23 10 49q0 104 -115.5 214t-214.5 110q-43 0 -43 -125zM504 614q31 -129 166 -223q129 -90 241 -76q18 27 90 107q41 49 41 86q0 43 -100 166q-104 131 -162 131 q-4 0 -106 -76q-113 -86 -170 -115z" />
<glyph unicode="9" horiz-adv-x="1478" d="M117 100q0 63 159 199q152 129 199 127q20 -2 98 4l78 6q154 0 295 -76q-2 -2 -2 27l-4 383q-25 -43 -137 -133q-121 -100 -168 -100q-168 0 -271.5 102t-103.5 254q0 197 148.5 392.5t410.5 348.5q8 -63 119 -94q76 -20 172 -20q49 0 123 28l74 29h24q2 0 4 -2t2 -12 q0 -2 -56 -88l-56 -86q0 -6 7 -52.5t7 -50.5v-153q0 -6 6 -18.5t6 -18.5v-414q0 -2 7.5 -26.5t7.5 -90.5q0 -90 -17 -112q-57 -82 -229 -258q-201 -209 -254 -209q-6 0 -68 37q-76 45 -141 69q-96 37 -186 37q-4 0 -64.5 -10t-66.5 -10q-4 0 -12.5 3t-12.5 3 q-6 0 -29.5 -14.5t-29.5 -14.5h-33q-2 0 -4 2t-2 12zM569 1096q-2 -57 110 -151.5t191 -94.5q41 0 60 16q0 35 -8 105q-4 37 -7 71v168h-59q-41 2 -39 2q-125 0 -248 41v-157z" />
<glyph unicode=":" horiz-adv-x="729" d="M168 383q0 43 91 116.5t132 73.5q10 0 76 -65q23 16 53 35h19q4 -33 -88.5 -129.5t-133.5 -96.5q-14 0 -44.5 35t-43.5 35l-51 -20q-10 10 -10 16zM170 991q0 43 91 118t132 75q10 0 78 -68q20 16 51 35h19q4 -33 -88.5 -129t-130.5 -96q-16 0 -47 35.5t-44 35.5l-49 -22 q-12 10 -12 16z" />
<glyph unicode=";" horiz-adv-x="772" d="M186 723q0 43 91.5 117.5t132.5 74.5q10 0 77 -67q23 18 52 35h20q2 -31 -90 -128.5t-131 -97.5q-16 0 -46 36t-44 36q2 0 -49 -20q-13 8 -13 14zM221 31q0 43 111.5 146.5t156.5 103.5q72 0 72 -119q0 -129 -82 -252t-227 -203l-6 17l55 92q33 63 33 141q0 47 -10 66 q-4 8 -31 26q-43 -29 -68 -29q-4 5 -4 11z" />
<glyph unicode="&#x3c;" horiz-adv-x="1439" d="M117 606q-8 70 248 365q53 63 167.5 227t184.5 244q111 127 221 190l29 -8q-6 -43 -23 -63q-408 -502 -528 -687l366 -382q223 -209 387 -209q55 0 123 39h33q-43 -119 -175 -225.5t-243 -106.5q-188 0 -420 227z" />
<glyph unicode="=" horiz-adv-x="1323" d="M246 494q4 37 110 153q115 125 181 125q8 0 108 -32.5t211 -32.5q84 0 143 12q23 4 69 31.5t50 27.5h25v-26q0 -59 -166 -172q-152 -104 -189 -105q-27 -2 -88 -7t-65 -5q-100 0 -201.5 33.5t-99.5 33.5q6 0 -66 -43zM313 844v20q0 33 121 148q104 98 137 121 q27 16 64 16q49 0 105.5 -19.5t152.5 -19.5q63 0 74 2q27 6 135 49h26q-55 -137 -200 -221q-125 -74 -250 -74q-88 0 -147.5 19.5t-86.5 19.5q-18 0 -43 -18q-43 -31 -65 -43h-23z" />
<glyph unicode="&#x3e;" horiz-adv-x="1544" d="M190 1331q70 137 174.5 222t210.5 85q172 0 299 -118l220 -252q150 -160 338 -228q-4 -57 -117 -170l-178 -172q-164 -180 -344 -407q-154 -190 -199 -234q-76 -76 -145 -73q-6 45 233 323q342 397 383 453q-162 98 -303 258q-184 207 -199 219q-106 94 -250 94h-44h-79z " />
<glyph unicode="?" horiz-adv-x="1210" d="M180 1042q0 80 6 95q20 45 211 260q211 242 273 241q166 0 290.5 -107.5t124.5 -262.5q0 -137 -90 -264q-57 -84 -256 -285q39 -16 105 -55q-6 -33 -103 -146q-109 -127 -166 -127q-4 0 -34.5 18.5t-51.5 24.5l-53 4q-37 2 -65 27q102 168 223 274l156 125q57 55 57 154 q0 141 -74 209q-61 59 -254 121q-16 -10 -16 -43q0 -14 6 -61.5t6 -78.5q0 -33 -6 -63q-8 -47 -106.5 -141.5t-159.5 -118.5q-23 120 -23 200zM274 -8q-18 41 123.5 174t202.5 133q39 0 94.5 -33t65.5 -33q2 0 44 26t54 28q8 -6 8 -19q0 -70 -151 -194q-143 -121 -199 -121 q-27 0 -87 32.5t-69 32.5q-2 0 -35 -14t-51 -12z" />
<glyph unicode="@" horiz-adv-x="2004" d="M152 657q0 399 274 693q268 285 616 284q-2 0 95.5 -11t138.5 -11q158 0 283 -193q106 -166 106 -307t-205 -387q-188 -227 -346 -313q-8 8 4 32q-51 37 -153 123q-158 -162 -277 -161q-90 0 -141 98q-41 78 -41 153q0 156 121 307.5t307 229.5q16 -20 57 -42t72 -22 q12 0 42 7.5t46 7.5q14 0 25 -2q-18 -25 -37 -64v-309l157 -123q164 168 164 289q0 274 -207 403q-156 96 -389 97q-90 0 -188 -37l-172 -72q-72 -31 -115 -227q-33 -150 -33 -269q0 -246 125 -401q139 -170 414 -203q63 -12 125 -22q119 -18 137 -19q86 0 184 82 q37 31 168 168q98 102 160 131q2 -25 -4 -35q72 -47 98 -47q14 0 107 70h24v-25q0 -57 -145 -155q-129 -88 -156 -88q-55 0 -98 39q-109 -123 -248 -222q-166 -117 -266 -116q-8 0 -125 18q-123 20 -143 23q-270 20 -424 211q-137 171 -137 417zM709 829q0 -72 34 -139 q43 -86 121 -86q49 0 70 29v303q-25 -4 -47 -4q-70 0 -144 53q-34 -35 -34 -156z" />
<glyph unicode="A" horiz-adv-x="1675" d="M133 403q0 276 189 560q174 260 487 497l106 99q88 80 129 79q231 -186 336 -317q6 -23 -4 -59q-8 -43 -8 -50v-567q0 -6 166 -278q68 63 137 79q6 -10 6 -22q0 -66 -191.5 -257.5t-254.5 -191.5q-27 0 -107 129l-96 158q-299 -299 -487 -299q-408 0 -408 440zM487 725 q0 -186 101.5 -297t281.5 -111q45 0 79 27t65 55v519q0 8 5 21t5 19q0 37 -84 107q-133 111 -190 170l-91 -59q-53 -37 -63 -56q-72 -154 -92 -235q-17 -64 -17 -160z" />
<glyph unicode="B" horiz-adv-x="1605" d="M115 -205q-6 27 82 146q76 98 163 192v985q-18 8 -51 43q-39 45 -76 74l-45 -32q-25 -17 -55 -19q-6 10 -6 22q0 61 171 226t230 165q33 0 156 -139l156 158q96 90 159 90q43 0 138 -39q80 -33 96 -47q84 -72 84 -242q0 -61 -4 -73q-6 -25 -47 -99l209 -139 q70 -47 88 -92t18 -166q0 -252 -176 -490q-150 -205 -344 -301q-20 -12 -39 -26q-29 -18 -49 -19q-16 0 -64 35q-53 41 -57 41q-18 0 -51 4q-39 14 -115 15q-4 0 -24.5 4t-40.5 4q-74 0 -205 -58q-70 -78 -213 -198q-14 -8 -62 -33zM657 346q178 47 222 53q25 4 112 4 q90 0 115 -4q61 -8 121 -43q18 61 18 142q0 137 -43 186q-27 31 -225 164q-180 -219 -281 -301v-135q0 -7 -39 -66zM682 682l164 182q135 156 135 209q0 242 -285 291v-369q0 -6 -7 -28.5t-7 -28.5v-256z" />
<glyph unicode="C" horiz-adv-x="1533" d="M119 532q0 403 291 732q188 213 567 448q133 -209 326 -209q76 0 106 19q78 47 90 51l35 -8q-106 -203 -263 -321t-310 -118q-98 0 -160 27q-86 39 -174 154q-25 -16 -60 -52q-29 -61 -53 -211q-18 -119 -18 -165q0 -238 186 -387q168 -139 399 -140q78 0 170 37l201 78 q-104 -225 -319 -365q-199 -127 -396 -127q-258 0 -430 142q-188 155 -188 415z" />
<glyph unicode="D" horiz-adv-x="1605" d="M39 1141q-12 59 173 249.5t243 190.5q6 0 71 -63q82 -82 117 -113l219 186q127 100 215 101q82 0 250 -146q104 -92 150 -182q23 -45 55 -164l31 -96v-90q0 -350 -658 -856l-127 -115q-72 -59 -151 -59q-8 0 -104.5 72.5t-155.5 125.5q-4 4 2 23q8 29 8 37q6 55 6 98 q0 57 -9 101l-9 44v392q0 117 -39 167q-6 10 -158 158l-62 -43q-31 -19 -57 -19q-5 0 -10 1zM688 1294q0 -14 7 -47t7 -39v-372q0 -6 8.5 -30t8.5 -30v-264q0 -2 215 -174l223 176q66 68 66 188q0 68 2 66q-4 25 -31 104q-10 61 -35 146q-29 43 -55 88q-27 33 -115 106 l-88 74q-78 61 -125 62q-31 -1 -88 -54z" />
<glyph unicode="E" horiz-adv-x="1536" d="M133 578q0 295 176 567q190 295 541 483q119 63 117 64h32q0 -45 84 -90q74 -41 119 -41q92 0 338 41q-111 -238 -297 -328q-133 -66 -350 -66q-152 0 -242 115q-27 -10 -71 -49q-33 -45 -62 -160q-33 -121 -33 -213q0 -154 47 -252l224 219q170 162 225 162 q195 -72 225 -72q47 0 76 25q49 39 90 57l37 -6q10 -70 -191.5 -252t-287.5 -182q-129 0 -236 49l-90 -74q35 -92 211 -165q160 -70 289 -70q57 0 190 80l187 117l26 -9q-31 -143 -301 -341.5t-426 -198.5q-270 0 -450 147q-197 162 -197 443z" />
<glyph unicode="F" horiz-adv-x="1554" d="M57 1229q-12 84 205 260q207 170 273 170q14 0 119.5 -73t133.5 -101l186 178q95 90 154 94q84 -92 109 -115q68 -55 129 -55q66 0 143 37q96 47 115 51q12 -14 12 -16q0 -20 -92 -141q-98 -131 -248 -213q-139 -78 -254 -78q-109 0 -221 127q-29 -18 -35 -43l5 -580 l131 123q113 100 157 100q-8 0 79 -46t165 -46q6 0 88 53.5t98 55.5q12 -12 13 -19q0 -100 -224 -278q-215 -172 -301 -172q-12 0 -127 18l-79 53l-12.5 -72.5t-8.5 -56.5q0 -47 46 -95t46 -60q0 -61 -142 -199.5t-196 -138.5q-96 0 -96 180q0 20 2 47l2 27v936l-217 151 q-72 -53 -115 -69z" />
<glyph unicode="G" horiz-adv-x="1798" d="M127 432l6 285q45 274 215 528q205 307 510 428q2 2 55 39q43 31 66 31q2 0 45 -37q53 -43 100 -68q70 -35 140 -34q106 0 143 26q74 53 135 78q8 -8 8 -20q0 -90 -221 -279q-211 -182 -287 -182q-94 0 -151 -2t-47 -2q-43 0 -217 137q-80 -135 -103 -244 q-16 -74 -16 -227q0 -221 131 -375q135 -160 354 -160q104 0 181 29q104 39 104 119v219q4 -2 -70 -2q-8 0 -54 23.5t-52 23.5q2 0 -87 -66.5t-130 -66.5q-29 0 -29 24q0 78 252 299q246 213 305 213q8 0 64.5 -34.5t89.5 -34.5q6 0 33.5 9t35.5 9q6 0 9.5 -6t11.5 -6 q6 0 57 38t60 38h30v-33q0 -16 -74.5 -104.5t-74.5 -92.5q1 -12 0 -26q0 -44 -4 -113q0 -37 -17 -104q-168 -311 -438 -516q-281 -213 -549 -213h-90l-94 20q-55 12 -86 33q-78 49 -166 198q-84 142 -84 201z" />
<glyph unicode="H" horiz-adv-x="1923" d="M70 1245q-10 59 194.5 263t267.5 204q10 0 107.5 -74.5t118.5 -97.5v-207q0 4 -17 -61l4 -357q195 195 299 269q164 115 324 114q186 0 295 -103t109 -300q0 -117 -15 -184q-29 -129 -119 -230q115 -33 177 -61q12 -20 38 -51q18 -8 52 -25q-6 -57 -133 -205 q-135 -160 -211 -159q-18 0 -60.5 41.5t-48.5 44.5l-221 75q-2 47 6 60l160 215q14 31 14 159q0 160 -103.5 261.5t-269.5 101.5q-88 0 -141 -41q-154 -117 -156 -119q16 -33 17 -43v-315q33 -43 133 -125q-6 -57 -133 -207q-135 -158 -209 -158q-20 0 -84 62l-66 71v295 q0 6 -11 51.5t-11 51.5l6 518q14 128 16 128v-3q0 86 -28 110l-148 105l-71 -47q-42 -27 -74 -27h-8z" />
<glyph unicode="I" horiz-adv-x="1081" d="M51 1149q0 47 88 154q47 55 211 190q176 145 211 145q-6 0 100.5 -75.5t159.5 -75.5q10 0 86 48t101 52q6 -6 6 -18q0 -43 -107 -164q-94 -109 -145 -145v-820q0 -16 -23 -39q59 -33 80 -36q-2 0 35 0q39 0 64 16q41 25 108 45q1 -4 1 -10q0 -59 -169 -229 q-184 -185 -240 -185h-159q-20 0 -85 42l-65 42q2 0 -69.5 -53t-120.5 -56q0 53 102 170l178 183v813q-47 29 -147 98q-55 -37 -162 -100z" />
<glyph unicode="J" horiz-adv-x="1536" d="M61 100q0 160 99.5 294t316.5 274l33 -9q-29 -70 -80 -139q-25 -35 -24 -110q0 -184 159 -326q152 -139 338 -139q66 0 111 39q14 12 82 92v270l16 131q0 88 -6 123l-74 62q-63 53 -92 53q-14 0 -71 -39q-49 -34 -79 -34q-5 0 -10 1q4 61 117 180q96 104 199 178v162 q-39 41 -129 148q-94 -70 -113 -70h-33v29q0 51 191.5 231t240.5 180q18 0 103.5 -84t85.5 -94v-526q0 12 8 -37t8 -145q0 -92 -8 -126t-8 -36v-314q0 -133 -256 -364l-367 -299q-29 -25 -108 -41q-66 -14 -119 -14q-217 0 -369 135q-162 141 -162 364z" />
<glyph unicode="K" horiz-adv-x="1818" d="M18 1151q0 59 194 271t267 212q14 0 116.5 -86t102.5 -106l4 -531l398 494q263 311 357 311h3q6 -4 6 -16q0 -41 -186 -264l-227 -265q12 0 43.5 3.5t38.5 3.5q174 0 282 -193q70 -127 99 -301l4 -248q6 6 12 6q23 0 108 -53l99 -61v-25q0 -49 -145.5 -189.5 t-194.5 -140.5q4 0 -101 55q-97 50 -130 50h-5v248q0 145 -102 313q-113 184 -244 184q-135 0 -135 -209v-190q51 -51 164 -152q-20 -57 -133 -190q-131 -158 -207 -158q-27 0 -176 150v245q0 4 8 40t8 42v703q-31 31 -139 129q-127 -98 -148 -98h-34q-7 6 -7 16z" />
<glyph unicode="L" horiz-adv-x="1556" d="M41 1212q-12 57 185.5 241.5t258.5 184.5q12 0 90 -63q72 -57 101 -86l4 -809q0 -6 -10.5 -49t-10.5 -51v-138q0 -4 -7 -16t-9 -23q215 37 239.5 40t123.5 3q143 0 248 -31q90 -27 90 -31q0 -1 -3 -1q6 0 64 43l92 68l37 -9q-51 -125 -188 -288q-156 -188 -267 -215 q-147 125 -374 124q-129 0 -193 -18h-7q-38 0 -102 -18l-120 -107q-94 -82 -148 -84q2 43 93 162t91 127v149q0 6 8.5 24.5t8.5 25.5v786l-74 66q-63 53 -76 53q-6 0 -45 -27q-51 -35 -63 -41z" />
<glyph unicode="M" horiz-adv-x="2115" d="M104 500q0 4 7.5 43t7.5 47v135q0 4 14 31.5t14 40.5q14 172 246 413q205 215 393 312q14 8 80 57q55 43 70 43h27q115 -139 237 -254q305 270 367 270q12 0 75 -61q57 -55 80 -82q59 -51 164 -158q84 -102 105 -180q10 -63 23.5 -123.5t35.5 -120.5q2 -4 2 -106 q0 -104 -39 -229q-47 -154 -129 -230q12 -14 66 -35q76 -31 82 -34v-27q0 -49 -137.5 -175t-186.5 -126q-6 0 -68.5 29.5t-83.5 29.5q-4 0 -20 -9t-53 -19q-6 10 -6 22q0 39 82 129q102 113 110 127t13.5 54t15.5 57q23 47 22 139q0 55 -4 72q-18 72 -39 143q-2 35 -8 96 q-27 106 -188 269l-201 192q-25 -16 -51 -45v-371q0 -6 7 -21.5t7 -21.5v-387q25 -8 60 -41q51 -51 63 -59q-16 -53 -121 -176q-125 -150 -203 -150q-14 0 -38 31q-33 39 -50 49q-14 -2 -41 21v374q0 6 -8 29t-8 29v471l-252 254l-70 -37q-45 -23 -63 -49q-25 -33 -45 -105 q-16 -59 -16 -76v-149q0 -6 -5.5 -23.5t-5.5 -23.5q0 -106 58 -209q66 -119 190 -203l76 -20q68 -23 67 -47q0 -53 -137 -184.5t-180 -131.5q-6 0 -25.5 13.5t-31.5 15.5q-31 2 -86 20q-47 27 -111 101q-20 10 -67 55q-33 41 -62 139q-27 91 -27 146z" />
<glyph unicode="N" horiz-adv-x="2027" d="M57 1137q-8 55 188 256q190 195 257 194h4q10 -12 149 -133q79 -67 79 -135q0 -6 -1 -12q96 109 250 211q180 121 291 120q117 0 260 -53q117 -45 149 -78q127 -123 185 -202q84 -117 108 -250q12 -70 13 -113q0 -127 -119 -332l-180 -278l112 -23q76 -14 115 -49v-24 q0 -57 -150.5 -195.5t-199.5 -138.5q-6 0 -42 21.5t-52 25.5q-59 14 -173 26q16 43 185 312q145 231 145 327q0 254 -218 459t-470 205q-29 0 -123 -51q-106 -59 -106 -103q0 -8 16 -135t16 -133v-145q16 -217 17 -234q0 -176 -47 -244.5t-287 -246.5h-25v272q0 6 -9 39 t-9 39v160q0 98 -23 221q-10 43 -10 88q0 35 10 115q5 45 6 80q0 18 -1 32q-152 158 -183 158q-2 0 -48 -28q-43 -26 -74 -26q-3 1 -5 1z" />
<glyph unicode="O" horiz-adv-x="1748" d="M115 604q0 125 4 150l53 204q29 115 299 390q287 291 426 290q322 0 553 -165q248 -178 256 -469l6 -197q0 -6 -16.5 -42t-20.5 -50q-43 -186 -268 -424t-424 -309q-94 -35 -252 -35q-303 0 -467 194q-149 178 -149 463zM475 942q0 -125 29 -209q47 -133 57 -180 q221 -246 502 -246q115 0 209 35q12 4 43 68.5t31 76.5v156q0 221 -183 412q-179 191 -397 191q-11 0 -23 -1q-33 0 -98 16.5t-63 16.5q-53 0 -84 -158q-23 -108 -23 -178z" />
<glyph unicode="P" horiz-adv-x="1507" d="M2 1186q-1 6 -1 12q0 76 198 242q209 174 290 174q27 0 109 -59.5t84 -59.5q328 315 473 315q47 0 137 -34q123 -49 187 -129q18 -25 18 -117q0 -238 -240 -506q-92 -102 -528 -487v-103q51 -43 148 -112q-2 -39 -134 -193q-139 -162 -208 -162q-6 0 -64 43 q-80 61 -96 72v934q-8 35 -19 108q-188 125 -186 125q-8 0 -51 -28l-74 -43zM729 692q119 121 254 226q104 78 127 114q33 57 33 193q0 82 -127 161q-111 70 -185 70q-6 0 -102 -61v-703z" />
<glyph unicode="Q" horiz-adv-x="1982" d="M74 551q0 121 22 235q10 55 39 168q51 162 135 250q92 96 273 258q242 217 295 217q299 0 510 -192q215 -199 215 -496q0 -43 -13 -88q-33 -115 -92 -235q-51 -104 -51 -101q0 -12 27 -41q14 -16 30 -32q55 -86 174 -136q96 -39 179 -39q35 0 116 48l33 -9 q-41 -127 -199.5 -259t-267.5 -132q-272 0 -430 228q-250 -211 -420 -211q-16 0 -119 14q-33 2 -94 20q-135 84 -205 160q-61 70 -102 170q-6 16 -30.5 105.5t-24.5 97.5zM430 913q0 -197 150 -378q164 -199 387 -199q82 0 151 59q20 16 56 137q35 113 34 136 q0 72 -24.5 176t-55.5 153q-68 115 -223 211q-170 104 -327 105q-72 0 -117 -185q-31 -131 -31 -215z" />
<glyph unicode="R" horiz-adv-x="1908" d="M33 1231q35 117 193.5 262t269.5 145q8 0 81.5 -59t104.5 -94q57 70 133 143q119 117 168 117q96 0 240 -70q154 -74 188.5 -153.5t34.5 -167.5q0 -133 -98 -281q-72 -106 -238 -274q211 -289 244 -322q133 -137 295 -137q92 0 120 10l164 84l31 -6q-2 -82 -169 -233.5 t-277 -171.5q-6 0 -29 -14.5t-31 -14.5h-244q-31 0 -118 72q-76 63 -105 98l-241 319q-47 -20 -64 -57q-7 -19 -7 -54q0 -14 1 -30q23 -14 78 -70q66 -68 65 -88q0 -70 -157 -204q-147 -125 -187 -125q-150 137 -149 206q0 16 10 54.5t10 66.5v867q0 82 -35 114l-139 123 q-45 -31 -106 -63zM696 616q51 51 174 138q117 84 160 129q70 74 70 153q0 129 -122 237.5t-255 108.5h-27v-766z" />
<glyph unicode="S" horiz-adv-x="1638" d="M53 76q0 74 156 221q145 139 194 143q12 0 57.5 13.5t141.5 13.5q172 0 272 -31q274 -92 400 -123q2 2 2 21q0 102 -107.5 205.5t-216.5 103.5h-159q-6 0 -18.5 8t-18.5 8h-150q-31 0 -172 56q-115 45 -145 61q-39 18 -82 113q-39 88 -39 129q0 129 102 276 q98 137 256 252l84 74q72 61 105 61q10 0 16 -6q18 -18 121.5 -68.5t126.5 -50.5q6 0 10 2.5t10 2.5q4 0 36 -16.5t46 -18.5q193 -33 279 -33q59 0 66.5 3t91.5 44l30 -8q-74 -160 -218 -267.5t-277 -107.5q-178 0 -316 39l-213 61l33 -75q25 -49 55 -66q227 -119 385 -119 q4 0 25.5 2t28.5 2q6 0 47 -10t47 -10h149q80 0 185.5 -88t115.5 -158q4 -23 11.5 -38t7.5 -64q0 -154 -219 -402q-227 -256 -394 -256q-102 0 -318 78t-398 78q-96 0 -133 -27q-49 -37 -86 -45q-13 13 -13 17z" />
<glyph unicode="T" horiz-adv-x="1796" d="M23 1122v35q0 47 208 275q207 225 270 225h1h880q88 -14 146 -15q90 0 153 31q33 14 78 56q35 29 58 28h32v-31q2 -43 -188 -225q-180 -174 -227 -196q39 -125 43 -164q2 -6 2 -111q0 -152 -31 -246q-57 -184 -365 -493q-311 -317 -456 -318q-115 0 -219 76 q-123 88 -123 219q0 88 147 234q139 135 203 139q2 -41 22 -123q23 -47 97.5 -109.5t107.5 -62.5q6 0 8 2t9 2q6 0 30.5 -10t32.5 -10q39 0 100 84q41 59 56 94q25 55 24 197q0 115 -4 126q-27 74 -47 162q-8 35 -33 82q-45 86 -145 178q-12 10 -68.5 21.5t-66.5 30.5h-479 q-33 -35 -105 -97q-98 -86 -123 -86h-28z" />
<glyph unicode="U" horiz-adv-x="2086" d="M117 1268q-4 59 146.5 211.5t217.5 152.5q4 0 41 -17.5t53 -17.5l318 -8q-20 -76 -156.5 -204t-140.5 -138q-92 -252 -92 -403q0 -459 540 -459q125 0 185 16q135 39 135 160q0 6 -8 58.5t-8 58.5v311l-10 68q-9 68 -11 121l-80 65q-72 61 -71 86q0 55 149.5 204.5 t206.5 149.5q150 -106 166 -139q2 -27 11 -89t9 -64v-349q0 -8 8.5 -26.5t8.5 -24.5v-377q0 -33 73 -127q61 -80 82 -98l78 60q47 33 84 38q8 -6 8 -32q0 -68 -207 -279q-205 -213 -290 -213h-4l-129 168q-70 99 -70 202v11q-250 -227 -338 -274q-109 -55 -320 -56 q-168 0 -227 13q-125 29 -254 141l-51 127q-43 106 -43 151q0 100 6 164q4 53 78 279q45 137 76 196q29 51 102 140q-2 2 -178 2q-33 16 -94 41z" />
<glyph unicode="V" horiz-adv-x="1814" d="M18 1126q0 82 230.5 300.5t300.5 218.5q10 0 108.5 -69t149.5 -112q4 -27 -4 -63q-10 -45 -10 -49v-643q76 -74 215 -170l258 -177q31 49 83 160t52 121v229q0 14 -23 86q-23 82 -45 121q-109 186 -178 275q-39 49 -39 53q0 70 168 233q149 146 198 146q6 0 11 -2 q109 -113 186 -248q94 -162 105 -291q6 -72 6 -256l-41 -100q-94 -233 -205 -418q-31 -51 -237 -262q-238 -242 -306 -242q-16 0 -30 23q-33 -23 -56 -23t-221 139q-209 145 -286 224v702q0 4 6 24.5t6 35.5l-187 133l-83 -66q-80 -59 -101 -59h-22q-9 8 -9 26z" />
<glyph unicode="W" horiz-adv-x="2230" d="M84 678q0 162 240 520q-4 4 -170 4q-10 0 -48 23q4 41 134 190q141 164 219 164q6 0 23.5 -8t27.5 -8l238 -9q0 -41 -64 -120l-111 -127q-55 -66 -90 -181q-33 -102 -32 -186q0 -186 75 -352q102 -227 297 -228q59 0 125 86q59 80 60 129v256q0 6 -8.5 19.5t-8.5 19.5 v310l-73 57q-43 41 -44 72q0 80 162 223q152 131 193 131q10 -33 48 -64l75 -61v-317q0 -6 11 -57.5t11 -65.5q0 -147 -11 -222t-11 -98q0 -78 141 -200l223 -179l105 201q37 90 37 217q0 311 -267 524q-2 57 144.5 206t212.5 149q39 0 106 -101q127 -195 146 -241 q20 -53 20 -203q0 -4 2 -70q1 -14 1 -27q0 -26 -3 -46q-6 -43 -25 -88q-86 -201 -311 -547q-45 -66 -190 -209q-166 -164 -217 -164h-29q-2 10 -10 29q-18 -12 -35 -13q-35 0 -205 152q-127 115 -199 188l-256 -247q-129 -109 -241 -109q-193 0 -307 170q-92 137 -105 328 q-6 78 -6 180z" />
<glyph unicode="X" horiz-adv-x="2234" d="M4 39q53 145 220 284.5t302 139.5q63 0 123 -23q53 -20 60 -39l153 209l-301 308q-178 188 -246 333q-10 -4 -92 -63q-56 -39 -95 -39h-7q39 131 233 299q182 158 305 190q53 -100 177 -286l333 -330q70 74 209 246q133 164 201 231q113 109 207 139q10 -18 0 -47 q66 -14 117 -37q33 -16 67 -16q51 0 115 33q92 45 141 59q-68 -176 -248 -316t-340 -140q-53 0 -64 3t-85 42l-217 -283l338 -361q170 -164 342 -163q121 0 141 20q39 37 113 57q6 -8 6 -22q0 -86 -203 -258q-195 -166 -270 -166q12 0 -23 0q-49 2 -207 4q-47 2 -116 62 l-97 84q-63 37 -135 112l-188 207q-76 -135 -236 -303q-203 -211 -325 -211q2 0 -72 50t-145 50q-29 0 -96.5 -29.5t-94.5 -29.5z" />
<glyph unicode="Y" horiz-adv-x="1802" d="M-31 -391q217 430 807 430q82 0 187 -14q59 -2 157 -19q201 -76 242 -76q27 0 56.5 21.5t29.5 42.5q0 18 -11.5 85.5t-21.5 86.5q-29 66 -112 113l-129 71q2 53 -19 101q-268 -315 -483 -316q-111 0 -258 72q-170 84 -262 209q-4 29 -34 125t-30 118q0 55 13.5 73 t15.5 32q6 51 10 102q6 70 29 117q31 59 90 143q94 131 98 136q-4 4 -166 4q-18 4 -57 18q-2 4 -2 10q0 45 125 172q141 143 200 144q6 0 33 -7.5t33 -7.5h254q6 -6 6 -18q0 -43 -121 -168q-141 -150 -161.5 -184.5t-28.5 -94.5q-6 -47 -10 -92q-2 -12 -15.5 -40.5 t-13.5 -39.5q0 -2 31.5 -94t29.5 -125q6 -6 60 -69q47 -57 92 -82q219 -123 340 -123q43 0 86 27q72 43 98 53v686q-84 66 -199 131q4 39 123 174q129 152 201 152q16 0 90 -58.5t111 -64.5q6 -20 6 -43q0 -25 -8 -55.5t-8 -34.5v-400q0 -6 8 -26.5t8 -28.5v-205q0 -2 8 -40 t8 -54q272 -96 273 -385q0 -113 -146 -287q-131 -154 -307 -279.5t-262 -125.5q-4 0 -123 34.5t-147 38.5q-195 33 -312 33q-268 0 -487 -106z" />
<glyph unicode="Z" horiz-adv-x="2045" d="M45 12q0 152 576 688q-6 4 -41 5q-57 0 -101 -21l-100 -47l-41 8q14 96 205.5 262t296.5 166h186l135 117q-6 4 -22.5 -2t-20.5 -6h-489q-6 0 -77 28.5t-77 28.5q-244 -227 -280 -227h-35v30q0 51 265 323.5t335 272.5q8 0 112.5 -43t143.5 -43h414q25 0 141 39 q106 35 133 47l57 -8q2 -63 -112 -176q-66 -66 -246 -213q-172 -141 -232 -203q96 -29 107.5 -30.5t73.5 -1.5q96 0 131 20q68 39 137 59q8 -6 8 -20q0 -80 -182 -231q-129 -104 -205 -146.5t-125 -50.5h-100q-117 0 -181.5 22.5t-58.5 22.5q-8 0 -113.5 -94t-162.5 -154 l139 33q121 27 231 27q143 0 409.5 -94.5t322.5 -94.5q104 0 186 80q121 119 242 176q8 -12 8 -24q0 -70 -246 -299.5t-332 -251.5q-23 -6 -71 -35q-27 -14 -119 -14q-96 0 -353.5 93t-379.5 93q-104 0 -222 -35q-82 -25 -163 -65q-74 -35 -70 -35h-29q-8 6 -8 24z" />
<glyph unicode="[" horiz-adv-x="899" d="M94 215q0 6 5 63.5t5 65.5v993q0 63 142 179q133 109 184 108q-8 0 59.5 -38t126.5 -38q45 0 112 40t75 40h22v-24q0 -80 -204 -218q-193 -127 -238 -122v-682q0 -6 -5 -15.5t-5 -15.5v-168q8 -6 73 -61q45 -37 52 -37q2 0 38.5 25.5t63.5 21.5q-14 -80 -149.5 -218.5 t-202.5 -133.5q-8 16 -67.5 57t-78.5 69q-8 11 -8 109z" />
<glyph unicode="\" horiz-adv-x="1814" d="M186 1274q59 104 170 217q121 123 201 145l156 -217q279 -449 389 -612q369 -543 487 -543q6 0 45 13.5t56 9.5q-4 -68 -144.5 -199t-226.5 -131q-72 0 -164 102l-151 183q-201 223 -400 553q-233 389 -313 493l-48 -31q-26 -16 -50 -14z" />
<glyph unicode="]" d="M207 0q10 78 171 215t243 137l81 -33q2 123 7 256l10 27v596q0 8 5 21.5t5 23.5q-12 8 -119.5 53t-120.5 45q-6 0 -20 -11t-20 -11h-23q-12 14 -12 16q0 45 135 178.5t178 133.5q12 0 123 -52q119 -53 156 -77q0 -14 -5.5 -46t-5.5 -38v-594q0 -6 -5 -13.5t-5 -13.5v-328 q0 -47 -156 -268q-168 -240 -254 -240l-93 47q-93 46 -115 46q-16 0 -62 -27l-67 -43h-31z" />
<glyph unicode="^" horiz-adv-x="1507" d="M207 1034q117 162 285 338q207 221 299 244q23 -63 159 -180q150 -129 236 -129q29 0 80 41t75 41q10 0 19 -3q-33 -90 -182 -221q-156 -139 -246 -139q-74 0 -209 96.5t-178 173.5l-176 -182q-111 -109 -156 -106z" />
<glyph unicode="_" horiz-adv-x="1404" d="M-12 -299q6 45 84 119q70 66 121 92l55 47q47 39 71 39q2 0 86 -23.5t119 -29.5q176 -25 410 -25q117 0 299 33q51 29 151 61v-22q0 -61 -155 -160q-135 -86 -172 -90q-27 -4 -160 -27q-76 -12 -154 -12q-240 0 -417 31q-23 4 -97.5 24.5t-78.5 20.5q2 0 -57.5 -42 t-86.5 -42q-6 0 -11 3t-7 3z" />
<glyph unicode="`" horiz-adv-x="813" d="M209 1270q0 115 76 205q63 74 209 161q10 -10 10 -12q0 -12 -47 -69.5t-47 -104.5q0 -55 32 -117q39 -74 99 -73h16h35q-16 -59 -94 -131t-140 -72q-70 0 -114 84q-35 68 -35 129z" />
<glyph unicode="a" horiz-adv-x="1384" d="M119 281q0 266 239 546q213 250 404 303q6 2 28.5 14.5t30.5 12.5q-2 0 58.5 -42t132.5 -42q76 0 108 17q27 14 62 10q6 -49 -95 -146v-174q0 -8 6.5 -28.5t6.5 -26.5v-317l155 -146q47 21 68 21h6q-16 -47 -135 -181q-129 -147 -188 -147q-8 0 -99 84q-96 88 -100 121 q-53 -70 -186.5 -137.5t-208.5 -67.5q-129 0 -217 117q-76 100 -76 209zM408 543q0 -94 69 -189q80 -111 193 -110q45 0 141 47v149q0 8 -6 28.5t-6 27.5v280q-4 2 -82 2q-37 0 -92 39l-78 57q-63 -33 -105 -149q-34 -98 -34 -182z" />
<glyph unicode="b" horiz-adv-x="1189" d="M0 1292q0 55 148.5 200.5t197.5 145.5q12 0 105.5 -65.5t89.5 -87.5l4 -516q68 70 155 129q111 72 183 71q113 0 200 -118q80 -109 80 -209q0 -63 -4 -84t-47 -131q-49 -125 -313 -391q-272 -274 -365 -275q-37 0 -188 141v213q0 6 5 11.5t5 11.5v885l-76 67 q-47 41 -63 41q-6 0 -47 -28.5t-62 -32.5q-8 8 -8 22zM528 375q137 -117 154 -117q12 0 69.5 56.5t63.5 66.5q66 104 66 207q0 86 -76 186q-82 113 -178 113q-27 0 -43 -10q-39 -23 -43 -25v-274q0 -6 -6.5 -11.5t-6.5 -11.5v-180z" />
<glyph unicode="c" horiz-adv-x="1116" d="M119 420q0 2 14 147q10 100 150 303q31 43 163 177q166 162 220 161q45 0 109.5 -61.5t154.5 -61.5q49 0 96 27q78 45 123 62q12 -12 12 -17q0 -78 -194 -221q-174 -127 -211 -129q-12 -2 -45 -5t-39 -3q-115 0 -219 106q-47 -70 -47 -229q0 -150 75 -260 q94 -137 269 -137q59 0 131 36q109 55 159 74q-31 -125 -221 -261t-327 -136q-180 0 -283 131q-90 119 -90 297z" />
<glyph unicode="d" horiz-adv-x="1202" d="M123 377q0 178 155.5 400t327.5 302q18 -29 21 -30q18 -23 39 -23h141q8 12 4 39q-4 41 -4 39v131q0 16 -62 59q-70 49 -75 58q-20 -16 -43 -31q-29 -16 -64 -16q0 63 149.5 196t198.5 133q8 0 90 -66.5t82 -78.5v-178q0 -4 6.5 -27.5t6.5 -30.5v-274l5 -92q5 -92 5 -125 q0 4 3 -41t3 -78q-2 -45 -14 -65q-123 -213 -273 -373q-215 -231 -389 -232q-154 0 -241 152q-72 119 -72 252zM401 612q0 -145 78 -252q85 -116 225 -116q16 0 31 2q72 72 88 147q4 27 4 152l-12 346q-29 -23 -104 -72q-102 -66 -127 -65h-166q-2 -16 -10 -52 q-7 -24 -7 -90z" />
<glyph unicode="e" horiz-adv-x="1112" d="M82 434q0 416 551 717q14 -27 80.5 -53.5t136.5 -26.5q39 0 57 14q27 18 62 29q8 -8 8 -18q0 -25 -57 -92q-172 -201 -312 -201q-39 0 -110 18q-78 20 -107 41q-14 -27 -35 -88l2 -139q2 4 46.5 35.5t58.5 31.5q154 -31 166 -30q137 0 200 43q109 74 156 90l6 -21 q-96 -156 -247.5 -263t-299.5 -122q20 -39 139 -88t203 -49q82 0 148 45q98 68 145 86q8 -8 8 -18q0 -74 -194 -219q-168 -125 -219 -140q-78 -23 -129 -22q-53 0 -177 38t-163 68q-123 96 -123 334z" />
<glyph unicode="f" horiz-adv-x="960" d="M-238 -383q0 10 125 197l174 266q10 16 45 192q37 193 37 269v506v-2q-1 0 -8 71q-3 35 -3 61.5t3 45.5q4 31 64 98l106 121q172 203 299 262h25q4 -41 65 -70q51 -23 105 -22q61 0 100 14l102 45h25v-24q0 -43 -121 -154q-111 -100 -147 -115q-125 -45 -211 -45 q-68 0 -127 33q-1 -8 -1 -18q0 -32 9 -93l4 -221q170 158 216 158h1q98 -102 182 -102q55 0 76 10q72 39 131 63q0 -76 -165.5 -217t-245.5 -141q-133 0 -197 65q-18 -133 -22 -208q-14 -276 -181 -564q-174 -301 -450 -497q-15 14 -15 16z" />
<glyph unicode="g" horiz-adv-x="1429" d="M-195 -305q0 53 162 188q152 125 191 131q102 18 159 19q119 0 300.5 -75t345.5 -75q86 0 108 60q12 33 12 147q0 102 -51 172q-61 82 -174 82q-14 0 -119 -20q-2 18 -10 59q-106 -86 -145 -100q-31 -12 -123 -13q-119 0 -215 62q-117 74 -117 207q0 184 197 405 q182 207 399 301q57 -78 182 -78q41 0 201 58h22v-25q0 -18 -61 -88q-53 -61 -65 -72v-426q14 -6 49 -2l49 2q129 0 196 -94q55 -78 56 -186q0 -242 -230 -488q-217 -233 -401 -233q-188 0 -356 74.5t-293 74.5q-111 0 -140 -20l-59 -43q-43 -29 -70 -33v29zM399 782 q0 -74 79 -157.5t147 -83.5h108v311q0 6 5 22.5t5 20.5h-155q-29 2 -119 66q-51 -94 -53 -99q-17 -35 -17 -80z" />
<glyph unicode="h" horiz-adv-x="1544" d="M31 1282v29q0 49 166 190q160 137 194 137q16 0 88 -70.5t74 -84.5l8 -633q315 311 436 311q172 0 277 -188q84 -147 84 -295q0 -195 -148 -385q27 0 78 3t53 3q49 0 99 -14q76 -25 76 -76q0 -57 -130 -170q-117 -100 -151 -109q-37 80 -150 80q-49 0 -149 -22l-80 8 q47 80 117 170q55 74 71 108q25 55 25 142q0 131 -76 272q-96 184 -254 184q-39 0 -176 -135v-231q0 -6 -5 -13.5t-5 -13.5v-182l63 -47q49 -37 50 -51q0 -57 -129 -170q-115 -100 -154 -109q-12 14 -121 98v215q0 8 6 12.5t6 12.5v315q0 6 -6 17.5t-6 19.5v604 q-33 41 -121 117q-23 -12 -45 -26q-30 -19 -65 -23z" />
<glyph unicode="i" horiz-adv-x="671" d="M41 1309q0 59 148.5 194t195.5 135q20 0 68 -51l61 -69q14 6 45 22h31q-35 -98 -161 -213q-118 -107 -188 -107q-5 0 -10 1q-33 43 -96 114q-61 -47 -86 -47q-8 9 -8 21zM92 762q27 94 176 225q135 119 185 119h4q39 -20 92 -70q37 -74 37 -196v-312q0 -4 5 -39.5 t5 -44.5q0 -100 -137 -289q-136 -187 -214 -188h-1h-25q14 43 55 117q31 53 31 96q0 6 -6 34t-6 36v313q0 70 -21 139q-29 94 -82 95q-6 0 -29.5 -17.5t-31.5 -17.5h-37z" />
<glyph unicode="j" horiz-adv-x="802" d="M-453 -377q219 395 502 395q98 0 199.5 -59t105.5 -59h31v409q-2 6 -7 11.5t-5 11.5v270q0 6 -5.5 14.5t-5.5 14.5v227q-51 51 -79 84q-20 -10 -66 -27q-6 8 -6 19q0 43 128 178t177 135q8 0 51 -43q55 -59 72 -71v-242q0 -6 5 -13.5t5 -13.5v-272q0 -6 6.5 -10t6.5 -11 v-452q0 -90 -138 -289q-141 -207 -225 -207q-6 0 -7 5t-9 5q4 0 -24 -16t-73 -16q-53 0 -180 70.5t-203 70.5q-72 0 -136 -59.5t-91 -59.5h-29zM147 1368q-8 41 125.5 188.5t192.5 147.5q8 0 39 -37q41 -51 51 -61q29 18 82 43q8 -6 8 -19q0 -61 -135 -181t-191 -120 q-41 0 -90 70q-61 -33 -67 -33q-9 0 -15 2z" />
<glyph unicode="k" horiz-adv-x="1406" d="M-18 1245q25 76 171 234q143 154 202 153h3q16 -18 78 -80q49 -45 49 -53v-276q0 -6 11.5 -115t11.5 -117v-432l268 367q-82 78 -82 90q0 45 126 167t165 122q14 0 63.5 -54.5t49.5 -58.5q0 -20 -107 -168q-115 -158 -121 -168q104 43 187 43q115 0 178 -143 q49 -102 49 -197q0 -109 -65 -264q16 -4 60 2l44 6q16 0 49 -12q43 -16 43 -39q0 -43 -122 -169t-167 -126q-4 0 -31.5 20.5t-43.5 20.5q-51 0 -146 -23q-8 8 -8 21v-1q4 0 41 101q41 113 41 183q0 82 -45 184q-57 133 -148 133q-82 0 -147 -47q-20 -14 -119 -107v-82 q125 -74 125 -114q0 -51 -125 -167t-166 -116q-6 0 -55 39q-68 55 -80 64q-2 25 -8 77t-6 56v493q0 8 -12.5 121t-12.5 119v278q0 12 -86 82l-57 -35q-30 -18 -55 -12z" />
<glyph unicode="l" horiz-adv-x="808" d="M72 1262q0 66 157.5 221t225.5 155q18 0 67 -45t49 -65v-490q0 -6 -6 -22.5t-6 -24.5v-583q0 -18 31 -55.5t51 -37.5q4 0 43 26t66 34q8 -8 8 -21q0 -82 -168 -241q-158 -147 -203 -154q-14 18 -92 80q-43 35 -43 82v606q0 4 6 31.5t6 36.5v442q-31 45 -57 70 q-63 -43 -127 -72q-8 9 -8 27z" />
<glyph unicode="m" horiz-adv-x="1835" d="M72 408q0 186 175 441t365 333q4 2 47 32q37 27 54 27q10 0 166.5 -80t197.5 -110q236 233 330 239q10 -33 102 -84q104 -59 142.5 -112.5t64.5 -175.5q27 -115 27 -193q0 -96 -62 -205l-112 -190q8 -12 78 -19q94 -6 114 -10q-12 -47 -123 -172q-123 -143 -192 -143 q-23 0 -225 32q14 33 133 232q68 113 67 194q0 82 -26 195q-23 104 -43 133q-47 68 -195 143q-16 8 -49 41q-18 -6 -35 -22v-240q0 -8 6 -18t6 -19v-282q82 -66 82 -82q0 -49 -124.5 -175t-172.5 -126q-6 0 -47 31.5t-63 37.5q4 43 4 183q0 68 -6 125t-6 61v324l-306 159 q-43 -82 -51 -122q-2 -12 -2 -103q0 -106 47 -217q70 -158 195 -158q6 0 39 3t47 3q-51 -121 -158 -219q-113 -102 -205 -102q-141 0 -223 160q-63 121 -63 250z" />
<glyph unicode="n" horiz-adv-x="1454" d="M-20 827q-2 66 141 211.5t213 145.5q18 0 106 -54q100 -59 119 -96q125 131 191 178q92 66 182 66q51 0 135 -27q117 -39 197 -110q37 -33 67 -144q27 -98 27 -166q0 -207 -162 -493l135 -12q104 -14 105 -52q0 -53 -124 -169.5t-165 -116.5q2 0 -55.5 20.5t-102.5 20.5 l-121 -11q-14 12 -14 21q193 289 193 510v101l2 -27q-2 49 -29 114q-12 33 -27.5 67t-46.5 54q-55 39 -137 74q-94 43 -147 43q-41 0 -52 -8q-49 -41 -65 -52v-315q0 -76 -25 -250q14 -12 90 -65q59 -41 60 -49q0 -45 -126 -167t-167 -122q-35 0 -101.5 62.5t-66.5 88.5 q0 6 12 104.5t12 106.5v404q0 10 13 49l-166 110q-66 -47 -88 -47q-6 0 -12 2z" />
<glyph unicode="o" horiz-adv-x="1413" d="M125 395q0 207 164 469q170 272 379 377q2 -4 0 -24q0 -16 8 -17q20 0 99 20.5t143 20.5q184 0 311 -145q119 -137 119 -314q0 -172 -201 -368l-399 -361q-23 -23 -97 -37q-66 -14 -119 -14q-143 0 -272 117q-135 122 -135 276zM440 676q0 -139 121 -252t250 -113 q72 0 100 19q20 12 121 116v152q0 76 -107.5 192.5t-172.5 129.5q-86 14 -113 14q-129 0 -170 -68q-29 -49 -29 -190z" />
<glyph unicode="p" horiz-adv-x="1146" d="M-61 119q0 61 147 178q113 90 156 111q-2 80 -6 170q-8 14 -9 22v180q-68 59 -98 90q-2 0 -57 -39q-31 -20 -54 -14q-4 45 123 193.5t193 148.5q8 0 74 -57q74 -61 81 -90l140 125q84 72 137 71q170 0 268 -166q80 -135 80 -294q0 -102 -8 -132q-10 -51 -72 -165 q-29 -57 -196 -220q-182 -176 -242 -176q-12 0 -107 76q-53 -199 -100 -285q-92 -162 -264 -235q123 274 123 387v170q-10 4 -49 4q-70 0 -136 -12q-20 -4 -57 -27q-43 -27 -61 -33q-6 7 -6 19zM485 874q0 -6 5.5 -26.5t5.5 -26.5v-166q0 -6 5 -10t5 -10v-205q13 1 26 1 q166 0 291 -97q33 68 33 182q0 104 -24.5 173t-98.5 173q-6 8 -88 48t-102 40q-25 0 -41.5 -30t-16.5 -46z" />
<glyph unicode="q" horiz-adv-x="1222" d="M70 455q0 186 172 407q166 211 389 334q125 -158 287 -158q-10 0 114 41q6 -6 6 -18q0 -37 -110 -148v-452q0 -2 12 -41l2 -479q70 68 205 106l80 -6q-6 -47 -82 -131q-72 -76 -139 -119q-10 -8 -43 -9t-48 -5l-95 -93q-95 -93 -144 -102l-6 584q0 2 -15 139 q-182 -168 -303 -168q-131 0 -211 103q-71 92 -71 215zM338 696q0 -115 65 -198q72 -92 185 -92q53 0 74 16v346q-154 10 -263 133q-61 -96 -61 -205z" />
<glyph unicode="r" horiz-adv-x="1259" d="M-16 860q14 49 143 191q147 162 225 161q14 0 78 -51q41 -35 84 -67q0 -45 6 -142q168 174 348 273q39 -84 95 -117q47 -25 133 -25q33 0 63 15l80 49h33q-43 -123 -186.5 -244t-262.5 -121q-86 0 -131 19q-55 25 -96 92q-37 -25 -68 -57v-504q12 -8 53.5 -62.5 t41.5 -56.5q0 -68 -136 -182q-119 -100 -155 -109q-57 78 -105 123v508q0 8 -5 16.5t-5 14.5v217q-115 98 -121 98q-4 0 -84 -47z" />
<glyph unicode="s" horiz-adv-x="1226" d="M18 39q109 197 246 272q106 57 275 58q45 0 125 -21q94 -23 127 -26q-84 92 -259 129q-229 47 -256 59q-115 53 -114 209q0 86 175 294t267 208q-4 0 122 -55.5t247 -55.5q70 0 137 23q88 31 115 34q-156 -340 -510 -340q-37 0 -228 39q31 -82 197 -116q248 -55 281 -70 q143 -63 143 -219q0 -94 -219 -293q-205 -186 -248 -186q8 0 -125 52t-233 52q-76 0 -170 -23z" />
<glyph unicode="t" horiz-adv-x="1079" d="M47 719q10 68 131 176q104 94 203 145v209q0 8 -46 52.5t-52 44.5q-4 0 -27 -12.5t-47 -8.5q16 49 129 174q125 139 186 139q10 0 131 -120v-404q0 -80 58 -102q29 -12 112 -13q59 0 73.5 4.5t107.5 55.5l26 -8q-10 -78 -140 -192t-224 -136v-254q0 -27 -25 -125 q-49 -201 -100 -299q-100 -193 -279 -260q10 18 68 201q59 197 59 245v525q-53 31 -115 30q-53 0 -104 -22q-12 -4 -98 -53z" />
<glyph unicode="u" horiz-adv-x="1560" d="M117 285q0 260 286 592q-6 6 -22 6q-14 0 -47 -8.5t-39 -8.5q-27 0 -47 21q6 35 117 160q119 137 172 137q8 0 16 -6.5t14 -6.5q8 0 21.5 6.5t21.5 4.5h178q8 -6 9 -21q0 -45 -97 -133q-135 -125 -182 -186q-96 -133 -96 -283q0 -135 106 -213q94 -70 230 -70 q145 0 278 130v266q0 6 -6 20.5t-6 22.5v159q-14 8 -156 72v31q0 33 126 155.5t161 122.5q18 0 172 -86v-170q0 -6 6 -16t6 -16v-580q23 -16 80 -74q47 -49 56 -49q6 0 28.5 13.5t30.5 15.5h27q8 -61 -142.5 -208.5t-201.5 -147.5q-14 0 -103 82q-79 74 -79 109q0 4 1 7 l-4 141q-242 -201 -293 -233q-115 -72 -256 -72t-245 76q-121 86 -121 238z" />
<glyph unicode="v" horiz-adv-x="1480" d="M70 893q8 49 118 180q119 141 179 141q6 0 25.5 -16t27.5 -20q27 -14 78 -23q68 -12 84 -16v-238q0 -6 6 -20.5t6 -22.5v-295q8 -6 170 -145q117 -104 160 -113q117 162 145 260q20 68 21 219q0 111 -9 144q-23 102 -114 151l-37 25q-25 16 -39 16q-27 0 -82 -41t-76 -41 q-10 0 -18 6q12 86 188 239t268 153q49 0 152 -70q86 -61 86 -303q0 -117 -20 -211q-41 -170 -230 -428q-61 -86 -217 -244q-207 -209 -283 -209q-29 0 -208 140.5t-179 173.5v313q0 6 -6 27.5t-4 29.5v176q-69 17 -192 62z" />
<glyph unicode="w" horiz-adv-x="2066" d="M123 391q0 121 78 286t168 234q-33 5 -85 6q-26 0 -57 -2q-14 14 -14 19q0 59 135 191t180 132q4 0 19 -14h203q-6 0 49 -20q-92 -156 -193 -246q-109 -96 -112 -103q-35 -53 -35 -188q0 -166 111.5 -271.5t287.5 -105.5q14 0 42 11.5t28 21.5l-6 537q-6 31 -56 51 q-74 35 -80 39q8 53 119 184q121 141 197 141q10 0 78.5 -42t76.5 -50v-567q0 -51 117 -166t162 -115q53 0 98 160q35 125 35 170q0 313 -276 328q27 98 146.5 209.5t209.5 111.5q131 0 201 -139q53 -104 53 -221q0 -221 -248 -547q-254 -332 -516 -432q-98 74 -283 239 q-70 -76 -176 -153q-141 -104 -219 -105q-164 0 -295 111q-143 123 -143 305z" />
<glyph unicode="x" horiz-adv-x="1949" d="M35 35q0 94 188 237q176 133 244 134q6 0 57 -12.5t58 -12.5q10 0 116 123l-379 440q-80 -70 -139 -82q-8 8 -8 23q0 72 203 237q174 141 223 160l379 -438l199 233q197 217 272 217q6 0 31.5 -26.5t42.5 -34.5q29 -14 69 -16q35 0 43 -13q-47 -100 -151 -198 q-115 -104 -195 -105q-45 0 -54 9.5t-38 15.5l-135 -172q317 -422 637 -422q43 0 142 31.5t130 35.5q-66 -162 -241 -276q-168 -111 -318 -111q-338 0 -655 414l-183 -207q-188 -201 -241 -201q-137 70 -148 70q-6 0 -59 -31q-61 -37 -82 -45q-8 9 -8 23z" />
<glyph unicode="y" horiz-adv-x="1576" d="M63 -350q0 63 162 196q156 127 211 131q31 2 103 3q127 0 381 -61.5t268 -61.5q119 0 119 206q0 86 -41 173q-59 125 -170 124q-47 0 -94.5 -17t-49.5 -17q-6 0 -9 3t-9 3l-70 -56q-82 -66 -162 -104q-115 -55 -221 -55q-356 0 -356 344q0 109 57 225q39 80 152 246 q-2 2 -164 2q-6 8 -6 18q0 57 123 162q106 92 143 100l270 -6q-51 -82 -211 -262q-84 -94 -83 -221q0 -328 329 -328q70 0 195 56v421q0 4 -5 29t-5 37q-31 10 -111 55q4 41 104 160q106 127 166 127q-2 0 119 -74q8 -82 8 -192l4 -391l140 16q125 0 190 -127 q47 -92 47 -197q0 -152 -41 -217q-102 -158 -274 -321q-213 -203 -342 -203q-8 0 -269.5 60.5t-375.5 60.5q-113 0 -129 -21q-23 -33 -86 -45q-7 7 -7 19z" />
<glyph unicode="z" horiz-adv-x="1662" d="M78 2q0 82 184 254q115 104 381 311q250 195 309 254q-27 0 -73 -2q-53 0 -52 0q-172 0 -356 78q-111 -78 -141 -78q-31 0 -31 25q0 63 186 223q180 154 228 154q-2 0 -2 -1q0 -5 117 -48q132 -48 276 -48q92 0 205 33l188 55q0 -25 -29.5 -76t-58.5 -77 q-150 -133 -420 -350l-450 -361q2 -2 153 -2l277 -70q160 -39 282 -38q113 0 168 26q145 70 174 80q-154 -233 -299 -326q-133 -86 -321 -86q-166 0 -359.5 54.5t-275.5 54.5q-98 0 -252 -59q-8 6 -8 20z" />
<glyph unicode="{" horiz-adv-x="1200" d="M137 514v31q0 12 103.5 130t109.5 152q12 59 -6 154q-4 18 -4 43q0 135 47 225q45 84 170 221q150 162 225 162q-8 0 51.5 -35.5t122.5 -35.5q59 0 74 16l29 -6q-37 -109 -141 -201q-111 -98 -213 -98q-49 0 -76 12q-8 -20 -2 -37l8 -20v-158q0 -29 -50 -131t-67 -117 q49 -43 76 -200q31 -197 55 -252q53 -125 180 -125q33 0 98.5 55t102.5 53q-6 -104 -188 -254q-174 -143 -269 -143q-145 0 -206 149q-27 68 -56 277q-20 150 -65 149q-6 0 -36 -8t-38 -8h-35z" />
<glyph unicode="|" horiz-adv-x="880" d="M240 1366q0 43 116.5 155.5t155.5 112.5q8 0 34.5 -27.5t26.5 -35.5v-606q0 -6 5.5 -23.5t5.5 -26.5v-346q0 -6 6 -18t6 -19v-163q0 -35 36 -64t75 -55q-6 -39 -101 -152q-106 -125 -170 -125q-39 0 -84 56q-41 49 -41 69v172q0 6 -5 11.5t-5 11.5v354q0 6 -6 17.5 t-6 17.5v621q-49 47 -49 63z" />
<glyph unicode="}" horiz-adv-x="1118" d="M133 88q35 92 143.5 189.5t190.5 97.5q53 0 133 -68q2 4 2 25q0 8 -20.5 98t-20.5 96q0 43 21 103q16 43 30 86q-92 68 -92 205q0 27 3 79t3 78q0 139 -84 219q-27 25 -80 50q-45 20 -57 20q6 0 -69 -35h-29q12 68 139 184.5t195 116.5q66 0 157 -67q98 -76 99 -148v-147 q0 -4 -2 -40t-2 -63q0 -186 92 -186q-10 0 76 8q-6 -37 -70 -114.5t-64 -108.5q0 4 20.5 -77t20.5 -177q0 -117 -39 -178q-66 -102 -180 -203q-178 -154 -223 -154q-4 0 -77 62.5t-122 62.5q-8 0 -30.5 -7t-30.5 -7h-33z" />
<glyph unicode="~" horiz-adv-x="1290" d="M143 1282v21q0 23 78 98q166 164 283 164q37 0 179 -44t210 -44q102 0 141 34q68 59 113 78q10 -10 10 -12q0 -61 -160.5 -181t-212.5 -122q-10 0 -43.5 -2t-38.5 -2q-51 0 -193 44t-185 44q-49 0 -96.5 -38t-63.5 -38h-21z" />
<glyph unicode="&#xa3;" horiz-adv-x="1964" d="M147 592q0 68 170 223q133 119 201 161t109 42q8 0 16 -2h10q10 0 19 8q33 84 116 236q61 82 166 194q170 184 234 184q8 0 65 -41q70 -49 131 -75q92 -41 187 -41q121 0 194 37l31 -9q-152 -233 -252 -303.5t-280 -70.5q-131 0 -275 77q-45 -109 -76 -211l150 -40 q127 -37 209 -37q86 0 151 28q98 39 129 45q6 -6 7 -18q0 -72 -181 -217q-150 -123 -211 -146q-72 -27 -127 -30q-70 -4 -79 -8l-193 26q-31 -47 -102 -143q119 12 153 12q176 0 395.5 -67.5t309.5 -67.5q86 0 155 29q43 16 93 51q39 29 51 28h28v-28q0 -80 -221 -248 q-211 -162 -289 -168q-18 0 -65 -5t-53 -5q-115 0 -327 67.5t-386 67.5q-164 0 -281 -88l-26 6q-2 45 80 135q119 131 135 156q27 37 63 143q57 164 66 180q-23 25 -98 25q-92 0 -148 -29q-31 -16 -68 -53q-29 -29 -53 -29h-26q-7 7 -7 19z" />
<glyph unicode="&#xa5;" horiz-adv-x="2150" d="M31 553q0 92 219 268q213 170 297 164q4 10 4 47q0 27 -33 88q-41 74 -80 74q-4 0 -34.5 -20.5t-38.5 -20.5h-33v27q0 57 175 216.5t224 159.5q16 0 139 -137l123 121q106 98 148 98q35 0 149 -53q88 -41 197 -143q125 -117 153 -215l32 -94q15 -47 14 -74l100 -55 q41 -18 84 -19q70 0 115 27l90 55l26 -8q-90 -180 -233 -295q-150 -117 -303 -117q-6 0 -19.5 3t-19.5 3q-322 -358 -400 -358q-6 0 -25.5 11t-25.5 13q-106 23 -178 23q-23 -78 -72 -229q-25 -76 -47 -113q-16 -29 -121 -137q-125 -129 -170 -129h-20q-8 6 -8 18l102 316 v127q0 6 5 16t5 16v385q-41 18 -90 56h-145q-68 0 -142 -44l-151 -89q-12 12 -12 18zM895 1274q0 -53 4 -160l8 -129q4 -51 27 -59q-2 -29 -13.5 -44.5t-11.5 -17.5v-182q0 -16 -10 -66q127 61 262 62q57 0 187 -14v145q0 125 -170 291q-162 156 -283 174z" />
<glyph unicode="&#xa9;" horiz-adv-x="1918" d="M158 643q0 393 284 700q274 295 594 295q330 0 506 -173t176 -502q0 -354 -237 -652q-258 -324 -635 -323q-252 0 -465 194q-223 201 -223 461zM367 831q0 -258 221 -450q209 -184 452 -184q115 0 160 16q57 12 137 43q47 37 71 89t46 110q61 131 62 198q0 14 -4.5 52 t-4.5 67q0 322 -170 488.5t-491 166.5q-260 0 -383 -194q-96 -152 -96 -402zM532 793q0 129 132.5 305t228.5 176q-10 0 80 -56.5t166 -56.5q43 0 57 6q43 20 119 41q-45 -100 -159 -178t-204 -78q-53 0 -102 23q-94 41 -105 45q-4 -6 -4 -43q0 -121 68 -229 q80 -131 209 -132q43 0 104 37l101 60q-23 -90 -162 -197.5t-225 -107.5q-143 0 -232 137q-72 117 -72 248z" />
<glyph unicode="&#xaa;" horiz-adv-x="1384" d="M119 281q0 266 239 546q213 250 404 303q6 2 28.5 14.5t30.5 12.5q-2 0 58.5 -42t132.5 -42q76 0 108 17q27 14 62 10q6 -49 -95 -146v-174q0 -8 6.5 -28.5t6.5 -26.5v-317l155 -146q47 21 68 21h6q-16 -47 -135 -181q-129 -147 -188 -147q-8 0 -99 84q-96 88 -100 121 q-53 -70 -186.5 -137.5t-208.5 -67.5q-129 0 -217 117q-76 100 -76 209zM408 543q0 -94 69 -189q80 -111 193 -110q45 0 141 47v149q0 8 -6 28.5t-6 27.5v280q-4 2 -82 2q-37 0 -92 39l-78 57q-63 -33 -105 -149q-34 -98 -34 -182z" />
<glyph unicode="&#xad;" d="M129 598v23q0 45 142.5 178t185.5 133q6 0 162.5 -45t162.5 -45q82 0 152 42t67 42h27q-43 -127 -200.5 -241t-288.5 -114l-285 82l-96 -55h-29z" />
<glyph unicode="&#xae;" horiz-adv-x="1871" d="M121 639q0 154 98 342q68 131 221 338q166 221 275 276q76 39 274 39q266 0 467 -147q229 -172 230 -457q0 -246 -183 -518q-176 -262 -461 -463q-59 -43 -135 -55q-37 -4 -153 -4q12 0 -45 -4q-47 -2 -84 0q-49 4 -78 16q-215 102 -326 281q-100 161 -100 356zM334 831 q0 -401 407 -616q25 -12 74 -16q35 -2 82 0q57 2 47 2q121 0 163 18.5t103 91.5q129 162 183 221q-8 -8 -58 -26q-55 -23 -82 -23q-156 0 -385 170q-12 -8 -21 -16t-9 -31q0 -25 12 -37q37 -35 39 -39q-23 -39 -84 -108q-82 -88 -123 -88q-10 0 -33 20l-35 35q0 4 5.5 14.5 t5.5 18.5v293q0 8 6 17t6 16v208l-66 66q-37 -25 -49 -25q-14 0 -12 11q14 39 92 133q92 111 141 110q23 0 50 -34q31 -41 53 -52q27 25 100 70q92 55 141 55q8 0 21.5 -10t17.5 -10q45 -8 60 -27q18 -25 18 -98q0 -78 -28 -133q-16 -31 -103 -148q74 -63 186.5 -116.5 t180.5 -53.5q35 0 35 144q0 268 -220 436q-197 150 -454 149q-143 0 -174 -20q-145 -96 -228 -279q-65 -152 -65 -293zM838 717q156 141 155 235q0 121 -98 121q-20 0 -45 -12q0 -33 -6 -93.5t-6 -70.5v-180z" />
<glyph unicode="&#xb2;" horiz-adv-x="1581" d="M53 -6q72 252 633 711q43 49 133 135q82 66 107 94q37 45 37 98q0 98 -93 176q-86 72 -172 72h-145q-6 -82 -135 -215q-121 -125 -221 -168q-10 20 -47 64v143q0 80 267 306t359 226h80q59 2 64 2q184 0 278 -51q123 -66 123 -227q0 -145 -152 -338q-113 -143 -331 -338 l-334 -287q2 -2 16 -2q6 0 59.5 16.5t59.5 16.5h215q4 0 38 8t91 8q8 0 147.5 -8t145.5 -8q145 0 176 7t98 40q61 29 68 29h29v-31q0 -70 -185 -215q-147 -117 -202 -141q-98 -43 -144 -47q-4 -2 -168 -2q-127 0 -209 8t-84 8q-6 0 -75.5 -10.5t-73.5 -10.5q-6 0 -46 2.5 t-48 2.5q-82 0 -183 -31q-68 -27 -137 -51z" />
<glyph unicode="&#xb3;" horiz-adv-x="1740" d="M86 49q219 383 528 383q57 0 302 -58.5t243 -58.5q82 0 82 195q0 111 -104 205q-98 88 -199 88q-35 0 -179.5 -33t-164.5 -43l-148 -84l-26 8q31 111 155 234q305 305 355 358l-459 4q-51 14 -59 15q-8 0 -82 -55.5t-80 -55.5h-33q-6 8 -6 18q0 61 187.5 265t252.5 204 q6 0 56 -16q63 -20 104 -31l565 -8q-33 -109 -211 -262q-199 -170 -237 -240q51 18 157 41q117 25 166 25q80 0 183 -60q117 -68 149 -159q2 -6 2 -107q0 -16 2 -38.5t2 -34.5q0 -51 -43 -156q-74 -170 -289 -385q-246 -246 -413 -246q2 0 -226.5 63.5t-322.5 63.5 q-47 0 -76 -10q-53 -25 -102 -37z" />
<glyph unicode="&#xb9;" horiz-adv-x="937" d="M96 1059v37q0 51 216 289.5t292 252.5h25v-886q0 -6 9 -15.5t9 -17.5v-256q113 -84 168 -119q-51 -111 -176 -229q-137 -133 -221 -123q-16 29 -66 61l-71 47v258q-4 18 -11 37q-10 35 -6 60l-4 700l-61 -49q-63 -47 -78 -47h-25z" />
<glyph unicode="&#xba;" horiz-adv-x="1413" d="M125 395q0 207 164 469q170 272 379 377q2 -4 0 -24q0 -16 8 -17q20 0 99 20.5t143 20.5q184 0 311 -145q119 -137 119 -314q0 -172 -201 -368l-399 -361q-23 -23 -97 -37q-66 -14 -119 -14q-143 0 -272 117q-135 122 -135 276zM440 676q0 -139 121 -252t250 -113 q72 0 100 19q20 12 121 116v152q0 76 -107.5 192.5t-172.5 129.5q-86 14 -113 14q-129 0 -170 -68q-29 -49 -29 -190z" />
<glyph unicode="&#xc0;" horiz-adv-x="1675" d="M895 1975q0 115 76 205q63 74 209 161q10 -10 10 -12q0 -12 -47 -69.5t-47 -104.5q0 -55 32 -117q39 -74 99 -73h16h35q-16 -59 -94 -131t-140 -72q-70 0 -114 84q-35 68 -35 129zM133 403q0 276 189 560q174 260 487 497l106 99q88 80 129 79q231 -186 336 -317 q6 -23 -4 -59q-8 -43 -8 -50v-567q0 -6 166 -278q68 63 137 79q6 -10 6 -22q0 -66 -191.5 -257.5t-254.5 -191.5q-27 0 -107 129l-96 158q-299 -299 -487 -299q-408 0 -408 440zM487 725q0 -186 101.5 -297t281.5 -111q45 0 79 27t65 55v519q0 8 5 21t5 19q0 37 -84 107 q-133 111 -190 170l-91 -59q-53 -37 -63 -56q-72 -154 -92 -235q-17 -64 -17 -160z" />
<glyph unicode="&#xc2;" horiz-adv-x="1675" d="M469 1788q117 162 285 338q207 221 299 244q23 -63 159 -180q150 -129 236 -129q29 0 80 41t75 41q10 0 19 -3q-33 -90 -182 -221q-156 -139 -246 -139q-74 0 -209 96.5t-178 173.5l-176 -182q-111 -109 -156 -106zM133 403q0 276 189 560q174 260 487 497l106 99 q88 80 129 79q231 -186 336 -317q6 -23 -4 -59q-8 -43 -8 -50v-567q0 -6 166 -278q68 63 137 79q6 -10 6 -22q0 -66 -191.5 -257.5t-254.5 -191.5q-27 0 -107 129l-96 158q-299 -299 -487 -299q-408 0 -408 440zM487 725q0 -186 101.5 -297t281.5 -111q45 0 79 27t65 55v519 q0 8 5 21t5 19q0 37 -84 107q-133 111 -190 170l-91 -59q-53 -37 -63 -56q-72 -154 -92 -235q-17 -64 -17 -160z" />
<glyph unicode="&#xc3;" horiz-adv-x="1675" d="M536 1774v21q0 23 78 98q166 164 283 164q37 0 179 -44t210 -44q102 0 141 34q68 59 113 78q10 -10 10 -12q0 -61 -160.5 -181t-212.5 -122q-10 0 -43.5 -2t-38.5 -2q-51 0 -193 44t-185 44q-49 0 -96.5 -38t-63.5 -38h-21zM133 403q0 276 189 560q174 260 487 497 l106 99q88 80 129 79q231 -186 336 -317q6 -23 -4 -59q-8 -43 -8 -50v-567q0 -6 166 -278q68 63 137 79q6 -10 6 -22q0 -66 -191.5 -257.5t-254.5 -191.5q-27 0 -107 129l-96 158q-299 -299 -487 -299q-408 0 -408 440zM487 725q0 -186 101.5 -297t281.5 -111q45 0 79 27 t65 55v519q0 8 5 21t5 19q0 37 -84 107q-133 111 -190 170l-91 -59q-53 -37 -63 -56q-72 -154 -92 -235q-17 -64 -17 -160z" />
<glyph unicode="&#xc8;" horiz-adv-x="1536" d="M834 2028q0 115 76 205q63 74 209 161q10 -10 10 -12q0 -12 -47 -69.5t-47 -104.5q0 -55 32 -117q39 -74 99 -73h16h35q-16 -59 -94 -131t-140 -72q-70 0 -114 84q-35 68 -35 129zM133 578q0 295 176 567q190 295 541 483q119 63 117 64h32q0 -45 84 -90q74 -41 119 -41 q92 0 338 41q-111 -238 -297 -328q-133 -66 -350 -66q-152 0 -242 115q-27 -10 -71 -49q-33 -45 -62 -160q-33 -121 -33 -213q0 -154 47 -252l224 219q170 162 225 162q195 -72 225 -72q47 0 76 25q49 39 90 57l37 -6q10 -70 -191.5 -252t-287.5 -182q-129 0 -236 49 l-90 -74q35 -92 211 -165q160 -70 289 -70q57 0 190 80l187 117l26 -9q-31 -143 -301 -341.5t-426 -198.5q-270 0 -450 147q-197 162 -197 443z" />
<glyph unicode="&#xca;" horiz-adv-x="1536" d="M408 1841q117 162 285 338q207 221 299 244q23 -63 159 -180q150 -129 236 -129q29 0 80 41t75 41q10 0 19 -3q-33 -90 -182 -221q-156 -139 -246 -139q-74 0 -209 96.5t-178 173.5l-176 -182q-111 -109 -156 -106zM133 578q0 295 176 567q190 295 541 483q119 63 117 64 h32q0 -45 84 -90q74 -41 119 -41q92 0 338 41q-111 -238 -297 -328q-133 -66 -350 -66q-152 0 -242 115q-27 -10 -71 -49q-33 -45 -62 -160q-33 -121 -33 -213q0 -154 47 -252l224 219q170 162 225 162q195 -72 225 -72q47 0 76 25q49 39 90 57l37 -6q10 -70 -191.5 -252 t-287.5 -182q-129 0 -236 49l-90 -74q35 -92 211 -165q160 -70 289 -70q57 0 190 80l187 117l26 -9q-31 -143 -301 -341.5t-426 -198.5q-270 0 -450 147q-197 162 -197 443z" />
<glyph unicode="&#xcc;" horiz-adv-x="1081" d="M412 1975q0 115 76 205q63 74 209 161q10 -10 10 -12q0 -12 -47 -69.5t-47 -104.5q0 -55 32 -117q39 -74 99 -73h16h35q-16 -59 -94 -131t-140 -72q-70 0 -114 84q-35 68 -35 129zM51 1149q0 47 88 154q47 55 211 190q176 145 211 145q-6 0 100.5 -75.5t159.5 -75.5 q10 0 86 48t101 52q6 -6 6 -18q0 -43 -107 -164q-94 -109 -145 -145v-820q0 -16 -23 -39q59 -33 80 -36q-2 0 35 0q39 0 64 16q41 25 108 45q1 -4 1 -10q0 -59 -169 -229q-184 -185 -240 -185h-159q-20 0 -85 42l-65 42q2 0 -69.5 -53t-120.5 -56q0 53 102 170l178 183v813 q-47 29 -147 98q-55 -37 -162 -100z" />
<glyph unicode="&#xce;" horiz-adv-x="1081" d="M-14 1788q117 162 285 338q207 221 299 244q23 -63 159 -180q150 -129 236 -129q29 0 80 41t75 41q10 0 19 -3q-33 -90 -182 -221q-156 -139 -246 -139q-74 0 -209 96.5t-178 173.5l-176 -182q-111 -109 -156 -106zM51 1149q0 47 88 154q47 55 211 190q176 145 211 145 q-6 0 100.5 -75.5t159.5 -75.5q10 0 86 48t101 52q6 -6 6 -18q0 -43 -107 -164q-94 -109 -145 -145v-820q0 -16 -23 -39q59 -33 80 -36q-2 0 35 0q39 0 64 16q41 25 108 45q1 -4 1 -10q0 -59 -169 -229q-184 -185 -240 -185h-159q-20 0 -85 42l-65 42q2 0 -69.5 -53 t-120.5 -56q0 53 102 170l178 183v813q-47 29 -147 98q-55 -37 -162 -100z" />
<glyph unicode="&#xd1;" horiz-adv-x="2027" d="M766 1774v21q0 23 78 98q166 164 283 164q37 0 179 -44t210 -44q102 0 141 34q68 59 113 78q10 -10 10 -12q0 -61 -160.5 -181t-212.5 -122q-10 0 -43.5 -2t-38.5 -2q-51 0 -193 44t-185 44q-49 0 -96.5 -38t-63.5 -38h-21zM57 1137q-8 55 188 256q190 195 257 194h4 q10 -12 149 -133q79 -67 79 -135q0 -6 -1 -12q96 109 250 211q180 121 291 120q117 0 260 -53q117 -45 149 -78q127 -123 185 -202q84 -117 108 -250q12 -70 13 -113q0 -127 -119 -332l-180 -278l112 -23q76 -14 115 -49v-24q0 -57 -150.5 -195.5t-199.5 -138.5 q-6 0 -42 21.5t-52 25.5q-59 14 -173 26q16 43 185 312q145 231 145 327q0 254 -218 459t-470 205q-29 0 -123 -51q-106 -59 -106 -103q0 -8 16 -135t16 -133v-145q16 -217 17 -234q0 -176 -47 -244.5t-287 -246.5h-25v272q0 6 -9 39t-9 39v160q0 98 -23 221q-10 43 -10 88 q0 35 10 115q5 45 6 80q0 18 -1 32q-152 158 -183 158q-2 0 -48 -28q-43 -26 -74 -26q-3 1 -5 1z" />
<glyph unicode="&#xd2;" horiz-adv-x="1748" d="M748 1975q0 115 76 205q63 74 209 161q10 -10 10 -12q0 -12 -47 -69.5t-47 -104.5q0 -55 32 -117q39 -74 99 -73h16h35q-16 -59 -94 -131t-140 -72q-70 0 -114 84q-35 68 -35 129zM115 604q0 125 4 150l53 204q29 115 299 390q287 291 426 290q322 0 553 -165 q248 -178 256 -469l6 -197q0 -6 -16.5 -42t-20.5 -50q-43 -186 -268 -424t-424 -309q-94 -35 -252 -35q-303 0 -467 194q-149 178 -149 463zM475 942q0 -125 29 -209q47 -133 57 -180q221 -246 502 -246q115 0 209 35q12 4 43 68.5t31 76.5v156q0 221 -183 412 q-179 191 -397 191q-11 0 -23 -1q-33 0 -98 16.5t-63 16.5q-53 0 -84 -158q-23 -108 -23 -178z" />
<glyph unicode="&#xd4;" horiz-adv-x="1748" d="M322 1788q117 162 285 338q207 221 299 244q23 -63 159 -180q150 -129 236 -129q29 0 80 41t75 41q10 0 19 -3q-33 -90 -182 -221q-156 -139 -246 -139q-74 0 -209 96.5t-178 173.5l-176 -182q-111 -109 -156 -106zM115 604q0 125 4 150l53 204q29 115 299 390 q287 291 426 290q322 0 553 -165q248 -178 256 -469l6 -197q0 -6 -16.5 -42t-20.5 -50q-43 -186 -268 -424t-424 -309q-94 -35 -252 -35q-303 0 -467 194q-149 178 -149 463zM475 942q0 -125 29 -209q47 -133 57 -180q221 -246 502 -246q115 0 209 35q12 4 43 68.5t31 76.5 v156q0 221 -183 412q-179 191 -397 191q-11 0 -23 -1q-33 0 -98 16.5t-63 16.5q-53 0 -84 -158q-23 -108 -23 -178z" />
<glyph unicode="&#xd5;" horiz-adv-x="1748" d="M389 1774v21q0 23 78 98q166 164 283 164q37 0 179 -44t210 -44q102 0 141 34q68 59 113 78q10 -10 10 -12q0 -61 -160.5 -181t-212.5 -122q-10 0 -43.5 -2t-38.5 -2q-51 0 -193 44t-185 44q-49 0 -96.5 -38t-63.5 -38h-21zM115 604q0 125 4 150l53 204q29 115 299 390 q287 291 426 290q322 0 553 -165q248 -178 256 -469l6 -197q0 -6 -16.5 -42t-20.5 -50q-43 -186 -268 -424t-424 -309q-94 -35 -252 -35q-303 0 -467 194q-149 178 -149 463zM475 942q0 -125 29 -209q47 -133 57 -180q221 -246 502 -246q115 0 209 35q12 4 43 68.5t31 76.5 v156q0 221 -183 412q-179 191 -397 191q-11 0 -23 -1q-33 0 -98 16.5t-63 16.5q-53 0 -84 -158q-23 -108 -23 -178z" />
<glyph unicode="&#xd9;" horiz-adv-x="2086" d="M1383 2020q0 115 76 205q63 74 209 161q10 -10 10 -12q0 -12 -47 -69.5t-47 -104.5q0 -55 32 -117q39 -74 99 -73h16h35q-16 -59 -94 -131t-140 -72q-70 0 -114 84q-35 68 -35 129zM117 1268q-4 59 146.5 211.5t217.5 152.5q4 0 41 -17.5t53 -17.5l318 -8 q-20 -76 -156.5 -204t-140.5 -138q-92 -252 -92 -403q0 -459 540 -459q125 0 185 16q135 39 135 160q0 6 -8 58.5t-8 58.5v311l-10 68q-9 68 -11 121l-80 65q-72 61 -71 86q0 55 149.5 204.5t206.5 149.5q150 -106 166 -139q2 -27 11 -89t9 -64v-349q0 -8 8.5 -26.5 t8.5 -24.5v-377q0 -33 73 -127q61 -80 82 -98l78 60q47 33 84 38q8 -6 8 -32q0 -68 -207 -279q-205 -213 -290 -213h-4l-129 168q-70 99 -70 202v11q-250 -227 -338 -274q-109 -55 -320 -56q-168 0 -227 13q-125 29 -254 141l-51 127q-43 106 -43 151q0 100 6 164 q4 53 78 279q45 137 76 196q29 51 102 140q-2 2 -178 2q-33 16 -94 41z" />
<glyph unicode="&#xdb;" horiz-adv-x="2086" d="M957 1833q117 162 285 338q207 221 299 244q23 -63 159 -180q150 -129 236 -129q29 0 80 41t75 41q10 0 19 -3q-33 -90 -182 -221q-156 -139 -246 -139q-74 0 -209 96.5t-178 173.5l-176 -182q-111 -109 -156 -106zM117 1268q-4 59 146.5 211.5t217.5 152.5q4 0 41 -17.5 t53 -17.5l318 -8q-20 -76 -156.5 -204t-140.5 -138q-92 -252 -92 -403q0 -459 540 -459q125 0 185 16q135 39 135 160q0 6 -8 58.5t-8 58.5v311l-10 68q-9 68 -11 121l-80 65q-72 61 -71 86q0 55 149.5 204.5t206.5 149.5q150 -106 166 -139q2 -27 11 -89t9 -64v-349 q0 -8 8.5 -26.5t8.5 -24.5v-377q0 -33 73 -127q61 -80 82 -98l78 60q47 33 84 38q8 -6 8 -32q0 -68 -207 -279q-205 -213 -290 -213h-4l-129 168q-70 99 -70 202v11q-250 -227 -338 -274q-109 -55 -320 -56q-168 0 -227 13q-125 29 -254 141l-51 127q-43 106 -43 151 q0 100 6 164q4 53 78 279q45 137 76 196q29 51 102 140q-2 2 -178 2q-33 16 -94 41z" />
<glyph unicode="&#xe0;" horiz-adv-x="1384" d="M672 1577q0 115 76 205q63 74 209 161q10 -10 10 -12q0 -12 -47 -69.5t-47 -104.5q0 -55 32 -117q39 -74 99 -73h16h35q-16 -59 -94 -131t-140 -72q-70 0 -114 84q-35 68 -35 129zM119 281q0 266 239 546q213 250 404 303q6 2 28.5 14.5t30.5 12.5q-2 0 58.5 -42 t132.5 -42q76 0 108 17q27 14 62 10q6 -49 -95 -146v-174q0 -8 6.5 -28.5t6.5 -26.5v-317l155 -146q47 21 68 21h6q-16 -47 -135 -181q-129 -147 -188 -147q-8 0 -99 84q-96 88 -100 121q-53 -70 -186.5 -137.5t-208.5 -67.5q-129 0 -217 117q-76 100 -76 209zM408 543 q0 -94 69 -189q80 -111 193 -110q45 0 141 47v149q0 8 -6 28.5t-6 27.5v280q-4 2 -82 2q-37 0 -92 39l-78 57q-63 -33 -105 -149q-34 -98 -34 -182z" />
<glyph unicode="&#xe2;" horiz-adv-x="1384" d="M244 1390q117 162 285 338q207 221 299 244q23 -63 159 -180q150 -129 236 -129q29 0 80 41t75 41q10 0 19 -3q-33 -90 -182 -221q-156 -139 -246 -139q-74 0 -209 96.5t-178 173.5l-176 -182q-111 -109 -156 -106zM119 281q0 266 239 546q213 250 404 303q6 2 28.5 14.5 t30.5 12.5q-2 0 58.5 -42t132.5 -42q76 0 108 17q27 14 62 10q6 -49 -95 -146v-174q0 -8 6.5 -28.5t6.5 -26.5v-317l155 -146q47 21 68 21h6q-16 -47 -135 -181q-129 -147 -188 -147q-8 0 -99 84q-96 88 -100 121q-53 -70 -186.5 -137.5t-208.5 -67.5q-129 0 -217 117 q-76 100 -76 209zM408 543q0 -94 69 -189q80 -111 193 -110q45 0 141 47v149q0 8 -6 28.5t-6 27.5v280q-4 2 -82 2q-37 0 -92 39l-78 57q-63 -33 -105 -149q-34 -98 -34 -182z" />
<glyph unicode="&#xe3;" horiz-adv-x="1384" d="M315 1376v21q0 23 78 98q166 164 283 164q37 0 179 -44t210 -44q102 0 141 34q68 59 113 78q10 -10 10 -12q0 -61 -160.5 -181t-212.5 -122q-10 0 -43.5 -2t-38.5 -2q-51 0 -193 44t-185 44q-49 0 -96.5 -38t-63.5 -38h-21zM119 281q0 266 239 546q213 250 404 303 q6 2 28.5 14.5t30.5 12.5q-2 0 58.5 -42t132.5 -42q76 0 108 17q27 14 62 10q6 -49 -95 -146v-174q0 -8 6.5 -28.5t6.5 -26.5v-317l155 -146q47 21 68 21h6q-16 -47 -135 -181q-129 -147 -188 -147q-8 0 -99 84q-96 88 -100 121q-53 -70 -186.5 -137.5t-208.5 -67.5 q-129 0 -217 117q-76 100 -76 209zM408 543q0 -94 69 -189q80 -111 193 -110q45 0 141 47v149q0 8 -6 28.5t-6 27.5v280q-4 2 -82 2q-37 0 -92 39l-78 57q-63 -33 -105 -149q-34 -98 -34 -182z" />
<glyph unicode="&#xe8;" horiz-adv-x="1112" d="M483 1577q0 115 76 205q63 74 209 161q10 -10 10 -12q0 -12 -47 -69.5t-47 -104.5q0 -55 32 -117q39 -74 99 -73h16h35q-16 -59 -94 -131t-140 -72q-70 0 -114 84q-35 68 -35 129zM82 434q0 416 551 717q14 -27 80.5 -53.5t136.5 -26.5q39 0 57 14q27 18 62 29 q8 -8 8 -18q0 -25 -57 -92q-172 -201 -312 -201q-39 0 -110 18q-78 20 -107 41q-14 -27 -35 -88l2 -139q2 4 46.5 35.5t58.5 31.5q154 -31 166 -30q137 0 200 43q109 74 156 90l6 -21q-96 -156 -247.5 -263t-299.5 -122q20 -39 139 -88t203 -49q82 0 148 45q98 68 145 86 q8 -8 8 -18q0 -74 -194 -219q-168 -125 -219 -140q-78 -23 -129 -22q-53 0 -177 38t-163 68q-123 96 -123 334z" />
<glyph unicode="&#xea;" horiz-adv-x="1112" d="M55 1390q117 162 285 338q207 221 299 244q23 -63 159 -180q150 -129 236 -129q29 0 80 41t75 41q10 0 19 -3q-33 -90 -182 -221q-156 -139 -246 -139q-74 0 -209 96.5t-178 173.5l-176 -182q-111 -109 -156 -106zM82 434q0 416 551 717q14 -27 80.5 -53.5t136.5 -26.5 q39 0 57 14q27 18 62 29q8 -8 8 -18q0 -25 -57 -92q-172 -201 -312 -201q-39 0 -110 18q-78 20 -107 41q-14 -27 -35 -88l2 -139q2 4 46.5 35.5t58.5 31.5q154 -31 166 -30q137 0 200 43q109 74 156 90l6 -21q-96 -156 -247.5 -263t-299.5 -122q20 -39 139 -88t203 -49 q82 0 148 45q98 68 145 86q8 -8 8 -18q0 -74 -194 -219q-168 -125 -219 -140q-78 -23 -129 -22q-53 0 -177 38t-163 68q-123 96 -123 334z" />
<glyph unicode="&#xec;" horiz-adv-x="671" d="M236 1975q0 115 76 205q63 74 209 161q10 -10 10 -12q0 -12 -47 -69.5t-47 -104.5q0 -55 32 -117q39 -74 99 -73h16h35q-16 -59 -94 -131t-140 -72q-70 0 -114 84q-35 68 -35 129zM41 1309q0 59 148.5 194t195.5 135q20 0 68 -51l61 -69q14 6 45 22h31q-35 -98 -161 -213 q-118 -107 -188 -107q-5 0 -10 1q-33 43 -96 114q-61 -47 -86 -47q-8 9 -8 21zM92 762q27 94 176 225q135 119 185 119h4q39 -20 92 -70q37 -74 37 -196v-312q0 -4 5 -39.5t5 -44.5q0 -100 -137 -289q-136 -187 -214 -188h-1h-25q14 43 55 117q31 53 31 96q0 6 -6 34t-6 36 v313q0 70 -21 139q-29 94 -82 95q-6 0 -29.5 -17.5t-31.5 -17.5h-37z" />
<glyph unicode="&#xee;" horiz-adv-x="671" d="M-190 1788q117 162 285 338q207 221 299 244q23 -63 159 -180q150 -129 236 -129q29 0 80 41t75 41q10 0 19 -3q-33 -90 -182 -221q-156 -139 -246 -139q-74 0 -209 96.5t-178 173.5l-176 -182q-111 -109 -156 -106zM41 1309q0 59 148.5 194t195.5 135q20 0 68 -51 l61 -69q14 6 45 22h31q-35 -98 -161 -213q-118 -107 -188 -107q-5 0 -10 1q-33 43 -96 114q-61 -47 -86 -47q-8 9 -8 21zM92 762q27 94 176 225q135 119 185 119h4q39 -20 92 -70q37 -74 37 -196v-312q0 -4 5 -39.5t5 -44.5q0 -100 -137 -289q-136 -187 -214 -188h-1h-25 q14 43 55 117q31 53 31 96q0 6 -6 34t-6 36v313q0 70 -21 139q-29 94 -82 95q-6 0 -29.5 -17.5t-31.5 -17.5h-37z" />
<glyph unicode="&#xf1;" horiz-adv-x="1454" d="M200 1413v21q0 23 78 98q166 164 283 164q37 0 179 -44t210 -44q102 0 141 34q68 59 113 78q10 -10 10 -12q0 -61 -160.5 -181t-212.5 -122q-10 0 -43.5 -2t-38.5 -2q-51 0 -193 44t-185 44q-49 0 -96.5 -38t-63.5 -38h-21zM-20 827q-2 66 141 211.5t213 145.5 q18 0 106 -54q100 -59 119 -96q125 131 191 178q92 66 182 66q51 0 135 -27q117 -39 197 -110q37 -33 67 -144q27 -98 27 -166q0 -207 -162 -493l135 -12q104 -14 105 -52q0 -53 -124 -169.5t-165 -116.5q2 0 -55.5 20.5t-102.5 20.5l-121 -11q-14 12 -14 21 q193 289 193 510v101l2 -27q-2 49 -29 114q-12 33 -27.5 67t-46.5 54q-55 39 -137 74q-94 43 -147 43q-41 0 -52 -8q-49 -41 -65 -52v-315q0 -76 -25 -250q14 -12 90 -65q59 -41 60 -49q0 -45 -126 -167t-167 -122q-35 0 -101.5 62.5t-66.5 88.5q0 6 12 104.5t12 106.5v404 q0 10 13 49l-166 110q-66 -47 -88 -47q-6 0 -12 2z" />
<glyph unicode="&#xf2;" horiz-adv-x="1413" d="M643 1577q0 115 76 205q63 74 209 161q10 -10 10 -12q0 -12 -47 -69.5t-47 -104.5q0 -55 32 -117q39 -74 99 -73h16h35q-16 -59 -94 -131t-140 -72q-70 0 -114 84q-35 68 -35 129zM125 395q0 207 164 469q170 272 379 377q2 -4 0 -24q0 -16 8 -17q20 0 99 20.5t143 20.5 q184 0 311 -145q119 -137 119 -314q0 -172 -201 -368l-399 -361q-23 -23 -97 -37q-66 -14 -119 -14q-143 0 -272 117q-135 122 -135 276zM440 676q0 -139 121 -252t250 -113q72 0 100 19q20 12 121 116v152q0 76 -107.5 192.5t-172.5 129.5q-86 14 -113 14q-129 0 -170 -68 q-29 -49 -29 -190z" />
<glyph unicode="&#xf4;" horiz-adv-x="1413" d="M215 1390q117 162 285 338q207 221 299 244q23 -63 159 -180q150 -129 236 -129q29 0 80 41t75 41q10 0 19 -3q-33 -90 -182 -221q-156 -139 -246 -139q-74 0 -209 96.5t-178 173.5l-176 -182q-111 -109 -156 -106zM125 395q0 207 164 469q170 272 379 377q2 -4 0 -24 q0 -16 8 -17q20 0 99 20.5t143 20.5q184 0 311 -145q119 -137 119 -314q0 -172 -201 -368l-399 -361q-23 -23 -97 -37q-66 -14 -119 -14q-143 0 -272 117q-135 122 -135 276zM440 676q0 -139 121 -252t250 -113q72 0 100 19q20 12 121 116v152q0 76 -107.5 192.5 t-172.5 129.5q-86 14 -113 14q-129 0 -170 -68q-29 -49 -29 -190z" />
<glyph unicode="&#xf5;" horiz-adv-x="1413" d="M286 1376v21q0 23 78 98q166 164 283 164q37 0 179 -44t210 -44q102 0 141 34q68 59 113 78q10 -10 10 -12q0 -61 -160.5 -181t-212.5 -122q-10 0 -43.5 -2t-38.5 -2q-51 0 -193 44t-185 44q-49 0 -96.5 -38t-63.5 -38h-21zM125 395q0 207 164 469q170 272 379 377 q2 -4 0 -24q0 -16 8 -17q20 0 99 20.5t143 20.5q184 0 311 -145q119 -137 119 -314q0 -172 -201 -368l-399 -361q-23 -23 -97 -37q-66 -14 -119 -14q-143 0 -272 117q-135 122 -135 276zM440 676q0 -139 121 -252t250 -113q72 0 100 19q20 12 121 116v152q0 76 -107.5 192.5 t-172.5 129.5q-86 14 -113 14q-129 0 -170 -68q-29 -49 -29 -190z" />
<glyph unicode="&#xf9;" horiz-adv-x="1560" d="M1006 1592q0 115 76 205q63 74 209 161q10 -10 10 -12q0 -12 -47 -69.5t-47 -104.5q0 -55 32 -117q39 -74 99 -73h16h35q-16 -59 -94 -131t-140 -72q-70 0 -114 84q-35 68 -35 129zM117 285q0 260 286 592q-6 6 -22 6q-14 0 -47 -8.5t-39 -8.5q-27 0 -47 21q6 35 117 160 q119 137 172 137q8 0 16 -6.5t14 -6.5q8 0 21.5 6.5t21.5 4.5h178q8 -6 9 -21q0 -45 -97 -133q-135 -125 -182 -186q-96 -133 -96 -283q0 -135 106 -213q94 -70 230 -70q145 0 278 130v266q0 6 -6 20.5t-6 22.5v159q-14 8 -156 72v31q0 33 126 155.5t161 122.5q18 0 172 -86 v-170q0 -6 6 -16t6 -16v-580q23 -16 80 -74q47 -49 56 -49q6 0 28.5 13.5t30.5 15.5h27q8 -61 -142.5 -208.5t-201.5 -147.5q-14 0 -103 82q-79 74 -79 109q0 4 1 7l-4 141q-242 -201 -293 -233q-115 -72 -256 -72t-245 76q-121 86 -121 238z" />
<glyph unicode="&#xfb;" horiz-adv-x="1560" d="M580 1405q117 162 285 338q207 221 299 244q23 -63 159 -180q150 -129 236 -129q29 0 80 41t75 41q10 0 19 -3q-33 -90 -182 -221q-156 -139 -246 -139q-74 0 -209 96.5t-178 173.5l-176 -182q-111 -109 -156 -106zM117 285q0 260 286 592q-6 6 -22 6q-14 0 -47 -8.5 t-39 -8.5q-27 0 -47 21q6 35 117 160q119 137 172 137q8 0 16 -6.5t14 -6.5q8 0 21.5 6.5t21.5 4.5h178q8 -6 9 -21q0 -45 -97 -133q-135 -125 -182 -186q-96 -133 -96 -283q0 -135 106 -213q94 -70 230 -70q145 0 278 130v266q0 6 -6 20.5t-6 22.5v159q-14 8 -156 72v31 q0 33 126 155.5t161 122.5q18 0 172 -86v-170q0 -6 6 -16t6 -16v-580q23 -16 80 -74q47 -49 56 -49q6 0 28.5 13.5t30.5 15.5h27q8 -61 -142.5 -208.5t-201.5 -147.5q-14 0 -103 82q-79 74 -79 109q0 4 1 7l-4 141q-242 -201 -293 -233q-115 -72 -256 -72t-245 76 q-121 86 -121 238z" />
<glyph unicode="&#x152;" horiz-adv-x="3284" d="M1882 578q0 295 176 567q190 295 541 483q119 63 117 64h32q0 -45 84 -90q74 -41 119 -41q92 0 338 41q-111 -238 -297 -328q-133 -66 -350 -66q-152 0 -242 115q-27 -10 -71 -49q-33 -45 -62 -160q-33 -121 -33 -213q0 -154 47 -252l224 219q170 162 225 162 q195 -72 225 -72q47 0 76 25q49 39 90 57l37 -6q10 -70 -191.5 -252t-287.5 -182q-129 0 -236 49l-90 -74q35 -92 211 -165q160 -70 289 -70q57 0 190 80l187 117l26 -9q-31 -143 -301 -341.5t-426 -198.5q-270 0 -450 147q-197 162 -197 443zM115 604q0 125 4 150l53 204 q29 115 299 390q287 291 426 290q322 0 553 -165q248 -178 256 -469l6 -197q0 -6 -16.5 -42t-20.5 -50q-43 -186 -268 -424t-424 -309q-94 -35 -252 -35q-303 0 -467 194q-149 178 -149 463zM475 942q0 -125 29 -209q47 -133 57 -180q221 -246 502 -246q115 0 209 35 q12 4 43 68.5t31 76.5v156q0 221 -183 412q-179 191 -397 191q-11 0 -23 -1q-33 0 -98 16.5t-63 16.5q-53 0 -84 -158q-23 -108 -23 -178z" />
<glyph unicode="&#x153;" horiz-adv-x="2525" d="M1495 434q0 416 551 717q14 -27 80.5 -53.5t136.5 -26.5q39 0 57 14q27 18 62 29q8 -8 8 -18q0 -25 -57 -92q-172 -201 -312 -201q-39 0 -110 18q-78 20 -107 41q-14 -27 -35 -88l2 -139q2 4 46.5 35.5t58.5 31.5q154 -31 166 -30q137 0 200 43q109 74 156 90l6 -21 q-96 -156 -247.5 -263t-299.5 -122q20 -39 139 -88t203 -49q82 0 148 45q98 68 145 86q8 -8 8 -18q0 -74 -194 -219q-168 -125 -219 -140q-78 -23 -129 -22q-53 0 -177 38t-163 68q-123 96 -123 334zM125 395q0 207 164 469q170 272 379 377q2 -4 0 -24q0 -16 8 -17 q20 0 99 20.5t143 20.5q184 0 311 -145q119 -137 119 -314q0 -172 -201 -368l-399 -361q-23 -23 -97 -37q-66 -14 -119 -14q-143 0 -272 117q-135 122 -135 276zM440 676q0 -139 121 -252t250 -113q72 0 100 19q20 12 121 116v152q0 76 -107.5 192.5t-172.5 129.5 q-86 14 -113 14q-129 0 -170 -68q-29 -49 -29 -190z" />
<glyph unicode="&#x2c6;" horiz-adv-x="1507" d="M207 1034q117 162 285 338q207 221 299 244q23 -63 159 -180q150 -129 236 -129q29 0 80 41t75 41q10 0 19 -3q-33 -90 -182 -221q-156 -139 -246 -139q-74 0 -209 96.5t-178 173.5l-176 -182q-111 -109 -156 -106z" />
<glyph unicode="&#x2dc;" horiz-adv-x="927" d="M-508 135v21q0 23 78 98q166 164 283 164q37 0 179 -44t210 -44q102 0 141 34q68 59 113 78q10 -10 10 -12q0 -61 -160.5 -181t-212.5 -122q-10 0 -43.5 -2t-38.5 -2q-51 0 -193 44t-185 44q-49 0 -96.5 -38t-63.5 -38h-21z" />
<glyph unicode="&#x2000;" horiz-adv-x="1210" />
<glyph unicode="&#x2001;" horiz-adv-x="2422" />
<glyph unicode="&#x2002;" horiz-adv-x="1210" />
<glyph unicode="&#x2003;" horiz-adv-x="2422" />
<glyph unicode="&#x2004;" horiz-adv-x="806" />
<glyph unicode="&#x2005;" horiz-adv-x="604" />
<glyph unicode="&#x2006;" horiz-adv-x="403" />
<glyph unicode="&#x2007;" horiz-adv-x="403" />
<glyph unicode="&#x2008;" horiz-adv-x="301" />
<glyph unicode="&#x2009;" horiz-adv-x="483" />
<glyph unicode="&#x200a;" horiz-adv-x="133" />
<glyph unicode="&#x2010;" d="M129 598v23q0 45 142.5 178t185.5 133q6 0 162.5 -45t162.5 -45q82 0 152 42t67 42h27q-43 -127 -200.5 -241t-288.5 -114l-285 82l-96 -55h-29z" />
<glyph unicode="&#x2011;" d="M129 598v23q0 45 142.5 178t185.5 133q6 0 162.5 -45t162.5 -45q82 0 152 42t67 42h27q-43 -127 -200.5 -241t-288.5 -114l-285 82l-96 -55h-29z" />
<glyph unicode="&#x2012;" d="M129 598v23q0 45 142.5 178t185.5 133q6 0 162.5 -45t162.5 -45q82 0 152 42t67 42h27q-43 -127 -200.5 -241t-288.5 -114l-285 82l-96 -55h-29z" />
<glyph unicode="&#x2013;" horiz-adv-x="1024" d="M205 512v205h614v-205h-614z" />
<glyph unicode="&#x2014;" horiz-adv-x="2048" d="M205 512v205h1638v-205h-1638z" />
<glyph unicode="&#x2018;" horiz-adv-x="813" d="M209 1270q0 115 76 205q63 74 209 161q10 -10 10 -12q0 -12 -47 -69.5t-47 -104.5q0 -55 32 -117q39 -74 99 -73h16h35q-16 -59 -94 -131t-140 -72q-70 0 -114 84q-35 68 -35 129z" />
<glyph unicode="&#x2019;" horiz-adv-x="849" d="M145 1272q4 41 127 196q139 176 217 177q59 0 103 -80q37 -66 37 -117q0 -119 -137.5 -287t-262.5 -192q37 74 88 145q14 18 15 105q0 31 -74 104q-8 -4 -41 -27.5t-41 -23.5h-31z" />
<glyph unicode="&#x201c;" horiz-adv-x="1398" d="M147 1272q4 41 127 196q139 176 218 177q59 0 102 -80q37 -66 37 -117q0 -119 -137.5 -287t-262.5 -192q37 74 88 145q14 18 15 105q0 31 -74 104q-8 -4 -41 -27.5t-41 -23.5h-31zM731 1354v37q-2 45 157 190t197 145q49 0 105 -129q47 -109 47 -137q0 -92 -121 -235 q-111 -131 -213 -187l-31 6q4 23 35 72q27 43 27 80q0 51 -23 96q-12 25 -73 113q-68 -51 -76 -51h-31z" />
<glyph unicode="&#x201d;" horiz-adv-x="1398" d="M147 1272q4 41 127 196q139 176 218 177q59 0 102 -80q37 -66 37 -117q0 -119 -137.5 -287t-262.5 -192q37 74 88 145q14 18 15 105q0 31 -74 104q-8 -4 -41 -27.5t-41 -23.5h-31zM731 1354v37q-2 45 157 190t197 145q49 0 105 -129q47 -109 47 -137q0 -92 -121 -235 q-111 -131 -213 -187l-31 6q4 23 35 72q27 43 27 80q0 51 -23 96q-12 25 -73 113q-68 -51 -76 -51h-31z" />
<glyph unicode="&#x2026;" horiz-adv-x="2469" d="M1885 35q0 43 91 117.5t132 74.5q10 0 78 -67q23 18 51 35h20q2 -31 -90 -127.5t-131 -96.5q-16 0 -46 35t-44 35q2 0 -49 -21q-12 9 -12 15zM1061 35q0 43 91 117.5t132 74.5q10 0 78 -67q23 18 51 35h20q2 -31 -90 -127.5t-131 -96.5q-16 0 -46 35t-44 35q2 0 -49 -21 q-12 9 -12 15zM238 35q0 43 91 117.5t132 74.5q10 0 78 -67q23 18 51 35h20q2 -31 -90 -127.5t-131 -96.5q-16 0 -46 35t-44 35q2 0 -49 -21q-12 9 -12 15z" />
<glyph unicode="&#x202f;" horiz-adv-x="483" />
<glyph unicode="&#x2039;" horiz-adv-x="1439" d="M117 606q-8 70 248 365q53 63 167.5 227t184.5 244q111 127 221 190l29 -8q-6 -43 -23 -63q-408 -502 -528 -687l366 -382q223 -209 387 -209q55 0 123 39h33q-43 -119 -175 -225.5t-243 -106.5q-188 0 -420 227z" />
<glyph unicode="&#x203a;" horiz-adv-x="1544" d="M190 1331q70 137 174.5 222t210.5 85q172 0 299 -118l220 -252q150 -160 338 -228q-4 -57 -117 -170l-178 -172q-164 -180 -344 -407q-154 -190 -199 -234q-76 -76 -145 -73q-6 45 233 323q342 397 383 453q-162 98 -303 258q-184 207 -199 219q-106 94 -250 94h-44h-79z " />
<glyph unicode="&#x205f;" horiz-adv-x="604" />
<glyph unicode="&#x2122;" horiz-adv-x="1763" d="M158 1423q2 29 79.5 110t116.5 81q-2 0 54.5 -31t107.5 -31q47 0 100 31l76 51q8 0 19 -6q-14 -43 -61 -91l-46 -48q0 -2 12.5 -18.5t14.5 -26.5q25 -86 24 -137q0 -78 -86 -185.5t-176 -146.5q-6 14 -45 39q-49 33 -84 33q-10 0 -33.5 -10.5t-42.5 -8.5q37 68 96.5 115 t108.5 47q18 0 60.5 -17.5t54.5 -29.5q2 8 2 33q0 59 -25 135q-10 31 -29.5 49t-72.5 41q-154 61 -150 61q8 0 -57 -39h-18zM698 1210q0 137 112 263t239 126q47 0 75 -24q14 -10 56 -62q66 57 90 72q35 23 84 23q78 0 125 -78q41 -63 41 -137q0 -49 -25 -88q-4 -8 -74 -101 l74 -12q51 -12 51 -35q0 -20 -59.5 -79.5t-77.5 -59.5l-25 19q-25 19 -67 20q-35 0 -86 -27q-2 2 -8 10.5t-6 12.5q0 14 18 34q41 53 106 103q33 25 33 72q0 43 -33 114q-41 86 -88 86h-41q-10 -6 -6 -22q6 -33 6 -62q0 -84 -36 -159q-49 -102 -154 -154q2 8 29 76 q18 45 18 106q0 70 -35 131q-43 76 -114 76q-55 0 -68 -35q-8 -16 -8 -82q0 -154 94 -153q33 0 37 4q10 12 45 22q-25 -63 -88.5 -117.5t-116.5 -54.5q-117 0 -117 172z" />
<glyph unicode="&#xe000;" horiz-adv-x="1295" d="M0 1295h1295v-1295h-1295v1295z" />
<glyph unicode="&#xfb01;" horiz-adv-x="1632" d="M1002 1309q0 59 148.5 194t195.5 135q20 0 68 -51l61 -69q14 6 45 22h31q-35 -98 -161 -213q-118 -107 -188 -107q-5 0 -10 1q-33 43 -96 114q-61 -47 -86 -47q-8 9 -8 21zM1053 762q27 94 176 225q135 119 185 119h4q39 -20 92 -70q37 -74 37 -196v-312q0 -4 5 -39.5 t5 -44.5q0 -100 -137 -289q-136 -187 -214 -188h-1h-25q14 43 55 117q31 53 31 96q0 6 -6 34t-6 36v313q0 70 -21 139q-29 94 -82 95q-6 0 -29.5 -17.5t-31.5 -17.5h-37zM-238 -383q0 10 125 197l174 266q10 16 45 192q37 193 37 269v506v-2q-1 0 -8 71q-3 35 -3 61.5 t3 45.5q4 31 64 98l106 121q172 203 299 262h25q4 -41 65 -70q51 -23 105 -22q61 0 100 14l102 45h25v-24q0 -43 -121 -154q-111 -100 -147 -115q-125 -45 -211 -45q-68 0 -127 33q-1 -8 -1 -18q0 -32 9 -93l4 -221q170 158 216 158h1q98 -102 182 -102q55 0 76 10 q72 39 131 63q0 -76 -165.5 -217t-245.5 -141q-133 0 -197 65q-18 -133 -22 -208q-14 -276 -181 -564q-174 -301 -450 -497q-15 14 -15 16z" />
<glyph unicode="&#xfb02;" horiz-adv-x="1769" d="M1033 1262q0 66 157.5 221t225.5 155q18 0 67 -45t49 -65v-490q0 -6 -6 -22.5t-6 -24.5v-583q0 -18 31 -55.5t51 -37.5q4 0 43 26t66 34q8 -8 8 -21q0 -82 -168 -241q-158 -147 -203 -154q-14 18 -92 80q-43 35 -43 82v606q0 4 6 31.5t6 36.5v442q-31 45 -57 70 q-63 -43 -127 -72q-8 9 -8 27zM-238 -383q0 10 125 197l174 266q10 16 45 192q37 193 37 269v506v-2q-1 0 -8 71q-3 35 -3 61.5t3 45.5q4 31 64 98l106 121q172 203 299 262h25q4 -41 65 -70q51 -23 105 -22q61 0 100 14l102 45h25v-24q0 -43 -121 -154q-111 -100 -147 -115 q-125 -45 -211 -45q-68 0 -127 33q-1 -8 -1 -18q0 -32 9 -93l4 -221q170 158 216 158h1q98 -102 182 -102q55 0 76 10q72 39 131 63q0 -76 -165.5 -217t-245.5 -141q-133 0 -197 65q-18 -133 -22 -208q-14 -276 -181 -564q-174 -301 -450 -497q-15 14 -15 16z" />
<glyph unicode="&#xfb03;" horiz-adv-x="2592" d="M1962 1309q0 59 148.5 194t195.5 135q20 0 68 -51l61 -69q14 6 45 22h31q-35 -98 -161 -213q-118 -107 -188 -107q-5 0 -10 1q-33 43 -96 114q-61 -47 -86 -47q-8 9 -8 21zM2013 762q27 94 176 225q135 119 185 119h4q39 -20 92 -70q37 -74 37 -196v-312q0 -4 5 -39.5 t5 -44.5q0 -100 -137 -289q-136 -187 -214 -188h-1h-25q14 43 55 117q31 53 31 96q0 6 -6 34t-6 36v313q0 70 -21 139q-29 94 -82 95q-6 0 -29.5 -17.5t-31.5 -17.5h-37zM723 -383q0 10 125 197l174 266q10 16 45 192q37 193 37 269v506v-2q-1 0 -8 71q-3 35 -3 61.5t3 45.5 q4 31 64 98l106 121q172 203 299 262h25q4 -41 65 -70q51 -23 105 -22q61 0 100 14l102 45h25v-24q0 -43 -121 -154q-111 -100 -147 -115q-125 -45 -211 -45q-68 0 -127 33q-1 -8 -1 -18q0 -32 9 -93l4 -221q170 158 216 158h1q98 -102 182 -102q55 0 76 10q72 39 131 63 q0 -76 -165.5 -217t-245.5 -141q-133 0 -197 65q-18 -133 -22 -208q-14 -276 -181 -564q-174 -301 -450 -497q-15 14 -15 16zM-238 -383q0 10 125 197l174 266q10 16 45 192q37 193 37 269v506v-2q-1 0 -8 71q-3 35 -3 61.5t3 45.5q4 31 64 98l106 121q172 203 299 262h25 q4 -41 65 -70q51 -23 105 -22q61 0 100 14l102 45h25v-24q0 -43 -121 -154q-111 -100 -147 -115q-125 -45 -211 -45q-68 0 -127 33q-1 -8 -1 -18q0 -32 9 -93l4 -221q170 158 216 158h1q98 -102 182 -102q55 0 76 10q72 39 131 63q0 -76 -165.5 -217t-245.5 -141 q-133 0 -197 65q-18 -133 -22 -208q-14 -276 -181 -564q-174 -301 -450 -497q-15 14 -15 16z" />
<glyph unicode="&#xfb04;" horiz-adv-x="2729" d="M1993 1262q0 66 157.5 221t225.5 155q18 0 67 -45t49 -65v-490q0 -6 -6 -22.5t-6 -24.5v-583q0 -18 31 -55.5t51 -37.5q4 0 43 26t66 34q8 -8 8 -21q0 -82 -168 -241q-158 -147 -203 -154q-14 18 -92 80q-43 35 -43 82v606q0 4 6 31.5t6 36.5v442q-31 45 -57 70 q-63 -43 -127 -72q-8 9 -8 27zM723 -383q0 10 125 197l174 266q10 16 45 192q37 193 37 269v506v-2q-1 0 -8 71q-3 35 -3 61.5t3 45.5q4 31 64 98l106 121q172 203 299 262h25q4 -41 65 -70q51 -23 105 -22q61 0 100 14l102 45h25v-24q0 -43 -121 -154q-111 -100 -147 -115 q-125 -45 -211 -45q-68 0 -127 33q-1 -8 -1 -18q0 -32 9 -93l4 -221q170 158 216 158h1q98 -102 182 -102q55 0 76 10q72 39 131 63q0 -76 -165.5 -217t-245.5 -141q-133 0 -197 65q-18 -133 -22 -208q-14 -276 -181 -564q-174 -301 -450 -497q-15 14 -15 16zM-238 -383 q0 10 125 197l174 266q10 16 45 192q37 193 37 269v506v-2q-1 0 -8 71q-3 35 -3 61.5t3 45.5q4 31 64 98l106 121q172 203 299 262h25q4 -41 65 -70q51 -23 105 -22q61 0 100 14l102 45h25v-24q0 -43 -121 -154q-111 -100 -147 -115q-125 -45 -211 -45q-68 0 -127 33 q-1 -8 -1 -18q0 -32 9 -93l4 -221q170 158 216 158h1q98 -102 182 -102q55 0 76 10q72 39 131 63q0 -76 -165.5 -217t-245.5 -141q-133 0 -197 65q-18 -133 -22 -208q-14 -276 -181 -564q-174 -301 -450 -497q-15 14 -15 16z" />
</font>
</defs>
</svg>
