<?xml version="1.0" encoding="utf-8"?>
<!-- Generator: Adobe Illustrator 15.1.0, SVG Export Plug-In . SVG Version: 6.00 Build 0)  -->
<!DOCTYPE svg PUBLIC "-//W3C//DTD SVG 1.1//EN" "http://www.w3.org/Graphics/SVG/1.1/DTD/svg11.dtd">
<svg version="1.1" id="Layer_1" xmlns="http://www.w3.org/2000/svg" xmlns:xlink="http://www.w3.org/1999/xlink" x="0px" y="0px"
	 width="100px" height="100px" viewBox="0 0 100 100" enable-background="new 0 0 100 100" xml:space="preserve">
<g>
	<path fill="#E2E2E9" d="M48.324,97.124c-0.082-0.142-2.018-3.538-4.158-9.711l-0.491-1.417l5.669-1.965l0.492,1.417
		c1.91,5.51,3.623,8.567,3.695,8.694l0.732,1.297l-5.192,2.984L48.324,97.124z M42.611,82.487
		c-0.925-3.227-1.712-6.599-2.339-10.021l-0.27-1.476l5.902-1.082l0.27,1.476c0.59,3.226,1.332,6.405,2.204,9.451l0.413,1.442
		l-5.768,1.652L42.611,82.487z M39.463,67.392c-0.456-3.347-0.77-6.785-0.934-10.218l-0.071-1.498l5.994-0.285l0.072,1.498
		c0.155,3.258,0.453,6.52,0.885,9.694l0.203,1.486l-5.945,0.809L39.463,67.392z M38.391,51.348c0-3.145,0.122-6.35,0.362-9.532
		l0.113-1.496l5.982,0.451l-0.113,1.496c-0.229,3.033-0.345,6.087-0.345,9.077l0.006,2.17l-6,0.039L38.391,51.348z M39.067,38.212
		l0.171-1.49c0.383-3.335,0.905-6.735,1.551-10.104l0.282-1.473l5.893,1.129l-0.282,1.473c-0.617,3.219-1.115,6.469-1.482,9.66
		l-0.171,1.49L39.067,38.212z M41.507,23.083l0.335-1.462c0.571-2.496,1.227-5.042,1.948-7.567l0.412-1.442l5.77,1.648l-0.412,1.442
		c-0.69,2.414-1.319,4.856-1.87,7.259l-0.335,1.461L41.507,23.083z"/>
	<path fill="#FFFFFF" d="M45.232,14.466l2.885,0.824c-0.697,2.44-1.333,4.908-1.89,7.336l-2.924-0.67
		C43.872,19.477,44.521,16.957,45.232,14.466 M42.262,26.9l2.946,0.564c-0.624,3.257-1.128,6.545-1.5,9.771l-2.98-0.343
		C41.108,33.593,41.624,30.231,42.262,26.9 M40.249,41.929l2.991,0.226c-0.231,3.067-0.349,6.159-0.349,9.189l0.002,0.68l-3,0.02
		l-0.002-0.699C39.891,48.238,40.011,45.07,40.249,41.929 M43.025,56.96c0.157,3.3,0.459,6.605,0.897,9.825l-2.973,0.404
		c-0.45-3.306-0.76-6.7-0.922-10.087L43.025,56.96 M44.699,71.654c0.6,3.276,1.353,6.505,2.238,9.594l-2.884,0.826
		c-0.912-3.183-1.688-6.507-2.305-9.879L44.699,71.654 M48.418,85.939c1.991,5.744,3.79,8.911,3.807,8.942l-2.601,1.494
		c-0.079-0.137-1.947-3.414-4.041-9.454L48.418,85.939 M43.172,10.757l-0.824,2.885c-0.729,2.55-1.391,5.123-1.968,7.644
		l-0.482,2.106L39.88,23.39l-0.089,0.464L39.71,24.21l0.013,0.003l-0.407,2.123c-0.653,3.405-1.18,6.842-1.568,10.214L37.5,38.713
		l-0.017-0.001l-0.032,0.424l-0.045,0.396l0.015,0.001l-0.164,2.17c-0.243,3.219-0.366,6.463-0.366,9.641l0.002,0.708l0.006,2.196
		h-0.011l0.011,0.233l0.001,0.581h0.026l0.104,2.183c0.166,3.477,0.484,6.959,0.946,10.35l0.298,2.188l-0.018,0.003l0.073,0.401
		l0.052,0.38l0.018-0.002l0.398,2.172c0.636,3.471,1.434,6.891,2.372,10.164l0.619,2.162l-0.022,0.007l0.14,0.402l0.089,0.312
		l0.017-0.005l0.737,2.125c2.149,6.199,4.063,9.6,4.274,9.967l1.495,2.6l2.601-1.493l2.601-1.494l2.577-1.48l-1.456-2.591
		c-0.073-0.13-1.723-3.075-3.588-8.455l-0.766-2.208l-0.666-2.327c-0.859-2.999-1.589-6.13-2.171-9.308l-0.433-2.362l-0.323-2.372
		c-0.426-3.131-0.72-6.349-0.874-9.562l-0.123-2.572l-0.006-2.23l-0.002-0.68c0-2.944,0.115-5.959,0.341-8.955L46.411,40
		l0.279-2.421c0.363-3.154,0.856-6.367,1.465-9.549l0.449-2.344l0.548-2.389c0.545-2.377,1.167-4.793,1.85-7.182l0.824-2.885
		l-2.885-0.824l-2.885-0.824L43.172,10.757L43.172,10.757z"/>
</g>
<g>
	<polygon fill="#E2E2E9" points="48.028,10.085 40.638,13.775 37.261,7.388 50.829,1.41 58.528,14.034 52.387,17.826 	"/>
	<path fill="#FFFFFF" d="M50.232,3.312l6.239,10.229l-3.543,2.188l-4.293-7.623l-7.356,3.673L39.34,8.111L50.232,3.312
		 M51.426-0.492l-2.403,1.059L38.13,5.365l-2.949,1.299l1.506,2.848l1.939,3.668l1.37,2.592l2.623-1.31l4.802-2.398l2.893,5.136
		l1.533,2.722l2.657-1.642l3.543-2.188l2.538-1.568l-1.553-2.547L52.793,1.75L51.426-0.492L51.426-0.492z"/>
</g>
</svg>
