<?xml version="1.0" encoding="utf-8"?>
<!-- Generator: Adobe Illustrator 15.1.0, SVG Export Plug-In . SVG Version: 6.00 Build 0)  -->
<!DOCTYPE svg PUBLIC "-//W3C//DTD SVG 1.1//EN" "http://www.w3.org/Graphics/SVG/1.1/DTD/svg11.dtd">
<svg version="1.1" id="Layer_1" xmlns="http://www.w3.org/2000/svg" xmlns:xlink="http://www.w3.org/1999/xlink" x="0px" y="0px"
	 width="1000px" height="1000px" viewBox="0 0 1000 1000" enable-background="new 0 0 1000 1000" xml:space="preserve">
<path fill="none" stroke="#43B064" stroke-width="40" stroke-miterlimit="10" d="M500,322.514
	c98.022,0,177.485,79.463,177.485,177.486c0,98.023-79.463,177.486-177.486,177.486c-98.022,0-177.486-79.463-177.486-177.486
	C322.513,401.977,401.977,322.514,500,322.514z"/>
<path fill="none" stroke="#43B064" stroke-width="40" stroke-miterlimit="10" d="M500,242.012
	c142.481,0,257.987,115.505,257.987,257.988c0,142.483-115.506,257.988-257.987,257.988c-142.483,0-257.988-115.505-257.988-257.988
	C242.012,357.517,357.517,242.012,500,242.012z"/>
<path fill="none" stroke="#43B064" stroke-width="40" stroke-miterlimit="10" d="M500,164.474
	c185.307,0,335.525,150.221,335.525,335.526c0,185.307-150.221,335.527-335.525,335.527c-185.306,0-335.526-150.222-335.526-335.527
	C164.474,314.694,314.694,164.474,500,164.474z"/>
<path fill="none" stroke="#43B064" stroke-width="40" stroke-miterlimit="10" d="M500,81.897
	c230.911,0,418.104,187.191,418.104,418.103S730.911,918.104,500,918.104C269.088,918.104,81.896,730.912,81.896,500
	S269.088,81.897,500,81.897z"/>
</svg>
