<?xml version="1.0" encoding="utf-8"?>
<!-- Generator: Adobe Illustrator 15.1.0, SVG Export Plug-In . SVG Version: 6.00 Build 0)  -->
<!DOCTYPE svg PUBLIC "-//W3C//DTD SVG 1.1//EN" "http://www.w3.org/Graphics/SVG/1.1/DTD/svg11.dtd">
<svg version="1.1" id="Layer_1" xmlns="http://www.w3.org/2000/svg" xmlns:xlink="http://www.w3.org/1999/xlink" x="0px" y="0px"
	 width="150px" height="50px" viewBox="0 0 150 50" enable-background="new 0 0 150 50" xml:space="preserve">
<path fill="#717E89" d="M10.781,0.499h128.438c1.656,0,3,1.344,3,3v43c0,1.656-1.344,3-3,3H10.781c-1.656,0-3-1.344-3-3v-43
	C7.781,1.843,9.125,0.499,10.781,0.499z"/>
<path fill="#BCC6D1" d="M37.511,16.157c-4.881-4.879-12.801-4.879-17.68,0c-4.884,4.883-4.884,12.799,0,17.681
	c4.883,4.882,12.799,4.882,17.68,0C42.394,28.958,42.394,21.04,37.511,16.157z M25.089,31.523V18.472l11.189,6.525L25.089,31.523z"
	/>
<g>
	<path fill="#FFFFFF" d="M54.078,28.266l1.17-1.666c0.705,0.735,1.8,1.365,3.18,1.365c1.186,0,1.74-0.525,1.74-1.109
		c0-1.739-5.76-0.524-5.76-4.29c0-1.665,1.44-3.045,3.795-3.045c1.59,0,2.91,0.479,3.899,1.395l-1.185,1.59
		c-0.81-0.75-1.89-1.095-2.91-1.095c-0.899,0-1.409,0.39-1.409,0.99c0,1.574,5.744,0.51,5.744,4.244c0,1.83-1.319,3.211-4.005,3.211
		C56.403,29.854,55.023,29.21,54.078,28.266z"/>
	<path fill="#FFFFFF" d="M63.768,29.675V19.67h7.079v1.875h-4.949v2.101h4.845v1.874h-4.845v2.28h4.949v1.875H63.768z"/>
	<path fill="#FFFFFF" d="M72.513,29.675V19.67h7.079v1.875h-4.949v2.101h4.845v1.874h-4.845v2.28h4.949v1.875H72.513z"/>
	<path fill="#FFFFFF" d="M85.113,29.675V19.67h3.943c3.135,0,5.311,1.995,5.311,4.995c0,3.03-2.176,5.01-5.295,5.01H85.113z
		 M92.191,24.665c0-1.755-1.08-3.12-3.119-3.12h-1.83V27.8h1.814C91.037,27.8,92.191,26.375,92.191,24.665z"/>
	<path fill="#FFFFFF" d="M95.883,29.675V19.67h7.078v1.875h-4.949v2.101h4.846v1.874h-4.846v2.28h4.949v1.875H95.883z"/>
	<path fill="#FFFFFF" d="M113.326,29.675V22.46l-2.818,7.215h-0.932l-2.818-7.215v7.215h-2.131V19.67h2.984l2.43,6.255l2.432-6.255
		h3v10.005H113.326z"/>
	<path fill="#FFFFFF" d="M116.973,24.68c0-3.015,2.205-5.175,5.234-5.175c3.016,0,5.221,2.16,5.221,5.175s-2.205,5.175-5.221,5.175
		C119.178,29.854,116.973,27.695,116.973,24.68z M125.236,24.68c0-1.875-1.184-3.284-3.029-3.284c-1.859,0-3.045,1.409-3.045,3.284
		c0,1.86,1.186,3.285,3.045,3.285C124.053,27.965,125.236,26.54,125.236,24.68z"/>
</g>
</svg>
