<?xml version="1.0" encoding="utf-8"?>
<!-- Generator: Adobe Illustrator 15.1.0, SVG Export Plug-In . SVG Version: 6.00 Build 0)  -->
<!DOCTYPE svg PUBLIC "-//W3C//DTD SVG 1.1//EN" "http://www.w3.org/Graphics/SVG/1.1/DTD/svg11.dtd">
<svg version="1.1" id="Layer_1" xmlns="http://www.w3.org/2000/svg" xmlns:xlink="http://www.w3.org/1999/xlink" x="0px" y="0px"
	 width="100px" height="100px" viewBox="0 0 100 100" enable-background="new 0 0 100 100" xml:space="preserve">
<path fill="#869BA9" d="M50.031,6.247c-24.024,0-43.5,19.477-43.5,43.501c0,24.023,19.476,43.5,43.5,43.5s43.5-19.477,43.5-43.5
	C93.531,25.724,74.057,6.247,50.031,6.247z M72.092,45.867v20.494l-22.051,6.301L27.99,66.361V45.867v-3.389l15.563-4.496
	l2.238,2.799l-11.868,3.392l16.117,4.603l16.118-4.603l-11.891-3.397l2.238-2.799l15.584,4.502v3.388H72.092z"/>
<polygon fill="#94A5B3" points="45.461,27.989 45.461,21.134 54.602,21.134 54.602,27.989 59.171,27.989 50.03,39.415 
	40.891,27.989 "/>
<polygon fill="#BEC7D1" points="45.461,29.989 45.461,23.134 54.602,23.134 54.602,29.989 59.171,29.989 50.03,41.415 
	40.891,29.989 "/>
<polygon fill="#FFFFFF" points="45.461,31.989 45.461,25.134 54.602,25.134 54.602,31.989 59.171,31.989 50.03,43.415 
	40.891,31.989 "/>
</svg>
