<?xml version="1.0" encoding="utf-8"?>
<!-- Generator: Adobe Illustrator 15.1.0, SVG Export Plug-In . SVG Version: 6.00 Build 0)  -->
<!DOCTYPE svg PUBLIC "-//W3C//DTD SVG 1.1//EN" "http://www.w3.org/Graphics/SVG/1.1/DTD/svg11.dtd">
<svg version="1.1" id="Layer_1" xmlns="http://www.w3.org/2000/svg" xmlns:xlink="http://www.w3.org/1999/xlink" x="0px" y="0px"
	 width="100px" height="100px" viewBox="0 0 100 100" enable-background="new 0 0 100 100" xml:space="preserve">
<path fill="#CAD2DA" d="M50.5,6.247C26.476,6.247,7,25.724,7,49.748c0,24.023,19.476,43.5,43.5,43.5c24.023,0,43.5-19.477,43.5-43.5
	C94,25.724,74.523,6.247,50.5,6.247z M45.943,32.155V25.3h9.14v6.855h4.569l-9.141,11.426l-9.14-11.426H45.943z M72.561,45.867
	v20.494L50.51,72.662l-22.051-6.301V45.867v-3.389l15.563-4.496l2.238,2.799l-11.868,3.392l16.117,4.603l16.118-4.603l-11.891-3.397
	l2.238-2.799l15.584,4.502v3.388H72.561z"/>
</svg>
