<?xml version="1.0" encoding="utf-8"?>
<!-- Generator: Adobe Illustrator 15.1.0, SVG Export Plug-In . SVG Version: 6.00 Build 0)  -->
<!DOCTYPE svg PUBLIC "-//W3C//DTD SVG 1.1//EN" "http://www.w3.org/Graphics/SVG/1.1/DTD/svg11.dtd">
<svg version="1.1" id="Layer_1" xmlns="http://www.w3.org/2000/svg" xmlns:xlink="http://www.w3.org/1999/xlink" x="0px" y="0px"
	 width="100px" height="100px" viewBox="0 0 100 100" enable-background="new 0 0 100 100" xml:space="preserve">
<g>
	<path fill="#FFE471" d="M49.121,53.139h2.506c0.76,0,1.378-0.615,1.378-1.371v-9.23c0-0.756-0.618-1.373-1.378-1.373h-2.256
		c-0.754,0-1.379,0.617-1.379,1.373v9.23C47.992,52.521,48.367,53.139,49.121,53.139z"/>
	<path fill="#FFE471" d="M51.71,55.133h-2.423c-0.754,0-1.377,0.616-1.377,1.372v2.243c0,0.756,0.623,1.372,1.377,1.372h2.423
		c0.759,0,1.378-1.116,1.378-1.872v-1.743C53.088,55.749,52.469,55.133,51.71,55.133z"/>
	<path fill="#FFE471" d="M50.5,6.101C25.924,6.101,6,26.024,6,50.602c0,24.576,19.924,44.5,44.5,44.5S95,75.177,95,50.602
		C95,26.025,75.076,6.101,50.5,6.101z M69.79,66.107H31.207c-1.512,0-2.137-1.071-1.389-2.385l19.313-33.648
		c0.753-1.308,1.985-1.308,2.734,0l19.312,33.648C71.932,65.036,71.309,66.107,69.79,66.107z"/>
</g>
</svg>
