<?xml version="1.0" encoding="utf-8"?>
<!-- Generator: Adobe Illustrator 15.1.0, SVG Export Plug-In . SVG Version: 6.00 Build 0)  -->
<!DOCTYPE svg PUBLIC "-//W3C//DTD SVG 1.1//EN" "http://www.w3.org/Graphics/SVG/1.1/DTD/svg11.dtd">
<svg version="1.1" id="Layer_1" xmlns="http://www.w3.org/2000/svg" xmlns:xlink="http://www.w3.org/1999/xlink" x="0px" y="0px"
	 width="150px" height="150px" viewBox="0 0 150 150" enable-background="new 0 0 150 150" xml:space="preserve">
<g>
	<g>
		<polygon fill="#EF4D5C" points="97.898,10.639 97.898,25.694 112.955,25.694 		"/>
		<polygon fill="#EF4D5C" points="96.896,25.694 96.896,9.667 23.774,9.667 23.774,129.868 113.926,129.868 113.926,26.696 
			96.896,26.696 		"/>
	</g>
	<path fill="#F07074" d="M68.849,40.719c16.045,0,29.049,13.007,29.049,29.048c0,16.044-13.004,29.049-29.049,29.049
		c-16.042,0-29.048-13.005-29.048-29.049C39.801,53.725,52.808,40.719,68.849,40.719z"/>
	<path fill="#FFFFFF" d="M79.988,59.535c0.904-0.312,1.914-0.487,3.098-0.487v-7.065c-5.082,0-9.153,1.914-12.252,5.777
		c-1.078,1.357-2.158,3.062-3.062,5.151l-2.297,5.604c-0.801,2.263-1.496,3.933-2.054,5.047c-0.731,1.601-1.427,2.854-2.123,3.76
		c-0.87,1.077-1.776,1.81-2.784,2.296c-1.115,0.523-2.402,0.801-3.898,0.801v7.135c5.08,0,9.154-1.948,12.25-5.778
		c0.871-1.147,1.707-2.472,2.507-4.036l1.95-4.956H79v-7.101h-4.897c0.524-1.184,1.045-1.692,1.604-2.562
		c0.59-0.905,1.217-1.67,1.879-2.192C78.318,60.301,79.084,59.849,79.988,59.535L79.988,59.535z"/>
	<path fill="#FFFFFF" d="M113.955,116.951c6.777,0,12.271,5.493,12.271,12.271s-5.494,12.271-12.271,12.271
		s-12.27-5.494-12.27-12.271S107.178,116.951,113.955,116.951z"/>
	<path fill="#444445" d="M120.965,129.222l-3.504-2.628v1.752h-2.629v-2.629h1.783l-2.629-3.504l-2.629,3.504h1.721v2.629h-2.627
		v-1.752l-3.506,2.628l3.506,2.629v-1.752h2.627v2.629h-1.721l2.629,3.504l2.629-3.504h-1.783v-2.629h2.629v1.752L120.965,129.222z"
		/>
	<g>
		<path fill="#FFFFFF" d="M40.141,119.685v-7.35h3.085c2.314,0,3.979,1.388,3.979,3.669s-1.664,3.681-3.967,3.681H40.141z
			 M45.265,116.004c0-1.136-0.684-2.017-2.027-2.017h-1.201v4.045h1.189C44.516,118.032,45.265,117.095,45.265,116.004z"/>
		<path fill="#FFFFFF" d="M48.152,119.685v-7.35h5.39v1.652h-3.493v1.146h3.416v1.652h-3.416v1.246h3.493v1.653L48.152,119.685
			L48.152,119.685z"/>
		<path fill="#FFFFFF" d="M61.088,119.685v-4.859l-1.853,4.859H58.4l-1.862-4.859v4.859h-1.896v-7.35h2.633l1.544,4.055l1.532-4.055
			h2.633v7.35H61.088z"/>
		<path fill="#FFFFFF" d="M63.93,116.016c0-2.237,1.687-3.802,3.935-3.802s3.923,1.564,3.923,3.802s-1.675,3.801-3.923,3.801
			S63.93,118.251,63.93,116.016z M69.859,116.016c0-1.202-0.782-2.128-1.995-2.128c-1.212,0-2.006,0.926-2.006,2.128
			c0,1.188,0.794,2.126,2.006,2.126C69.077,118.142,69.859,117.204,69.859,116.016z"/>
		<path fill="#FFFFFF" d="M72.283,118.77c0-0.551,0.484-1.025,1.046-1.025s1.036,0.476,1.036,1.025c0,0.562-0.475,1.037-1.036,1.037
			S72.283,119.332,72.283,118.77z"/>
		<path fill="#FFFFFF" d="M74.949,118.647l1.002-1.476c0.529,0.528,1.346,0.97,2.357,0.97c0.641,0,1.037-0.221,1.037-0.584
			c0-0.97-4.155-0.165-4.155-2.998c0-1.233,1.036-2.337,2.92-2.337c1.18,0,2.205,0.354,2.986,1.026l-1.037,1.421
			c-0.615-0.518-1.42-0.771-2.146-0.771c-0.553,0-0.793,0.186-0.793,0.507c0,0.902,4.152,0.219,4.152,2.952
			c0,1.477-1.092,2.457-3.062,2.457C76.723,119.816,75.688,119.343,74.949,118.647z"/>
		<path fill="#FFFFFF" d="M87.764,119.685l-1.113-4.606l-1.113,4.606h-2.006l-2.104-7.35h2.127l1.113,4.901l1.256-4.901h1.455
			l1.256,4.901l1.104-4.901h2.137l-2.105,7.35H87.764z"/>
		<path fill="#FFFFFF" d="M92.467,119.685v-7.35h5.391v1.652h-3.492v1.146h3.414v1.652h-3.414v2.899L92.467,119.685L92.467,119.685z
			"/>
	</g>
</g>
</svg>
