<?xml version="1.0" encoding="utf-8"?>
<!-- Generator: Adobe Illustrator 15.1.0, SVG Export Plug-In . SVG Version: 6.00 Build 0)  -->
<!DOCTYPE svg PUBLIC "-//W3C//DTD SVG 1.1//EN" "http://www.w3.org/Graphics/SVG/1.1/DTD/svg11.dtd">
<svg version="1.1" id="Layer_1" xmlns="http://www.w3.org/2000/svg" xmlns:xlink="http://www.w3.org/1999/xlink" x="0px" y="0px"
	 width="1200px" height="160px" viewBox="0 0 1200 160" enable-background="new 0 0 1200 160" xml:space="preserve">
<path fill="none" stroke="#83CB94" stroke-width="3" stroke-miterlimit="10" d="M610.37,122.805c0,0-1.7-9.423,9.025-9.94
	C619.396,112.863,620.52,122.314,610.37,122.805z"/>
<path fill="#83CB94" d="M558.359,111.835c0,0.399,0.324,0.724,0.726,0.724l0,0c0.399,0,0.724-0.322,0.724-0.724V78.171
	c0-0.399-0.323-0.724-0.724-0.724l0,0c-0.4,0-0.726,0.324-0.726,0.724V111.835z"/>
<path fill="#83CB94" d="M575.011,95.546c0.398,0,0.724-0.325,0.724-0.726l0,0c0-0.398-0.324-0.723-0.724-0.723h-31.854
	c-0.398,0-0.723,0.323-0.723,0.723l0,0c0,0.399,0.323,0.726,0.723,0.726H575.011z"/>
<path fill="#83CB94" d="M547.581,106.168c-0.266,0.299-0.237,0.756,0.062,1.021l0,0c0.298,0.266,0.756,0.238,1.021-0.062
	l21.921-23.653c0.267-0.3,0.239-0.757-0.06-1.021l0,0c-0.299-0.267-0.756-0.239-1.021,0.06L547.581,106.168z"/>
<path fill="#83CB94" d="M570.585,106.168c0.266,0.299,0.238,0.756-0.061,1.021l0,0c-0.299,0.266-0.756,0.238-1.021-0.062
	l-21.922-23.653c-0.267-0.3-0.238-0.757,0.061-1.021l0,0c0.298-0.267,0.756-0.239,1.021,0.06L570.585,106.168z"/>
<circle fill="none" stroke="#83CB94" stroke-width="3" stroke-miterlimit="10" cx="559.084" cy="74.933" r="2.715"/>
<circle fill="none" stroke="#83CB94" stroke-width="3" stroke-miterlimit="10" cx="559.084" cy="114.749" r="2.715"/>
<circle fill="none" stroke="#83CB94" stroke-width="3" stroke-miterlimit="10" cx="578.369" cy="94.821" r="2.715"/>
<circle fill="none" stroke="#83CB94" stroke-width="3" stroke-miterlimit="10" cx="540.246" cy="94.821" r="2.715"/>
<circle fill="none" stroke="#83CB94" stroke-width="3" stroke-miterlimit="10" cx="545.677" cy="108.758" r="2.715"/>
<circle fill="none" stroke="#83CB94" stroke-width="3" stroke-miterlimit="10" cx="572.217" cy="108.758" r="2.715"/>
<circle fill="none" stroke="#83CB94" stroke-width="3" stroke-miterlimit="10" cx="572.217" cy="80.396" r="2.715"/>
<circle fill="none" stroke="#83CB94" stroke-width="3" stroke-miterlimit="10" cx="545.677" cy="80.396" r="2.715"/>
<path fill="#83CB94" d="M764.814,159.357c0,0.438,0.354,0.793,0.792,0.793l0,0c0.438,0,0.792-0.354,0.792-0.793V69.007
	c0-0.438-0.354-0.793-0.792-0.793l0,0c-0.438,0-0.792,0.355-0.792,0.793V159.357z"/>
<path fill="#83CB94" d="M783.043,88.029c0.438,0,0.792-0.355,0.792-0.793l0,0c0-0.438-0.354-0.793-0.792-0.793H748.17
	c-0.438,0-0.792,0.354-0.792,0.793l0,0c0,0.438,0.354,0.793,0.792,0.793H783.043z"/>
<path fill="#83CB94" d="M753.016,99.658c-0.291,0.326-0.262,0.828,0.064,1.117l0,0c0.327,0.291,0.827,0.263,1.118-0.064
	l23.998-25.896c0.291-0.328,0.263-0.829-0.063-1.119l0,0c-0.327-0.291-0.828-0.262-1.119,0.066L753.016,99.658z"/>
<path fill="#83CB94" d="M778.197,99.658c0.291,0.326,0.263,0.828-0.063,1.117l0,0c-0.327,0.291-0.828,0.263-1.119-0.064
	l-23.998-25.896c-0.291-0.328-0.262-0.829,0.064-1.119l0,0c0.327-0.291,0.828-0.262,1.118,0.066L778.197,99.658z"/>
<circle fill="none" stroke="#83CB94" stroke-width="3" stroke-miterlimit="10" cx="765.606" cy="65.463" r="2.972"/>
<circle fill="none" stroke="#83CB94" stroke-width="3" stroke-miterlimit="10" cx="786.72" cy="87.236" r="2.972"/>
<circle fill="none" stroke="#83CB94" stroke-width="3" stroke-miterlimit="10" cx="744.985" cy="87.236" r="2.972"/>
<circle fill="none" stroke="#83CB94" stroke-width="3" stroke-miterlimit="10" cx="750.929" cy="102.493" r="2.972"/>
<circle fill="none" stroke="#83CB94" stroke-width="3" stroke-miterlimit="10" cx="779.984" cy="102.493" r="2.972"/>
<circle fill="none" stroke="#83CB94" stroke-width="3" stroke-miterlimit="10" cx="779.984" cy="71.443" r="2.972"/>
<circle fill="none" stroke="#83CB94" stroke-width="3" stroke-miterlimit="10" cx="750.929" cy="71.443" r="2.972"/>
<path fill="#83CB94" d="M676.928,158.328c0,0.754,0.608,1.363,1.362,1.363l0,0c0.755,0,1.363-0.609,1.363-1.363V57.458
	c0-0.752-0.608-1.363-1.363-1.363l0,0c-0.754,0-1.362,0.611-1.362,1.363V158.328z"/>
<path fill="#83CB94" d="M696.506,91.301c0.754,0,1.362-0.609,1.362-1.361l0,0c0-0.754-0.608-1.363-1.362-1.363h-36.433
	c-0.754,0-1.362,0.609-1.362,1.363l0,0c0,0.752,0.608,1.361,1.362,1.361H696.506z"/>
<path fill="#83CB94" d="M696.506,110.021c0.754,0,1.362-0.609,1.362-1.363l0,0c0-0.753-0.608-1.363-1.362-1.363h-36.433
	c-0.754,0-1.362,0.61-1.362,1.363l0,0c0,0.754,0.608,1.363,1.362,1.363H696.506z"/>
<path fill="#83CB94" d="M696.506,127.741c0.754,0,1.362-0.609,1.362-1.362l0,0c0-0.754-0.608-1.363-1.362-1.363h-36.433
	c-0.754,0-1.362,0.609-1.362,1.363l0,0c0,0.753,0.608,1.362,1.362,1.362H696.506z"/>
<circle fill="none" stroke="#83CB94" stroke-width="3" stroke-miterlimit="10" cx="654.193" cy="90.293" r="4.645"/>
<circle fill="none" stroke="#83CB94" stroke-width="3" stroke-miterlimit="10" cx="654.193" cy="107.882" r="4.646"/>
<circle fill="none" stroke="#83CB94" stroke-width="3" stroke-miterlimit="10" cx="654.193" cy="126.469" r="4.645"/>
<circle fill="none" stroke="#83CB94" stroke-width="3" stroke-miterlimit="10" cx="701.491" cy="90.293" r="4.645"/>
<circle fill="none" stroke="#83CB94" stroke-width="3" stroke-miterlimit="10" cx="701.491" cy="107.882" r="4.644"/>
<circle fill="none" stroke="#83CB94" stroke-width="3" stroke-miterlimit="10" cx="701.491" cy="126.469" r="4.644"/>
<path fill="none" stroke="#83CB94" stroke-width="3" stroke-miterlimit="10" d="M677.805,50.502c0,0-4.014-22.234,21.297-23.458
	C699.102,27.044,701.75,49.345,677.805,50.502z"/>
<path fill="none" stroke="#83CB94" stroke-width="3" stroke-miterlimit="10" d="M677.773,50.456c0,0-21.422,3.454-23.279-22.463
	C654.493,27.993,676.016,25.937,677.773,50.456z"/>
<path fill="none" stroke="#83CB94" stroke-width="3" stroke-miterlimit="10" d="M677.365,50.551c0,0,3.769,22.155-19.981,23.375
	C657.383,73.926,654.896,51.703,677.365,50.551z"/>
<path fill="none" stroke="#83CB94" stroke-width="3" stroke-miterlimit="10" d="M677.572,50.957c0,0,22.694-3.597,24.517,22.254
	C702.088,73.211,679.295,75.415,677.572,50.957z"/>
<path fill="none" stroke="#83CB94" stroke-width="3" stroke-miterlimit="10" d="M824.519,57.157c0,0-2.277-12.615,12.083-13.31
	C836.602,43.848,838.104,56.501,824.519,57.157z"/>
<path fill="none" stroke="#83CB94" stroke-width="3" stroke-miterlimit="10" d="M823.567,58.701c0,0-15.716,2.534-17.078-16.479
	C806.489,42.222,822.278,40.713,823.567,58.701z"/>
<path fill="none" stroke="#83CB94" stroke-width="3" stroke-miterlimit="10" d="M219.827,133.455c0,0-2.277-12.615,12.083-13.311
	C231.91,120.146,233.413,132.799,219.827,133.455z"/>
<path fill="none" stroke="#83CB94" stroke-width="3" stroke-miterlimit="10" d="M218.875,134.999c0,0-15.716,2.534-17.078-16.479
	C201.797,118.52,217.586,117.011,218.875,134.999z"/>
<path fill="#83CB94" d="M890.003,158.746c0,0.645,0.521,1.166,1.165,1.166l0,0c0.645,0,1.166-0.521,1.166-1.166V49.182
	c0-0.645-0.521-1.166-1.166-1.166l0,0c-0.644,0-1.165,0.521-1.165,1.166V158.746z"/>
<path fill="#83CB94" d="M404.198,158.977c0,0.519,0.521,0.937,1.167,0.937l0,0c0.644,0,1.164-0.418,1.164-0.937V71.069
	c0-0.517-0.521-0.936-1.164-0.936l0,0c-0.645,0-1.167,0.419-1.167,0.936V158.977z"/>
<path fill="#83CB94" d="M478.295,158.919c0,0.549,0.521,0.993,1.166,0.993l0,0c0.643,0,1.164-0.444,1.164-0.993V65.62
	c0-0.549-0.521-0.993-1.164-0.993l0,0c-0.646,0-1.166,0.444-1.166,0.993V158.919z"/>
<path fill="#83CB94" d="M1115.984,159.115c0,0.439,0.521,0.797,1.166,0.797l0,0c0.645,0,1.165-0.355,1.165-0.797V84.279
	c0-0.44-0.521-0.797-1.165-0.797l0,0c-0.645,0-1.166,0.355-1.166,0.797V159.115z"/>
<circle fill="none" stroke="#83CB94" stroke-width="3" stroke-miterlimit="10" cx="871.936" cy="72.691" r="4.371"/>
<circle fill="none" stroke="#83CB94" stroke-width="3" stroke-miterlimit="10" cx="871.936" cy="119.314" r="4.371"/>
<circle fill="none" stroke="#83CB94" stroke-width="3" stroke-miterlimit="10" cx="912.732" cy="96.003" r="4.371"/>
<path fill="#83CB94" d="M889.988,49.182V37.374c0,0,0-6.483,6.9-6.483c6.04,0,11.387,0,11.387,0v5.867c0,0,0,5.178-6.555,5.178
	c-3.969,0-7.246,0-7.246,0s-2.072-0.087-2.072,1.724c0,1.641,0,5.522,0,5.522H889.988z"/>
<path fill="#83CB94" d="M893.278,30.047v-6.148c0,0,0-4.77-5.077-4.77c-4.444,0-8.381,0-8.381,0v4.318c0,0,0,3.809,4.826,3.809
	c2.918,0,5.332,0,5.332,0s1.522-0.063,1.522,1.269c0,1.206,0,1.522,0,1.522H893.278z"/>
<path fill="none" stroke="#83CB94" stroke-width="3" stroke-miterlimit="10" d="M967.801,118.471
	c-9.66,0-17.494-7.832-17.494-17.494s7.834-17.494,17.494-17.494c9.663,0,17.496,7.832,17.496,17.494
	S977.464,118.471,967.801,118.471"/>
<path fill="none" stroke="#83CB94" stroke-width="3" stroke-miterlimit="10" d="M967.801,110.663c-5.351,0-9.687-4.337-9.687-9.687
	c0-5.352,4.336-9.688,9.687-9.688s9.688,4.337,9.688,9.688C977.488,106.326,973.151,110.663,967.801,110.663"/>
<path fill="#83CB94" d="M1010.004,56.265c0-1.554,3.849-1.479,3.849-1.479s2.812,0,6.217,0c5.624,0,5.624-4.441,5.624-4.441V45.31
	c0,0-4.587,0-9.77,0c-5.92,0-5.92,5.562-5.92,5.562V56.265L1010.004,56.265z"/>
<path fill="#83CB94" d="M1010.004,56.265c0-1.554-3.85-1.479-3.85-1.479s-2.812,0-6.217,0c-5.624,0-5.624-4.441-5.624-4.441V45.31
	c0,0,4.587,0,9.771,0c5.92,0,5.92,5.562,5.92,5.562V56.265z"/>
<path fill="none" stroke="#83CB94" stroke-width="1.5" stroke-miterlimit="10" d="M1055.836,158.253
	c0,0.394,0.317,0.712,0.711,0.712l0,0c0.394,0,0.712-0.318,0.712-0.712V80.718c0-0.393-0.318-0.711-0.712-0.711l0,0
	c-0.394,0-0.711,0.318-0.711,0.711V158.253z"/>
<line fill="none" stroke="#83CB94" stroke-width="1.5" stroke-miterlimit="10" x1="1055.836" y1="80.718" x2="1055.836" y2="158.253"/>
<line fill="none" stroke="#83CB94" stroke-width="1.5" stroke-miterlimit="10" x1="1057.259" y1="158.253" x2="1057.259" y2="80.718"/>
<path fill="none" stroke="#83CB94" stroke-width="1.5" stroke-miterlimit="10" d="M1056.016,105.126
	c-0.261,0.293-0.234,0.743,0.06,1.003l0,0c0.293,0.262,0.742,0.235,1.005-0.059l13.043-14.745c0.261-0.294,0.233-0.744-0.061-1.005
	l0,0c-0.293-0.262-0.743-0.234-1.004,0.059L1056.016,105.126z"/>
<path fill="none" stroke="#83CB94" stroke-width="1.5" stroke-miterlimit="10" d="M1057.078,105.126
	c0.262,0.294,0.234,0.743-0.06,1.004l0,0c-0.293,0.261-0.742,0.235-1.004-0.06l-13.043-14.745c-0.261-0.294-0.234-0.743,0.06-1.005
	l0,0c0.293-0.262,0.743-0.234,1.004,0.06L1057.078,105.126z"/>
<path fill="none" stroke="#83CB94" stroke-width="1.5" stroke-miterlimit="10" d="M1056.016,117.745
	c-0.261,0.294-0.234,0.744,0.06,1.004l0,0c0.293,0.262,0.742,0.235,1.005-0.06l13.043-14.746c0.261-0.293,0.233-0.742-0.061-1.004
	l0,0c-0.293-0.26-0.743-0.234-1.004,0.061L1056.016,117.745z"/>
<path fill="none" stroke="#83CB94" stroke-width="1.5" stroke-miterlimit="10" d="M1057.078,117.745
	c0.262,0.294,0.234,0.744-0.06,1.004l0,0c-0.293,0.262-0.742,0.235-1.004-0.058l-13.043-14.748c-0.261-0.293-0.234-0.742,0.06-1.002
	l0,0c0.293-0.262,0.743-0.235,1.004,0.059L1057.078,117.745z"/>
<path fill="none" stroke="#83CB94" stroke-width="1.5" stroke-miterlimit="10" d="M1056.016,128.822
	c-0.261,0.293-0.234,0.742,0.06,1.004l0,0c0.293,0.26,0.742,0.234,1.005-0.061l13.043-14.744c0.261-0.295,0.233-0.744-0.061-1.004
	l0,0c-0.293-0.263-0.743-0.235-1.004,0.059L1056.016,128.822z"/>
<path fill="none" stroke="#83CB94" stroke-width="1.5" stroke-miterlimit="10" d="M1057.078,128.822
	c0.262,0.294,0.234,0.742-0.06,1.004l0,0c-0.293,0.262-0.742,0.234-1.004-0.061l-13.043-14.744c-0.261-0.295-0.234-0.744,0.06-1.004
	l0,0c0.293-0.263,0.743-0.235,1.004,0.059L1057.078,128.822z"/>
<path fill="none" stroke="#83CB94" stroke-width="1.5" stroke-miterlimit="10" d="M1056.016,141.248
	c-0.261,0.293-0.234,0.743,0.06,1.005l0,0c0.293,0.261,0.742,0.233,1.005-0.062l13.043-14.743c0.261-0.296,0.233-0.745-0.061-1.005
	l0,0c-0.293-0.262-0.743-0.234-1.004,0.059L1056.016,141.248z"/>
<path fill="none" stroke="#83CB94" stroke-width="1.5" stroke-miterlimit="10" d="M1057.078,141.248
	c0.262,0.295,0.234,0.743-0.06,1.005l0,0c-0.293,0.261-0.742,0.233-1.004-0.062l-13.043-14.743c-0.261-0.296-0.234-0.743,0.06-1.005
	l0,0c0.293-0.262,0.743-0.234,1.004,0.06L1057.078,141.248z"/>
<path fill="none" stroke="#83CB94" stroke-width="3" stroke-miterlimit="10" d="M1117.459,67.569
	c-10.382,0-18.799-8.417-18.799-18.8c0-10.383,8.417-18.799,18.799-18.799c10.385,0,18.802,8.416,18.802,18.799
	C1136.261,59.152,1127.844,67.569,1117.459,67.569"/>
<path fill="none" stroke="#83CB94" stroke-width="3" stroke-miterlimit="10" d="M1117.459,59.18c-5.748,0-10.408-4.66-10.408-10.41
	c0-5.749,4.66-10.41,10.408-10.41c5.75,0,10.41,4.661,10.41,10.41C1127.869,54.52,1123.209,59.18,1117.459,59.18"/>
<circle fill="none" stroke="#83CB94" stroke-width="3" stroke-miterlimit="10" cx="1117.149" cy="21.197" r="3.76"/>
<circle fill="none" stroke="#83CB94" stroke-width="3" stroke-miterlimit="10" cx="1117.149" cy="76.343" r="3.76"/>
<circle fill="none" stroke="#83CB94" stroke-width="3" stroke-miterlimit="10" cx="1143.86" cy="48.742" r="3.76"/>
<circle fill="none" stroke="#83CB94" stroke-width="3" stroke-miterlimit="10" cx="1091.062" cy="48.742" r="3.76"/>
<circle fill="none" stroke="#83CB94" stroke-width="3" stroke-miterlimit="10" cx="1098.58" cy="68.044" r="3.76"/>
<circle fill="none" stroke="#83CB94" stroke-width="3" stroke-miterlimit="10" cx="1135.338" cy="68.044" r="3.76"/>
<circle fill="none" stroke="#83CB94" stroke-width="3" stroke-miterlimit="10" cx="1135.338" cy="28.764" r="3.76"/>
<circle fill="none" stroke="#83CB94" stroke-width="3" stroke-miterlimit="10" cx="1098.58" cy="28.764" r="3.76"/>
<path fill="none" stroke="#83CB94" stroke-width="2" stroke-miterlimit="10" d="M1164.562,126.798l3.044,2.007
	c0,0,4.729,1.418,7.192,0c2.463-1.418,2.375-1.947,2.375-1.947s-1.936-4.088-9.502-2.194L1164.562,126.798z"/>
<path fill="none" stroke="#83CB94" stroke-width="2" stroke-miterlimit="10" d="M1189.785,126.798l-3.043,2.007
	c0,0-4.729,1.418-7.192,0c-2.463-1.418-2.375-1.947-2.375-1.947s1.935-4.088,9.504-2.194L1189.785,126.798z"/>
<path fill="none" stroke="#83CB94" stroke-width="2" stroke-miterlimit="10" d="M1177.175,139.411l2.007-3.044
	c0,0,1.418-4.729,0-7.193c-1.419-2.463-1.949-2.374-1.949-2.374s-4.088,1.935-2.193,9.505L1177.175,139.411z"/>
<path fill="none" stroke="#83CB94" stroke-width="2" stroke-miterlimit="10" d="M1177.175,114.188l2.007,3.043
	c0,0,1.418,4.729,0,7.193c-1.419,2.463-1.949,2.374-1.949,2.374s-4.088-1.935-2.193-9.501L1177.175,114.188z"/>
<circle fill="none" stroke="#83CB94" stroke-width="3" stroke-miterlimit="10" cx="83.429" cy="138.011" r="3.407"/>
<circle fill="none" stroke="#83CB94" stroke-width="3" stroke-miterlimit="10" cx="77.731" cy="146.854" r="3.407"/>
<circle fill="none" stroke="#83CB94" stroke-width="3" stroke-miterlimit="10" cx="88.731" cy="146.854" r="3.407"/>
<path fill="#83CB94" d="M143.887,159.66c0,0.74,0.599,1.34,1.34,1.34l0,0c0.74,0,1.341-0.6,1.341-1.34V60.471
	c0-0.739-0.601-1.34-1.341-1.34l0,0c-0.741,0-1.34,0.601-1.34,1.34V159.66z"/>
<circle fill="none" stroke="#83CB94" stroke-width="3" stroke-miterlimit="10" cx="132.254" cy="86.057" r="4.567"/>
<circle fill="none" stroke="#83CB94" stroke-width="3" stroke-miterlimit="10" cx="132.254" cy="100.671" r="4.567"/>
<circle fill="none" stroke="#83CB94" stroke-width="3" stroke-miterlimit="10" cx="132.254" cy="115.285" r="4.567"/>
<circle fill="none" stroke="#83CB94" stroke-width="3" stroke-miterlimit="10" cx="132.254" cy="129.898" r="4.567"/>
<circle fill="none" stroke="#83CB94" stroke-width="3" stroke-miterlimit="10" cx="157.721" cy="100.801" r="4.567"/>
<circle fill="none" stroke="#83CB94" stroke-width="3" stroke-miterlimit="10" cx="157.721" cy="115.415" r="4.567"/>
<circle fill="none" stroke="#83CB94" stroke-width="3" stroke-miterlimit="10" cx="157.721" cy="130.029" r="4.567"/>
<circle fill="none" stroke="#83CB94" stroke-width="3" stroke-miterlimit="10" cx="157.721" cy="144.643" r="4.567"/>
<g>
	<path fill="#83CB94" d="M173.784,47.31v7.086c-0.026,0.997-0.552,5.97-8.311,5.97h-12.505l0,0l-0.163-0.001
		c-1.818,0-3.327,0.151-4.58,0.409v-5.257c0.02-1.371,0.539-8.208,8.906-8.208L173.784,47.31 M176.784,44.31c0,0-9.226,0-19.65,0
		c-11.906,0-11.906,11.188-11.906,11.188v10.847c0-2.854,6.464-2.979,7.58-2.979c0.105,0,0.163,0.001,0.163,0.001s5.657,0,12.505,0
		c11.311,0,11.311-8.933,11.311-8.933V44.31H176.784z"/>
</g>
<g>
	<path fill="#83CB94" d="M133.321,47.31c8.367,0,8.888,6.837,8.906,8.188v5.277c-1.251-0.257-2.759-0.409-4.576-0.409l-0.163,0.001
		l0,0h-12.504c-7.764,0-8.289-4.973-8.313-5.933V47.31H133.321 M133.321,44.31c-10.422,0-19.649,0-19.649,0v10.124
		c0,0,0,8.933,11.313,8.933c6.847,0,12.504,0,12.504,0s0.059-0.001,0.163-0.001c1.115,0,7.576,0.123,7.576,2.979V55.497
		C145.227,55.497,145.227,44.31,133.321,44.31L133.321,44.31z"/>
</g>
<path fill="none" stroke="#83CB94" stroke-width="1.5" stroke-miterlimit="10" d="M276.284,159.703c0,0.361,0.293,0.654,0.653,0.654
	l0,0c0.361,0,0.654-0.293,0.654-0.654V49.13c0-0.362-0.293-0.654-0.654-0.654l0,0c-0.36,0-0.653,0.292-0.653,0.654V159.703z"/>
<line fill="none" stroke="#83CB94" stroke-width="1.5" stroke-miterlimit="10" x1="276.284" y1="49.13" x2="276.284" y2="159.703"/>
<line fill="none" stroke="#83CB94" stroke-width="1.5" stroke-miterlimit="10" x1="277.592" y1="159.703" x2="277.592" y2="49.13"/>
<path fill="none" stroke="#83CB94" stroke-width="1.5" stroke-miterlimit="10" d="M276.449,84.665
	c-0.24,0.271-0.217,0.685,0.055,0.924l0,0c0.27,0.24,0.684,0.216,0.924-0.055l11.996-13.562c0.24-0.271,0.216-0.684-0.054-0.924l0,0
	c-0.271-0.24-0.685-0.216-0.925,0.055L276.449,84.665z"/>
<path fill="none" stroke="#83CB94" stroke-width="1.5" stroke-miterlimit="10" d="M277.427,84.665
	c0.24,0.271,0.216,0.685-0.055,0.924l0,0c-0.271,0.24-0.685,0.216-0.925-0.054l-11.995-13.563c-0.24-0.27-0.217-0.684,0.054-0.924
	l0,0c0.27-0.239,0.684-0.216,0.924,0.056L277.427,84.665z"/>
<path fill="none" stroke="#83CB94" stroke-width="1.5" stroke-miterlimit="10" d="M276.449,96.273
	c-0.24,0.27-0.217,0.684,0.055,0.922l0,0c0.27,0.24,0.684,0.217,0.924-0.053l11.996-13.563c0.24-0.271,0.216-0.685-0.054-0.923l0,0
	c-0.271-0.24-0.685-0.217-0.925,0.054L276.449,96.273z"/>
<path fill="none" stroke="#83CB94" stroke-width="1.5" stroke-miterlimit="10" d="M277.427,96.273
	c0.24,0.27,0.216,0.684-0.055,0.924l0,0c-0.271,0.238-0.685,0.216-0.925-0.055L264.453,83.58c-0.24-0.271-0.217-0.686,0.054-0.924
	l0,0c0.27-0.24,0.684-0.217,0.924,0.054L277.427,96.273z"/>
<path fill="none" stroke="#83CB94" stroke-width="1.5" stroke-miterlimit="10" d="M276.449,106.461
	c-0.24,0.271-0.217,0.684,0.055,0.924l0,0c0.27,0.24,0.684,0.217,0.924-0.055l11.996-13.562c0.24-0.271,0.216-0.685-0.054-0.924l0,0
	c-0.271-0.24-0.685-0.216-0.925,0.055L276.449,106.461z"/>
<path fill="none" stroke="#83CB94" stroke-width="1.5" stroke-miterlimit="10" d="M277.427,106.461
	c0.24,0.271,0.216,0.686-0.055,0.924l0,0c-0.271,0.24-0.685,0.217-0.925-0.054l-11.995-13.563c-0.24-0.271-0.217-0.684,0.054-0.924
	l0,0c0.27-0.238,0.684-0.216,0.924,0.055L277.427,106.461z"/>
<path fill="none" stroke="#83CB94" stroke-width="1.5" stroke-miterlimit="10" d="M276.449,117.891
	c-0.24,0.271-0.217,0.685,0.055,0.924l0,0c0.27,0.24,0.684,0.217,0.924-0.055l11.996-13.562c0.24-0.271,0.216-0.685-0.054-0.925l0,0
	c-0.271-0.239-0.685-0.215-0.925,0.056L276.449,117.891z"/>
<path fill="none" stroke="#83CB94" stroke-width="1.5" stroke-miterlimit="10" d="M277.427,117.891
	c0.24,0.271,0.216,0.686-0.055,0.924l0,0c-0.271,0.24-0.685,0.217-0.925-0.055l-11.995-13.562c-0.24-0.271-0.217-0.685,0.054-0.925
	l0,0c0.27-0.239,0.684-0.215,0.924,0.056L277.427,117.891z"/>
<circle fill="none" stroke="#83CB94" stroke-width="3" stroke-miterlimit="10" cx="276.938" cy="29.174" r="19.792"/>
<circle fill="none" stroke="#83CB94" stroke-width="3" stroke-miterlimit="10" cx="276.938" cy="29.174" r="10.959"/>
<path fill="none" stroke="#83CB94" stroke-width="3" stroke-miterlimit="10" d="M331.011,117.443c0,0-1.863-10.324,9.889-10.895
	C340.9,106.55,342.129,116.906,331.011,117.443z"/>
<path fill="none" stroke="#83CB94" stroke-width="3" stroke-miterlimit="10" d="M330.995,117.421c0,0-9.947,1.604-10.81-10.43
	C320.186,106.991,330.18,106.035,330.995,117.421z"/>
<path fill="none" stroke="#83CB94" stroke-width="3" stroke-miterlimit="10" d="M330.807,117.466c0,0,1.749,10.288-9.28,10.854
	C321.527,128.32,320.372,118.001,330.807,117.466z"/>
<path fill="none" stroke="#83CB94" stroke-width="3" stroke-miterlimit="10" d="M330.903,117.654c0,0,10.538-1.672,11.384,10.335
	C342.286,127.989,331.702,129.012,330.903,117.654z"/>
<circle fill="none" stroke="#83CB94" stroke-width="3" stroke-miterlimit="10" cx="390.893" cy="92.129" r="4.141"/>
<circle fill="none" stroke="#83CB94" stroke-width="3" stroke-miterlimit="10" cx="390.893" cy="118.539" r="4.141"/>
<circle fill="none" stroke="#83CB94" stroke-width="3" stroke-miterlimit="10" cx="417.279" cy="109.475" r="4.141"/>
<circle fill="none" stroke="#83CB94" stroke-width="3" stroke-miterlimit="10" cx="417.279" cy="135.885" r="4.141"/>
<path fill="none" stroke="#83CB94" stroke-width="3" stroke-miterlimit="10" d="M405.51,70.134c0,0-2.514-13.929,13.342-14.696
	C418.852,55.438,420.512,69.409,405.51,70.134z"/>
<path fill="none" stroke="#83CB94" stroke-width="3" stroke-miterlimit="10" d="M404.46,71.837c0,0-17.354,2.8-18.856-18.194
	C385.604,53.643,403.036,51.976,404.46,71.837z"/>
<circle fill="none" stroke="#83CB94" stroke-width="3" stroke-miterlimit="10" cx="480.021" cy="47.722" r="16.907"/>
<path fill="#83CB94" d="M496.094,88.191c0.688,0,1.244-0.557,1.244-1.244l0,0c0-0.688-0.558-1.244-1.244-1.244h-33.267
	c-0.688,0-1.246,0.557-1.246,1.244l0,0c0,0.688,0.558,1.244,1.246,1.244H496.094z"/>
<path fill="#83CB94" d="M492.34,104.091c0.532,0,0.963-0.431,0.963-0.963l0,0c0-0.534-0.431-0.965-0.963-0.965h-25.761
	c-0.53,0-0.963,0.431-0.963,0.965l0,0c0,0.532,0.433,0.963,0.963,0.963H492.34z"/>
<path fill="#83CB94" d="M488.547,119.986c0.375,0,0.68-0.305,0.68-0.68l0,0c0-0.375-0.305-0.681-0.68-0.681h-18.172
	c-0.375,0-0.681,0.306-0.681,0.681l0,0c0,0.375,0.306,0.68,0.681,0.68H488.547z"/>
<circle fill="none" stroke="#83CB94" stroke-width="3" stroke-miterlimit="10" cx="33.141" cy="105.238" r="24.172"/>
<circle fill="none" stroke="#83CB94" stroke-width="3" stroke-miterlimit="10" cx="33.141" cy="105.238" r="16.236"/>
<circle fill="none" stroke="#83CB94" stroke-width="3" stroke-miterlimit="10" cx="33.14" cy="105.238" r="7.524"/>
</svg>
