<?xml version="1.0" encoding="utf-8"?>
<!-- Generator: Adobe Illustrator 15.1.0, SVG Export Plug-In . SVG Version: 6.00 Build 0)  -->
<!DOCTYPE svg PUBLIC "-//W3C//DTD SVG 1.1 Tiny//EN" "http://www.w3.org/Graphics/SVG/1.1/DTD/svg11-tiny.dtd">
<svg version="1.1" baseProfile="tiny" id="Layer_1" xmlns="http://www.w3.org/2000/svg" xmlns:xlink="http://www.w3.org/1999/xlink"
	 x="0px" y="0px" width="30px" height="30px" viewBox="0 0 30 30" overflow="inherit" xml:space="preserve">
<path fill="#67767E" d="M22.607,25.326H7.612c-1.378,0-2.5-1.123-2.5-2.5V7.83c0-1.377,1.121-2.498,2.5-2.498h14.996
	c1.377,0,2.498,1.121,2.498,2.498v14.996C25.105,24.203,23.984,25.326,22.607,25.326z M23.857,7.83c0-0.686-0.563-1.248-1.25-1.248
	H7.612c-0.687,0-1.25,0.562-1.25,1.248v2.5h17.496V7.83z M23.857,17.828H20.04l-1.452,1.451l-2.671-5.34l-2.576,5.152l-2.421-3.633
	l-1.58,2.37H6.363v1.25h3.646l0.833-1.25h0.154l0.365,0.547l2.136,3.201l2.42-4.844l2.329,4.656l2.312-2.312h3.299V17.828
	L23.857,17.828z M9.174,7.518c0.517,0,0.938,0.422,0.938,0.938c0,0.518-0.421,0.938-0.938,0.938c-0.517,0-0.938-0.42-0.938-0.938
	C8.237,7.939,8.658,7.518,9.174,7.518z M11.673,7.518c0.517,0,0.938,0.422,0.938,0.938c0,0.518-0.42,0.938-0.938,0.938
	c-0.517,0-0.937-0.42-0.937-0.938C10.736,7.939,11.157,7.518,11.673,7.518z M14.173,7.518c0.517,0,0.938,0.422,0.938,0.938
	c0,0.518-0.421,0.938-0.938,0.938c-0.518,0-0.938-0.42-0.938-0.938C13.235,7.939,13.655,7.518,14.173,7.518z"/>
</svg>
