<?xml version="1.0" encoding="utf-8"?>
<!-- Generator: Adobe Illustrator 15.1.0, SVG Export Plug-In . SVG Version: 6.00 Build 0)  -->
<!DOCTYPE svg PUBLIC "-//W3C//DTD SVG 1.1//EN" "http://www.w3.org/Graphics/SVG/1.1/DTD/svg11.dtd">
<svg version="1.1" id="Layer_1" xmlns="http://www.w3.org/2000/svg" xmlns:xlink="http://www.w3.org/1999/xlink" x="0px" y="0px"
	 width="30px" height="30px" viewBox="0 0 30 30" enable-background="new 0 0 30 30" xml:space="preserve">
<path fill="#FFFFFF" d="M23.815,22.059L12.78,2.746c-0.428-0.75-1.133-0.75-1.562,0L0.181,22.059
	c-0.428,0.754-0.07,1.369,0.794,1.369h22.047C23.89,23.428,24.246,22.812,23.815,22.059z M13.073,18.74
	c0,0.435-0.354,0.787-0.787,0.787h-0.658c-0.432,0-0.787-0.354-0.787-0.787v-0.824c0-0.434,0.355-0.787,0.787-0.787h0.658
	c0.434,0,0.787,0.354,0.787,0.787V18.74z M13.073,14.768c0,0.434-0.354,0.787-0.787,0.787h-0.575c-0.431,0-0.788-0.354-0.788-0.787
	v-4.726c0-0.434,0.357-0.787,0.788-0.787h0.575c0.434,0,0.787,0.354,0.787,0.787V14.768z"/>
</svg>
