<?xml version="1.0" encoding="utf-8"?>
<!-- Generator: Adobe Illustrator 15.1.0, SVG Export Plug-In . SVG Version: 6.00 Build 0)  -->
<!DOCTYPE svg PUBLIC "-//W3C//DTD SVG 1.1 Tiny//EN" "http://www.w3.org/Graphics/SVG/1.1/DTD/svg11-tiny.dtd">
<svg version="1.1" baseProfile="tiny" id="Layer_1" xmlns="http://www.w3.org/2000/svg" xmlns:xlink="http://www.w3.org/1999/xlink"
	 x="0px" y="0px" width="30px" height="30px" viewBox="0 0 30 30" overflow="inherit" xml:space="preserve">
<path fill="#7B8DA0" d="M11.69,24.645h8.042c0,0,3.022-8.146,3.949-10.645c0.934-2.514-1.365-3.088-2.228-0.718
	c-0.619,1.707-1.076,1.938-1.076,1.938s-0.946-0.002-0.79-1.005c0.217-1.365,0.503-3.017,0.934-5.53
	c0.268-1.559-2.226-1.795-2.44-0.503c-0.216,1.293-0.718,4.74-0.862,5.53c-0.143,0.79-1.057,1.435-1.148-0.503
	c-0.061-1.301-0.143-3.203-0.143-5.745c0-1.724-2.729-1.508-2.729,0.072c0,1.104,0.087,5.601,0.072,6.463
	c-0.016,0.861-0.397,1.135-0.934-0.072c-0.574-1.292-1.185-2.823-1.723-4.093c-0.79-1.867-2.931-0.587-2.441,0.718
	c0.428,1.14,1.463,3.663,2.297,5.603c0.429,0.99,0.969,2.962-0.359,1.938c-0.934-0.718-1.292-1.436-2.37-2.154
	c-1.077-0.718-2.163,0.828-1.746,1.343c0.934,1.147,2.576,2.956,3.637,4.69C10.422,23.264,11.69,24.645,11.69,24.645z"/>
</svg>
