<?xml version="1.0" encoding="utf-8"?>
<!-- Generator: Adobe Illustrator 15.1.0, SVG Export Plug-In . SVG Version: 6.00 Build 0)  -->
<!DOCTYPE svg PUBLIC "-//W3C//DTD SVG 1.1//EN" "http://www.w3.org/Graphics/SVG/1.1/DTD/svg11.dtd">
<svg version="1.1" id="Layer_1" xmlns="http://www.w3.org/2000/svg" xmlns:xlink="http://www.w3.org/1999/xlink" x="0px" y="0px"
	 width="25px" height="25px" viewBox="0 0 25 25" enable-background="new 0 0 25 25" xml:space="preserve">
<path fill="#67727D" d="M12.5,1.504C6.428,1.504,1.504,6.426,1.504,12.5c0,2.816,1.066,5.376,2.808,7.322
	c2.014,2.25,4.932,3.674,8.188,3.674c3.296,0,6.248-1.458,8.264-3.756c1.696-1.936,2.731-4.465,2.731-7.24
	C23.496,6.426,18.572,1.504,12.5,1.504z M20.184,18.266c-0.709-0.582-2.104-1.018-3.494-1.6c-1.66-0.689-2.051-0.93-2.051-0.93
	l-0.016-1.592c0,0,0.619-0.479,0.812-1.977c0.389,0.113,0.797-0.579,0.817-0.942c0.021-0.352-0.053-1.327-0.526-1.23
	c0.096-0.733,0.166-1.393,0.133-1.742c-0.123-1.279-1.381-2.627-3.319-2.627c-1.932,0-3.193,1.348-3.317,2.627
	C9.192,8.604,9.26,9.263,9.357,9.996c-0.476-0.097-0.55,0.879-0.526,1.23c0.021,0.363,0.428,1.056,0.817,0.942
	c0.192,1.498,0.813,1.977,0.813,1.977l-0.016,1.592c0,0-0.393,0.24-2.049,0.93c-1.427,0.596-2.857,1.037-3.551,1.641
	c-1.229-1.615-1.968-3.623-1.968-5.807c0-5.306,4.317-9.622,9.622-9.622c5.304,0,9.623,4.316,9.623,9.622
	C22.123,14.664,21.395,16.656,20.184,18.266z"/>
</svg>
