<?xml version="1.0" encoding="iso-8859-1"?>
<!-- Generator: Adobe Illustrator 16.0.0, SVG Export Plug-In . SVG Version: 6.00 Build 0)  -->
<!DOCTYPE svg PUBLIC "-//W3C//DTD SVG 1.1//EN" "http://www.w3.org/Graphics/SVG/1.1/DTD/svg11.dtd" [
	<!ENTITY ns_extend "http://ns.adobe.com/Extensibility/1.0/">
	<!ENTITY ns_ai "http://ns.adobe.com/AdobeIllustrator/10.0/">
	<!ENTITY ns_graphs "http://ns.adobe.com/Graphs/1.0/">
	<!ENTITY ns_vars "http://ns.adobe.com/Variables/1.0/">
	<!ENTITY ns_imrep "http://ns.adobe.com/ImageReplacement/1.0/">
	<!ENTITY ns_sfw "http://ns.adobe.com/SaveForWeb/1.0/">
	<!ENTITY ns_custom "http://ns.adobe.com/GenericCustomNamespace/1.0/">
	<!ENTITY ns_adobe_xpath "http://ns.adobe.com/XPath/1.0/">
]>
<svg version="1.1" id="Layer_1" xmlns:x="&ns_extend;" xmlns:i="&ns_ai;" xmlns:graph="&ns_graphs;"
	 xmlns="http://www.w3.org/2000/svg" xmlns:xlink="http://www.w3.org/1999/xlink" x="0px" y="0px" width="25px" height="25px"
	 viewBox="0 0 25 25" enable-background="new 0 0 25 25" xml:space="preserve">
<metadata>
	<sfw  xmlns="&ns_sfw;">
		<slices></slices>
		<sliceSourceBounds  height="20.008" width="20.006" x="2.497" y="-22.504" bottomLeftOrigin="true"></sliceSourceBounds>
	</sfw>
</metadata>
<path fill-rule="evenodd" clip-rule="evenodd" fill="#D1D5DA" d="M12.5,22.504c-5.524,0-10.003-4.479-10.003-10.002
	c0-5.527,4.479-10.006,10.003-10.006c5.523,0,10.003,4.479,10.003,10.006C22.503,18.025,18.023,22.504,12.5,22.504z M12.5,4.02
	c-4.676,0-8.479,3.807-8.479,8.482S7.824,20.98,12.5,20.98s8.479-3.803,8.479-8.479S17.176,4.02,12.5,4.02z M15.232,17.386
	L12.5,14.653l-2.732,2.732L7.613,15.23l2.732-2.732L7.613,9.767l2.155-2.155l2.732,2.732l2.732-2.732l2.154,2.155l-2.732,2.732
	l2.732,2.732L15.232,17.386z"/>
</svg>
