<?xml version="1.0" encoding="utf-8"?>
<!-- Generator: Adobe Illustrator 15.1.0, SVG Export Plug-In . SVG Version: 6.00 Build 0)  -->
<!DOCTYPE svg PUBLIC "-//W3C//DTD SVG 1.1//EN" "http://www.w3.org/Graphics/SVG/1.1/DTD/svg11.dtd">
<svg version="1.1" id="Layer_1" xmlns="http://www.w3.org/2000/svg" xmlns:xlink="http://www.w3.org/1999/xlink" x="0px" y="0px"
	 width="40px" height="40px" viewBox="0 0 40 40" enable-background="new 0 0 40 40" xml:space="preserve">
<g>
	<circle fill="#67767E" cx="19.903" cy="20.726" r="3"/>
	<path fill="#67767E" d="M32.902,17.726h-2c-0.144,0-0.271,0.055-0.404,0.082c-0.258-0.934-0.637-1.82-1.117-2.637
		c0.047-0.039,0.105-0.057,0.148-0.102l1.416-1.414c0.781-0.781,0.781-2.047,0-2.828L29.529,9.41c-0.781-0.781-2.047-0.781-2.828,0
		l-1.416,1.418c-0.066,0.066-0.096,0.152-0.15,0.227c-0.725-0.395-1.504-0.699-2.314-0.922c0.029-0.135,0.082-0.262,0.082-0.406v-2
		c0-1.104-0.896-2-2-2h-2c-1.104,0-2,0.896-2,2v2c0,0.145,0.053,0.271,0.082,0.406c-0.961,0.266-1.867,0.656-2.705,1.156
		c-0.088-0.16-0.168-0.324-0.305-0.461l-1.416-1.416c-0.375-0.375-0.885-0.586-1.414-0.586s-1.039,0.211-1.414,0.586l-1.416,1.416
		c-0.779,0.781-0.779,2.047,0,2.828l1.416,1.414c0.154,0.156,0.344,0.264,0.537,0.359c-0.41,0.744-0.73,1.543-0.961,2.379
		c-0.133-0.027-0.262-0.082-0.404-0.082h-2c-1.104,0-2,0.896-2,2v2c0,1.104,0.896,2,2,2h2c0.143,0,0.271-0.052,0.404-0.082
		c0.23,0.838,0.551,1.637,0.961,2.383c-0.191,0.094-0.379,0.199-0.537,0.354l-1.414,1.414c-0.781,0.781-0.781,2.047,0,2.828
		l1.414,1.414c0.781,0.78,2.047,0.78,2.828,0l1.414-1.414c0.137-0.138,0.217-0.301,0.307-0.461c0.836,0.5,1.744,0.896,2.705,1.157
		c-0.029,0.136-0.082,0.263-0.082,0.404v2c0,1.105,0.896,2,2,2h2c1.104,0,2-0.895,2-2v-2c0-0.143-0.053-0.27-0.082-0.404
		c0.812-0.225,1.591-0.526,2.314-0.92c0.055,0.07,0.086,0.16,0.15,0.224l1.414,1.414c0.781,0.78,2.047,0.78,2.828,0l1.416-1.414
		c0.375-0.375,0.586-0.883,0.586-1.414c0-0.528-0.211-1.039-0.586-1.414l-1.414-1.414c-0.043-0.043-0.102-0.059-0.148-0.098
		c0.48-0.82,0.859-1.703,1.117-2.642c0.133,0.031,0.262,0.082,0.404,0.082h2c1.104,0,2-0.895,2-2v-2
		C34.902,18.623,34.006,17.726,32.902,17.726z M19.903,27.727c-3.865,0-7-3.133-7-7c0-3.862,3.135-7,7-7s7,3.137,7,7
		C26.902,24.594,23.768,27.727,19.903,27.727z"/>
</g>
</svg>
