<?xml version="1.0" encoding="utf-8"?>
<!-- Generator: Adobe Illustrator 15.1.0, SVG Export Plug-In . SVG Version: 6.00 Build 0)  -->
<!DOCTYPE svg PUBLIC "-//W3C//DTD SVG 1.1//EN" "http://www.w3.org/Graphics/SVG/1.1/DTD/svg11.dtd">
<svg version="1.1" id="Layer_1" xmlns="http://www.w3.org/2000/svg" xmlns:xlink="http://www.w3.org/1999/xlink" x="0px" y="0px"
	 width="70px" height="70px" viewBox="0 0 70 70" enable-background="new 0 0 70 70" xml:space="preserve">
<g>
	<path fill="#D7E1E4" d="M59.355,48.924l-1.731,3.213c-0.386,0.771-1.403,1.4-2.267,1.4H14.642c-0.862,0-1.881-0.63-2.267-1.4
		l-1.731-3.213c-0.385-0.771,0.003-1.4,0.866-1.4h20.108v3.133h6.764v-3.133H58.49C59.354,47.523,59.74,48.152,59.355,48.924z"/>
	<path fill="#D7E1E4" d="M54.292,12.571H15.708c-1.722,0-3.132,1.41-3.132,3.132V40.51c0,1.723,1.41,3.133,3.132,3.133h38.584
		c1.722,0,3.132-1.41,3.132-3.133V15.703C57.424,13.981,56.014,12.571,54.292,12.571z M54.542,40.51H15.458V15.454h39.084V40.51z"/>
</g>
</svg>
