<?xml version="1.0" encoding="utf-8"?>
<!-- Generator: Adobe Illustrator 15.1.0, SVG Export Plug-In . SVG Version: 6.00 Build 0)  -->
<!DOCTYPE svg PUBLIC "-//W3C//DTD SVG 1.1 Tiny//EN" "http://www.w3.org/Graphics/SVG/1.1/DTD/svg11-tiny.dtd">
<svg version="1.1" baseProfile="tiny" id="Layer_1" xmlns="http://www.w3.org/2000/svg" xmlns:xlink="http://www.w3.org/1999/xlink"
	 x="0px" y="0px" width="30px" height="30px" viewBox="0 0 30 30" overflow="inherit" xml:space="preserve">
<path fill="#89D3E4" d="M15.559,3.602c-6.35,0-11.497,5.146-11.497,11.496s5.147,11.496,11.497,11.496
	c6.348,0,11.496-5.146,11.496-11.496S21.906,3.602,15.559,3.602z M21.932,15.449c-3.051,3.471-5.928,6.492-6.316,6.898l0.003,0.051
	l-0.025-0.025l-0.024,0.025l0.002-0.051c-0.389-0.406-3.266-3.429-6.317-6.898c-2.495-2.74,1.631-9.742,6.315-3.732h0.051
	C20.301,5.707,24.428,12.709,21.932,15.449z"/>
</svg>
