<?xml version="1.0" encoding="utf-8"?>
<!-- Generator: Adobe Illustrator 15.1.0, SVG Export Plug-In . SVG Version: 6.00 Build 0)  -->
<!DOCTYPE svg PUBLIC "-//W3C//DTD SVG 1.1//EN" "http://www.w3.org/Graphics/SVG/1.1/DTD/svg11.dtd">
<svg version="1.1" id="Layer_1" xmlns="http://www.w3.org/2000/svg" xmlns:xlink="http://www.w3.org/1999/xlink" x="0px" y="0px"
	 width="30px" height="30px" viewBox="0 0 30 30" enable-background="new 0 0 30 30" xml:space="preserve">
<path fill="#67737E" d="M24.914,20.936l-6.219-5.438l6.299-5.561c0.049,0.132,0.086,0.27,0.086,0.419v9.995
	C25.08,20.564,25.012,20.758,24.914,20.936z M6.228,9.127l0.107-0.021H23.83l0.176,0.035l-8.921,7.875L6.228,9.127z M5.201,20.857
	c-0.071-0.156-0.115-0.326-0.115-0.508v-9.996c0-0.172,0.037-0.335,0.098-0.483l6.295,5.605L5.201,20.857z M15.08,18.686l2.67-2.355
	l6.023,5.27H6.335L6.27,21.586l6.15-5.271L15.08,18.686z"/>
</svg>
