<?xml version="1.0" encoding="utf-8"?>
<!-- Generator: Adobe Illustrator 15.1.0, SVG Export Plug-In . SVG Version: 6.00 Build 0)  -->
<!DOCTYPE svg PUBLIC "-//W3C//DTD SVG 1.1//EN" "http://www.w3.org/Graphics/SVG/1.1/DTD/svg11.dtd">
<svg version="1.1" id="Layer_1" xmlns="http://www.w3.org/2000/svg" xmlns:xlink="http://www.w3.org/1999/xlink" x="0px" y="0px"
	 width="30px" height="30px" viewBox="0 0 30 30" enable-background="new 0 0 30 30" xml:space="preserve">
<g>
	<path fill="#FFFFFF" d="M14.903,6.904c-4.517,0-8.191,3.676-8.191,8.191c0,4.519,3.675,8.191,8.191,8.191
		c4.517,0,8.191-3.675,8.191-8.191C23.094,10.58,19.42,6.904,14.903,6.904z M20.65,16.533H16.34v4.311h-2.874v-4.311H9.155V13.66
		h4.311V9.348h2.874v4.312h4.311V16.533L20.65,16.533z"/>
	<path fill="#FFFFFF" d="M14.903,3.6c-6.35,0-11.496,5.148-11.496,11.496c0,6.349,5.146,11.498,11.496,11.498
		c6.349,0,11.496-5.148,11.496-11.498C26.398,8.748,21.252,3.6,14.903,3.6z M14.903,25.156c-5.547,0-10.06-4.514-10.06-10.062
		c0-5.545,4.513-10.059,10.06-10.059c5.546,0,10.06,4.514,10.06,10.059C24.963,20.643,20.449,25.156,14.903,25.156z"/>
</g>
</svg>
