<?xml version="1.0" encoding="utf-8"?>
<!-- Generator: Adobe Illustrator 15.1.0, SVG Export Plug-In . SVG Version: 6.00 Build 0)  -->
<!DOCTYPE svg PUBLIC "-//W3C//DTD SVG 1.1//EN" "http://www.w3.org/Graphics/SVG/1.1/DTD/svg11.dtd">
<svg version="1.1" id="Layer_1" xmlns="http://www.w3.org/2000/svg" xmlns:xlink="http://www.w3.org/1999/xlink" x="0px" y="0px"
	 width="30px" height="30px" viewBox="0 0 30 30" enable-background="new 0 0 30 30" xml:space="preserve">
<path fill="#003F57" d="M22.311,14.96h-4.687c0-0.859-0.703-1.562-1.562-1.562h-0.782V8.463c0-3.576-1.892-5.467-5.467-5.467
	c-0.432,0-0.781,0.35-0.781,0.781c0,0.431,0.349,0.781,0.781,0.781c2.7,0,3.905,1.204,3.905,3.904v4.936h-0.781
	c-0.859,0-1.562,0.702-1.562,1.562H6.69c-2.577,0-4.686,1.757-4.686,3.904c0,0.267,0,3.653,0,3.653h0.079
	c0.382,2.646,2.637,4.687,5.388,4.687c2.752,0,5.007-2.541,5.388-5.187h3.284c0.381,2.646,2.635,5.187,5.387,5.187
	c2.753,0,5.007-2.041,5.388-4.687h0.08c0,0,0-3.388,0-3.653C26.996,16.717,24.889,14.96,22.311,14.96z M9.814,22.52H8.252v1.562
	H6.69V22.52H5.128v-1.562H6.69v-1.562h1.562v1.562h1.562V22.52z M16.062,19.229h-3.125v-1.562h3.125V19.229z M21.139,24.471
	c-0.646,0-1.172-0.523-1.172-1.171s0.525-1.172,1.172-1.172c0.647,0,1.172,0.524,1.172,1.172
	C22.311,23.945,21.785,24.471,21.139,24.471z M23.091,21.348c-0.646,0-1.171-0.524-1.171-1.172c0-0.646,0.523-1.172,1.171-1.172
	s1.173,0.525,1.173,1.172C24.264,20.823,23.738,21.348,23.091,21.348z"/>
</svg>
