<?xml version="1.0" encoding="iso-8859-1"?>
<!-- Generator: Adobe Illustrator 16.0.0, SVG Export Plug-In . SVG Version: 6.00 Build 0)  -->
<!DOCTYPE svg PUBLIC "-//W3C//DTD SVG 1.1//EN" "http://www.w3.org/Graphics/SVG/1.1/DTD/svg11.dtd" [
	<!ENTITY ns_extend "http://ns.adobe.com/Extensibility/1.0/">
	<!ENTITY ns_ai "http://ns.adobe.com/AdobeIllustrator/10.0/">
	<!ENTITY ns_graphs "http://ns.adobe.com/Graphs/1.0/">
	<!ENTITY ns_vars "http://ns.adobe.com/Variables/1.0/">
	<!ENTITY ns_imrep "http://ns.adobe.com/ImageReplacement/1.0/">
	<!ENTITY ns_sfw "http://ns.adobe.com/SaveForWeb/1.0/">
	<!ENTITY ns_custom "http://ns.adobe.com/GenericCustomNamespace/1.0/">
	<!ENTITY ns_adobe_xpath "http://ns.adobe.com/XPath/1.0/">
]>
<svg version="1.1" id="Layer_1" xmlns:x="&ns_extend;" xmlns:i="&ns_ai;" xmlns:graph="&ns_graphs;"
	 xmlns="http://www.w3.org/2000/svg" xmlns:xlink="http://www.w3.org/1999/xlink" x="0px" y="0px" width="70px" height="70px"
	 viewBox="0 0 70 70" enable-background="new 0 0 70 70" xml:space="preserve">
<metadata>
	<sfw  xmlns="&ns_sfw;">
		<slices></slices>
		<sliceSourceBounds  height="16383" width="86" x="-16" y="-8227" bottomLeftOrigin="true"></sliceSourceBounds>
	</sfw>
</metadata>
<path fill="#D7E1E4" d="M36.627,11.127c1.998-2.338,5.365-4.079,8.148-4.19c0.355,3.239-0.943,6.49-2.877,8.831
	c-1.934,2.336-5.104,4.155-8.206,3.915C33.269,16.508,34.837,13.198,36.627,11.127z"/>
<path fill="#D7E1E4" d="M52.473,55.357c-2.301,3.373-4.688,6.732-8.455,6.805c-3.705,0.074-4.902-2.188-9.135-2.184
	c-4.233,0.006-5.554,2.137-9.058,2.277c-3.64,0.141-6.414-3.635-8.742-6.988c-4.762-6.861-8.408-19.393-3.544-27.865
	c2.417-4.207,6.74-6.875,11.437-6.948c3.57-0.073,6.948,2.395,9.131,2.391c2.184-0.003,6.276-2.981,10.586-2.55
	c1.803,0.076,6.863,0.722,10.123,5.471c-0.262,0.163-6.039,3.535-5.963,10.537c0.086,8.369,7.357,11.143,7.439,11.182
	C56.229,47.68,55.137,51.455,52.473,55.357z"/>
</svg>
