<?xml version="1.0" encoding="utf-8"?>
<!-- Generator: Adobe Illustrator 15.1.0, SVG Export Plug-In . SVG Version: 6.00 Build 0)  -->
<!DOCTYPE svg PUBLIC "-//W3C//DTD SVG 1.1//EN" "http://www.w3.org/Graphics/SVG/1.1/DTD/svg11.dtd">
<svg version="1.1" id="Layer_1" xmlns="http://www.w3.org/2000/svg" xmlns:xlink="http://www.w3.org/1999/xlink" x="0px" y="0px"
	 width="40px" height="40px" viewBox="0 0 40 40" enable-background="new 0 0 40 40" xml:space="preserve">
<g>
	<path fill="#2C3642" d="M28.893,26.705c-0.229-0.23-2.86-2.879-2.86-2.879l-0.56-0.562c0,0,0.213-0.912,0.002-1.123
		c-0.207-0.211-0.35-0.352-0.35-0.352s-0.209-0.211-0.456,0.033c-0.246,0.244-0.88,0.875-0.88,0.875l-2.361-2.377l1.275-1.269
		c0.58,0.301,1.229,0.486,1.926,0.488c2.334,0.008,4.23-1.878,4.238-4.213c0-0.205-0.123-0.393-0.312-0.472
		c-0.188-0.08-0.408-0.036-0.555,0.109l-1.51,1.5l-2.459-0.532l-0.52-2.463l1.506-1.498c0.146-0.147,0.191-0.37,0.111-0.564
		c-0.077-0.193-0.27-0.32-0.479-0.32c-2.336-0.006-4.23,1.878-4.237,4.213c-0.002,0.776,0.219,1.494,0.583,2.12l-1.233,1.227
		l-3.845-3.868l-0.836-1.406l-1.12-1.125l-2.17-1.199l-0.354,0.349l-0.351,0.351l1.186,2.178l1.119,1.127l1.4,0.846l3.846,3.869
		l-1.234,1.227c-0.624-0.367-1.342-0.594-2.117-0.596c-2.335-0.008-4.232,1.878-4.24,4.212c-0.001,0.207,0.122,0.393,0.311,0.473
		s0.408,0.037,0.554-0.109l1.51-1.5l2.461,0.531l0.519,2.465l-1.506,1.498c-0.148,0.146-0.194,0.369-0.114,0.562
		c0.08,0.193,0.268,0.32,0.476,0.322c2.335,0.004,4.232-1.879,4.24-4.215c0.002-0.697-0.181-1.348-0.478-1.928l1.279-1.271
		l2.361,2.377c0,0-0.633,0.627-0.878,0.873c-0.247,0.244-0.038,0.457-0.038,0.457s0.143,0.14,0.354,0.353
		c0.209,0.211,1.119,0.002,1.119,0.002l0.562,0.563c0,0,2.633,2.649,2.859,2.877c0.229,0.229,0.91,0.216,1.125,0.004
		c0.211-0.209,0.562-0.559,0.562-0.559s0.352-0.351,0.562-0.56C29.1,27.617,29.119,26.934,28.893,26.705z"/>
</g>
</svg>
