<?xml version="1.0" encoding="utf-8"?>
<!-- Generator: Adobe Illustrator 15.1.0, SVG Export Plug-In . SVG Version: 6.00 Build 0)  -->
<!DOCTYPE svg PUBLIC "-//W3C//DTD SVG 1.1//EN" "http://www.w3.org/Graphics/SVG/1.1/DTD/svg11.dtd">
<svg version="1.1" id="Layer_1" xmlns="http://www.w3.org/2000/svg" xmlns:xlink="http://www.w3.org/1999/xlink" x="0px" y="0px"
	 width="30px" height="25px" viewBox="0 0 30 25" enable-background="new 0 0 30 25" xml:space="preserve">
<path fill="#FAD061" d="M27.309,21.863L15.812,1.747c-0.445-0.782-1.18-0.782-1.627,0L2.689,21.863
	c-0.445,0.785-0.073,1.426,0.827,1.426h22.966C27.387,23.289,27.758,22.648,27.309,21.863z M16.641,19.188
	c0,0.451-0.369,0.82-0.82,0.82h-1.64c-0.449,0-0.82-0.369-0.82-0.82v-1.641c0-0.451,0.372-0.82,0.82-0.82h1.64
	c0.451,0,0.82,0.369,0.82,0.82V19.188z M16.641,14.268c0,0.451-0.369,0.82-0.82,0.82h-1.64c-0.449,0-0.82-0.369-0.82-0.82v-4.92
	c0-0.452,0.372-0.82,0.82-0.82h1.64c0.451,0,0.82,0.368,0.82,0.82V14.268z"/>
</svg>
