<?xml version="1.0" encoding="utf-8"?>
<!-- Generator: Adobe Illustrator 15.1.0, SVG Export Plug-In . SVG Version: 6.00 Build 0)  -->
<!DOCTYPE svg PUBLIC "-//W3C//DTD SVG 1.1//EN" "http://www.w3.org/Graphics/SVG/1.1/DTD/svg11.dtd">
<svg version="1.1" id="Layer_1" xmlns="http://www.w3.org/2000/svg" xmlns:xlink="http://www.w3.org/1999/xlink" x="0px" y="0px"
	 width="40px" height="40px" viewBox="0 0 40 40" enable-background="new 0 0 40 40" xml:space="preserve">
<g>
	<path fill="#67767E" d="M20.083,5.798c-8.484,0-15.361,6.878-15.361,15.362c0,6.537,4.085,12.117,9.84,14.336l3.849-9.648
		c-1.853-0.66-3.108-2.608-3.108-4.688c0-2.64,2.141-4.78,4.78-4.78c2.64,0,4.78,2.14,4.78,4.78c0,2.199-1.32,3.881-3.506,4.607
		c0.813,1.797,3.025,7.627,3.816,9.887c5.98-2.103,10.27-7.795,10.27-14.494C35.443,12.676,28.566,5.798,20.083,5.798"/>
</g>
</svg>
