<?xml version="1.0" encoding="iso-8859-1"?>
<!-- Generator: Adobe Illustrator 16.0.0, SVG Export Plug-In . SVG Version: 6.00 Build 0)  -->
<!DOCTYPE svg PUBLIC "-//W3C//DTD SVG 1.1//EN" "http://www.w3.org/Graphics/SVG/1.1/DTD/svg11.dtd" [
	<!ENTITY ns_extend "http://ns.adobe.com/Extensibility/1.0/">
	<!ENTITY ns_ai "http://ns.adobe.com/AdobeIllustrator/10.0/">
	<!ENTITY ns_graphs "http://ns.adobe.com/Graphs/1.0/">
	<!ENTITY ns_vars "http://ns.adobe.com/Variables/1.0/">
	<!ENTITY ns_imrep "http://ns.adobe.com/ImageReplacement/1.0/">
	<!ENTITY ns_sfw "http://ns.adobe.com/SaveForWeb/1.0/">
	<!ENTITY ns_custom "http://ns.adobe.com/GenericCustomNamespace/1.0/">
	<!ENTITY ns_adobe_xpath "http://ns.adobe.com/XPath/1.0/">
]>
<svg version="1.1" id="Layer_1" xmlns:x="&ns_extend;" xmlns:i="&ns_ai;" xmlns:graph="&ns_graphs;"
	 xmlns="http://www.w3.org/2000/svg" xmlns:xlink="http://www.w3.org/1999/xlink" x="0px" y="0px" width="25px" height="25px"
	 viewBox="0 0 25 25" enable-background="new 0 0 25 25" xml:space="preserve">
<metadata>
	<sfw  xmlns="&ns_sfw;">
		<slices></slices>
		<sliceSourceBounds  height="21.992" width="21.992" x="1.504" y="-23.496" bottomLeftOrigin="true"></sliceSourceBounds>
	</sfw>
</metadata>
<path fill-rule="evenodd" clip-rule="evenodd" fill="#33A958" d="M12.5,1.504C6.428,1.504,1.504,6.426,1.504,12.5
	c0,2.816,1.066,5.376,2.808,7.322c2.014,2.25,4.932,3.674,8.188,3.674c3.296,0,6.248-1.458,8.263-3.756
	c1.697-1.936,2.732-4.465,2.732-7.24C23.496,6.426,18.572,1.504,12.5,1.504z M20.184,18.266c-0.709-0.582-2.104-1.018-3.494-1.6
	c-1.66-0.689-2.051-0.93-2.051-0.93l-0.016-1.592c0,0,0.619-0.478,0.812-1.976c0.389,0.113,0.797-0.579,0.818-0.942
	c0.021-0.352-0.053-1.327-0.527-1.23c0.096-0.733,0.166-1.393,0.133-1.742c-0.123-1.279-1.381-2.627-3.319-2.627
	c-1.932,0-3.193,1.348-3.317,2.627C9.192,8.604,9.26,9.263,9.357,9.996c-0.476-0.097-0.55,0.879-0.526,1.23
	c0.021,0.363,0.428,1.056,0.817,0.942c0.192,1.498,0.813,1.976,0.813,1.976l-0.016,1.592c0,0-0.393,0.24-2.049,0.93
	c-1.427,0.596-2.857,1.037-3.551,1.641c-1.229-1.615-1.968-3.624-1.968-5.807c0-5.306,4.317-9.622,9.622-9.622
	c5.304,0,9.623,4.316,9.623,9.622C22.123,14.664,21.395,16.656,20.184,18.266z"/>
</svg>
