<?xml version="1.0" encoding="utf-8"?>
<!-- Generator: Adobe Illustrator 15.1.0, SVG Export Plug-In . SVG Version: 6.00 Build 0)  -->
<!DOCTYPE svg PUBLIC "-//W3C//DTD SVG 1.1//EN" "http://www.w3.org/Graphics/SVG/1.1/DTD/svg11.dtd">
<svg version="1.1" id="Layer_1" xmlns="http://www.w3.org/2000/svg" xmlns:xlink="http://www.w3.org/1999/xlink" x="0px" y="0px"
	 width="40px" height="40px" viewBox="0 0 40 40" enable-background="new 0 0 40 40" xml:space="preserve">
<g>
	<path fill="#67767E" d="M33.271,27.078h-6v-10h4v-2h-4.453c-0.504-1.143-1.387-2.155-2.441-2.682l-2.637-1.318h9.531v-2h-13.53
		l-7.998-4h23.528c1.1,0,2,0.9,2,2v18C35.271,26.178,34.371,27.078,33.271,27.078z"/>
	<path fill="#67767E" d="M23.482,14.184L7.06,5.973c-0.258-0.131-0.504-0.19-0.725-0.19c-0.627,0-1.064,0.483-1.064,1.294v18
		c0,1.1,0.805,2.403,1.789,2.896l16.422,8.211c0.258,0.131,0.504,0.191,0.725,0.191c0.627,0,1.064-0.484,1.064-1.299v-18
		C25.271,15.979,24.467,14.674,23.482,14.184z M19.271,27.078c-1.105,0-2-1.342-2-3s0.895-3,2-3s2,1.342,2,3
		S20.376,27.078,19.271,27.078z"/>
</g>
</svg>
