<?xml version="1.0" encoding="utf-8"?>
<!-- Generator: Adobe Illustrator 15.1.0, SVG Export Plug-In . SVG Version: 6.00 Build 0)  -->
<!DOCTYPE svg PUBLIC "-//W3C//DTD SVG 1.1//EN" "http://www.w3.org/Graphics/SVG/1.1/DTD/svg11.dtd">
<svg version="1.1" id="Layer_1" xmlns="http://www.w3.org/2000/svg" xmlns:xlink="http://www.w3.org/1999/xlink" x="0px" y="0px"
	 width="40px" height="40px" viewBox="0 0 40 40" enable-background="new 0 0 40 40" xml:space="preserve">
<g>
	<path fill="#67767E" d="M23.581,16.943L23.581,16.943c0-2.07,2.519-3.549,5.623-3.549s5.623,1.479,5.623,3.549l0,0H23.581z"/>
	<circle fill="#67767E" cx="29.204" cy="9.646" r="3.749"/>
	<circle fill="#67767E" cx="19.832" cy="28.39" r="3.749"/>
	<path fill="#67767E" d="M25.455,35.887v0.002H14.209v-0.002c0-2.068,2.519-3.748,5.623-3.748
		C22.936,32.139,25.455,33.818,25.455,35.887z"/>
	<path fill="#67767E" d="M4.837,17.142c0-2.069,2.519-3.748,5.623-3.748s5.623,1.679,5.623,3.748v-0.199H4.837V17.142z"/>
	<circle fill="#67767E" cx="10.46" cy="9.646" r="3.749"/>
	
		<rect x="10.961" y="18.581" transform="matrix(-0.7068 0.7074 -0.7074 -0.7068 36.1041 29.6956)" fill="#67767E" width="1.875" height="7.497"/>
	
		<rect x="26.831" y="18.583" transform="matrix(0.7066 0.7076 -0.7076 0.7066 23.9498 -13.0967)" fill="#67767E" width="1.873" height="7.497"/>
</g>
</svg>
