<?xml version="1.0" encoding="utf-8"?>
<!-- Generator: Adobe Illustrator 15.1.0, SVG Export Plug-In . SVG Version: 6.00 Build 0)  -->
<!DOCTYPE svg PUBLIC "-//W3C//DTD SVG 1.1//EN" "http://www.w3.org/Graphics/SVG/1.1/DTD/svg11.dtd">
<svg version="1.1" id="Layer_1" xmlns="http://www.w3.org/2000/svg" xmlns:xlink="http://www.w3.org/1999/xlink" x="0px" y="0px"
	 width="70px" height="70px" viewBox="0 0 70 70" enable-background="new 0 0 70 70" xml:space="preserve">
<g>
	<path fill="#D7E1E4" d="M26.256,22.16c0-1.64-1.005-3.708-5.208-3.708c-1.732,0-6.483,0-6.483,0l-1.831,8.513c0,0,3.495,0,6.74,0
		C24.751,26.965,26.256,24.473,26.256,22.16L26.256,22.16z"/>
	<path fill="#D7E1E4" d="M43.697,22.16c0-1.64-1-3.708-5.207-3.708c-1.723,0-6.471,0-6.471,0l-1.841,8.513c0,0,3.495,0,6.744,0
		C42.199,26.965,43.697,24.473,43.697,22.16L43.697,22.16z"/>
	<path fill="#D7E1E4" d="M23.917,34.972c0-1.639-1.004-3.699-5.211-3.699c-1.723,0-6.474,0-6.474,0l-1.842,8.5c0,0,3.5,0,6.755,0
		C22.412,39.773,23.917,37.282,23.917,34.972L23.917,34.972z"/>
	<path fill="#D7E1E4" d="M41.359,34.972c0-1.639-1.002-3.699-5.201-3.699c-1.734,0-6.482,0-6.482,0l-1.838,8.5c0,0,3.499,0,6.743,0
		C39.857,39.773,41.359,37.282,41.359,34.972L41.359,34.972z"/>
	<path fill="#D7E1E4" d="M59.609,29.776c0-1.637-0.996-3.708-5.201-3.708c-1.732,0-6.479,0-6.479,0l-1.843,8.517
		c0,0,3.496,0,6.744,0C58.109,34.585,59.609,32.091,59.609,29.776L59.609,29.776z"/>
	<path fill="#D7E1E4" d="M57.098,43.12c0-1.634-1.002-3.709-5.209-3.709c-1.725,0-6.477,0-6.477,0l-1.836,8.514c0,0,3.5,0,6.746,0
		C55.594,47.925,57.098,45.438,57.098,43.12L57.098,43.12z"/>
	<path fill="#D7E1E4" d="M38.85,48.312c0-1.636-0.996-3.707-5.196-3.707c-1.734,0-6.483,0-6.483,0l-1.839,8.518c0,0,3.504,0,6.758,0
		C37.354,53.122,38.85,50.632,38.85,48.312L38.85,48.312z"/>
</g>
</svg>
