<?xml version="1.0" encoding="utf-8"?>
<!-- Generator: Adobe Illustrator 15.1.0, SVG Export Plug-In . SVG Version: 6.00 Build 0)  -->
<!DOCTYPE svg PUBLIC "-//W3C//DTD SVG 1.1//EN" "http://www.w3.org/Graphics/SVG/1.1/DTD/svg11.dtd">
<svg version="1.1" id="Layer_1" xmlns="http://www.w3.org/2000/svg" xmlns:xlink="http://www.w3.org/1999/xlink" x="0px" y="0px"
	 width="30px" height="30px" viewBox="0 0 30 30" enable-background="new 0 0 30 30" xml:space="preserve">
<path fill="#FFFFFF" d="M25.475,17.396h-1.533c-0.108,0-0.209-0.037-0.311-0.062c-0.197,0.719-0.488,1.396-0.855,2.025
	c0.035,0.029,0.08,0.041,0.113,0.074l1.084,1.084c0.287,0.287,0.449,0.68,0.449,1.084c0,0.407-0.162,0.797-0.449,1.084l-1.086,1.084
	c-0.6,0.6-1.568,0.6-2.168,0l-1.084-1.084c-0.05-0.047-0.074-0.117-0.115-0.17c-0.557,0.301-1.153,0.532-1.774,0.704
	c0.022,0.104,0.062,0.201,0.062,0.312v1.533c0,0.848-0.687,1.533-1.533,1.533h-1.532c-0.846,0-1.533-0.687-1.533-1.533v-1.533
	c0-0.109,0.04-0.207,0.062-0.312c-0.737-0.2-1.433-0.504-2.074-0.889c-0.069,0.123-0.13,0.25-0.235,0.354L9.877,23.77
	c-0.6,0.601-1.569,0.601-2.168,0l-1.084-1.084c-0.599-0.598-0.599-1.567,0-2.168l1.084-1.084c0.122-0.119,0.265-0.201,0.412-0.271
	c-0.314-0.572-0.56-1.187-0.737-1.828c-0.102,0.024-0.201,0.062-0.31,0.062H5.541c-0.846,0-1.533-0.686-1.533-1.532V14.33
	c0-0.846,0.688-1.533,1.533-1.533h1.533c0.109,0,0.208,0.043,0.31,0.062c0.177-0.641,0.422-1.252,0.737-1.822
	c-0.148-0.074-0.293-0.156-0.412-0.275L6.624,9.676c-0.598-0.598-0.598-1.568,0-2.168l1.085-1.084
	c0.288-0.289,0.678-0.449,1.084-0.449c0.406,0,0.796,0.16,1.084,0.449l1.085,1.084c0.105,0.105,0.166,0.23,0.233,0.354
	c0.643-0.383,1.337-0.682,2.074-0.887c-0.022-0.102-0.062-0.199-0.062-0.311V5.131c0-0.846,0.687-1.533,1.533-1.533h1.533
	c0.847,0,1.533,0.688,1.533,1.533v1.533c0,0.111-0.039,0.209-0.062,0.311c0.621,0.172,1.219,0.406,1.775,0.707
	c0.041-0.057,0.063-0.123,0.114-0.174l1.085-1.086c0.6-0.6,1.569-0.6,2.17,0l1.084,1.086c0.6,0.6,0.6,1.57,0,2.168l-1.084,1.086
	c-0.033,0.033-0.078,0.047-0.115,0.076c0.369,0.627,0.66,1.307,0.856,2.021c0.103-0.02,0.201-0.062,0.312-0.062h1.533
	c0.846,0,1.532,0.688,1.532,1.533v1.533C27.008,16.711,26.32,17.396,25.475,17.396z M15.507,9.73c-2.963,0-5.367,2.404-5.367,5.367
	c0,2.965,2.403,5.367,5.367,5.367s5.367-2.401,5.367-5.367C20.874,12.135,18.471,9.73,15.507,9.73z M15.507,17.396
	c-1.27,0-2.3-1.027-2.3-2.299c0-1.27,1.03-2.301,2.3-2.301c1.271,0,2.3,1.031,2.3,2.301C17.807,16.369,16.777,17.396,15.507,17.396z
	"/>
</svg>
