<?xml version="1.0" encoding="utf-8"?>
<!-- Generator: Adobe Illustrator 15.1.0, SVG Export Plug-In . SVG Version: 6.00 Build 0)  -->
<!DOCTYPE svg PUBLIC "-//W3C//DTD SVG 1.1//EN" "http://www.w3.org/Graphics/SVG/1.1/DTD/svg11.dtd">
<svg version="1.1" id="Layer_1" xmlns="http://www.w3.org/2000/svg" xmlns:xlink="http://www.w3.org/1999/xlink" x="0px" y="0px"
	 width="30px" height="30px" viewBox="0 0 30 30" enable-background="new 0 0 30 30" xml:space="preserve">
<path fill="#FFFFFF" d="M29.002,6.603c-0.994,0.441-2.062,0.74-3.182,0.875c1.143-0.688,2.021-1.776,2.436-3.073
	c-1.07,0.636-2.256,1.098-3.52,1.347c-1.01-1.079-2.449-1.754-4.043-1.754c-3.062,0-5.542,2.487-5.542,5.555
	c0,0.437,0.049,0.859,0.144,1.266C10.69,10.587,6.607,8.376,3.874,5.015c-0.477,0.82-0.75,1.774-0.75,2.793
	c0,1.927,0.978,3.627,2.465,4.623c-0.908-0.029-1.763-0.279-2.51-0.695c0,0.023,0,0.047,0,0.07c0,2.691,1.91,4.937,4.445,5.447
	c-0.465,0.127-0.955,0.195-1.459,0.195c-0.357,0-0.704-0.035-1.043-0.101c0.705,2.207,2.751,3.812,5.176,3.857
	c-1.896,1.488-4.286,2.377-6.882,2.377c-0.447,0-0.888-0.025-1.322-0.077C4.447,25.081,7.359,26,10.488,26
	c10.192,0,15.766-8.464,15.766-15.805c0-0.24-0.006-0.48-0.018-0.718C27.32,8.694,28.26,7.717,29.002,6.603z"/>
</svg>
