<?xml version="1.0" encoding="utf-8"?>
<!-- Generator: Adobe Illustrator 15.1.0, SVG Export Plug-In . SVG Version: 6.00 Build 0)  -->
<!DOCTYPE svg PUBLIC "-//W3C//DTD SVG 1.1//EN" "http://www.w3.org/Graphics/SVG/1.1/DTD/svg11.dtd">
<svg version="1.1" id="Layer_1" xmlns="http://www.w3.org/2000/svg" xmlns:xlink="http://www.w3.org/1999/xlink" x="0px" y="0px"
	 width="70px" height="70px" viewBox="0 0 70 70" enable-background="new 0 0 70 70" xml:space="preserve">
<g>
	<path fill="#D7E1E4" d="M42.15,12.184l2.584-4.49c0,0,0.123-0.238-0.108-0.372c-0.231-0.134-0.39,0.095-0.39,0.095l-2.62,4.529
		c-1.998-0.889-4.242-1.391-6.616-1.391s-4.619,0.502-6.615,1.391l-2.622-4.529c0,0-0.146-0.229-0.379-0.095
		c-0.234,0.133-0.117,0.373-0.117,0.373l2.583,4.49c-4.701,2.306-7.886,7.153-7.886,12.332H35h15.038
		C50.038,19.337,46.854,14.49,42.15,12.184z M27.849,19.232c-0.788,0-1.43-0.623-1.43-1.411c0-0.788,0.643-1.431,1.43-1.431
		c0.788,0,1.43,0.643,1.43,1.431C29.279,18.609,28.637,19.232,27.849,19.232z M42.15,19.232c-0.787,0-1.43-0.623-1.43-1.411
		c0-0.788,0.643-1.431,1.43-1.431c0.789,0,1.433,0.643,1.433,1.431C43.583,18.609,42.939,19.232,42.15,19.232z"/>
	<path fill="#D7E1E4" d="M19.508,25.433v23.485c0,1.131,1.368,2.613,2.5,2.613h3.579v7.613c0,1.979,1.776,3.575,3.572,3.575
		c1.795,0,3.405-1.596,3.405-3.575v-7.613h5.04v7.613c0,1.979,1.44,3.575,3.235,3.575c1.798,0,3.593-1.596,3.593-3.575v-7.613h3.559
		c1.133,0,2.5-1.482,2.5-2.613V25.433H19.841H19.508z"/>
	<path fill="#D7E1E4" d="M14.852,25.457L14.852,25.457c1.79,0,3.241,1.601,3.241,3.575V42.57c0,1.975-1.451,3.576-3.241,3.576l0,0
		c-1.79,0-3.241-1.603-3.241-3.576V29.032C11.611,27.057,13.062,25.457,14.852,25.457z"/>
	<path fill="#D7E1E4" d="M55.148,25.457L55.148,25.457c1.791,0,3.24,1.601,3.24,3.575V42.57c0,1.975-1.449,3.576-3.24,3.576l0,0
		c-1.789,0-3.239-1.603-3.239-3.576V29.032C51.909,27.057,53.359,25.457,55.148,25.457z"/>
</g>
</svg>
