<?xml version="1.0" encoding="utf-8"?>
<!-- Generator: Adobe Illustrator 15.1.0, SVG Export Plug-In . SVG Version: 6.00 Build 0)  -->
<!DOCTYPE svg PUBLIC "-//W3C//DTD SVG 1.1//EN" "http://www.w3.org/Graphics/SVG/1.1/DTD/svg11.dtd">
<svg version="1.1" id="Layer_1" xmlns="http://www.w3.org/2000/svg" xmlns:xlink="http://www.w3.org/1999/xlink" x="0px" y="0px"
	 width="30px" height="30px" viewBox="0 0 30 30" enable-background="new 0 0 30 30" xml:space="preserve">
<g>
	<path fill="#FFFFFF" d="M14.832,3.596c-6.351,0-11.5,5.148-11.5,11.5s5.149,11.5,11.5,11.5c6.352,0,11.5-5.147,11.5-11.5
		S21.184,3.596,14.832,3.596z M14.832,23.529c-4.65,0-8.433-3.783-8.433-8.435c0-4.651,3.783-8.434,8.433-8.434
		c4.65,0,8.434,3.783,8.434,8.434C23.266,19.746,19.482,23.529,14.832,23.529z"/>
	<circle fill="#FFFFFF" cx="19.432" cy="13.563" r="0.767"/>
	<circle fill="#FFFFFF" cx="17.898" cy="10.495" r="0.767"/>
	<path fill="#FFFFFF" d="M14.832,21.996c-1.271,0-2.3-1.031-2.3-2.301c0-1,0.642-1.842,1.533-2.158v-3.975
		c0-0.422,0.343-0.766,0.767-0.766S15.6,13.14,15.6,13.562v3.975c0.892,0.316,1.533,1.158,1.533,2.158
		C17.133,20.965,16.104,21.996,14.832,21.996z"/>
	<circle fill="#FFFFFF" cx="14.832" cy="8.962" r="0.767"/>
	<circle fill="#FFFFFF" cx="11.766" cy="10.495" r="0.767"/>
	<circle fill="#FFFFFF" cx="10.232" cy="13.563" r="0.767"/>
</g>
</svg>
