<?xml version="1.0" encoding="utf-8"?>
<!-- Generator: Adobe Illustrator 15.1.0, SVG Export Plug-In . SVG Version: 6.00 Build 0)  -->
<!DOCTYPE svg PUBLIC "-//W3C//DTD SVG 1.1//EN" "http://www.w3.org/Graphics/SVG/1.1/DTD/svg11.dtd">
<svg version="1.1" id="Layer_1" xmlns="http://www.w3.org/2000/svg" xmlns:xlink="http://www.w3.org/1999/xlink" x="0px" y="0px"
	 width="30px" height="30px" viewBox="0 0 30 30" enable-background="new 0 0 30 30" xml:space="preserve">
<path fill="#ECECED" d="M18.436,5.355h-5.389c-4.033,0-7.303,3.355-7.303,7.497c0,3.772,2.716,6.884,6.248,7.412v5.084l4.999-4.998
	h1.444c4.033,0,7.303-3.355,7.303-7.498S22.469,5.355,18.436,5.355z M10.742,14.727c-1.034,0-1.875-0.841-1.875-1.874
	c0-1.034,0.841-1.874,1.875-1.874c1.034,0,1.875,0.84,1.875,1.874C12.617,13.886,11.776,14.727,10.742,14.727z M15.741,14.727
	c-1.034,0-1.875-0.841-1.875-1.874c0-1.034,0.841-1.874,1.875-1.874s1.875,0.84,1.875,1.874
	C17.615,13.886,16.773,14.727,15.741,14.727z M20.738,14.727c-1.033,0-1.873-0.841-1.873-1.874c0-1.034,0.84-1.874,1.873-1.874
	c1.035,0,1.875,0.84,1.875,1.874C22.613,13.886,21.773,14.727,20.738,14.727z"/>
</svg>
