<?xml version="1.0" encoding="utf-8"?>
<!-- Generator: Adobe Illustrator 15.1.0, SVG Export Plug-In . SVG Version: 6.00 Build 0)  -->
<!DOCTYPE svg PUBLIC "-//W3C//DTD SVG 1.1//EN" "http://www.w3.org/Graphics/SVG/1.1/DTD/svg11.dtd">
<svg version="1.1" id="Layer_1" xmlns="http://www.w3.org/2000/svg" xmlns:xlink="http://www.w3.org/1999/xlink" x="0px" y="0px"
	 width="408.248px" height="97.521px" viewBox="0 0 408.248 97.521" enable-background="new 0 0 408.248 97.521"
	 xml:space="preserve">
<g>
	<path fill="#E3F2E6" d="M48.759,97.521C21.875,97.521,0,75.645,0,48.76C0,21.874,21.875,0,48.759,0
		c26.889,0,48.765,21.875,48.765,48.76C97.524,75.645,75.648,97.521,48.759,97.521z M48.759,6.303
		c-23.415,0-42.457,19.045-42.457,42.458c0,23.414,19.044,42.467,42.457,42.467c23.414,0,42.462-19.054,42.462-42.467
		C91.222,25.346,72.173,6.303,48.759,6.303z"/>
</g>
<g>
	<path fill="#37AA5A" d="M97.319,48.972h-5.893c0-23.574-19.465-42.875-43.039-42.875V0.204
		C74.908,0.204,97.319,22.451,97.319,48.972z"/>
</g>
<g>
	<path fill="#E3F2E6" d="M152.336,97.521c-26.886,0-48.759-21.876-48.759-48.761c0-26.886,21.874-48.76,48.759-48.76
		c26.89,0,48.763,21.875,48.763,48.76C201.099,75.645,179.226,97.521,152.336,97.521z M152.336,6.303
		c-23.413,0-42.458,19.045-42.458,42.458c0,23.414,19.045,42.467,42.458,42.467c23.413,0,42.463-19.054,42.463-42.467
		C194.799,25.346,175.747,6.303,152.336,6.303z"/>
</g>
<g>
	<path fill="#37AA5A" d="M152.996,97.32v-5.895c23.574,0,42.006-18.879,42.006-42.453h5.895
		C200.896,75.494,179.518,97.32,152.996,97.32z"/>
</g>
<g>
	<path fill="#E3F2E6" d="M255.91,97.521c-26.882,0-48.764-21.876-48.764-48.761C207.146,21.874,229.028,0,255.91,0
		c26.885,0,48.762,21.875,48.762,48.76C304.668,75.645,282.795,97.521,255.91,97.521z M255.91,6.303
		c-23.412,0-42.467,19.045-42.467,42.458c0,23.414,19.056,42.467,42.467,42.467c23.414,0,42.469-19.054,42.469-42.467
		C298.379,25.346,279.323,6.303,255.91,6.303z"/>
</g>
<g>
	<path fill="#37AA5A" d="M256.132,97.32c-26.521,0-48.78-21.826-48.78-48.348h5.892c0,23.574,19.314,42.453,42.889,42.453V97.32z"/>
</g>
<g>
	<path fill="#E3F2E6" d="M359.485,97.521c-26.886,0-48.757-21.876-48.757-48.761C310.729,21.874,332.6,0,359.485,0
		s48.763,21.875,48.763,48.76C408.248,75.645,386.371,97.521,359.485,97.521z M359.485,6.303c-23.414,0-42.465,19.045-42.465,42.458
		c0,23.414,19.053,42.467,42.465,42.467c23.416,0,42.469-19.054,42.469-42.467C401.955,25.346,382.901,6.303,359.485,6.303z"/>
</g>
<g>
	<path fill="#37AA5A" d="M316.822,48.972h-5.895c0-26.521,21.819-48.769,48.34-48.769v5.894
		C335.694,6.097,316.822,25.398,316.822,48.972z"/>
</g>
</svg>
