<?xml version="1.0" encoding="utf-8"?>
<!-- Generator: Adobe Illustrator 15.1.0, SVG Export Plug-In . SVG Version: 6.00 Build 0)  -->
<!DOCTYPE svg PUBLIC "-//W3C//DTD SVG 1.1//EN" "http://www.w3.org/Graphics/SVG/1.1/DTD/svg11.dtd">
<svg version="1.1" id="Layer_1" xmlns="http://www.w3.org/2000/svg" xmlns:xlink="http://www.w3.org/1999/xlink" x="0px" y="0px"
	 width="304.185px" height="100.593px" viewBox="5.289 10.386 304.185 100.593"
	 enable-background="new 5.289 10.386 304.185 100.593" xml:space="preserve">
<path fill="#5CB062" d="M55.586,10.386c-27.778,0-50.297,22.521-50.297,50.296c0,9.648,2.721,18.66,7.432,26.316
	c7.056-2.342,17.136-4.643,30.135-5.057c0-2.154,0-5.944,0-7.894c0-2.847-2.978-2.969-3.488-2.969c-0.048,0-0.074,0.001-0.074,0.001
	s-5.634,0-12.458,0c-11.271,0-11.271-8.898-11.271-8.898V52.094c0,0,9.196,0,19.582,0c11.862,0,11.862,11.148,11.862,11.148v18.633
	c12.114,0.003,26.515,1.66,43.13,6.3c0,0,0.892,1.149-0.438,1.578c0,0-42.379-8.021-66.333,9.542
	c8.728,7.291,19.961,11.684,32.222,11.684c27.778,0,50.294-22.52,50.294-50.295C105.881,32.906,83.364,10.386,55.586,10.386z
	 M78.954,44.765c0,0,0,10.353-13.11,10.353c-7.939,0-14.494,0-14.494,0s-0.031-0.002-0.086-0.002c-0.349,0-1.668,0.068-2.712,0.77
	c-1.434-2.581-3.545-4.493-6.175-5.688v-4.2c0,0,0-12.967,13.799-12.967c12.081,0,22.778,0,22.778,0V44.765z"/>
<g>
	<path fill="#5CB062" d="M144.602,62.609c0,1.576-0.192,3.01-0.581,4.302c-0.388,1.292-0.956,2.401-1.705,3.332
		s-1.679,1.653-2.79,2.17c-1.109,0.517-2.39,0.774-3.836,0.774c-0.801,0-1.55-0.076-2.247-0.232
		c-0.696-0.154-1.368-0.373-2.015-0.658v7.672h-5.773V53.116c0.517-0.155,1.11-0.303,1.782-0.445
		c0.671-0.142,1.375-0.265,2.111-0.368c0.736-0.103,1.485-0.187,2.248-0.252c0.762-0.064,1.491-0.097,2.188-0.097
		c1.681,0,3.179,0.252,4.495,0.755c1.317,0.504,2.429,1.215,3.333,2.131c0.903,0.917,1.596,2.034,2.072,3.352
		C144.363,59.51,144.602,60.982,144.602,62.609z M138.712,62.766c0-1.783-0.4-3.209-1.201-4.283
		c-0.801-1.071-1.989-1.608-3.564-1.608c-0.518,0-0.994,0.02-1.434,0.058c-0.438,0.039-0.802,0.084-1.085,0.136v10.423
		c0.361,0.232,0.833,0.426,1.414,0.581s1.168,0.233,1.763,0.233C137.343,68.307,138.712,66.459,138.712,62.766z"/>
	<path fill="#5CB062" d="M155.374,46.529c0,1.06-0.344,1.893-1.026,2.499c-0.686,0.607-1.492,0.911-2.422,0.911
		c-0.931,0-1.738-0.303-2.422-0.911c-0.686-0.606-1.027-1.439-1.027-2.499c0-1.059,0.343-1.892,1.027-2.5
		c0.684-0.606,1.491-0.911,2.422-0.911c0.93,0,1.736,0.304,2.422,0.911C155.031,44.637,155.374,45.47,155.374,46.529z
		 M154.832,72.801h-5.773V52.419h5.773V72.801z"/>
	<path fill="#5CB062" d="M168.333,58.132l4.052-5.713h5.967l-7.073,9.911c1.621,1.861,3.062,3.713,4.319,5.553
		c1.259,1.84,2.267,3.479,3.025,4.918h-6.191c-0.211-0.389-0.471-0.873-0.78-1.455c-0.31-0.58-0.657-1.188-1.045-1.822
		c-0.388-0.633-0.791-1.17-1.213-1.608c-0.421-0.438-0.837-0.839-1.245-1.199c-0.391,0.335-0.788,0.705-1.19,1.109
		c-0.402,0.403-0.786,0.909-1.149,1.517s-0.72,1.205-1.068,1.799c-0.352,0.594-0.661,1.146-0.935,1.661h-5.873
		c0.324-0.636,0.753-1.396,1.286-2.28c0.532-0.886,1.116-1.799,1.752-2.739s1.323-1.854,2.062-2.743
		c0.737-0.887,1.465-1.721,2.177-2.498c-1.269-1.801-2.485-3.532-3.654-5.193c-1.17-1.662-2.326-3.303-3.468-4.927h6.238
		L168.333,58.132z"/>
	<path fill="#5CB062" d="M179.824,62.766c0-1.809,0.275-3.391,0.833-4.748c0.555-1.356,1.283-2.486,2.188-3.391
		c0.904-0.904,1.944-1.588,3.12-2.054c1.175-0.465,2.383-0.697,3.623-0.697c2.893,0,5.179,0.885,6.857,2.654
		c1.68,1.77,2.52,4.373,2.52,7.807c0,0.337-0.014,0.705-0.039,1.104c-0.026,0.4-0.052,0.757-0.077,1.065h-13.098
		c0.129,1.188,0.685,2.132,1.667,2.829c0.98,0.697,2.299,1.045,3.952,1.045c1.059,0,2.099-0.096,3.118-0.29
		c1.021-0.194,1.854-0.433,2.499-0.717l0.775,4.688c-0.311,0.154-0.724,0.311-1.24,0.465s-1.092,0.291-1.725,0.406
		c-0.633,0.116-1.312,0.213-2.034,0.291c-0.724,0.077-1.447,0.116-2.17,0.116c-1.834,0-3.429-0.271-4.785-0.813
		c-1.355-0.543-2.479-1.285-3.371-2.229c-0.892-0.94-1.55-2.059-1.977-3.353C180.037,65.658,179.824,64.264,179.824,62.766z
		 M193.386,60.557c-0.026-0.491-0.11-0.97-0.252-1.435c-0.143-0.465-0.362-0.878-0.658-1.24c-0.298-0.361-0.673-0.659-1.124-0.891
		c-0.452-0.232-1.015-0.349-1.686-0.349c-0.646,0-1.201,0.11-1.666,0.329c-0.465,0.22-0.854,0.511-1.163,0.872
		c-0.311,0.362-0.549,0.782-0.717,1.259c-0.168,0.479-0.29,0.963-0.368,1.453h7.634V60.557z"/>
	<path fill="#5CB062" d="M211.559,73.188c-1.68-0.025-3.042-0.207-4.088-0.541c-1.046-0.336-1.873-0.809-2.479-1.416
		c-0.606-0.605-1.021-1.342-1.239-2.207c-0.22-0.865-0.329-1.842-0.329-2.926V43.662l5.772-0.93v22.204
		c0,0.517,0.038,0.981,0.116,1.396c0.077,0.413,0.227,0.762,0.445,1.046s0.536,0.518,0.949,0.697s0.969,0.298,1.666,0.349
		L211.559,73.188z"/>
	<path fill="#5CB062" d="M234.613,62.609c0,1.576-0.192,3.01-0.58,4.302c-0.389,1.292-0.956,2.401-1.705,3.332
		s-1.68,1.653-2.79,2.17s-2.391,0.774-3.836,0.774c-0.802,0-1.551-0.076-2.247-0.232c-0.697-0.154-1.369-0.373-2.016-0.658v7.672
		h-5.772V53.116c0.516-0.155,1.109-0.303,1.782-0.445c0.671-0.142,1.375-0.265,2.11-0.368c0.736-0.103,1.485-0.187,2.248-0.252
		c0.762-0.064,1.491-0.097,2.188-0.097c1.68,0,3.178,0.252,4.495,0.755c1.316,0.504,2.428,1.215,3.333,2.131
		c0.902,0.917,1.595,2.034,2.071,3.352C234.375,59.51,234.613,60.982,234.613,62.609z M228.724,62.766
		c0-1.783-0.399-3.209-1.201-4.283c-0.801-1.071-1.988-1.608-3.563-1.608c-0.519,0-0.995,0.02-1.435,0.058
		c-0.438,0.039-0.802,0.084-1.085,0.136v10.423c0.361,0.232,0.833,0.426,1.414,0.581s1.168,0.233,1.764,0.233
		C227.354,68.307,228.724,66.459,228.724,62.766z"/>
	<path fill="#5CB062" d="M247.207,73.188c-1.681-0.025-3.042-0.207-4.088-0.541c-1.047-0.336-1.873-0.809-2.48-1.416
		c-0.605-0.605-1.021-1.342-1.239-2.207c-0.22-0.865-0.329-1.842-0.329-2.926V43.662l5.773-0.93v22.204
		c0,0.517,0.038,0.981,0.116,1.396c0.077,0.413,0.226,0.762,0.444,1.046c0.22,0.284,0.536,0.518,0.949,0.697s0.97,0.298,1.666,0.349
		L247.207,73.188z"/>
	<path fill="#5CB062" d="M259.219,51.876c1.705,0,3.125,0.194,4.262,0.581c1.138,0.388,2.048,0.943,2.732,1.667
		c0.684,0.723,1.168,1.602,1.453,2.635c0.284,1.034,0.426,2.183,0.426,3.449V72.22c-0.827,0.181-1.977,0.395-3.448,0.64
		c-1.473,0.244-3.255,0.367-5.348,0.367c-1.317,0-2.513-0.115-3.584-0.348c-1.072-0.232-1.996-0.613-2.771-1.145
		c-0.774-0.528-1.37-1.221-1.781-2.072c-0.414-0.854-0.62-1.898-0.62-3.139c0-1.188,0.237-2.195,0.717-3.022
		c0.478-0.826,1.117-1.485,1.918-1.976c0.801-0.491,1.718-0.846,2.751-1.066c1.033-0.219,2.104-0.33,3.216-0.33
		c0.749,0,1.415,0.033,1.996,0.097s1.052,0.149,1.414,0.251v-0.542c0-0.981-0.297-1.769-0.891-2.363
		c-0.596-0.594-1.628-0.892-3.102-0.892c-0.98,0-1.95,0.072-2.906,0.213c-0.956,0.142-1.781,0.343-2.479,0.601l-0.736-4.65
		c0.335-0.103,0.756-0.213,1.26-0.33c0.504-0.116,1.053-0.219,1.646-0.31c0.594-0.09,1.221-0.168,1.879-0.233
		C257.882,51.909,258.547,51.876,259.219,51.876z M259.684,68.771c0.567,0,1.11-0.015,1.627-0.039
		c0.518-0.025,0.932-0.064,1.24-0.117v-4.379c-0.232-0.051-0.581-0.103-1.046-0.154c-0.465-0.051-0.893-0.077-1.279-0.077
		c-0.542,0-1.053,0.032-1.53,0.097c-0.479,0.064-0.896,0.188-1.259,0.368c-0.361,0.181-0.646,0.427-0.853,0.736
		s-0.312,0.696-0.312,1.163c0,0.904,0.305,1.529,0.911,1.879C257.791,68.598,258.624,68.771,259.684,68.771z"/>
	<path fill="#5CB062" d="M273.323,53.116c0.98-0.284,2.247-0.548,3.798-0.794c1.55-0.246,3.178-0.368,4.883-0.368
		c1.729,0,3.17,0.226,4.319,0.678c1.148,0.453,2.061,1.092,2.731,1.918c0.671,0.826,1.149,1.808,1.434,2.945
		c0.285,1.137,0.428,2.402,0.428,3.798v11.508h-5.773V61.99c0-1.86-0.246-3.178-0.736-3.953s-1.407-1.163-2.752-1.163
		c-0.413,0-0.852,0.02-1.316,0.058c-0.465,0.039-0.878,0.084-1.239,0.136V72.8h-5.773V53.116H273.323z"/>
	<path fill="#5CB062" d="M295.951,47.343l5.772-0.93v6.006h6.937v4.805h-6.937v7.168c0,1.215,0.213,2.185,0.64,2.906
		c0.426,0.723,1.285,1.084,2.577,1.084c0.619,0,1.259-0.058,1.918-0.174c0.658-0.116,1.259-0.277,1.802-0.484l0.813,4.495
		c-0.697,0.284-1.473,0.53-2.325,0.735c-0.853,0.207-1.898,0.311-3.139,0.311c-1.576,0-2.881-0.213-3.913-0.639
		c-1.034-0.427-1.86-1.021-2.479-1.783c-0.62-0.762-1.054-1.686-1.299-2.771c-0.246-1.085-0.367-2.286-0.367-3.604V47.343
		L295.951,47.343z"/>
</g>
</svg>
