<?xml version="1.0" encoding="UTF-8" standalone="no"?>
<!-- Created with Inkscape (http://www.inkscape.org/) -->

<svg
   xmlns:dc="http://purl.org/dc/elements/1.1/"
   xmlns:cc="http://creativecommons.org/ns#"
   xmlns:rdf="http://www.w3.org/1999/02/22-rdf-syntax-ns#"
   xmlns:svg="http://www.w3.org/2000/svg"
   xmlns="http://www.w3.org/2000/svg"
   version="1.1"
   width="150"
   height="180"
   viewBox="0 0 150 180"
   id="Layer_1"
   xml:space="preserve"><metadata
   id="metadata53"><rdf:RDF><cc:Work
       rdf:about=""><dc:format>image/svg+xml</dc:format><dc:type
         rdf:resource="http://purl.org/dc/dcmitype/StillImage" /><dc:title></dc:title></cc:Work></rdf:RDF></metadata><defs
   id="defs51" />
<path
   d="M 77.6,30.3 C 100,30.3 118,48.5 118,71 C 118,93.4 100,112 77.6,112 C 55.2,112 37,93.4 37,71 C 37,48.5 55.2,30.3 77.6,30.3 z"
   id="path3"
   style="fill:#16313b;fill-rule:evenodd" />
<path
   d="M 73.2,39.8 C 90.4,39.8 104,53.7 104,71 C 104,88.2 90.4,102 73.2,102 C 55.9,102 41.9,88.2 41.9,71 C 41.9,53.7 55.9,39.8 73.2,39.8 z"
   id="path5"
   style="fill:#116360;fill-rule:evenodd" />
<path
   d="M 52.2,71.3 C 53.3,75.6 55.3,79.2 57.6,82.3 C 59.9,85.4 62.5,88 65.3,90 C 70.9,94.2 77,96.6 83.5,97.7 L 83.6,92.4 C 77.8,92.1 71.7,90.4 66.2,87.2 C 63.5,85.5 60.9,83.3 58.5,80.7 C 56.3,78 54.1,74.7 52.9,71 L 52.2,71.3 z"
   id="path7"
   style="fill:#24a9a8" />
<path
   d="M 83,93.7 C 77,93.3 70.9,91.4 65.3,87.8 C 62.6,86 59.9,83.7 57.6,80.8 C 55.5,78.2 53.5,74.9 52.3,71.3 L 52.9,71 C 54.1,74.7 56.3,78 58.5,80.7 C 60.9,83.3 63.5,85.5 66.2,87.2 C 71.7,90.4 77.8,92.1 83.6,92.4 L 83.5,97.7 C 83.2,97.6 83,97.6 82.8,97.6 L 83,93.7 z"
   id="path9"
   style="fill:#24a9a8" />
<path
   d="M 86.9,65.8 C 86.4,68.9 85.3,71.6 84,73.9 C 82.7,76.2 81.2,78 79.5,79.5 C 79.1,79.9 78.6,80.3 78.1,80.7 L 78.4,83.7 C 79.1,83.1 79.7,82.4 80.3,81.7 C 82,79.9 83.5,77.7 84.8,75.1 C 86,72.5 87,69.6 87.4,66.1 L 86.9,65.8 z"
   id="path11"
   style="fill:#24a9a8" />
<path
   d="M 79.5,79.5 C 81.2,78 82.7,76.2 84,73.9 C 85.3,71.6 86.4,68.9 86.9,65.8 L 87.4,66.1 C 87.4,66.2 87.4,66.2 87.4,66.3 L 87.4,66.3 C 86.9,69.3 85.7,72.1 84.5,74.3 C 83.1,76.6 81.6,78.5 80,80 C 79.5,80.4 79,80.7 78.6,81.1 L 78.8,83.3 C 78.6,83.4 78.5,83.6 78.4,83.7 L 78.1,80.7 C 78.6,80.3 79.1,79.9 79.5,79.5 z"
   id="path13"
   style="fill:#24a9a8" />
<path
   d="M 68.5,66.8 C 79.1,85.8 78.2,106 72,126 H 85.6 C 87.1,114 87.4,107 84.9,95.8 C 82.5,84.6 77.5,74.1 70.8,65.3 L 68.5,66.8 z"
   id="path15"
   style="fill:#24a9a8" />
<path
   d="M 83.4,96 C 81,85.1 76.2,74.8 69.6,66.1 L 70.8,65.3 C 77.5,74.1 82.5,84.6 84.9,95.8 C 87.4,107 87.1,114 85.6,126 H 84.1 C 85.6,115 85.8,107 83.4,96 z"
   id="path17"
   style="fill:#24a9a8" />
<path
   d="M 22.4,22 C 22.4,22 23.1,28.4 26.1,30.4 C 29,32.5 34.2,31.2 34.2,31.2 C 34.2,31.2 28.9,32 26.8,35 C 24.8,37.9 26,43 26,43 C 26,43 25.4,37.7 22.4,35.7 C 19.5,33.6 14.2,34.8 14.2,34.8 C 14.2,34.8 19.6,34.1 21.7,31.1 C 23.7,28.2 22.4,22 22.4,22 z"
   id="path19"
   style="fill:#ffffff;fill-rule:evenodd" />
<path
   d="M 123,15.3 C 123,15.3 124,22.4 128,25.1 C 132,27.8 139,26.2 139,26.2 C 139,26.2 132,27.2 129,31.1 C 127,35 128,41.8 128,41.8 C 128,41.8 127,34.7 123,32 C 120,29.3 113,31 113,31 C 113,31 120,30 122,26 C 125,22.2 123,15.3 123,15.3 z"
   id="path21"
   style="fill:#24a9a8;fill-rule:evenodd" />
<path
   d="M 22.4,111 L 13.6,107 L 7.01,100 L 15.8,104 L 22.4,111 z"
   id="path23"
   style="fill:#ffffff" />
<path
   d="M 20.3,97.7 L 16.4,106 L 9.37,113 L 13.3,104 L 20.3,97.7 z"
   id="path25"
   style="fill:#ffffff" />
<path
   d="M 66,10.3 C 67.4,10.3 68.5,11.5 68.5,12.8 C 68.5,14.2 67.4,15.3 66,15.3 C 64.6,15.3 63.5,14.2 63.5,12.8 C 63.5,11.5 64.6,10.3 66,10.3 z"
   id="path27"
   style="fill:#24a9a8;fill-rule:evenodd" />
<path
   d="M 22.4,75 C 23.5,75 24.4,75.9 24.4,77 C 24.4,78.1 23.5,79 22.4,79 C 21.3,79 20.4,78.1 20.4,77 C 20.4,75.9 21.3,75 22.4,75 z"
   id="path29"
   style="fill:#ffffff;fill-rule:evenodd" />
<path
   d="M 44,112 C 45.1,112 46,113 46,114 C 46,115 45.1,116 44,116 C 42.9,116 42,115 42,114 C 42,113 42.9,112 44,112 z"
   id="path31"
   style="fill:#24a9a8;fill-rule:evenodd" />
<path
   d="M 133,83 C 135,83 137,84.8 137,87 C 137,89.2 135,91 133,91 C 131,91 129,89.2 129,87 C 129,84.8 131,83 133,83 z"
   id="path33"
   style="fill:#ffffff;fill-rule:evenodd" />
<g
   id="g35"
   style="fill:#000000;fill-opacity:1">
	<path
   d="M 43.4,153 C 43.4,155 43.2,156 42.7,157 C 42.2,158 41.6,159 40.7,160 C 39.9,161 38.9,162 37.8,162 C 36.7,163 35.6,163 34.3,163 C 33.7,163 33,163 32.3,163 C 31.5,163 30.8,162 30.2,162 L 24.6,163 V 137 L 30.6,136 L 30.6,146 C 31.2,145 31.9,145 32.7,144 C 33.5,144 34.5,144 35.7,144 C 36.8,144 37.8,144 38.8,144 C 39.7,145 40.6,145 41.2,146 C 41.9,147 42.4,148 42.8,149 C 43.2,150 43.4,152 43.4,153 z M 37.4,153 C 37.4,152 37.1,151 36.4,150 C 35.8,149 34.9,148 33.6,148 C 33,148 32.4,149 31.9,149 C 31.5,149 31,149 30.6,150 V 158 C 31.4,158 32.3,158 33.4,158 C 34.6,158 35.6,158 36.3,157 C 37,156 37.4,155 37.4,153 z"
   id="path37"
   style="fill:#000000;fill-opacity:1" />
	<path
   d="M 65.2,153 C 65.2,155 64.9,156 64.4,157 C 63.9,158 63.2,160 62.3,160 C 61.4,161 60.4,162 59.2,162 C 58,163 56.7,163 55.3,163 C 54,163 52.7,163 51.5,162 C 50.4,162 49.3,161 48.5,160 C 47.6,160 47,159 46.5,157 C 46,156 45.7,155 45.7,153 C 45.7,152 46,150 46.5,149 C 47,148 47.7,147 48.6,146 C 49.5,145 50.5,145 51.7,144 C 52.9,144 54.2,144 55.6,144 C 57,144 58.2,144 59.4,144 C 60.6,145 61.6,145 62.4,146 C 63.3,147 64,148 64.5,149 C 64.9,150 65.2,152 65.2,153 z M 59.2,153 C 59.2,152 58.9,151 58.3,150 C 57.6,149 56.7,148 55.4,148 C 54.2,148 53.2,149 52.6,150 C 52,151 51.7,152 51.7,153 C 51.7,155 52,156 52.6,157 C 53.3,158 54.2,158 55.5,158 C 56.7,158 57.6,158 58.3,157 C 58.9,156 59.2,155 59.2,153 z"
   id="path39"
   style="fill:#000000;fill-opacity:1" />
	<path
   d="M 80.3,162 V 152 C 80.3,151 80.1,150 79.6,149 C 79.2,149 78.6,149 77.8,149 C 77.1,149 76.5,149 75.9,149 C 75.4,149 74.9,150 74.5,150 V 162 H 68.5 V 145 L 74.5,144 L 74.5,147 C 75.3,146 76.2,145 77.2,144 C 78.3,144 79.4,144 80.5,144 C 82.4,144 83.8,144 84.8,145 C 85.8,146 86.4,148 86.4,150 V 162 H 80.3 z"
   id="path41"
   style="fill:#000000;fill-opacity:1" />
	<path
   d="M 105,157 C 105,158 105,159 105,159 C 104,160 104,161 103,161 C 102,162 102,162 101,162 C 99.5,163 98.3,163 97,163 C 96.4,163 95.7,163 95,163 C 94.3,163 93.6,163 92.9,163 C 92.3,162 91.6,162 91,162 C 90.3,162 89.8,162 89.3,161 L 90.5,157 C 91.6,158 92.7,158 93.8,158 C 94.9,159 96.1,159 97.1,159 C 98.8,159 99.6,158 99.6,157 C 99.6,157 99.3,156 98.8,156 C 98.3,156 97.5,156 96.5,155 C 95.5,155 94.5,155 93.6,155 C 92.8,154 92.1,154 91.5,153 C 90.9,153 90.4,152 90.1,152 C 89.8,151 89.6,150 89.6,149 C 89.6,149 89.8,148 90.1,147 C 90.5,146 91,146 91.7,145 C 92.4,145 93.2,144 94.2,144 C 95.2,144 96.3,144 97.6,144 C 98.2,144 98.8,144 99.5,144 C 100,144 101,144 102,144 C 102,144 103,144 103,145 C 104,145 105,145 105,145 L 104,149 C 103,149 102,149 101,148 C 99.4,148 98.4,148 97.5,148 C 96.1,148 95.3,148 95.3,149 C 95.3,150 95.6,150 96.1,150 C 96.7,151 97.4,151 98.4,151 C 99.5,151 100,151 101,152 C 102,152 103,152 103,153 C 104,153 104,154 105,155 C 105,155 105,156 105,157 z"
   id="path43"
   style="fill:#000000;fill-opacity:1" />
	<path
   d="M 118,160 C 118,161 117,162 116,162 C 115,163 114,163 113,163 C 112,163 112,163 111,163 C 110,162 110,162 109,161 C 109,161 108,160 108,160 C 108,159 107,159 107,158 C 107,157 108,156 108,155 C 108,155 109,154 110,153 C 111,153 112,152 113,152 C 114,152 116,152 118,151 V 151 C 118,150 118,149 117,149 C 117,149 116,148 115,148 C 114,148 113,149 112,149 C 111,149 110,150 109,150 L 108,146 C 109,145 110,145 111,144 C 113,144 114,144 116,144 C 118,144 119,144 120,144 C 121,144 122,145 122,146 C 123,146 124,147 124,148 C 124,149 124,150 124,152 L 124,157 C 124,158 124,158 124,158 C 125,158 125,158 126,158 L 125,163 C 123,163 122,163 121,162 C 120,162 119,161 118,160 H 118 z M 118,154 C 116,154 115,155 114,155 C 114,156 113,156 113,157 C 113,158 113,158 114,158 C 114,159 115,159 115,159 C 116,159 117,159 117,159 C 118,158 118,158 118,158 V 154 z"
   id="path45"
   style="fill:#000000;fill-opacity:1" />
	<path
   d="M 135,138 C 135,139 135,140 134,141 C 133,141 133,142 131,142 C 130,142 129,141 129,141 C 128,140 128,139 128,138 C 128,137 128,137 129,136 C 129,135 130,135 131,135 C 133,135 133,135 134,136 C 135,137 135,137 135,138 z M 128,162 V 145 L 134,144 V 162 H 128 z"
   id="path47"
   style="fill:#000000;fill-opacity:1" />
</g>
</svg>