<?xml version="1.0" encoding="UTF-8" standalone="no"?>
<!-- Created with Inkscape (http://www.inkscape.org/) -->

<svg
   xmlns:dc="http://purl.org/dc/elements/1.1/"
   xmlns:cc="http://creativecommons.org/ns#"
   xmlns:rdf="http://www.w3.org/1999/02/22-rdf-syntax-ns#"
   xmlns:svg="http://www.w3.org/2000/svg"
   xmlns="http://www.w3.org/2000/svg"
   version="1.1"
   width="500"
   height="450"
   viewBox="0 0 500 450"
   id="Layer_1"
   xml:space="preserve"><metadata
   id="metadata97"><rdf:RDF><cc:Work
       rdf:about=""><dc:format>image/svg+xml</dc:format><dc:type
         rdf:resource="http://purl.org/dc/dcmitype/StillImage" /><dc:title></dc:title></cc:Work></rdf:RDF></metadata><defs
   id="defs95" />
<path
   d="M 278,81.4 C 385,81.4 471,158 471,253 C 471,347 385,424 278,424 C 171,424 83.7,347 83.7,253 C 83.7,158 171,81.4 278,81.4 z"
   id="path3"
   style="fill:#2b343d;fill-rule:evenodd" />
<path
   d="M 336,94.6 C 349,98.1 358,108 356,116 C 353,125 341,129 328,125 C 314,122 306,112 308,104 C 310,95.1 323,91 336,94.6 z"
   id="path5"
   style="fill:#525861;fill-rule:evenodd" />
<path
   d="M 161,126 C 168,126 174,130 174,136 C 174,142 168,147 161,147 C 154,147 147,142 147,136 C 147,130 154,126 161,126 z"
   id="path7"
   style="fill:#525861;fill-rule:evenodd" />
<path
   d="M 188,366 C 195,369 199,375 196,381 C 194,386 186,388 180,385 C 173,382 169,375 172,370 C 174,364 182,362 188,366 z"
   id="path9"
   style="fill:#525861;fill-rule:evenodd" />
<path
   d="M 274,90.6 C 177,90.6 98.2,160 98.2,246 C 98.2,332 177,401 274,401 C 371,401 449,332 449,246 C 449,160 371,90.6 274,90.6 z M 152,306 C 149,308 145,306 143,302 C 140,298 140,294 142,292 C 144,290 149,292 151,296 C 154,300 154,304 152,306 z M 207,199 C 206,200 203,200 201,199 C 199,197 198,195 200,194 C 201,192 204,192 206,194 C 208,195 209,197 207,199 z M 213,120 C 210,122 207,122 206,121 C 205,119 206,116 209,114 C 212,112 215,112 216,114 C 218,116 216,119 213,120 z M 362,348 C 358,350 354,350 352,348 C 350,346 351,342 355,340 C 359,337 363,337 365,339 C 367,342 366,345 362,348 z M 411,213 C 410,216 406,217 402,215 C 398,212 396,208 398,204 C 399,201 403,200 407,203 C 411,205 413,210 411,213 z M 430,263 C 428,264 426,264 425,262 C 424,260 425,257 427,256 C 429,254 431,255 432,257 C 433,258 432,261 430,263 z"
   id="path11"
   style="fill:#535862;fill-rule:evenodd" />
<ellipse
   cx="161"
   cy="179"
   rx="6.2"
   ry="4.84"
   transform="matrix(0.983,0.186,-0.186,0.983,36,-26.8)"
   id="ellipse13"
   style="fill:#616870;fill-rule:evenodd" />
<ellipse
   cx="297"
   cy="370"
   rx="5.84"
   ry="5.58"
   id="ellipse15"
   style="fill:#616870;fill-rule:evenodd" />
<ellipse
   cx="371"
   cy="250"
   rx="4.01"
   ry="3.05"
   id="ellipse17"
   style="fill:#616870;fill-rule:evenodd" />
<ellipse
   cx="203"
   cy="324"
   rx="6.19"
   ry="4.74"
   id="ellipse19"
   style="fill:#616870;fill-rule:evenodd" />
<path
   d="M 312,384 C 321,383 329,387 328,393 C 328,399 320,405 311,407 C 301,408 294,404 294,398 C 295,392 303,386 312,384 z"
   id="path21"
   style="fill:#2b343d;fill-rule:evenodd;stroke:#515962;stroke-width:4;stroke-miterlimit:10" />
<path
   d="M 92.9,250 C 94.3,243 99,239 104,240 C 108,242 111,250 109,257 C 108,264 103,269 98.6,267 C 94.1,265 91.6,258 92.9,250 z"
   id="path23"
   style="fill:#2b343d;fill-rule:evenodd;stroke:#515962;stroke-width:4;stroke-miterlimit:10" />
<path
   d="M 270,86.8 C 277,86.5 282,90.5 283,95.6 C 283,101 278,105 272,105 C 265,106 260,102 260,96.6 C 259,91.4 264,87 270,86.8 z"
   id="path25"
   style="fill:#2b343d;fill-rule:evenodd;stroke:#515962;stroke-width:4;stroke-miterlimit:10" />
<path
   d="M 213,42.1 C 213,42.1 214,43.7 216,44.4 C 219,45.1 224,44.7 229,47.1 C 233,49.5 233,53.8 233,55.2 C 233,56.6 231,56.9 231,56.9 C 231,56.9 232,59.3 228,59.5 C 215,58.2 213,42.1 213,42.1 z"
   id="path27"
   style="opacity:0.56;fill:#09796f" />
<path
   d="M 234,24 C 234,24 234,25.3 235,26.9 C 236,28.5 238,30.7 240,34.3 C 241,37.8 239,40.1 238,40.7 C 237,41.2 236,40.6 236,40.6 C 236,40.6 235,42.1 233,40.4 C 227,33.3 234,24 234,24 z"
   id="path29"
   style="opacity:0.56;fill:#09796f" />
<path
   d="M 255,25.5 C 255,25.5 254,26 254,27.6 C 253,29.1 253,32.5 251,35.3 C 249,38.2 247,38 246,37.7 C 245,37.4 245,36.4 245,36.4 C 245,36.4 243,36.6 243,34.2 C 245,25.8 255,25.5 255,25.5 z"
   id="path31"
   style="opacity:0.56;fill:#09796f" />
<path
   d="M 263,45.3 C 263,45.3 263,47.4 260,49 C 257,50.5 251,51.4 246,55.6 C 241,59.7 242,64.9 243,66.5 C 244,68.1 246,68 246,68 C 246,68 246,71 250,70.2 C 265,65.1 263,45.3 263,45.3 z"
   id="path33"
   style="opacity:0.56;fill:#09796f" />
<path
   d="M 253,87.5 C 253,87.5 250,86.8 246,83.6 C 242,80.4 236,61.3 241,48.7 C 245,36.1 248,32.4 248,32.4 C 248,32.4 245,34.1 238,47.6 C 231,61.2 238,79.8 239,82.7 C 239,85.5 235,87.5 235,87.5 H 253 z"
   id="path35"
   style="fill:#2a353c" />
<path
   d="M 239,73.5 C 239,73.5 246,68.6 249,66.2 C 252,63.8 257,57.6 257,57.6 C 257,57.6 250,63.7 246,65.7 C 242,67.8 237,68.7 237,68.7 L 239,73.5 z"
   id="path37"
   style="fill:#2a353c" />
<path
   d="M 239,64.4 C 239,64.4 235,59.4 233,57.3 C 231,55.3 226,52 226,52 C 226,52 231,56.9 233,59.9 C 235,62.8 236,66 236,66 L 239,64.4 z"
   id="path39"
   style="fill:#2a353c" />
<path
   d="M 238,48.2 C 238,48.2 237,43 236,40.7 C 236,38.3 235,33.4 235,33.4 C 235,33.4 237,39.2 238,41.8 C 239,44.4 241,46.6 241,46.6 L 238,48.2 z"
   id="path41"
   style="fill:#2a353c" />
<path
   d="M 181,93.9 C 181,92.9 179,93.9 179,93.9 H 176 L 177,89.9 L 177,89.5 C 177,89.8 176,89.9 176,89.9 C 174,89.9 172,88.8 172,87.4 V 86.4 C 172,85.2 174,84.2 175,84 L 175,83.9 C 175,83.9 176,81.7 173,81.9 C 170,82.2 168,85.1 168,88.9 C 168,90.3 167,90.9 167,90.9 V 102 C 167,102 168,102 169,103 C 170,103 170,105 170,106 C 170,107 170,110 170,110 H 176 C 176,110 178,96.9 177,96.9 C 177,96.9 180,95.9 180,95.9 H 181 C 181,95.9 182,94.9 181,93.9 z"
   id="path43"
   style="fill:#2a353c;fill-rule:evenodd" />
<path
   d="M 192,84.1 L 191,76.1 C 191,76.1 189,77.1 186,77.1 C 183,77.1 180,76.1 180,76.1 V 105 H 181 V 85.1 C 181,85.1 183,86.7 187,84.6 C 189,83.3 192,84.1 192,84.1 z"
   id="path45"
   style="fill:#2a353c;fill-rule:evenodd" />























</svg>