<?xml version="1.0" encoding="utf-8"?>
<!-- Generator: Adobe Illustrator 15.1.0, SVG Export Plug-In . SVG Version: 6.00 Build 0)  -->
<!DOCTYPE svg PUBLIC "-//W3C//DTD SVG 1.1//EN" "http://www.w3.org/Graphics/SVG/1.1/DTD/svg11.dtd">
<svg version="1.1" id="Layer_1" xmlns="http://www.w3.org/2000/svg" xmlns:xlink="http://www.w3.org/1999/xlink" x="0px" y="0px"
	 width="30px" height="30px" viewBox="0 0 30 30" enable-background="new 0 0 30 30" xml:space="preserve">
<path fill="#A4ADB5" d="M15.001,4c0.735,0,1.332,0.597,1.332,1.333v19.333c0,0.736-0.597,1.334-1.332,1.334
	c-0.737,0-1.334-0.598-1.334-1.334V5.333C13.667,4.597,14.264,4,15.001,4z"/>
<path fill="#A4ADB5" d="M23,4c0.736,0,1.333,0.597,1.333,1.333v19.333C24.333,25.402,23.736,26,23,26s-1.333-0.598-1.333-1.334
	V5.333C21.667,4.597,22.264,4,23,4z"/>
<path fill="#A4ADB5" d="M7.001,4c0.736,0,1.332,0.597,1.332,1.333v19.333C8.333,25.402,7.737,26,7.001,26
	c-0.737,0-1.334-0.598-1.334-1.334V5.333C5.667,4.597,6.264,4,7.001,4z"/>
</svg>
