<?xml version="1.0" encoding="utf-8"?>
<!-- Generator: Adobe Illustrator 15.1.0, SVG Export Plug-In . SVG Version: 6.00 Build 0)  -->
<!DOCTYPE svg PUBLIC "-//W3C//DTD SVG 1.1//EN" "http://www.w3.org/Graphics/SVG/1.1/DTD/svg11.dtd">
<svg version="1.1" id="Layer_1" xmlns="http://www.w3.org/2000/svg" xmlns:xlink="http://www.w3.org/1999/xlink" x="0px" y="0px"
	 width="150px" height="80px" viewBox="0 0 150 80" enable-background="new 0 0 150 80" xml:space="preserve">
<g>
	<path fill="none" stroke="#9AA3A9" stroke-width="2" stroke-linecap="round" stroke-miterlimit="10" d="M3.563,54.119
		c0,0,14-11,29,0s29.334,0,29.334,0s18.666-10.334,34,0"/>
	<path fill="none" stroke="#9AA3A9" stroke-width="2" stroke-linecap="round" stroke-miterlimit="10" d="M3.088,44.119
		c0,0,14-11,29,0s29.334,0,29.334,0s18.111-10.333,33.445,0"/>
	<path fill="none" stroke="#9AA3A9" stroke-width="2" stroke-linecap="round" stroke-miterlimit="10" d="M3.088,34.119
		c0,0,14-11,29,0s29.334,0,29.334,0s18.666-10.333,34,0"/>
	<path fill="none" stroke="#9AA3A9" stroke-width="2" stroke-linecap="round" stroke-miterlimit="10" d="M3.088,24.119
		c0,0,14-11,29,0s29.334,0,29.334,0s18.666-10.333,34,0"/>
	<circle fill="none" stroke="#9AA2A8" stroke-width="5" stroke-miterlimit="10" cx="118.907" cy="40.077" r="25.521"/>
	<path fill="#9AA2A8" d="M95.422,40.932c3.456,0.562,8.167,1.801,13.684,4.467c0.472-0.9,1.299-2.483,1.725-3.297
		c0.62-1.188-0.598-1.89-0.811-2c-0.021-0.009-0.029-0.015-0.029-0.015s-2.354-1.23-5.202-2.719
		c-4.706-2.46-2.765-6.176-2.765-6.176l2.203-4.21c0,0,3.838,2.007,8.174,4.273c4.953,2.588,2.52,7.243,2.52,7.243l-4.066,7.778
		c5.058,2.645,10.707,6.479,16.633,12.043c0,0,0.123,0.675-0.528,0.562c0,0-15.94-12.598-29.774-10.492 M132.29,37.754
		c0,0-2.259,4.322-7.733,1.461c-3.313-1.733-6.051-3.164-6.051-3.164s-0.012-0.007-0.035-0.019c-0.146-0.076-0.713-0.335-1.3-0.271
		c-0.036-1.39-0.5-2.65-1.338-3.723l0.918-1.753c0,0,2.829-5.414,8.591-2.402c5.042,2.636,9.51,4.971,9.51,4.971L132.29,37.754z"/>
</g>
</svg>
